<svg xmlns="http://www.w3.org/2000/svg" xmlns:xlink="http://www.w3.org/1999/xlink" width="500" zoomAndPan="magnify" viewBox="0 0 375 374.999991" height="500" preserveAspectRatio="xMidYMid meet" version="1.0"><defs><g/><clipPath id="c2dcdd2523"><path d="M 0 0.363281 L 375 0.363281 L 375 375 L 0 375 Z M 0 0.363281 " clip-rule="nonzero"/></clipPath></defs><g clip-path="url(#c2dcdd2523)"><path fill="#048fbc" d="M 374.636719 187.679688 C 374.636719 291.132812 290.773438 375 187.316406 375 C 83.863281 375 0 291.132812 0 187.679688 C 0 84.226562 83.863281 0.363281 187.316406 0.363281 C 290.773438 0.363281 374.636719 84.226562 374.636719 187.679688 " fill-opacity="1" fill-rule="nonzero"/></g><path fill="#ffffff" d="M 316.542969 113.058594 L 286.777344 83.292969 L 138.066406 232 L 79.707031 173.640625 L 49.941406 203.40625 L 138.066406 291.53125 L 316.542969 113.058594 " fill-opacity="1" fill-rule="nonzero"/><g fill="#00a2fb" fill-opacity="1"><g transform="translate(187.499992, 155.987039)"><g><path d="M 2.109375 0.078125 C 1.804688 0.078125 1.566406 -0.00390625 1.390625 -0.171875 C 1.222656 -0.335938 1.140625 -0.5625 1.140625 -0.84375 C 1.140625 -1.113281 1.222656 -1.332031 1.390625 -1.5 C 1.566406 -1.675781 1.804688 -1.765625 2.109375 -1.765625 C 2.410156 -1.765625 2.644531 -1.679688 2.8125 -1.515625 C 2.988281 -1.347656 3.078125 -1.128906 3.078125 -0.859375 C 3.078125 -0.578125 2.988281 -0.347656 2.8125 -0.171875 C 2.632812 -0.00390625 2.398438 0.078125 2.109375 0.078125 Z M 2.109375 0.078125 "/></g></g></g></svg>