<svg width="49" height="49" viewBox="0 0 49 49" fill="none" xmlns="http://www.w3.org/2000/svg">
<g filter="url(#filter0_dd_585_1136)">
<rect x="2" y="2" width="45" height="45" rx="8" fill="#2169A5"/>
<rect x="2.5" y="2.5" width="44" height="44" rx="7.5" stroke="#F0F9FF"/>
<path d="M32.7311 20.3933C32.6416 16.6773 29.5972 13.6802 25.8597 13.6802L24.1397 13.6802C20.4021 13.6802 17.3577 16.6773 17.2683 20.3933C15.7237 21.286 14.6797 22.9518 14.6797 24.8602C14.6797 26.7651 15.7203 28.4283 17.2597 29.3219V30.0202C17.2597 32.3912 19.1887 34.3202 21.5597 34.3202H24.9997C25.4744 34.3202 25.8597 33.9349 25.8597 33.4602C25.8597 32.9855 25.4744 32.6002 24.9997 32.6002H21.5597C20.1372 32.6002 18.9797 31.4426 18.9797 30.0202V29.9428C19.26 29.9901 19.5464 30.0202 19.8397 30.0202C20.1837 30.0202 20.5311 29.9849 20.87 29.9161C21.2716 29.8353 21.5597 29.4827 21.5597 29.0733L21.5597 20.647C21.5597 20.2377 21.2716 19.8851 20.87 19.8042C20.5311 19.7354 20.1837 19.7002 19.8397 19.7002C19.5696 19.7002 19.3065 19.7277 19.0468 19.7673C19.4303 17.2982 21.5648 15.4002 24.1397 15.4002L25.8597 15.4002C28.4345 15.4002 30.569 17.2982 30.9526 19.7673C30.6929 19.7277 30.4297 19.7002 30.1597 19.7002C29.8157 19.7002 29.4682 19.7354 29.1294 19.8042C28.7278 19.8851 28.4397 20.2377 28.4397 20.647L28.4397 29.0742C28.4397 29.4835 28.7278 29.8361 29.1294 29.917C29.4682 29.9849 29.8157 30.0202 30.1597 30.0202C33.0054 30.0202 35.3197 27.7059 35.3197 24.8602C35.3197 22.9518 34.2756 21.286 32.7311 20.3933Z" fill="white"/>
</g>
<defs>
<filter id="filter0_dd_585_1136" x="0" y="0" width="49" height="49" filterUnits="userSpaceOnUse" color-interpolation-filters="sRGB">
<feFlood flood-opacity="0" result="BackgroundImageFix"/>
<feColorMatrix in="SourceAlpha" type="matrix" values="0 0 0 0 0 0 0 0 0 0 0 0 0 0 0 0 0 0 127 0" result="hardAlpha"/>
<feOffset/>
<feGaussianBlur stdDeviation="0.5"/>
<feColorMatrix type="matrix" values="0 0 0 0 0.0901961 0 0 0 0 0.101961 0 0 0 0 0.121569 0 0 0 0.07 0"/>
<feBlend mode="normal" in2="BackgroundImageFix" result="effect1_dropShadow_585_1136"/>
<feColorMatrix in="SourceAlpha" type="matrix" values="0 0 0 0 0 0 0 0 0 0 0 0 0 0 0 0 0 0 127 0" result="hardAlpha"/>
<feOffset/>
<feGaussianBlur stdDeviation="1"/>
<feColorMatrix type="matrix" values="0 0 0 0 0.0901961 0 0 0 0 0.101961 0 0 0 0 0.121569 0 0 0 0.12 0"/>
<feBlend mode="normal" in2="effect1_dropShadow_585_1136" result="effect2_dropShadow_585_1136"/>
<feBlend mode="normal" in="SourceGraphic" in2="effect2_dropShadow_585_1136" result="shape"/>
</filter>
</defs>
</svg>
