<svg width="49" height="49" viewBox="0 0 49 49" fill="none" xmlns="http://www.w3.org/2000/svg">
<g filter="url(#filter0_dd_464_579)">
<rect x="2" y="2" width="45" height="45" rx="10" fill="#2169A5"/>
<rect x="2.5" y="2.5" width="44" height="44" rx="9.5" stroke="#F0F9FF"/>
<path d="M33.5558 25.3824L27.5797 23.3897V18.6099L29.5723 17.9451C29.9232 17.8281 30.1597 17.4996 30.1597 17.1298V14.5498L19.8397 14.5498V17.1298C19.8397 17.4996 20.0762 17.8281 20.4271 17.9451L22.4197 18.6099V23.3906L16.4435 25.3824C15.39 25.7332 14.6797 26.7188 14.6797 27.8291V30.0298L35.3197 30.0298V27.8291C35.3197 26.7188 34.6093 25.7332 33.5558 25.3824Z" fill="white"/>
<path d="M33.6004 31.71L16.4004 31.71V33.43L33.6004 33.43V31.71Z" fill="white"/>
</g>
<defs>
<filter id="filter0_dd_464_579" x="0" y="0" width="49" height="49" filterUnits="userSpaceOnUse" color-interpolation-filters="sRGB">
<feFlood flood-opacity="0" result="BackgroundImageFix"/>
<feColorMatrix in="SourceAlpha" type="matrix" values="0 0 0 0 0 0 0 0 0 0 0 0 0 0 0 0 0 0 127 0" result="hardAlpha"/>
<feOffset/>
<feGaussianBlur stdDeviation="0.5"/>
<feColorMatrix type="matrix" values="0 0 0 0 0.0901961 0 0 0 0 0.101961 0 0 0 0 0.121569 0 0 0 0.07 0"/>
<feBlend mode="normal" in2="BackgroundImageFix" result="effect1_dropShadow_464_579"/>
<feColorMatrix in="SourceAlpha" type="matrix" values="0 0 0 0 0 0 0 0 0 0 0 0 0 0 0 0 0 0 127 0" result="hardAlpha"/>
<feOffset/>
<feGaussianBlur stdDeviation="1"/>
<feColorMatrix type="matrix" values="0 0 0 0 0.0901961 0 0 0 0 0.101961 0 0 0 0 0.121569 0 0 0 0.12 0"/>
<feBlend mode="normal" in2="effect1_dropShadow_464_579" result="effect2_dropShadow_464_579"/>
<feBlend mode="normal" in="SourceGraphic" in2="effect2_dropShadow_464_579" result="shape"/>
</filter>
</defs>
</svg>
