<?xml version="1.0" encoding="utf-8"?>
<!-- Generator: Adobe Illustrator 27.2.0, SVG Export Plug-In . SVG Version: 6.00 Build 0)  -->
<svg version="1.1" id="Layer_1" xmlns="http://www.w3.org/2000/svg" xmlns:xlink="http://www.w3.org/1999/xlink" x="0px" y="0px"
	 viewBox="0 0 4432 631" style="enable-background:new 0 0 4432 631;" xml:space="preserve">
<style type="text/css">
	.st0{fill:#FFFFFF;}
	.st1{fill:#172554;}
</style>
<ellipse class="st0" cx="317" cy="315.4" rx="307.2" ry="307.5"/>
<g>
	<g>
		<path class="st1" d="M291.9,271.1l-12.3-26.7l-37.9-82.3h-2.3L122,416.9h42.4l17-37.9h118.1l10.7,23.9
			c5.4-5.5,10.6-10.9,15.4-16.2c4.5-5,8.7-9.9,12.6-14.8L291.9,271.1z M196.7,345.3l44-97.5l8.8,19.6l19.2,42.7l15.9,35.3H196.7z"/>
	</g>
	<g>
		<path class="st0" d="M316.1,415.7l-0.6,1.2h1.1L316.1,415.7z"/>
		<path class="st1" d="M378.1,377.8h113v39h-152c2.5-2.7,5-5.4,7.5-8.1c2-2.1,3.9-4.3,5.7-6.4c7.2-8.3,13.7-16.8,19.6-25.3
			c7.3-10.8,13.3-21.6,17.8-32.5c4.5-10.9,6.8-22.2,6.8-33.9c0-9.8-1.9-19.1-5.8-27.9c-0.5-1.1-1-2.1-1.5-3.1l39.5-73.5H315.5v-38.9
			h175.6L378.1,377.8z"/>
	</g>
	<g>
		<g>
			<path class="st1" d="M272.5,329.4c-2.4-5.7-3.7-12.1-3.9-19.4l-19.2-42.7c-3.3,4.4-6,9.3-8.1,14.5c-3.5,8.7-5.2,17.7-5.2,27
				c0,4.4,0.6,9.3,1.9,14.6c1.3,5.3,3.2,10.4,5.6,15.4c1.1,2.2,2.2,4.4,3.5,6.4h36.4C278.7,340.7,275,335.4,272.5,329.4z
				 M316.1,415.7l-0.6,1.2h1.1L316.1,415.7z"/>
			<path class="st1" d="M316.9,440.2c7.6-7.8,15-15.6,22.3-23.3c2.5-2.7,5-5.4,7.5-8.1c2-2.1,3.9-4.3,5.7-6.4
				c7.2-8.3,13.7-16.8,19.6-25.3c7.3-10.8,13.3-21.6,17.8-32.5c4.5-10.9,6.8-22.2,6.8-33.9c0-9.8-1.9-19.1-5.8-27.9
				c-0.5-1.1-1-2.1-1.5-3.1c-3.7-7.5-8.7-14.2-14.8-20.1c-7-6.7-15.3-12-25.1-16c-9.8-4-20.6-6-32.5-6c-13.1,0-24.7,1.9-34.8,5.8
				c-0.8,0.3-1.7,0.7-2.5,1l12.3,26.7c0.3-0.2,0.7-0.3,1-0.5c6.2-3,14.2-4.6,24-4.6c4.6,0,9.7,0.9,15.3,2.8
				c5.5,1.9,10.7,4.8,15.5,8.8c4.8,4,8.7,9,11.8,15.1c3.1,6.1,4.6,13.5,4.6,22.1c0,5.3-0.8,10.6-2.4,16.1v0c-1.7,6-4.4,12.2-8,18.4
				c-3,5.3-6.5,10.6-10.5,16c0,0,0,0,0,0c-1.5,2.1-3.1,4.2-4.8,6.3c-3.8,4.9-8,9.8-12.6,14.8c-4.8,5.3-10,10.7-15.4,16.2
				c-7.6,7.7-15.7,15.5-24.4,23.4c-14.9,13.7-30.4,27.8-46.4,42.3h171.2v-28.4H316.9z M315.5,416.9l0.6-1.2l0.5,1.2H315.5z"/>
		</g>
	</g>
</g>
<g>
	<path class="st0" d="M831.6,131.3v366.1h-49.1V131.3H831.6z"/>
	<path class="st0" d="M1301,119.6v377.7h-48.6v-237l-134.7,190.9h-1L984.5,267v230.4h-47.6V119.6h0.5l180.3,255.2l182.8-255.2H1301z
		"/>
	<path class="st0" d="M1770.3,119.6v377.7h-48.6v-237L1587,451.3h-1L1453.9,267v230.4h-47.6V119.6h0.5L1587,374.8l182.8-255.2
		H1770.3z"/>
	<path class="st0" d="M1924.8,131.3v366.1h-49.1V131.3H1924.8z"/>
	<path class="st0" d="M2264.8,490.3c-23.8,7.4-45.8,11.1-66.1,11.1c-38.1,0-71.7-7.8-100.8-23.5c-29-15.7-51.4-37.2-67.1-64.6
		c-15.7-27.3-23.5-58.1-23.5-92.2c0-39.8,8.4-74.3,25.3-103.5c16.9-29.2,39.7-51.6,68.4-67.1c28.7-15.5,60.1-23.3,94.2-23.3
		c20.6,0,40,2.5,58.2,7.3c18.2,4.9,34.6,11.4,49.1,19.5l-16.2,45.1c-10.8-6.1-24.4-11.4-40.8-15.9c-16.4-4.6-31.1-6.8-44.3-6.8
		c-28.4,0-53.4,5.7-75.2,17.2c-21.8,11.5-38.6,27.8-50.4,49.1c-11.8,21.3-17.7,46.1-17.7,74.4c0,26.3,5.9,49.8,17.7,70.4
		c11.8,20.6,28.5,36.5,50.1,47.8c21.6,11.3,46.2,17,73.9,17c12.8,0,25.3-1.3,37.5-3.8c12.2-2.5,22.3-6.2,30.4-10.9v-72.4h-72.9
		v-47.1h122.5V466C2306,474.7,2288.6,482.8,2264.8,490.3z"/>
	<path class="st0" d="M2612.4,497.3l-86.1-135.2c-2.7,0.3-6.8,0.5-12.2,0.5H2460v134.7h-49.1V131.3h97.7c25,0,47.3,4.4,66.8,13.2
		c19.6,8.8,34.9,21.7,46.1,38.7c11.1,17,16.7,37.6,16.7,61.5c0,22.6-5,43.4-14.9,62.3c-10,18.9-25.2,33.3-45.8,43l92.2,147.3H2612.4
		z M2570.1,294.3c11.6-13.8,17.5-29.7,17.5-47.6c0-10.8-2.5-21.4-7.3-31.9c-4.9-10.5-12.7-19.2-23.3-26.1
		c-10.6-6.9-24.1-10.4-40.3-10.4H2460v136.7h53.2C2539.5,315.1,2558.4,308.1,2570.1,294.3z"/>
	<path class="st0" d="M2936.9,401.1h-140.8l-39,96.2h-48.6l160-381.3h3l160,381.3h-56.7L2936.9,401.1z M2920.2,358.6l-52.2-133.7
		l-54.2,133.7H2920.2z"/>
	<path class="st0" d="M3287.3,131.3v47.1h-98.2v319H3140v-319h-95.7v-47.1H3287.3z"/>
	<path class="st0" d="M3414.9,131.3v366.1h-49.1V131.3H3414.9z"/>
	<path class="st0" d="M3522.8,221.4c16.9-28.7,39.6-51.6,68.1-68.6c28.5-17,59.7-25.6,93.4-25.6c33.4,0,64.5,8.5,93.2,25.6
		c28.7,17,51.6,39.9,68.6,68.6c17,28.7,25.6,59.7,25.6,93.2c0,33.8-8.4,65-25.3,93.7c-16.9,28.7-39.7,51.4-68.6,68.1
		c-28.9,16.7-60,25.1-93.4,25.1c-33.8,0-65-8.3-93.7-24.8c-28.7-16.5-51.4-39.1-68.1-67.6c-16.7-28.5-25.1-60-25.1-94.4
		C3497.5,281.1,3505.9,250.1,3522.8,221.4z M3566.3,384.4c12.2,21.3,28.8,38.1,49.9,50.6c21.1,12.5,44.1,18.7,69.1,18.7
		c25,0,47.8-6.2,68.6-18.5c20.8-12.3,37.1-29.2,49.1-50.6c12-21.4,18-44.8,18-70.1c0-25.3-6.1-48.8-18.2-70.4
		c-12.2-21.6-28.7-38.6-49.6-51.1c-20.9-12.5-43.9-18.7-68.9-18.7c-25,0-47.9,6.3-68.9,19c-20.9,12.7-37.4,29.8-49.4,51.4
		c-12,21.6-18,45.1-18,70.4C3548.1,340,3554.2,363.2,3566.3,384.4z"/>
	<path class="st0" d="M4273.2,131.3v378.2h-1.5l-268.9-272.9l1,260.8h-49.6V120.1h2.5l268.4,276l-1-264.8H4273.2z"/>
</g>
</svg>
