<?xml version="1.0" encoding="UTF-8"?>
<svg id="Layer_2" data-name="Layer 2" xmlns="http://www.w3.org/2000/svg" viewBox="0 0 4432.45 631.56">
  <defs>
    <style>
      .cls-1 {
        fill: #fff;
      }

      .cls-2 {
        fill: #0f699a;
        font-family: JosefinSans-Regular, 'Josefin Sans';
        font-size: 520px;
      }

      .cls-3 {
        fill: #57d7ff;
      }

      .cls-4 {
        fill: #107fab;
      }
    </style>
  </defs>
  <g id="Layer_1-2" data-name="Layer 1">
    <ellipse class="cls-4" cx="315.5" cy="315.78" rx="315.5" ry="315.78"/>
    <g>
      <path class="cls-1" d="m289.72,270.33l-12.64-27.43-38.93-84.48h-2.38l-120.53,261.58h43.57l17.49-38.96h121.33l11.04,24.58c5.57-5.64,10.84-11.19,15.82-16.66,4.66-5.13,8.96-10.21,12.89-15.22l-47.65-103.4Zm-97.84,76.2l45.16-100.18,9.04,20.11,19.68,43.81,16.29,36.26h-90.16Z"/>
      <g>
        <path class="cls-1" d="m314.59,418.81l-.64,1.19h1.17l-.53-1.19Z"/>
        <path class="cls-1" d="m378.19,379.93h116.08v40.07h-156.05c2.59-2.78,5.15-5.55,7.69-8.32,2.01-2.2,3.98-4.4,5.9-6.62,7.41-8.56,14.11-17.22,20.1-26.01,7.54-11.05,13.63-22.17,18.26-33.35,4.63-11.17,6.95-22.77,6.95-34.79,0-10.09-1.99-19.64-5.96-28.66-.48-1.08-.98-2.15-1.5-3.2l40.53-75.47h-116.24v-39.91h180.32l-116.08,216.26Z"/>
      </g>
      <g>
        <path class="cls-3" d="m269.71,330.2c-2.51-5.83-3.83-12.47-3.96-19.92l-19.68-43.81c-3.4,4.57-6.17,9.53-8.32,14.88-3.58,8.89-5.36,18.14-5.36,27.76,0,4.57.66,9.55,1.98,14.96,1.32,5.41,3.24,10.69,5.76,15.87,1.1,2.27,2.31,4.47,3.62,6.6h37.4c-5-4.79-8.82-10.24-11.45-16.34Zm44.88,88.61l-.64,1.19h1.17l-.53-1.19Z"/>
        <path class="cls-3" d="m315.35,443.93c7.84-8.01,15.46-15.99,22.86-23.94,2.59-2.78,5.15-5.55,7.69-8.32,2.01-2.2,3.98-4.4,5.9-6.62,7.41-8.56,14.11-17.22,20.1-26.01,7.54-11.05,13.63-22.17,18.26-33.35,4.63-11.17,6.95-22.77,6.95-34.79,0-10.09-1.99-19.64-5.96-28.66-.48-1.08-.98-2.15-1.5-3.2-3.82-7.7-8.88-14.57-15.17-20.59-7.15-6.85-15.75-12.31-25.8-16.4-10.06-4.09-21.17-6.13-33.33-6.13-13.5,0-25.4,1.98-35.72,5.95-.86.33-1.71.67-2.55,1.02l12.64,27.43c.34-.18.68-.35,1.02-.52,6.35-3.12,14.55-4.69,24.61-4.69,4.76,0,9.98.96,15.67,2.89,5.69,1.92,10.98,4.93,15.88,9.01,4.9,4.09,8.93,9.25,12.1,15.5,3.17,6.25,4.76,13.82,4.76,22.71,0,5.4-.81,10.92-2.45,16.56h0c-1.78,6.17-4.54,12.48-8.27,18.95-3.13,5.42-6.71,10.91-10.75,16.46,0,0,0,0,0,0-1.57,2.16-3.21,4.33-4.93,6.52-3.93,5.02-8.23,10.1-12.89,15.22-4.97,5.47-10.25,11.02-15.82,16.66-7.77,7.86-16.12,15.89-25.06,24.08-15.35,14.06-31.22,28.54-47.62,43.44h175.81v-29.2h-96.44Zm-1.41-23.94l.64-1.19.53,1.19h-1.17Z"/>
      </g>
    </g>
    <text class="cls-2" transform="translate(739.41 502.69)"><tspan x="0" y="0">IMMIGRATION</tspan></text>
  </g>
</svg>