<svg width="445" height="335" viewBox="0 0 445 335" fill="none" xmlns="http://www.w3.org/2000/svg">
<path d="M222.5 0.0383286C296.199 0.0383286 369.898 0.0425328 443.596 8.57057e-07C444.742 -0.000629764 445 0.346492 445 1.88535C444.969 112.295 444.969 222.705 445 333.115C445 334.654 444.742 335 443.596 335C296.199 334.96 148.801 334.96 1.40373 335C0.258055 335 -0.000364643 334.654 5.26683e-05 333.115C0.0312988 222.705 0.0312988 112.295 5.04381e-07 1.88535C-0.000416807 0.346492 0.257951 -0.000629764 1.40368 8.57057e-07C75.1025 0.0425328 148.801 0.0383286 222.5 0.0383286Z" fill="#B5E6FF"/>
<path d="M228 41.151C228.207 40.5185 228.04 39.7448 229.088 39.7329C229.93 39.7233 229.99 38.5641 229.244 37.8414C228.89 37.498 229.207 37.235 229.307 36.9705C230.886 32.7874 236.595 29.2372 240.314 30.1422C241.375 30.4003 242.537 30.2315 243.445 31.1844C243.092 32.1543 242.406 31.9048 241.78 31.8586C239.921 31.7215 238.063 31.7577 236.207 31.9078C236.238 31.9533 236.264 31.9915 236.281 31.9892C242.265 31.139 246.849 33.3187 249 40.7733C248.719 42.2769 247.995 41.0729 247.476 41.145C246.894 40.6392 246.531 39.8843 246.049 39.2642C243.393 35.8485 240.377 35.0955 236.815 36.9904C236.494 37.1612 236.187 37.3777 235.821 37.3639C235.414 37.2007 235.074 36.5429 234.568 37.0739C233.746 37.9373 232.733 38.3167 231.754 38.7895C231.06 39.1242 230.868 39.6034 231.408 40.4136C231.959 41.2402 232.497 42.1011 232.778 43.1448C232.715 44.4608 232.746 45.79 232.396 47.063C230.33 48.7731 229.088 48.133 228.891 45.2195C228.794 43.7887 228.671 42.385 228 41.151Z" fill="#C2C0C1"/>
<path d="M228.428 41.216C229.617 41.8522 229.575 43.1846 229.717 44.3293C230.046 46.9879 230 46.9952 232.55 46.614C233.052 46.4778 233.363 46.8261 233.476 47.2595C233.896 48.87 235.067 49.7732 236.075 50.8075C238.249 53.0382 241.752 53.4352 244.286 51.8149C246.94 50.1175 248.37 46.7629 247.872 43.4299C247.761 42.6819 247.406 41.9397 247.782 41.1648C248.125 40.6149 248.527 41.6641 248.869 41.114C249.867 41.4072 249.895 42.3592 249.961 43.2354C250.048 44.3776 249.963 45.5257 249.951 46.6696C249.607 50.3826 247.449 52.4502 244.693 53.9742C239.95 56.0355 235.635 54.8695 231.726 51.5576C229.734 49.8702 228.973 47.3436 228.866 44.5756C228.858 45.0887 229.101 45.6639 228.506 45.9852C228.322 46.0184 228.158 45.9688 228.014 45.8368C227.943 44.273 228.154 42.7409 228.428 41.216Z" fill="#ADABAC"/>
<path d="M284 44.762C283.78 44.9092 283.561 45.0564 283.341 45.2038C277.555 46.5227 271.768 47.8427 265.981 49.1591C264.857 49.4149 263.729 49.6416 262.606 49.9102C261.409 50.1968 260.455 49.8499 260 48.0995C266.131 47.1294 272.164 45.3174 278.251 43.9676C279.423 43.7076 280.626 43.5952 281.761 43.1508C282.97 42.6776 283.582 43.3464 284 44.762Z" fill="#CFCCCD"/>
<path d="M249.832 45.9926C249.58 44.0195 250.343 41.9041 249.178 40.0588C247.001 33.9493 242.92 31.5177 236 32.2063C237.331 31.0751 239.63 30.7065 242.602 31.2412C243.08 31.3271 243.492 31.4117 243.912 31.1194C247.153 32.3024 249.402 34.731 250.912 38.1253C251.213 38.8038 251.319 39.6121 251.877 40.1363C251.978 40.2885 252.014 40.4596 251.995 40.6467C251.645 42.2571 251.097 43.7886 250.515 45.3063C250.384 45.6497 250.294 46.0603 249.832 45.9926Z" fill="#848282"/>
<path d="M252.051 41.2072C252.075 41.0195 252.1 40.8317 252.125 40.6441C253.539 39.7226 254.878 39.5733 256 41.6604C254.706 41.3121 253.446 42.0107 252.163 41.9999C251.944 41.805 251.989 41.5093 252.051 41.2072Z" fill="#C8C6C7"/>
<path d="M245 53.5169C244.61 55.2547 243.577 55.818 241.994 55.9474C239.307 56.1671 236.681 55.6513 234.067 55.2767C232.695 55.0802 231.707 53.5481 230.83 52.2929C229.769 50.7741 228.912 49.1188 228.705 47.1532C228.572 46.8049 228.308 46.7203 228 46.7204C228.001 46.3248 228.001 45.9293 228.002 45.5337C228.73 44.8923 228.102 43.8661 228.626 43C228.817 45.1451 229.093 47.1639 230.157 48.8578C232.329 52.3146 235.508 53.8448 239.175 54.3139C241.167 54.5687 243.099 54.1478 245 53.5169Z" fill="#8E8C8C"/>
<path d="M248.468 40.9844C249.991 46.5048 248.192 51.0237 243.73 52.5345C240.934 53.4812 238.31 53.0272 236.058 50.773C234.78 49.4937 233.702 48.0799 233 46.3435C233.086 45.0553 233.173 43.7671 233.259 42.4789C233.224 40.1692 234.704 37.8607 236.467 37.4731C241.526 34.6714 245.654 35.8792 248.468 40.9844Z" fill="#4E4C4E"/>
<path d="M236 37.0639C234.388 38.2025 233.674 40.0688 233.04 42C232.128 41.4867 231.921 40.269 231.204 39.5097C230.613 38.884 231.453 38.4711 231.885 38.2405C232.99 37.6512 234.17 37.3327 235.117 36.2795C235.741 35.5849 236.01 36.3136 236 37.0639Z" fill="#F0EEF0"/>
<path d="M245.762 49.4366C243.68 52.5989 239.295 52.832 236.885 50.1546C236.202 49.3958 234.965 49.1719 234.505 47.9889C233.782 45.4852 233.613 43.0766 235.518 41.0225C236.041 40.9045 236.2 41.2667 236.293 41.7147C236.316 42.0565 236.226 42.3778 236.137 42.7038C235.36 45.5673 236.128 47.7998 238.328 49.0914C240.574 50.4101 242.952 49.8866 244.731 47.7739C245.326 47.0666 245.455 46.038 246.206 45.4668C247.31 45.9978 247.048 46.8676 246.693 47.7623C246.454 48.3671 245.885 48.7557 245.762 49.4366Z" fill="#6F6D6D"/>
<path d="M236.314 42.1147C236.291 41.7933 236.308 41.448 236.001 41.297C235.955 39.5507 237.122 39.1464 238.018 38.4446C238.183 38.3157 238.407 38.4061 238.566 38.2387C238.337 38.2099 238.149 38.0866 238.006 37.8581C240.778 36.1524 244.063 37.0559 245.716 39.9792C247.609 43.3255 247.397 47.1434 245.16 50C245.1 48.6355 246.798 47.5175 245.519 45.9817C245.003 45.468 245.078 44.7155 245.041 44.0263C244.932 41.9896 244.162 40.5473 242.639 39.7878C240.982 38.9609 239.447 39.1749 238.027 40.6195C237.49 41.1653 237.208 42.2039 236.314 42.1147Z" fill="#929192"/>
<path d="M238.082 38C238.559 38 239.035 38 240 38C238.258 39.0667 236.639 39.529 235.926 41.2352C234.632 43.308 234.414 45.593 234.815 48C232.945 45.0929 234.401 39.4129 238.082 38Z" fill="#B3B0B1"/>
<path d="M172.671 148.57C172.581 148.243 172.492 147.915 172.403 147.587C171.372 146.576 171.279 145.231 171.318 143.838C171.16 140.318 170.082 137.01 169.364 133.626C165.729 116.474 162.01 99.3433 158.35 82.1978C157.921 80.19 157.717 78.1321 158.758 76.2286C159.644 74.6083 160.962 73.7038 162.642 73.3842C173.462 71.3249 184.28 69.2525 195.1 67.1877C195.333 67.1431 195.573 67.1383 195.81 67.115C196.228 67.0091 196.683 66.7889 196.828 67.5248C196.617 68.0645 196.101 68.3548 195.917 68.9172C195.53 70.2607 196.235 71.9169 194.969 73.0069C191.028 74.3485 186.923 74.7851 182.902 75.6878C181.035 76.107 179.146 76.4163 177.309 76.9814C175.247 77.6158 174.157 79.2178 174.025 81.6036C173.935 83.221 174.308 84.7539 174.655 86.2966C187.486 143.334 200.311 200.372 213.135 257.411C213.38 258.503 213.6 259.602 213.878 260.684C215.094 266.579 216.599 272.396 217.756 278.307C217.869 278.883 218.049 279.448 217.987 280.053C215.491 287.06 213.025 294.083 210.609 301.128C210.4 301.738 210.324 302.427 209.802 302.859C209.642 302.979 209.466 303.022 209.275 302.989C206.927 302.522 205.774 300.84 205.227 298.355C200.506 276.88 195.758 255.412 191.005 233.946C189.345 226.454 187.647 218.972 185.967 211.486C185.605 211.119 185.462 210.622 185.31 210.129C184.472 206.727 183.937 203.235 182.845 199.908C182.257 195.951 181.303 192.088 180.421 188.208C180.196 186.391 179.961 184.576 179.462 182.817C178.342 178.517 177.605 174.117 176.691 169.763C176.558 169.129 176.428 168.473 176.655 167.821C176.659 167.755 176.679 167.685 176.666 167.623C175.711 163.069 175.711 163.073 171.564 163.336C171.032 163.369 170.497 163.34 169.643 163.34C171.309 162.307 172.705 161.385 174.15 160.572C174.769 160.223 175.146 159.85 174.927 159.066C174.366 157.054 174.226 154.914 173.437 152.972C172.542 151.642 172.245 150.184 172.671 148.57Z" fill="#0065EB"/>
<path d="M209 302.508C211.447 295.199 213.897 287.892 216.333 280.579C216.444 280.246 216.57 279.991 216.87 279.873C217.866 280.364 217.719 281.567 218.117 282.431C218.523 284.204 219.347 285.549 220.976 286.114C221.425 286.269 221.814 286.573 222.12 286.996C224.309 289.462 226.769 290.377 229.919 289.573C239.484 287.131 249.089 284.888 258.711 282.755C267.473 280.813 276.212 278.737 284.979 276.821C293.973 274.856 302.969 272.9 311.961 270.928C318.947 269.396 325.957 268.002 332.961 266.578C341.001 264.943 349.082 263.559 357.086 261.701C361.331 260.715 361.415 259.447 361.548 255.251C361.622 252.934 361.603 250.48 360.835 248.202C358.589 238.892 356.453 229.548 354.27 220.218C352.058 210.761 349.72 201.343 347.537 191.877C344.717 179.647 341.613 167.503 338.726 155.293C335.673 142.382 332.525 129.502 329.506 116.58C326.368 103.148 323.232 89.7131 319.983 76.3131C318.514 70.2512 317.086 64.1734 315.748 58.0706C315.348 56.2498 314.601 54.615 313.598 53.1287C313.205 52.7516 313.121 52.3013 313.354 51.7788C314.059 51.1268 314.66 51.6456 315.281 51.9939C316.999 52.958 318.277 54.5396 319.489 56.1258C322.544 60.1246 326.051 63.6322 329.24 67.8082C328.202 62.3836 326.908 57.2314 325.735 52.0467C325.431 50.7031 325.193 49.3408 324.84 48.0094C324.659 47.3242 324.48 46.5799 325.099 46C326.922 51.5446 327.996 57.3285 329.335 63.028C331.035 70.2668 332.74 77.5039 334.444 84.7416C334.097 85.5013 334.53 86.1593 334.69 86.8333C336.497 94.4739 338.283 102.121 340.19 109.731C340.24 109.932 340.333 110.081 340.492 110.182C340.74 110.977 340.988 111.772 341.236 112.567C341.219 112.656 341.203 112.744 341.187 112.833C340.87 113.698 340.361 113.542 339.808 113.168C337.54 109.925 335.047 106.896 332.746 103.684C332.27 103.018 331.822 102.328 331.109 101.954C330.884 101.838 330.679 101.689 330.514 101.477C330.175 100.951 330.239 100.209 329.675 99.6013C329.506 100.45 329.878 101.145 329.842 101.854C330.09 106.552 331.103 111.115 331.693 115.75C331.767 116.336 331.889 116.916 331.948 117.507C331.695 119.034 332.284 120.363 332.755 121.705C336.121 131.297 339.904 140.686 343.529 150.151C348.293 162.59 353.244 174.937 357.877 187.44C358.87 190.119 359.5 192.958 360.125 195.784C361.755 203.015 363.703 210.145 365.419 217.347C368.715 231.177 372.154 244.962 375.406 258.806C376.002 261.341 376.609 263.836 374.763 266.093C374.589 266.306 374.716 266.739 374.61 267.054C373.66 268.481 372.179 268.549 370.834 268.835C363.828 270.322 356.825 271.825 349.821 273.319C322.377 279.17 294.95 285.129 267.504 290.968C249.188 294.865 230.877 298.797 212.56 302.691C211.355 302.948 210.157 303.312 209 302.508Z" fill="#2072C1"/>
<path d="M209.335 302.332C212.643 302.409 215.791 301.274 218.991 300.601C237.417 296.727 255.828 292.758 274.24 288.802C289.443 285.536 304.638 282.226 319.842 278.966C336.937 275.3 354.038 271.675 371.133 268.008C372.494 267.717 373.911 267.529 375.058 266.487C375.22 266.102 375.425 265.833 375.833 266.121C376.522 268.65 375.021 271.592 372.351 272.434C367.812 273.866 363.231 275.136 358.655 276.417C337.026 282.469 315.253 287.786 293.393 292.626C284.897 294.507 276.378 296.29 267.789 297.591C260.3 298.725 252.835 300.077 245.332 301.068C240.134 301.754 234.932 302.44 229.701 302.85C224.472 303.26 219.268 304.056 214.009 303.997C212.774 303.983 211.579 303.749 210.368 303.579C209.912 303.218 209.456 302.858 209 302.497C209.112 302.442 209.223 302.387 209.335 302.332Z" fill="#6A90DC"/>
<path d="M176.821 167.878C177.88 172.977 178.94 178.075 180 183.174C179.694 183.875 179.108 183.981 178.525 184.047C173.259 184.641 167.992 185.234 162.717 185.723C157.964 186.164 153.21 186.574 148.461 187.07C145.45 187.385 142.429 187.58 139.427 187.995C139.136 188.014 138.849 187.975 138.569 187.886C135.894 186.23 133.901 183.649 132.081 180.994C127.365 174.116 123.084 166.863 118.614 159.774C116.513 156.443 114.653 152.817 111.194 150.98C110.963 150.435 111.306 149.808 111.011 149.271C110.961 148.579 111.061 148.092 111.845 148.193C116.747 148.82 121.643 148.141 126.539 148.002C127.771 147.967 127.996 148.436 128.056 149.653C128.383 156.332 129.065 162.968 129.848 169.596C130.004 170.918 130.429 171.065 131.388 171.006C141.354 170.391 151.321 169.805 161.288 169.222C166.475 168.918 171.655 168.501 176.821 167.878Z" fill="#FD2A44"/>
<path d="M185.703 210C186.006 210.365 186.046 210.802 185.961 211.272C184.373 213.03 182.258 212.401 180.395 212.828C172.509 214.631 164.544 216.331 157.755 221.598C153.366 225.004 152.883 226.462 154.099 231.972C154.534 233.941 154.224 234.384 152.526 233.697C149.586 232.507 146.695 231.144 143.82 229.753C137.016 226.462 130.193 227.401 123.303 229.363C112.334 232.486 101.233 234.412 89.8836 233.738C85.304 233.466 81.0313 231.945 77.0217 229.434C74.1303 227.624 71.2477 225.779 69 222.907C69.5035 221.893 70.2334 221.745 71.1135 222.171C71.5168 222.634 72.0467 222.376 72.5101 222.498C72.9935 222.89 73.5291 222.635 74.0333 222.629C80.113 222.55 86.177 222.167 92.2399 221.602C96.9691 221.162 101.716 220.928 106.458 220.655C112.357 220.316 118.244 219.762 124.136 219.298C133.098 218.592 142.003 217.243 150.937 216.221C155.664 215.681 160.377 214.967 165.08 214.185C168.394 213.635 171.701 213.019 175.037 212.653C175.405 212.613 175.92 212.804 175.871 212.012C176.833 211.28 177.996 211.4 179.029 210.981C181.298 211.062 183.519 210.701 185.703 210Z" fill="#8CD9FF"/>
<path d="M120 187.95C112.354 188.113 104.774 189.165 97.1991 190.225C87.3242 191.608 77.4635 193.122 67.596 194.574C66.3003 194.764 65.018 195.182 63.6912 194.912C63.0949 194.662 62.9519 194.066 62.8803 193.452C62.3014 188.49 61.6037 183.547 61.0693 178.578C60.9981 177.915 60.9056 177.221 61.2282 176.586C64.3707 177.985 67.4918 176.813 70.5844 176.364C81.4171 174.789 92.2414 173.147 103.116 171.979C106.205 171.647 109.283 171.168 112.394 171.183C112.609 171.052 112.842 171.031 113.081 171.022C115.271 170.943 115.244 170.941 115.189 173.389C115.098 177.439 115.935 181.307 117.026 185.121C117.269 185.97 117.7 186.488 118.514 186.634C119.184 186.755 120.007 186.776 120 187.95Z" fill="#FE2944"/>
<path d="M100 168.088C90.4182 169.368 80.9632 170.736 71.509 172.115C69.2857 172.439 67.0456 172.62 64.8242 172.959C63.4372 173.17 62.1587 172.504 60.8076 172.516C60.2378 172.52 60.1926 172.071 60.1267 171.58C59.0906 163.845 58.0428 156.113 57.0032 148.379C56.9866 148.256 57.0385 148.12 57.0569 148C71.3716 154.696 85.6858 161.392 100 168.088Z" fill="#083BB5"/>
<path d="M111.383 151C113.869 151.533 115.244 153.708 116.591 155.893C121.315 163.562 126.006 171.258 130.743 178.915C132.805 182.248 135.293 185.119 138 187.732C137.595 188.489 136.918 188.382 136.304 188.456C134.331 188.693 134.186 188.807 134.369 191.005C134.763 195.762 135.209 200.513 135.563 205.273C135.763 207.951 136.192 210.613 136.07 213.317C135.94 213.991 136.1 214.98 135.217 215C134.417 215.017 134.08 214.2 133.856 213.408C132.68 209.248 131.08 205.309 129.308 201.465C128.017 198.667 126.258 196.282 124.362 194.031C122.743 192.523 121.388 190.691 119.9 189.018C118.634 187.504 118.404 185.645 118.494 183.625C118.628 180.637 118.103 177.752 117.407 174.891C117.147 173.819 116.597 172.785 116.883 171.585C116.801 170.995 116.092 170.801 116.198 170.092C115.846 169.564 115.447 169.072 115.245 168.427C113.711 163.512 111.959 158.678 111.167 153.485C111.038 152.641 110.779 151.764 111.383 151Z" fill="#A8212C"/>
<path d="M170.954 143C171.663 144.143 171.523 145.608 172 146.839C164.229 151.273 156.779 156.42 149.145 161.157C146.922 162.536 144.686 163.886 142.442 165.215C140.337 166.462 138.047 165.79 135.844 165.996C135.096 166.066 135.235 165.171 135.194 164.609C134.805 159.283 134.475 153.951 134.02 148.633C133.901 147.245 134.303 146.906 135.353 146.817C139.412 146.475 143.47 146.113 147.521 145.661C155.105 144.815 162.685 143.899 170.266 143.016C170.494 142.99 170.725 143.005 170.954 143Z" fill="#083CB6"/>
<path d="M74 222C80.4698 218.113 86.5311 213.435 92.7646 209.093C99.5105 204.393 106.177 199.542 112.886 194.771C114.548 193.589 114.519 193.619 114.653 195.902C115.083 203.202 115.548 210.5 116 217.799C114.517 218.905 112.789 218.659 111.175 218.814C101.991 219.697 92.8212 220.72 83.6689 221.959C81.1298 222.303 78.5834 222.579 76.0403 222.878C75.3218 222.963 74.3236 223.369 74 222Z" fill="#083DB7"/>
<path d="M325.242 46.8793C325.324 49.687 326.328 52.2551 326.834 54.9511C327.775 59.9569 329.252 64.8175 330 70C328.84 69.4499 328.471 68.2398 327.765 67.4036C324.228 63.2095 320.708 58.9952 317.13 54.847C316.163 53.726 315.03 52.777 313.554 52.6589C313.382 52.6785 313.165 52.7142 313.059 52.5815C311.028 50.052 308.609 50.8191 306.198 51.507C301.632 52.5315 297.057 53.5012 292.461 54.3222C292.276 54.3248 292.092 54.2988 291.911 54.2555C289.457 53.8608 288.923 51.4288 288 49.4085C294.344 48.1058 300.688 46.7973 307.034 45.5027C310.779 44.7387 314.534 44.0379 318.272 43.2327C321.796 42.4736 323.921 43.5416 325.242 46.8793Z" fill="#005BD9"/>
<path d="M344.871 114.99C345.729 117.063 347.401 118.412 348.426 120.372C350.737 124.792 352.491 129.522 354.351 134.177C357.626 142.374 360.627 150.714 363.744 158.993C366.636 166.678 369.548 174.353 372.396 182.059C372.707 182.902 373.227 183.796 372.891 184.834C371.896 185.39 371.139 184.376 370.237 184.309C369.168 184.092 368.609 183.262 368.202 182.183C364.306 171.853 360.198 161.631 356.262 151.321C352.031 140.238 347.68 129.214 343.424 118.142C342.803 116.527 341.675 115.032 342.089 113.041C342.089 113.041 342.22 113 342.22 113C343.47 113.022 343.957 114.379 344.871 114.99Z" fill="#CDCED6"/>
<path d="M256.578 41.5686C257.681 42.6533 258.094 44.1729 258.591 45.6402C258.845 46.3906 258.93 47.2465 259.602 47.74C260.758 48.5663 261.975 48.6826 263.328 48.426C269.113 47.328 274.912 46.3263 280.687 45.1565C281.404 45.0113 282.126 44.7645 282.841 45.1791C283.885 46.6677 283.729 48.5313 283.988 50.2408C284.113 51.0638 283.223 51.214 282.628 51.3706C279.44 52.2106 276.204 52.7638 272.984 53.4121C268.429 54.3291 263.902 55.4121 259.335 56.2533C256.7 56.4628 254.158 57.3859 251.533 57.6082C249.384 57.7901 247.225 58.3419 245.064 57.6913C244.795 56.8314 245.434 56.5659 245.873 56.2653C250.356 53.1991 252.372 48.7198 251.968 42.8325C251.937 42.3735 251.948 41.9403 252.323 41.6365C253.733 40.9009 255.149 40.708 256.578 41.5686Z" fill="#747374"/>
<path d="M200.407 65.7938C200.272 64.4814 200.136 63.1691 200 61.8568C200.048 60.3679 201.166 60.5566 201.958 60.404C207.8 59.2776 213.643 58.1607 219.462 56.8999C220.676 56.6369 221.91 56.4194 223.036 55.7961C223.56 55.2643 223.708 54.5785 223.699 53.8225C223.693 53.2937 223.698 52.7646 223.699 52.2356C223.705 47.8121 224.455 46.8038 228.332 46C228.729 46.0006 229.094 46.0854 229.318 46.5046C229.636 51.2321 232.843 55.345 237.418 57.0408C238.338 57.3819 239.626 57.1449 240 58.6444C239.616 59.8801 238.748 60.2466 237.672 60.4117C232.131 61.262 226.621 62.3333 221.134 63.5261C217.95 64.2182 214.723 64.6092 211.557 65.3855C209.132 65.9356 206.645 66.1071 204.241 66.7756C202.77 67.185 201.479 67.13 200.407 65.7938Z" fill="#747373"/>
<path d="M74.8676 221.152C76.7461 222.093 78.6047 221.142 80.4236 220.93C90.6928 219.732 100.957 218.493 111.258 217.653C112.82 217.526 114.382 217.399 115.944 217.272C117.326 217.358 118.687 217.104 120.057 217.014C121.103 216.945 121.273 216.381 121.311 215.506C123.112 217.072 125.106 216.065 127.03 216.009C130.095 216.14 133.129 215.665 136.177 215.478C138.002 215.717 139.794 215.061 141.617 215.237C145.156 215.149 148.67 214.666 152.202 214.473C157.442 213.885 162.686 213.321 167.936 212.834C170.064 212.638 172.178 212.357 174.293 212.056C174.817 211.981 175.338 211.894 175.723 212.432C176.068 212.604 176.413 212.776 177 213.069C173.493 213.617 170.215 214.151 166.932 214.637C163.047 215.211 159.161 215.771 155.269 216.286C151.493 216.786 147.709 217.223 143.928 217.686C139.976 218.17 136.027 218.693 132.07 219.121C128.91 219.463 125.742 219.717 122.574 219.958C115.717 220.48 108.858 220.967 102.001 221.469C99.9241 221.621 97.8429 221.622 95.7624 221.765C88.7805 222.245 81.8044 222.934 74.8009 223C73.8103 223.009 72.8655 222.806 72 222.255C73.078 222.263 73.9487 221.633 74.8676 221.152Z" fill="#6A90DC"/>
<path d="M111 166.396C108.321 166.622 106.031 166.835 103.737 166.993C103.29 167.024 102.79 166.951 102.384 166.749C89.0174 160.108 75.3894 154.18 61.9495 147.739C60.4117 147.002 58.9631 146.043 57.3242 145.532C56.1634 145.17 56.5251 143.753 56.3686 142.807C56.2226 141.926 55.62 140.652 56.3646 140.12C57.0822 139.607 57.7108 140.871 58.3634 141.342C62.6074 144.405 67.3605 146.196 71.9641 148.336C84.6166 154.217 97.3124 159.98 109.99 165.793C110.204 165.891 110.401 166.036 111 166.396Z" fill="#FC2841"/>
<path d="M70.4204 222.26C69.715 222.507 69.0096 222.753 68.3041 223C65.7138 222.403 66.2763 219.998 66 217.496C67.7399 219.451 68.9627 218.092 70.1885 217.229C80.0019 210.314 89.8622 203.484 99.5621 196.362C102.504 194.202 105.54 193.289 108.884 193.125C109.578 193.091 110.271 193.043 111 193C111.007 193.743 110.444 193.771 110.109 194.011C97.2994 203.199 84.522 212.447 71.5595 221.345C71.163 221.617 70.7994 221.954 70.4204 222.26Z" fill="#FB293F"/>
<path d="M200.082 65.7562C200.461 66.0791 200.248 64.3486 200.727 65.4823C201.227 66.6684 201.903 66.6305 202.859 66.4015C205.54 65.7587 208.25 65.2827 210.986 65.0057C214.83 64.5122 218.624 63.6904 222.436 62.9839C225.949 62.333 229.48 61.7611 233.016 61.256C233.314 61.2134 233.602 61.256 233.869 61.4186C234.035 61.5771 234.091 61.7739 234.038 62.0077C233.627 62.7796 232.889 62.8307 232.201 62.961C223.275 64.6527 214.312 66.0943 205.346 67.5115C204.262 67.6828 203.156 67.7407 201.762 68.4056C202.872 68.8508 203.594 68.5976 204.297 68.4663C225.289 64.5445 246.291 60.6871 267.277 56.7281C273.3 55.5917 279.362 54.647 285.3 53C286.246 53.6302 286.049 54.5197 285.769 55.4291C285.198 56.3401 284.264 56.3459 283.411 56.5071C266.209 59.7573 249.021 63.0989 231.813 66.3116C222.716 68.01 213.663 69.9741 204.55 71.5663C203.405 71.7662 202.264 72.246 201.073 71.8445C200.244 71.1997 200.463 70.1746 200.288 69.291C200.36 68.2169 200.085 67.1784 200 66.1197C200.005 65.9928 200.033 65.8716 200.082 65.7562Z" fill="#A9A8A3"/>
<path d="M109.748 159C101.662 154.977 93.5805 150.942 85.4895 146.936C83.0021 145.705 80.489 144.55 78 143.008C78.4717 143.008 78.944 142.988 79.415 143.011C86.2057 143.347 93.0212 143.251 99.7525 144.652C101.741 145.066 103.679 145.699 105.463 146.918C106.25 147.455 106.878 148.116 107.074 149.244C108.474 151.516 108.602 154.415 109.599 156.89C109.858 157.536 110.271 158.24 109.748 159Z" fill="#093CB4"/>
<path d="M65.3873 212C64.9274 208.214 64.5067 204.578 64.0267 200.952C63.9359 200.266 64.0604 200.036 64.651 199.948C72.0575 198.846 79.4617 197.724 87 197C79.8596 201.956 72.7193 206.911 65.3873 212Z" fill="#073EB7"/>
<path d="M126.389 217.566C125.21 217.693 124.024 217.762 122.854 217.967C121.878 218.138 121.432 217.649 121.367 216.466C120.913 208.256 120.458 200.044 120.008 191.831C119.987 191.432 120.014 191.029 120.018 190.628C120.496 190.253 119.661 189.023 120.679 189C121.94 190.488 123.202 191.977 124.463 193.465C125.215 200.698 126.917 207.689 127.852 214.875C128.153 217.181 128.141 217.183 126.389 217.566Z" fill="#EF2F42"/>
<path d="M172.26 149C172.507 150.442 172.753 151.884 173 153.326C167.674 156.611 162.213 159.65 157.066 163.262C153.273 165.924 149.262 166.118 145 165.96C147.681 164.322 150.367 162.695 153.042 161.044C159.223 157.227 165.4 153.401 171.575 149.571C171.821 149.418 172.032 149.192 172.26 149Z" fill="#FB2A40"/>
<path d="M285.736 55.2872C285.645 54.5342 285.781 53.7439 285.396 53.0391C284.911 52.7352 284.888 52.2205 284.839 51.7167C285.014 51.1552 284.586 50.5481 284.954 50C285.431 50.0241 285.909 50.0481 286.386 50.0722C286.838 50.0926 287.298 50.0784 287.672 50.417C288.743 51.2396 289.303 52.3527 289.6 53.7034C290.459 57.6137 291.344 61.5173 292 65.4719C291.429 67.0195 290.717 65.5038 290.073 65.5698C287.442 65.3662 284.944 66.2063 282.403 66.6478C274.299 68.0554 266.229 69.6694 258.095 70.8812C257.231 71.0099 256.194 71.321 256 69.8604C256.31 68.8058 257.209 68.7086 258.031 68.5755C267.42 67.0559 276.75 65.1776 286.12 63.5449C286.538 63.4721 286.955 63.3982 287.37 63.3062C289.174 62.9055 289.297 62.7201 288.916 60.907C288.786 60.2907 288.613 59.6837 288.509 59.0621C288.214 57.2968 287.868 55.5812 285.736 55.2872Z" fill="#514D56"/>
<path d="M121 188.369C120.388 188.715 120.842 189.656 120.228 190C120.106 189.308 119.984 188.617 119.861 187.925C119.63 187.492 119.283 187.107 118.831 187.215C116.912 187.673 116.51 186.367 116.088 184.759C115.025 180.709 113.957 176.672 114.473 172.397C114.575 171.55 114.2 171.504 113.664 171.486C113.11 171.467 112.555 171.455 112 171.441C113.711 170.825 115.496 171.256 117.232 171C118.862 175.03 119.71 179.24 119.477 183.644C119.379 185.508 119.775 187.066 121 188.369Z" fill="#DC2F40"/>
<path d="M285.68 49.7982C285.786 50.3785 285.893 50.9587 286 51.539C285.773 52.7782 284.868 52.9487 284.02 53.2081C279.935 54.4584 275.724 54.9327 271.591 55.8911C260.336 58.5009 248.967 60.3663 237.676 62.7409C236.779 62.9295 235.831 63.3317 235 62.4646C235.001 62.3308 235.001 62.1969 235.002 62.063C236.836 60.4457 239.12 60.8843 241.18 60.3076C247.379 58.5719 253.809 58.2715 259.988 56.3777C267.067 54.8888 274.146 53.4049 281.223 51.9058C282.364 51.6641 283.492 51.3397 284.631 51.083C285.124 50.9718 285.359 50.707 285.233 50.1159C284.904 48.5634 284.573 47.0114 284.242 45.4592C284.369 45.0986 284.551 44.8684 284.919 45.0824C285.298 46.6273 285.776 48.1512 285.68 49.7982Z" fill="#AAAAAE"/>
<path d="M110.391 158.143C109.616 155.16 108.453 152.339 108 149.222C108.976 148.53 109.579 149.639 110.293 150.039C111.1 150.491 111.39 150.281 111.402 149.239C111.484 149.762 111.567 150.285 111.65 150.808C112.041 156.743 114.048 162.08 115.638 167.572C115.772 168.036 116.11 168.435 115.964 169C115.125 168.849 114.876 167.975 114.526 167.204C113.154 164.179 111.77 161.162 110.391 158.143Z" fill="#BEBEC8"/>
<path d="M223.885 56.1314C220.132 58.0479 216.113 58.4014 212.218 59.4695C208.436 60.5063 204.601 61.2085 200.782 62.0044C200.195 62.1269 199.706 62.2862 199.41 63C198.689 60.4921 198.762 60.331 200.919 59.6392C203.101 60.0627 205.154 59.0333 207.249 58.5946C212.525 57.4898 217.814 56.4672 223.054 55.0702C223.602 54.9241 224.272 54.8945 223.885 56.1314Z" fill="#D1CFD0"/>
<path d="M222.827 55.7861C222.727 55.0375 222.324 55.1507 221.8 55.2522C215.417 56.4886 209.029 57.7005 202.639 58.8926C202.09 58.995 201.471 59.1711 201 58.5911C206.287 57.6174 211.572 56.6375 216.861 55.6738C218.241 55.4222 219.631 55.2328 221.013 54.9929C222.258 54.7768 223.082 54.1653 222.833 52.5695C222.784 52.2575 222.834 51.927 222.837 51.605C222.871 47.0025 223.395 46.2466 227.417 45C227.536 45.0013 227.654 45.0024 227.773 45.0037C228.086 45.3884 228.065 45.7723 227.771 46.1555C223.232 47.2851 223.358 48.4526 223.183 53.4274C223.155 54.2153 223.51 55.1064 222.827 55.7861Z" fill="#C2C0C1"/>
<path d="M62.1636 177.139C62.7024 180.56 63.2308 183.982 63.7834 187.401C64.1719 189.805 64.5933 192.203 65 194.604C64.2106 195.193 63.6192 195.201 63.4547 194.103C62.6399 188.668 61.8323 183.233 61.0229 177.797C60.8667 176.749 61.5391 176.98 62.1636 177.139Z" fill="#DA0F25"/>
<path d="M341 111C339.701 109.978 339.649 108.308 339.277 106.909C337.506 100.263 335.918 93.5627 334.246 86.887C334.082 86.2337 333.76 85.6154 334.298 85C336.486 93.3362 338.676 101.672 340.858 110.011C340.942 110.33 340.954 110.67 341 111Z" fill="#0C277B"/>
<path d="M200.344 67C201.248 67.6398 200.935 68.5532 200.991 69.3836C200.287 69.9172 199.428 70.0529 198.576 69.983C197.679 69.9096 196.956 69.5835 197.569 68.559C197.996 68.2983 198.514 68.3338 198.924 68.2254C198.293 68.149 197.594 68.7495 196.905 68.2009C196.684 67.9086 196.312 67.9484 196 67.8612C197.376 67.2667 198.978 67.6287 200.344 67Z" fill="#556B84"/>
<path d="M288.028 50.8338C287.665 50.7595 287.254 50.8402 287 50.4183C287.454 49.8296 288.087 50.1451 288.63 50C289.107 50.5963 289.673 51.0792 289.941 51.8995C290.289 52.9626 290.955 53.7246 292 53.9318C291.385 54.7474 291.685 55.7276 291.626 56.645C291.42 57.4091 291.662 58.2882 291.16 58.9746C290.484 59.1371 290.57 58.4823 290.487 58.0977C290.143 56.5132 289.834 54.9183 289.544 53.3205C289.344 52.2192 288.9 51.374 288.028 50.8338Z" fill="#2F425F"/>
<path d="M375.539 266.636C375.28 266.757 375.022 266.878 374.762 267C374.24 266.408 374.52 265.872 374.938 265.473C376.245 264.225 376.048 262.616 375.688 261.091C373.229 250.675 370.739 240.269 368.212 229.874C365.992 220.745 363.714 211.633 361.457 202.515C360.925 200.367 360.159 198.287 360 196.032C360.73 195.811 360.926 196.79 361.517 196.885C361.713 197.049 361.877 197.229 361.764 197.54C361.005 198.085 361.599 198.706 361.73 199.246C366.694 219.584 371.655 239.923 376.681 260.242C377.287 262.693 377.095 264.77 375.539 266.636Z" fill="#04266F"/>
<path d="M370.919 184C371.75 184.339 372.58 184.679 373.411 185.018C374.589 185.961 375.07 187.513 375.639 188.951C379.416 198.511 382.784 208.293 386.181 218.056C386.598 219.252 387.454 220.513 386.7 222C386.143 221.801 385.977 221.206 385.83 220.639C385.219 218.286 384.057 216.197 383.623 213.749C383.555 213.37 383.267 214.271 382.955 213.938C381.352 210.934 380.47 207.52 379.249 204.3C378.873 203.308 378.157 202.367 378.548 201.105C378.921 200.604 379.092 200.972 379.267 201.349C378.907 200.449 378.762 199.444 378.349 198.615C378.474 199.361 379.229 200.03 378.651 200.956C377.862 200.91 377.706 200.091 377.503 199.442C376.501 196.234 375.2 193.184 374.187 189.983C373.612 188.165 372.852 186.594 371.106 186.123C370.497 185.959 369.959 185.499 370.003 184.595C370.037 183.886 370.638 184.263 370.919 184Z" fill="#AEAFB4"/>
<path d="M384.76 225.312C385.72 227.838 386.669 230.37 387.648 232.888C387.937 233.631 388.095 234.369 387.938 235.163C387.531 235.677 386.992 235.917 386.372 235.992C385.479 236.069 385.001 235.552 384.716 234.74C383.197 230.41 381.099 226.336 379.573 222.009C379.231 221.041 378.839 220.07 379.069 218.99C380.626 217.72 381.527 217.681 382.815 218.82C383.414 220.437 384.037 222.047 384.477 223.724C384.623 224.242 384.919 224.734 384.76 225.312Z" fill="#326C96"/>
<path d="M379.039 238.997C378.356 238.681 378.062 237.994 377.77 237.29C375.85 232.666 373.924 228.045 372 223.423C372 221.542 373.09 221.1 374.441 221C375.308 221.607 375.312 222.754 375.636 223.666C377.28 228.289 379.278 232.728 380.996 237.311C381.041 237.878 380.71 238.167 380.359 238.443C379.948 238.714 379.55 239.034 379.039 238.997Z" fill="#326C96"/>
<path d="M374.75 220.554C373.784 221.194 372.635 221.587 372.248 223C369.644 217.238 367.655 211.161 365.285 205.279C364.161 202.488 363.127 199.65 362.052 196.833C361.924 196.677 361.795 196.523 361.667 196.368C361.334 196.159 360.919 195.974 361.014 195.436C361.094 194.975 361.468 194.979 361.806 195.014C363.275 196.369 363.849 198.404 364.694 200.2C366.834 204.752 368.505 209.56 370.27 214.312C370.844 215.859 371.579 217.315 372.164 218.85C372.674 220.188 373.331 220.126 374.167 219.302C374.434 219.223 374.669 219.282 374.865 219.512C374.952 219.683 374.998 219.867 375 220.066C374.968 220.263 374.884 220.426 374.75 220.554Z" fill="#232630"/>
<path d="M388.438 241.367C388.625 243.314 388.813 245.26 389 247.207C388.575 248.117 387.837 248.089 387.039 247.878C386.141 246.841 385.243 245.804 384.346 244.767C384.139 244.316 383.921 243.867 384.028 243.344C384.395 242.157 385.548 241.981 386.415 241.435C386.837 241.234 387.262 241.036 387.738 241C388.029 241.008 388.279 241.1 388.438 241.367Z" fill="#F2BAB0"/>
<path d="M384.357 225C384.209 224.629 384.06 224.258 383.912 223.887C384.176 223.43 384.72 223.169 384.651 222.482C384.85 221.502 384.328 220.642 384.3 219.7C384.377 218.522 383.807 217.557 383.527 216.495C383.324 215.724 382.705 215.01 383.169 214.101C383.304 213.826 383.439 213.55 383.71 213C384.844 216.194 385.922 219.231 387 222.268C386.506 223.67 385.786 224.787 384.357 225Z" fill="#787476"/>
<path d="M383.869 243.408C383.913 243.938 383.956 244.469 384 245C383.281 244.627 382.63 244.168 382.242 243.384C382.196 242.328 381.356 241.775 380.905 240.976C380.521 240.296 379.793 239.773 380.056 238.805C380.343 238.542 380.629 238.278 380.916 238.015C381.084 237.98 381.243 238.008 381.396 238.088C382.482 239.722 383.536 241.373 383.869 243.408Z" fill="#F5D2C7"/>
<path d="M387.993 241C387.798 240.967 387.602 240.934 387.407 240.901C386.248 239.52 386.308 237.661 386 235.945C386.007 235.745 386.078 235.58 386.209 235.452C386.555 235.094 386.994 235.079 387.416 235C387.665 236.992 388.057 238.966 387.993 241Z" fill="#D9A298"/>
<path d="M380.31 238.003C380.996 239.302 381.725 240.568 382.347 241.915C382.622 242.512 383.443 243.081 382.689 244C381.46 242.319 380.23 240.638 379 238.956C379.356 238.456 379.713 237.955 380.31 238.003Z" fill="#F5D2C7"/>
<path d="M387 248.65C387.595 248.434 388.189 248.217 388.783 248C389.051 248.854 389.017 249.717 388.961 251C388.147 250.025 387.574 249.338 387 248.65Z" fill="#26191A"/>
<path d="M306.234 50.7793C308.913 49.7477 311.494 49.2741 313.446 52.4023C313.605 52.814 313.765 53.2264 313.926 53.6388C315.189 55.9409 315.505 58.6124 316.085 61.155C321.451 84.6806 327.072 108.129 332.679 131.581C337.369 151.197 342.221 170.762 346.962 190.362C350.663 205.658 354.327 220.966 357.885 236.305C358.745 240.015 359.672 243.704 360.532 247.413C360.845 248.759 361.096 250.121 360.964 251.532C360.946 251.871 360.887 252.199 360.785 252.517C360.192 254.39 358.911 255.286 357.294 255.764C355.259 256.364 353.195 256.806 351.136 257.271C332.254 261.531 313.39 265.89 294.493 270.065C282.701 272.671 270.94 275.464 259.14 278.031C247.629 280.739 236.099 283.339 224.536 285.749C222.047 286.269 219.613 286.201 218.017 283.374C217.72 282.439 217.424 281.505 217.127 280.57C215.752 274.105 214.376 267.64 213 261.175C215.126 255.144 218.008 249.538 220.595 243.766C221.467 241.821 222.306 239.857 223.181 237.914C223.579 237.029 223.979 236.137 224.823 235.663C236.769 233.002 248.687 230.182 260.628 227.497C271.833 224.979 283.012 222.314 294.209 219.75C307.501 216.705 320.769 213.525 333.809 210.525C334.28 210.374 333.925 210.079 334.05 210.302C334.093 210.378 334.064 210.438 333.958 210.462C326.877 212.076 319.802 213.721 312.733 215.4C297.45 219.03 282.149 222.565 266.845 226.079C253.087 229.239 239.345 232.494 225.551 235.448C224.815 234.966 225.198 234.293 225.371 233.718C226.015 231.581 226.847 229.563 228.426 228.071C242.012 224.966 255.59 221.818 269.168 218.672C284.977 215.01 300.798 211.417 316.584 207.628C321.998 206.329 327.442 205.193 332.836 203.781C333.076 203.718 333.367 203.516 333.455 203.753C332.118 203.805 330.786 204.305 329.439 204.62C318.541 207.166 307.643 209.707 296.746 212.255C281.228 215.884 265.696 219.439 250.174 223.046C243.046 224.702 235.93 226.43 228.77 227.899C227.962 227.424 228.479 226.75 228.656 226.243C229.247 224.546 230.005 222.948 231.234 221.707C241.277 219.411 251.319 217.106 261.358 214.788C275.917 211.428 290.481 208.096 305.022 204.631C313.403 202.635 321.819 200.827 330.185 198.748C330.566 198.653 330.969 198.515 331.144 198.548C326.272 199.633 321.206 200.891 316.126 202.062C300.822 205.588 285.536 209.212 270.228 212.709C257.33 215.655 244.456 218.736 231.533 221.54C230.669 220.977 231.061 220.199 231.308 219.505C231.784 218.167 232.522 216.981 233.11 215.705C238.74 214.337 244.399 213.13 250.041 211.828C266.544 208.018 283.054 204.248 299.55 200.4C309.418 198.099 319.307 195.901 329.139 193.401C329.424 193.329 329.719 193.334 330.008 193.295C330.239 193.255 329.921 192.922 330.02 193.162C330.043 193.219 329.999 193.256 329.89 193.281C313.175 197.201 296.456 201.099 279.733 204.976C271.627 206.856 263.51 208.677 255.401 210.539C249.119 211.982 242.84 213.444 236.555 214.866C235.816 215.033 235.089 215.316 234.319 215.241C233.402 214.526 233.821 213.628 234.088 212.78C234.355 211.934 234.898 211.192 234.819 210.214C236.867 209.502 238.983 209.129 241.072 208.647C259.51 204.389 277.942 200.104 296.383 195.865C307.113 193.399 317.819 190.806 328.565 188.429C328.932 188.348 329.319 188.19 329.536 188.276C329.213 188.062 328.735 188.389 328.282 188.491C312.745 192.001 297.238 195.679 281.71 199.236C268.121 202.349 254.543 205.52 240.952 208.624C239.469 208.963 238.021 209.505 236.506 209.655C235.499 209.021 236.184 208.213 236.373 207.504C236.709 206.233 237.638 205.22 237.657 203.797C241.329 202.83 245.029 202.014 248.721 201.166C255.852 199.529 262.985 197.902 270.114 196.249C277.241 194.596 284.378 192.999 291.504 191.339C303.716 188.495 315.934 185.68 328.139 182.802C328.284 182.768 328.361 182.718 328.361 182.712C324.333 183.64 320.297 184.642 316.249 185.578C303.636 188.495 291.032 191.454 278.417 194.354C265.809 197.252 253.198 200.137 240.595 203.062C240.141 203.168 239.689 203.327 239.215 203.282C238.407 202.711 238.742 201.941 238.995 201.252C239.321 200.364 239.673 199.484 240.092 198.642C245.166 197.539 250.215 196.283 255.281 195.126C274.976 190.627 294.658 186.057 314.338 181.474C318.442 180.518 322.541 179.544 326.65 178.621C326.886 178.606 326.607 178.232 326.685 178.481C326.708 178.556 326.683 178.603 326.607 178.619C309.583 182.424 292.623 186.588 275.605 190.424C264.755 192.87 253.921 195.406 243.09 197.951C242.524 198.084 241.967 198.325 241.372 198.198C240.393 197.48 240.913 196.591 241.226 195.805C241.626 194.803 242.094 193.841 242.171 192.713C243.643 192.102 245.21 192.034 246.727 191.685C260.359 188.551 273.988 185.397 287.616 182.24C300.221 179.32 312.835 176.451 322.297 174.19C317.975 175.337 310.459 176.862 302.991 178.651C289.319 181.926 275.609 184.986 261.921 188.168C255.886 189.571 249.879 191.164 243.773 192.162C242.965 191.152 243.704 190.228 243.947 189.316C244.299 187.993 245.009 186.886 245.883 185.92C249.454 185.023 253.055 184.283 256.641 183.468C266.005 181.339 275.359 179.158 284.72 177.018C297.819 174.023 310.901 170.932 323.999 167.928C324.219 167.828 323.786 167.613 323.955 167.795C324.011 167.856 323.973 167.908 323.838 167.941C315.695 169.93 307.504 171.657 299.354 173.608C286.022 176.8 272.642 179.724 259.303 182.874C255.657 183.735 252.004 184.572 248.338 185.325C247.834 185.429 247.322 185.689 246.8 185.386C245.731 183.965 246.754 182.657 246.972 181.304C247.629 180.374 248.605 180.789 249.425 180.599C259.404 178.292 269.391 176.029 279.377 173.756C290.97 171.118 302.535 168.324 314.131 165.702C317.166 165.016 320.178 164.199 323.224 163.575C321.03 163.958 318.865 164.541 316.69 165.046C303.343 168.147 290.004 171.298 276.643 174.322C267.342 176.427 258.061 178.647 248.741 180.638C247.776 180.041 248.238 179.201 248.515 178.472C248.918 177.407 249.469 176.41 249.535 175.209C252.232 174.445 254.983 173.985 257.707 173.376C264.907 171.766 272.101 170.116 279.289 168.439C286.936 166.656 294.6 164.963 302.239 163.129C308.735 161.57 315.249 160.111 321.76 158.635C322.06 158.567 322.464 158.681 322.643 158.204C322.837 158.101 322.421 158.056 322.604 158.219C322.688 158.293 322.668 158.362 322.54 158.394C318.107 159.522 313.631 160.416 309.187 161.485C300.751 163.514 292.289 165.401 283.844 167.379C277.282 168.916 270.708 170.388 264.139 171.884C259.805 172.871 255.492 173.976 251.112 174.681C250.352 174.095 250.764 173.379 251.013 172.765C251.74 170.976 252.462 169.176 253.6 167.65C258.539 166.424 263.514 165.389 268.468 164.238C283.935 160.644 299.429 157.209 314.874 153.494C316.637 153.07 318.413 152.683 320.195 152.351C320.424 152.296 320.183 151.976 320.261 152.225C320.275 152.272 320.238 152.309 320.147 152.329C308.777 154.884 297.426 157.548 286.067 160.169C276.19 162.448 266.306 164.685 256.425 166.939C255.808 167.08 255.195 167.401 254.542 167.121C253.785 166.364 254.189 165.542 254.503 164.793C255.022 163.56 255.419 162.216 256.493 161.394C258.587 160.519 260.813 160.338 262.978 159.853C278.288 156.423 293.558 152.77 308.864 149.324C312.379 148.533 315.883 147.696 319.39 146.87C298.552 151.581 277.769 156.602 256.903 161.136C255.923 160.665 256.566 159.949 256.753 159.389C257.22 157.991 258.072 156.781 258.335 155.274C263.868 154.055 269.404 152.854 274.923 151.564C288.62 148.363 302.342 145.305 316.032 142.072C316.575 141.944 317.11 141.769 317.665 141.715C308.832 143.802 299.972 145.736 291.135 147.801C281.038 150.16 270.924 152.429 260.819 154.746C260.373 154.848 259.913 155.057 259.449 154.794C258.637 152.322 260.086 150.921 261.411 149.46C265.9 148.057 270.518 147.356 275.063 146.251C284.626 143.925 294.241 141.891 303.819 139.643C308.197 138.615 312.571 137.551 315.379 136.985C298.558 140.835 280.156 145.078 261.736 149.212C260.869 148.786 261.413 148.103 261.555 147.568C262.075 145.615 263.088 143.928 263.935 142.15C269.441 140.824 274.978 139.674 280.494 138.405C291.617 135.846 302.741 133.293 313.872 130.78C314.196 130.706 314.533 130.715 314.947 130.547C315.072 130.509 314.723 130.155 314.833 130.386C314.854 130.43 314.706 130.575 314.592 130.601C308.886 131.918 303.172 133.191 297.466 134.502C287.321 136.834 277.182 139.198 267.017 141.416C266.395 141.552 265.779 141.812 265.125 141.701C264.169 140.888 264.79 139.962 265.003 139.086C265.267 138 266.073 137.124 265.978 135.888C267.007 135.151 268.211 135.364 269.327 135.113C284.142 131.789 298.918 128.247 311.203 125.515C307.154 126.499 300.544 127.907 293.961 129.465C286.154 131.313 278.328 133.062 270.502 134.809C269.487 135.035 268.482 135.413 267.419 135.246C266.459 133.481 267.655 132.271 268.28 130.911C268.958 130.05 269.923 130.374 270.752 130.183C280.172 128.014 289.583 125.79 299.003 123.622C303.737 122.533 308.482 121.506 312.85 120.432C313.412 120.199 313.095 119.848 313.178 120.095C313.189 120.129 313.153 120.281 313.052 120.31C309.547 121.292 306.004 122.074 302.463 122.86C292.344 125.106 282.262 127.557 272.147 129.826C271.198 130.039 270.251 130.564 269.237 130.146C268.542 127.614 269.872 126.017 271.274 124.451C279.961 122.566 288.607 120.451 297.294 118.557C302.253 117.476 307.187 116.234 312.132 115.059C312.336 114.899 312.025 114.574 312.14 114.805C312.17 114.867 312.149 114.907 312.085 114.945C310.88 115.677 309.512 115.664 308.223 115.968C299.614 117.998 290.995 119.966 282.365 121.881C278.83 122.666 275.335 123.696 271.746 124.159C271.089 121.974 272.255 120.453 273.239 118.863C275.693 118.074 278.218 117.641 280.713 117.061C290.404 114.807 300.105 112.606 309.809 110.421C309.943 110.391 310.029 110.335 310.061 110.213C310.279 110.117 309.952 109.884 310.057 110.115C310.103 110.218 309.961 110.339 309.837 110.369C304.773 111.608 299.679 112.678 294.601 113.839C288.441 115.248 282.294 116.722 276.132 118.112C275.511 118.252 274.892 118.525 274.242 118.29C273.319 117.39 274.039 116.492 274.269 115.617C274.64 114.206 275.681 113.121 275.819 111.585C279.213 110.741 282.641 110.113 286.04 109.299C293.725 107.457 301.442 105.792 309.141 104.027C309.294 103.992 309.358 103.928 309.345 103.872C306.806 104.558 304.252 105.151 301.691 105.705C294.262 107.314 286.871 109.144 279.445 110.769C278.765 110.918 278.093 111.194 277.379 111.091C276.571 110.517 276.919 109.717 277.094 108.985C277.433 107.56 278.246 106.425 278.956 105.228C283.222 104.265 287.493 103.32 291.759 102.346C296.893 101.174 302.027 100.004 307.163 98.8428C298.696 100.743 290.236 102.684 281.77 104.585C281.097 104.736 280.421 105.078 279.721 104.692C279.181 102.233 280.427 100.607 281.774 99.0275C290.184 97.0482 298.621 95.2218 306.228 93.4602C298.816 95.0328 290.647 97.1095 282.406 98.7481C281.376 97.9834 282.197 97.1905 282.489 96.5725C284.25 92.8526 286.089 89.1798 287.879 85.4777C292.946 75.0051 298.327 64.7384 303.653 54.4362C304.352 53.0838 304.974 51.6338 306.234 50.7793Z" fill="#FDFDFD"/>
<path d="M272.951 119.292C272.361 120.861 271.771 122.429 271.181 123.997C270.99 124.642 270.49 124.568 270.034 124.672C251.283 128.944 232.516 133.125 213.757 137.349C210.49 138.085 207.224 138.831 203.946 139.506C203.346 139.63 202.716 139.671 202.126 140.045C204.095 139.288 206.112 139.049 208.076 138.62C218.245 136.399 228.392 134.058 238.551 131.783C248.704 129.511 258.858 127.244 269.002 124.923C269.583 124.791 270.221 124.305 270.825 124.922C269.835 126.485 269.027 128.14 268.767 130.075C268.61 130.879 267.973 130.743 267.501 130.844C254.853 133.553 242.254 136.537 229.619 139.326C220.847 141.262 212.091 143.295 203.457 145.159C203.087 145.273 203.416 145.637 203.309 145.402C203.298 145.379 203.326 145.354 203.392 145.33C205.336 144.599 207.37 144.337 209.367 143.89C228.191 139.67 247.012 135.43 265.834 131.198C266.547 131.038 267.3 130.639 268.02 131.23C267.851 132.585 266.754 133.616 266.958 135.102C266.036 136.067 264.813 136.07 263.695 136.317C246.409 140.133 229.149 144.1 211.856 147.879C209.387 148.418 206.91 148.922 204.456 149.552C204.23 149.625 204.517 149.998 204.448 149.746C204.448 149.745 204.464 149.737 204.498 149.725C207.568 148.651 210.749 148.141 213.891 147.456C225.67 144.89 237.414 142.127 249.192 139.563C254.134 138.487 259.063 137.338 264.009 136.287C264.513 136.18 265.028 135.905 265.527 136.316C266.402 136.47 265.949 137.034 265.775 137.449C265.227 138.751 264.558 140 264.506 141.498C263.485 142.728 262.028 142.54 260.769 142.816C245.8 146.093 230.867 149.577 215.899 152.864C212.44 153.624 209.024 154.599 206.825 154.98C211.022 153.925 216.515 152.692 222.012 151.49C234.29 148.803 246.537 145.941 258.819 143.273C260.329 142.945 261.818 142.132 263.427 142.674C262.926 144.927 261.671 146.805 260.976 148.961C259.228 150.175 257.18 150.132 255.27 150.574C243.928 153.2 232.558 155.67 221.204 158.23C217.137 159.147 213.049 159.955 209.016 161.058C207.998 161.187 207.018 161.709 205.963 161.466C207.014 161.748 207.991 161.178 209.011 161.095C214.248 159.744 219.526 158.619 224.792 157.433C235.389 155.047 245.998 152.728 256.595 150.339C258.022 150.017 259.45 149.118 260.985 149.87C259.926 151.262 259.146 152.809 258.903 154.653C257.881 155.795 256.468 155.62 255.24 155.886C243.23 158.496 231.261 161.335 219.251 163.94C215.548 164.743 211.889 165.782 208.154 166.393C207.938 166.523 208.318 166.716 208.174 166.508C208.106 166.41 208.129 166.348 208.242 166.325C223.261 163.203 238.201 159.633 253.194 156.363C254.704 156.033 256.196 155.22 257.806 155.772C258.264 155.843 258.365 155.997 258.101 156.521C257.38 157.949 256.731 159.424 256.054 160.88C255.597 161.65 254.825 161.575 254.163 161.723C239.198 165.068 224.25 168.518 209.629 171.68C209.046 171.859 209.37 172.222 209.261 171.987C209.249 171.963 209.278 171.933 209.35 171.911C213.18 170.703 217.115 170.057 221.006 169.188C231.909 166.752 242.804 164.268 253.712 161.866C254.469 161.699 255.263 161.115 256.062 161.779C255.166 163.377 254.175 164.926 253.953 166.88C253.57 167.752 252.78 167.662 252.125 167.81C240.141 170.501 228.167 173.254 216.171 175.876C214.522 176.237 212.883 176.66 211.229 176.99C210.989 176.982 211.331 177.374 211.218 177.142C211.201 177.106 211.238 177.075 211.33 177.053C224.789 173.953 238.269 170.979 251.737 167.932C252.241 167.818 252.766 167.573 253.252 168.016C252.315 170.139 251.073 172.089 250.426 174.376C249.068 175.529 247.393 175.451 245.848 175.807C234.717 178.375 223.566 180.827 212.438 183.418C218.5 181.981 224.584 180.663 230.652 179.263C236.265 177.968 241.899 176.797 247.507 175.476C248.007 175.358 248.537 175.105 249.005 175.604C249.633 175.718 249.748 175.993 249.387 176.646C248.757 177.787 248.048 178.909 247.967 180.328C247.456 181.435 246.404 181.142 245.632 181.305C234.801 183.59 224.027 186.187 213.218 188.597C213.001 188.713 213.293 189.041 213.213 188.798C213.174 188.679 213.298 188.555 213.403 188.532C219.597 187.172 225.783 185.769 231.966 184.35C235.973 183.431 239.994 182.596 243.997 181.662C244.825 181.469 245.684 181.037 246.55 181.56C247.113 182.833 245.771 183.882 246.22 185.142C245.778 186.061 244.916 185.944 244.209 186.104C234.273 188.351 224.338 190.608 214.398 192.835C222.254 191.018 230.135 189.343 237.993 187.539C239.941 187.092 241.877 186.574 243.84 186.217C244.397 186.116 244.98 185.772 245.516 186.307C244.2 187.878 243.739 189.933 243.045 191.856C242.881 192.388 242.479 192.405 242.066 192.505C233.335 194.612 224.548 196.405 215.82 198.525C215.589 198.573 215.898 198.879 215.799 198.64C215.757 198.54 215.783 198.481 215.874 198.461C223.678 196.758 231.46 194.926 239.262 193.215C240.03 193.047 240.815 192.516 241.63 193.071C242.294 193.188 242.335 193.487 241.988 194.124C241.363 195.276 240.623 196.396 240.594 197.841C238.985 199.249 236.965 199.078 235.134 199.547C228.825 201.166 222.441 202.392 216.432 203.889C215.904 204.079 216.22 204.422 216.111 204.189C216.095 204.154 216.234 203.997 216.345 203.966C220.777 202.749 225.278 201.903 229.74 200.85C232.313 200.242 234.878 199.59 237.461 199.041C238.138 198.897 238.812 198.573 239.496 199.009C239.801 200.527 238.339 201.451 238.467 202.909C238.039 203.726 237.254 203.627 236.599 203.773C230.927 205.031 225.282 206.447 219.597 207.633C218.983 207.761 218.36 207.928 217.778 208.21C217.571 208.346 217.946 208.583 217.807 208.371C217.748 208.281 217.76 208.214 217.846 208.187C221.4 207.102 225.047 206.518 228.636 205.621C230.86 205.065 233.095 204.557 235.336 204.094C235.889 203.98 236.466 203.628 237.013 204.14C238.156 204.489 237.326 205.183 237.128 205.575C236.53 206.761 236.031 207.983 235.654 209.275C235.583 209.638 235.363 209.855 235.059 209.91C229.747 210.875 224.528 212.361 219.244 213.48C219.09 213.512 218.887 213.612 218.849 213.474C220.905 213.33 222.913 212.629 224.952 212.171C227.359 211.63 229.768 211.092 232.162 210.47C232.806 210.303 233.518 209.952 234.19 210.475C235.176 210.699 234.595 211.307 234.414 211.765C234.016 212.774 233.404 213.701 233.558 214.899C233.198 215.696 232.473 215.561 231.878 215.702C228.005 216.617 224.112 217.422 220.258 218.438C220.012 218.503 219.663 218.376 219.561 218.743C221.169 218.028 222.909 217.816 224.595 217.388C226.638 216.868 228.699 216.428 230.76 215.998C231.31 215.883 231.884 215.534 232.433 216.031C232.95 216.87 232.16 217.241 231.935 217.818C231.504 218.921 230.762 219.883 230.73 221.17C230.185 221.926 229.353 221.839 228.637 221.996C226.054 222.565 223.497 223.247 220.919 223.832C223.981 223.103 227.03 222.311 230.121 221.741C230.364 221.696 230.565 221.873 230.746 222.046C229.487 223.667 228.769 225.642 227.917 227.53C226.73 228.684 225.173 228.399 223.809 228.867C223.206 229.073 222.575 229.178 222.305 229.225C221.737 229.428 222.069 229.779 221.96 229.545C221.941 229.505 221.964 229.464 222.034 229.445C223.976 228.921 225.867 228.042 227.93 228.365C226.331 230.26 225.523 232.635 224.748 235.031C224.641 235.389 224.372 235.47 224.087 235.548C223.889 235.603 223.681 235.6 223.491 235.692C223.691 235.76 223.935 235.724 224.049 235.995C223.795 236.433 223.49 236.844 223.294 237.313C220.136 244.864 216.252 252.004 213.345 259.696C213.138 260.245 212.898 260.777 212.348 261C206.374 234.09 200.392 207.181 194.426 180.269C187.378 148.473 180.34 116.675 173.308 84.8742C172.297 80.299 173.771 77.4675 177.773 76.5882C183.22 75.3916 188.696 74.3667 194.16 73.2683C194.84 73.7207 194.91 74.5303 195.094 75.2786C195.838 78.2981 196.193 81.4138 196.884 84.4439C197.079 85.453 197.54 86.1974 198.479 86.4648C202.016 88.1602 205.563 87.4148 209.13 86.6009C218.194 84.5331 227.393 83.3126 236.43 81.0849C238.885 80.4797 241.279 79.6407 243.843 79.745C244.897 79.7879 245.909 79.3027 246.719 78.4576C247.508 77.6344 248.486 77.2818 249.482 77.5068C253.705 78.4607 257.746 77.1483 261.817 76.3211C271.895 74.2729 281.97 72.2004 292.065 70.2581C294.119 69.8629 294.495 69.3446 293.965 67.0613C293.135 63.4846 292.322 59.9033 291.533 56.315C291.355 55.508 291.008 54.6569 291.615 53.8673C296.41 52.9115 301.205 51.9558 306 51C300.642 60.6583 295.598 70.5243 290.679 80.4728C287.691 86.5145 284.712 92.5613 281.729 98.6058C281.54 99.2525 281.039 99.1793 280.582 99.2794C266.288 102.408 252.003 105.583 237.718 108.76C224.294 111.746 210.868 114.727 197.457 117.789C197.269 117.832 196.974 117.712 196.88 118.07C196.67 118.164 197.047 118.334 196.887 118.141C196.821 118.061 196.845 117.994 196.965 117.964C201.867 116.72 206.807 115.688 211.732 114.571C231.628 110.061 251.552 105.709 271.462 101.28C274.268 100.656 277.059 99.9267 279.892 99.4554C280.382 99.3738 280.902 98.9827 281.376 99.5238C280.502 101.15 279.622 102.773 279.32 104.69C279.013 105.538 278.25 105.401 277.691 105.524C263.163 108.714 248.651 111.994 234.131 115.233C222.654 117.794 211.165 120.287 199.699 122.915C199.392 122.985 199.036 122.929 198.825 123.142C208.655 120.859 218.574 118.746 228.471 116.51C244.246 112.946 260.048 109.532 275.817 105.93C276.707 105.727 277.612 105.264 278.546 105.772C278.158 107.566 276.788 108.937 276.804 110.906C275.373 112.248 273.538 112.088 271.884 112.456C252.033 116.877 232.185 121.311 212.34 125.764C208.178 126.698 204.022 127.661 199.855 128.567C199.647 128.717 200.011 129.009 199.866 128.801C199.814 128.726 199.839 128.658 199.948 128.626C203.449 127.603 207.016 126.929 210.561 126.154C219.003 124.309 227.426 122.351 235.865 120.489C248.2 117.769 260.53 115.027 272.856 112.253C273.666 112.071 274.538 111.574 275.404 112.139C275.906 112.203 275.923 112.399 275.676 112.891C274.842 114.55 273.972 116.2 273.662 118.119C273.188 119.114 272.265 118.992 271.5 119.155C259.482 121.715 247.519 124.59 235.511 127.202C224.085 129.687 212.686 132.329 201.264 134.836C201.033 134.881 201.395 135.251 201.274 135.024C201.26 134.997 201.296 134.963 201.386 134.941C208.129 133.268 214.92 131.868 221.686 130.327C236.024 127.063 250.386 123.935 264.72 120.648C267.128 120.096 269.529 119.498 271.962 119.096C272.308 119.039 272.663 118.958 272.951 119.292Z" fill="#FDFDFD"/>
<path d="M185 210.473C184.86 210.737 184.747 211.202 184.574 211.235C182.496 211.626 180.434 212.375 178.292 211.777C176.75 212.209 175.351 211.489 173.935 211.007C165.397 208.101 157.072 204.463 148.668 201.096C147.78 200.687 146.843 200.387 146.102 199.629C144.624 195.491 142.634 191.768 139.644 188.838C139.272 188.473 138.867 188.02 139.042 187.314C147.118 186.216 155.234 185.654 163.334 184.882C168.477 184.392 173.615 183.821 178.753 183.273C178.972 183.25 179.18 183.094 179.393 183C179.844 184.642 180.329 186.278 180.129 188.047C178.827 189.179 177.252 188.733 175.824 188.911C170.816 189.534 165.791 189.991 160.783 190.629C160.5 190.665 160.211 190.679 159.912 190.654C166.687 193.214 173.378 196.059 180.143 198.654C181.009 198.987 181.923 199.221 182.565 200.073C183.909 203.372 184.282 206.977 185 210.473Z" fill="#FDFDFD"/>
<path d="M183 201C174.667 197.621 166.333 194.242 158 190.863C165.53 189.677 172.974 188.428 180.484 188C181.767 192.207 182.62 196.536 183 201Z" fill="#083EB9"/>
<path d="M196.922 84.9766C196.281 81.0887 195.641 77.2009 195 73.3131C195.52 71.9603 194.901 70.3328 195.504 69C196.222 69.8508 195.908 71.1186 196.081 72.1748C196.703 75.9858 197.456 79.7516 198 83.5883C197.926 84.5057 197.666 85.1309 196.922 84.9766Z" fill="#363E51"/>
<path d="M197.612 83.5627C196.875 80.0863 196.147 76.6069 195.396 73.1349C195.116 71.8418 194.976 70.5382 195.003 69.2078C195.144 68.5189 195.66 68.4976 196.108 68.3523C197.331 68.582 198.53 67.5242 200 68.2712C198.925 69.0559 197.905 68.6383 196.978 68.8377C195.669 69.8254 196.162 71.2899 196.371 72.5639C196.814 75.2634 197.54 77.8916 197.966 80.6001C198.091 81.3982 198.28 82.1845 198.308 83.0035C198.277 83.4315 198.199 83.8281 197.803 84C197.585 83.9472 197.521 83.8014 197.612 83.5627Z" fill="#B3B6BD"/>
<path d="M383.34 214.312C383.805 215.721 384.286 217.125 384.727 218.544C384.863 218.985 385.283 219.485 384.696 219.925C384.17 219.654 383.978 219.081 383.77 218.539C380.331 209.543 376.827 200.581 373.458 191.55C372.982 190.273 372.398 189.123 371.414 188.213C375.162 197.687 378.765 207.179 382.475 216.615C382.713 217.219 382.993 217.819 382.754 218.517C382.698 218.592 382.642 218.667 382.586 218.742C381.546 217.35 380.458 218.551 379.39 218.664C379.184 219.124 378.796 219.286 378.413 219.458C377.308 219.791 376.362 220.558 375.29 220.983C375.031 221.033 374.796 220.975 374.592 220.78C374.585 220.632 374.579 220.483 374.573 220.334C372.061 213.143 369.205 206.124 366.508 199.025C363.084 190.011 359.515 181.072 356.041 172.084C350.876 158.724 345.817 145.31 340.589 131.982C338.807 127.439 337.133 122.84 335.315 118.314C335.096 117.769 334.884 117.215 335.074 116.592C335.924 115.501 335.723 114.068 336.007 112.793C336.676 111.448 337.516 112.153 338.389 112.463C339.187 112.747 339.807 114.037 340.847 113.113C341.357 113.468 341.552 113.013 341.777 112.637C343.311 117.633 345.394 122.359 347.254 127.192C354.409 145.777 361.605 164.34 368.794 182.907C369.156 183.841 369.354 185.028 370.614 184.924C370.425 185.267 369.793 184.967 369.833 185.486C369.865 185.887 370.077 186.34 370.576 186.425C373.009 186.834 373.801 188.985 374.653 191.243C375.967 194.729 377.091 198.32 378.741 201.634L378.732 201.614C379.63 205.297 381.308 208.608 382.551 212.127C382.809 212.857 383.077 213.583 383.34 214.312Z" fill="#326C96"/>
<path d="M360.351 252.527C360.381 252.297 360.412 252.066 360.442 251.836C361.093 251.875 360.738 252.439 360.853 252.826C360.929 251.517 360.236 250.207 361.032 249C362.143 252.581 362.285 256.281 361.522 259.904C360.977 262.491 358.663 262.708 356.763 263.152C353.316 263.957 349.848 264.654 346.378 265.33C341.773 266.226 337.153 267.03 332.548 267.928C329.537 268.516 326.543 269.214 323.538 269.838C316.442 271.311 309.325 272.669 302.254 274.281C299.201 274.977 296.133 275.623 293.085 276.362C289.2 277.305 285.263 278.017 281.362 278.916C277.232 279.868 273.089 280.745 268.956 281.679C261.428 283.379 253.901 285.076 246.381 286.815C241.178 288.019 235.957 289.153 230.802 290.581C227.223 291.572 224.304 290.897 222 287.554C222.59 286.912 223.38 286.909 224.109 286.761C235.198 284.513 246.225 281.919 257.255 279.337C258.846 278.964 260.463 278.769 262.046 278.355C285.319 273.176 308.583 267.949 331.839 262.677C339.42 260.958 347.014 259.312 354.587 257.549C354.929 257.47 355.268 257.367 355.612 257.313C358.149 256.918 359.973 255.636 360.351 252.527Z" fill="#013D88"/>
<path d="M361 248.601C361 250.041 361 251.48 361 253C360.372 252.622 360.885 251.805 360.425 251.455C360.003 245.971 358.384 240.808 357.157 235.554C348.277 197.531 339.26 159.55 330.38 121.526C325.236 99.4967 320.264 77.4129 315.219 55.3524C315.118 54.9103 315.072 54.4512 315 54C316.191 55.1151 316.822 56.6476 317.199 58.2996C319.46 68.2039 321.671 78.124 323.932 88.0285C325.672 95.6507 327.435 103.266 329.236 110.869C330.864 117.743 332.356 124.657 333.846 131.573C335.397 138.778 337.309 145.876 339.005 153.039C341.584 163.934 344.121 174.842 346.663 185.748C349.102 196.213 351.543 206.678 353.948 217.154C355.87 225.531 357.744 233.923 359.628 242.312C360.098 244.405 360.938 246.388 361 248.601Z" fill="#092973"/>
<path d="M263 278.423C249.956 281.233 236.957 284.294 223.859 286.806C223.221 286.928 222.564 286.938 221.916 287C220.007 286.252 218.271 285.314 218 282.77C221.097 285.925 224.657 284.614 228.086 283.895C238.513 281.709 248.92 279.419 259.334 277.166C259.508 277.129 259.675 277.056 259.845 277C260.372 277.381 260.99 277.216 261.553 277.348C262.139 277.486 262.894 277.471 263 278.423Z" fill="#B4B3BE"/>
<path d="M335.845 112.909C335.814 113.721 335.836 114.544 335.736 115.342C335.652 116.02 335.688 116.927 334.826 116.898C334.249 116.986 333.824 116.395 333.284 116.341C332.856 116.707 333.061 117.299 332.965 117.778C332.856 118.314 332.929 119.03 332.241 118.999C332.109 118.732 332.124 118.445 332.174 118.153C331.481 113.157 330.78 108.163 330.103 103.163C330.026 102.591 329.845 101.948 330.285 101.443C330.589 100.891 330.989 100.936 331.416 101.143C331.595 101.206 331.774 101.268 331.954 101.331C332.952 103.273 333.664 105.391 334.306 107.557C334.647 108.705 335.106 109.782 335.653 110.793C336.012 111.457 336.12 112.153 335.845 112.909Z" fill="#F5D2C7"/>
<path d="M332.191 119C332.235 119.258 332.279 119.516 332.322 119.774C333.081 120.086 333.261 120.873 333.514 121.598C337.541 133.136 342.216 144.363 346.617 155.721C350.579 165.946 354.639 176.122 358.608 186.343C359.56 188.795 360.757 191.119 361.595 193.628C361.833 194.341 362.289 195.038 361.741 195.819C360.55 196.072 361.804 196.556 361.659 196.907C360.73 197.338 360.781 196.15 360.286 195.865C357.606 184.866 352.812 174.825 348.86 164.407C343.576 150.478 337.887 136.743 332.822 122.707C332.409 121.561 331.642 120.393 332.191 119Z" fill="#2A5898"/>
<path d="M336.19 113.02C335.961 111.113 334.471 109.886 334.102 108.065C333.666 105.92 332.181 104.253 332 102C335.13 105.552 337.953 109.404 340.632 113.397C340.729 113.817 340.824 114.235 341 115C339.837 114.282 338.919 113.66 337.957 113.144C337.413 112.852 336.823 112.159 336.19 113.02Z" fill="#D9A298"/>
<path d="M331 101.679C330.766 101.786 330.532 101.893 330.298 102C330.171 100.975 329.75 99.2984 330.209 99.0443C330.845 98.6921 330.888 100.522 331 101.679Z" fill="#101432"/>
<path d="M139.346 187.138C141.768 190.195 144.766 192.744 146.051 196.804C146.332 197.692 146.682 198.553 147 199.427C145.397 200.026 144.294 198.619 142.993 198.09C140.718 197.166 140.739 197.061 140.944 199.847C141.269 204.241 141.895 208.598 142.271 212.986C142.375 214.192 142.658 215.409 142.055 216.56C140.22 216.136 138.402 217.682 136.561 216.62C135.365 215.647 136.679 214.29 136.15 213.215C135.61 206.469 135.071 199.722 134.528 192.976C134.388 191.232 133.614 189.095 134.243 187.85C134.974 186.405 137.145 187.406 138.646 187C138.88 187.046 139.113 187.092 139.346 187.138Z" fill="#C1C2CB"/>
<path d="M149.458 201C156.939 204.019 164.411 207.071 171.906 210.039C174.238 210.962 176.634 211.657 179 212.456C178.122 213.349 177.008 213.027 176.008 213.29C174.221 213.617 172.408 214.154 170.66 214.258C168.796 214.368 166.931 214.532 165.068 214.724C161.014 215.14 156.961 215.573 152.908 216C152.11 214.537 152.272 212.814 152.163 211.225C151.963 208.31 151.177 205.758 149.725 203.444C149.269 202.718 148.501 201.974 149.458 201Z" fill="#093CB3"/>
<path d="M136.602 212.846C137.071 213.902 136.758 215.078 137 216.169C135.071 216.925 133.044 216.765 131.058 216.945C129.848 217.054 128.625 216.967 127.408 216.967C128.699 216.713 128.897 215.902 128.62 214.514C127.413 208.456 126.335 202.365 125.116 196.31C124.878 195.127 125.045 194.091 125.272 193C127.991 195.852 130.111 199.194 131.676 203.003C133.005 206.236 134.473 209.399 135.301 212.871C135.422 213.379 135.715 213.933 136.265 213.844C136.701 213.773 136.494 213.189 136.602 212.846Z" fill="#D92937"/>
<path d="M291.816 54.1035C292.578 58.5652 293.744 62.9154 294.749 67.3103C295.348 69.9326 294.97 70.441 292.561 70.902C284.011 72.5376 275.467 74.2163 266.924 75.8969C262.909 76.6868 258.904 77.5389 254.886 78.3114C254.144 78.454 253.351 78.4564 252.604 78.3419C250.169 77.9687 247.756 77.4494 245.759 79.7809C245.446 80.1465 244.772 80.2882 244.271 80.2736C238.876 80.1162 233.886 82.4919 228.643 83.3327C220.693 84.6078 212.764 86.1124 204.887 87.8606C202.295 88.4356 200.285 87.0724 198 86.663C199 85.6054 200.338 85.9659 201.501 85.7384C210.841 83.9126 220.175 82.0563 229.516 80.2432C231.9 79.7805 233.942 78.6011 235.932 77.2003C237.433 76.143 238.994 75.2764 240.845 75.4054C241.141 75.5641 241.304 75.8756 241.217 76.1897C240.664 78.198 241.751 78.3029 243.064 78.2433C244.33 78.1857 245.687 78.4344 246.5 76.9665C246.932 76.1859 247.416 75.2991 245.972 75.1296C245.73 75.1012 245.578 74.8845 245.54 74.598C246.324 73.537 247.358 73.9148 248.311 74.0583C250.277 74.3545 252.214 74.8733 254.196 75.0635C256.564 75.2907 258.852 74.6284 261.153 74.22C269.807 72.6845 278.44 71.0105 287.057 69.2397C287.115 69.2279 287.174 69.2249 287.231 69.2125C291.762 68.2345 292.276 67.3437 291.302 62.3913C290.942 60.5626 290.45 58.7403 290.662 56.8253C290.577 56.3301 290.537 55.8189 290.399 55.3428C290.088 54.2714 290.551 53.9716 291.401 54.0021C291.539 54.0358 291.678 54.0696 291.816 54.1035Z" fill="#CCD4E7"/>
<path d="M251.555 41C251.6 41.2147 251.644 41.4294 251.689 41.6439C252.946 47.3836 250.386 54.6602 244.097 57.733C242.572 58.9891 240.942 59.4213 239.14 58.5248C236.912 57.8648 234.697 57.2588 232.76 55.6863C230.498 53.8505 229.142 51.3943 228.198 48.5616C228.008 47.991 227.817 47.4276 228.33 46.9311C228.632 47.171 228.824 47.5088 228.93 47.8886C230.45 53.3236 234.022 55.2756 238.831 55.1626C240.874 55.1145 243.053 55.6186 244.483 53.2914C246.844 51.6624 249.053 49.893 249.53 46.5214C250.205 44.6809 250.88 42.8405 251.555 41Z" fill="#626060"/>
<path d="M239.856 58.5527C241.565 58.6606 243.199 58.1627 244.84 57.7233C247.134 57.828 249.422 57.715 251.706 57.4594C254.493 57.1474 257.189 56.1323 260 56C256.634 57.6532 253.017 58.0122 249.473 58.7451C244.456 59.7825 239.438 60.8179 234.421 61.8542C226.989 63.2114 219.496 64.1255 212.125 65.9373C211.701 66.0417 211.29 66.0689 211 65.5861C213.335 64.4989 215.858 64.5398 218.283 63.9862C224.034 62.6736 229.82 61.5722 235.585 60.3382C237.081 60.018 238.928 60.7317 239.856 58.5527Z" fill="#929294"/>
<path d="M148.682 199.865C148.664 200.317 148.345 200.751 148.716 201.22C151.791 205.102 151.851 210.129 152 215.12C148.62 215.585 145.239 216.02 141.833 215.999C141.23 209.093 140.627 202.187 140 195C142.244 196.226 144.291 197.344 146.338 198.462C147.119 198.93 147.901 199.398 148.682 199.865Z" fill="#032F96"/>
<path d="M286.077 55.2432C288.186 54.4288 288.788 55.7598 289.01 57.744C289.098 58.5233 289.376 59.2744 289.545 60.0442C290.368 63.7738 290.371 63.8161 286.995 64.4585C277.638 66.2386 268.274 67.9701 258.919 69.7602C258.252 69.8878 257.484 69.8597 256.954 70.5092C256.736 70.9859 257.089 71.6872 256.481 72.0124C254.425 72.639 252.492 71.6463 250.513 71.3733C249.087 71.1767 247.681 71.0427 246.254 71.1137C243.462 71.7071 240.59 71.855 237.888 72.9515C237.462 73.091 237.085 73.3455 236.708 73.5977C235.087 74.5058 233.636 75.746 231.999 76.6286C231.445 76.8718 230.895 76.9568 230.354 76.5876C229.73 75.7092 228.923 76.1382 228.206 76.2792C221.291 77.6395 214.349 78.8165 207.442 80.2287C206.331 80.4558 205.202 80.5608 204.106 80.8834C203.51 81.0227 202.915 81.0629 202.323 80.8594C201.628 80.5628 201.397 79.8615 201.214 79.167C200.628 76.9494 200.151 74.704 200 72.3872C200.042 72.2886 200.085 72.1904 200.128 72.0923C204.161 71.7685 208.106 70.7848 212.07 69.9874C221.462 68.0981 230.851 66.199 240.268 64.4651C247.693 63.0981 255.087 61.5226 262.498 60.0655C269.909 58.6085 277.325 57.1875 284.737 55.7342C285.195 55.6443 285.631 55.4102 286.077 55.2432Z" fill="#F9FAFC"/>
<path d="M234.137 62.4976C238.227 62.2479 242.166 60.9844 246.202 60.3691C256.268 58.8344 266.202 56.4622 276.229 54.6753C278.969 54.1868 281.698 53.6353 284.389 52.8652C284.981 52.6957 285.514 52.5497 285.891 52C285.927 52.4842 285.963 52.9684 286 53.4525C285.809 54.7752 284.682 54.4779 284.011 54.6078C272.139 56.9027 260.252 59.0992 248.372 61.3482C238.411 63.234 228.462 65.196 218.497 67.0548C212.846 68.1089 207.173 69.0244 201.509 69.994C201.354 70.0204 201.186 69.9524 201 69.9248C201.026 68.5862 201.484 68.0932 202.791 67.8993C209.468 66.9084 216.115 65.6763 222.786 64.6338C226.591 64.0392 230.392 63.4506 234.137 62.4976Z" fill="#DAD7D8"/>
<path d="M203.284 79.98C203.853 79.9659 204.421 79.9518 204.989 79.9377C205.611 79.72 206.231 79.5062 206.26 80.6467C205.663 81.8279 204.531 81.6404 203.602 81.9456C202.771 82.2184 201.885 82.2338 201.062 82.5785C210.017 80.9004 218.94 79.0048 227.885 77.2544C228.587 77.117 229.279 76.9761 229.994 76.9993C230.114 76.9986 230.233 76.9971 230.35 77.0094C231.058 77.0835 231.968 77.0933 231.999 78.091C232.026 78.9372 231.136 79.1044 230.525 79.2411C227.235 79.9772 223.93 80.6436 220.621 81.2435C216.557 81.9804 212.518 82.8942 208.434 83.4891C205.812 83.8712 203.267 84.7527 200.615 84.9836C199.345 85.0942 198.691 84.6612 198.701 83.1755C197.874 79.1437 196.985 75.1263 196.259 71.0712C196.045 69.8745 195.398 68.0731 197.557 68C196.986 69.2718 197.655 69.5261 198.553 69.473C199.409 69.4224 200.226 68.9598 201.11 69.1107C201.126 69.908 201.705 70.6992 201.131 71.5033L201.157 71.5508C198.747 72.7793 198.747 72.7794 199.388 75.8495C199.428 76.0425 199.471 76.2347 199.512 76.4275C200.232 79.8212 200.232 79.8212 203.284 79.98Z" fill="#3D3A3B"/>
<path d="M291.214 56C291.765 58.7388 292.293 61.4835 292.874 64.2144C293.26 66.0328 292.781 67.1798 291.149 67.893C287.67 69.4129 283.975 69.7574 280.36 70.4891C273.035 71.9718 265.665 73.173 258.343 74.664C255.16 75.3119 252.167 74.4235 249.108 73.9213C248.063 73.7497 247.026 73.5338 246.006 74.0363C244.613 74.9575 243.128 75.3187 241.523 74.9559C239.995 75.1554 238.444 75.5342 237.257 76.5741C234.013 79.4158 230.173 80.0879 226.294 80.8305C217.873 82.4425 209.471 84.1732 201.057 85.8241C200.201 85.9919 199.311 85.9465 198.437 86C197.455 85.7974 196.979 85.1364 197.001 84.0238C197.351 83.7445 197.7 83.4651 198.05 83.1857C198.104 83.2731 198.139 83.369 198.156 83.4732C198.723 84.1592 199.244 84.5959 200.262 84.4203C206.206 83.3945 212.13 82.246 218.055 81.0973C222.134 80.3066 226.223 79.5754 230.276 78.6256C230.968 78.4634 231.653 78.2705 232.195 77.7105C234.818 76.4567 237.148 74.4558 239.961 73.7081C243.136 72.8642 246.339 72.1194 249.644 72.3969C251.086 72.6185 252.529 72.8594 253.942 73.2336C254.999 73.5135 256.008 73.5346 257.037 73.1962C265.968 71.8638 274.854 70.2218 283.69 68.2588C285.639 67.8257 287.665 67.9163 289.547 67.1357C289.948 66.6874 289.547 65.9541 289.996 65.5228C290.061 65.4829 290.126 65.4435 290.191 65.4041C290.656 64.5999 291.148 66.4483 291.611 65.3862C291.357 63.1949 290.533 61.0822 290.884 58.8077C291.117 57.8897 290.612 56.8638 291.214 56Z" fill="#28292E"/>
<path d="M257.018 70.9774C257.003 70.5752 256.906 70.1508 257.292 69.8565C257.301 70.9013 258.023 70.6062 258.531 70.5188C264.285 69.5297 270.036 68.5259 275.783 67.5024C280.223 66.7118 284.664 65.9287 289.087 65.0425C289.94 64.8717 289.945 65.2328 289.976 65.8243L290 65.833C289.268 66.6139 288.31 66.8252 287.336 66.9924C278.123 68.5732 268.973 70.5426 259.723 71.9034C258.833 72.0343 257.897 72.1226 257.096 72.7112C256.48 73.1628 255.738 72.9844 255.072 72.8445C253.151 72.4414 251.229 72.0614 249.287 71.7858C248.649 71.6952 247.996 71.5623 248 70.6449C249.313 69.7512 250.669 70.4509 251.992 70.5806C253.126 70.6918 254.253 70.9488 255.379 71.17C255.951 71.2826 256.513 71.4353 257.018 70.9774Z" fill="#CECCD5"/>
<path d="M291.259 59.3113C291.337 61.5634 292.205 63.7 291.955 66C291.047 65.0352 291.411 63.6508 291.155 62.475C290.527 59.5852 289.894 56.6828 289.499 53.741C289.3 52.2582 288.534 51.2793 288 50.0861C289.206 49.6821 289.426 50.7801 289.638 51.7046C290.216 54.2281 290.724 56.7741 291.259 59.3113Z" fill="#BFC4CB"/>
<path d="M378.334 201.713C378.473 200.481 377.846 199.595 378.036 198C378.389 199.832 378.689 201.384 379 202.999C378.512 203.043 378.674 201.799 378.329 201.691C378.329 201.691 378.334 201.713 378.334 201.713Z" fill="#74757A"/>
<path d="M378.012 219.402C378.267 218.997 378.66 219.001 379.051 219C380.347 224.483 383.18 229.311 384.86 234.629C385.073 235.301 385.544 235.227 386 235.299C385.963 235.395 385.931 235.494 385.905 235.594C385.536 236.083 385.065 236.055 384.568 235.899C384.052 235.637 383.756 235.155 383.561 234.618C381.862 229.943 379.676 225.483 378.206 220.707C378.075 220.281 377.963 219.857 378.012 219.402Z" fill="#326C96"/>
<path d="M384.892 222.858C385.263 224.053 384.596 223.881 384.15 224C383.717 222.357 383.164 220.77 383 219.001L383.001 219.003C383.626 218.943 383.657 219.715 383.836 220.245C384.142 221.156 384.346 222.145 384.892 222.858Z" fill="#2B2E33"/>
<path d="M374.05 221.16C374.28 221.107 374.509 221.053 374.739 221C375.605 221.587 375.772 222.69 376.078 223.617C377.375 227.551 379.207 231.215 380.489 235.154C380.766 236.005 381.099 236.828 380.972 237.77C380.916 237.847 380.859 237.923 380.802 238C380.802 238 380.643 237.959 380.644 237.959C379.684 237.371 379.569 236.162 379.181 235.197C377.355 230.653 375.322 226.208 374 221.416C374.019 221.331 374.036 221.246 374.05 221.16Z" fill="#326C96"/>
<path d="M361.317 195.608C361.25 194.1 360.492 192.867 359.986 191.559C354.287 176.82 348.416 162.167 342.835 147.371C339.383 138.22 335.516 129.266 332.59 119.859C332.437 119.367 332.199 118.91 332 118.437C332.722 117.657 332.282 116.625 332.446 115.723C332.52 115.32 332.388 114.674 333.058 115.194C334.971 117.037 335.394 119.823 336.353 122.231C341.395 134.885 346.281 147.621 351.152 160.361C356.324 173.887 361.75 187.282 366.911 200.813C369.038 206.389 371.225 211.942 373.467 217.463C373.72 218.085 374.243 218.674 373.87 219.474C372.355 221.566 372.251 221.585 371.223 219.046C368.902 213.309 366.681 207.52 364.33 201.8C363.453 199.668 362.329 197.668 361.317 195.608Z" fill="#326C96"/>
<path d="M374.368 219.601C372.288 214.402 370.181 209.217 368.132 204.003C363.008 190.96 357.664 178.03 352.684 164.913C347.959 152.47 342.962 140.16 338.11 127.779C336.685 124.143 335.085 120.586 334.007 116.789C333.797 116.051 332.959 115.856 333.002 115C333.606 115.369 334.293 115.591 334.738 116.244C337.223 122.616 339.701 128.992 342.195 135.36C349.707 154.542 357.08 173.793 364.777 192.884C368.112 201.158 371.245 209.537 374.425 217.89C374.661 218.51 375.408 219.171 374.707 220C374.594 219.867 374.481 219.734 374.368 219.601Z" fill="#7B818A"/>
<path d="M383.751 244C382.834 241.908 381.917 239.815 381 237.723C381 237.723 381.063 237.673 381.063 237.673C381.854 236.613 382.765 235.894 383.973 236.013C385.287 237.765 385.908 239.881 386 242.274C385.25 242.849 384.501 243.425 383.751 244Z" fill="#F5D2C7"/>
<path d="M386.006 240.991C385.381 239.56 384.756 238.129 384.132 236.697C383.878 236.329 384.003 236.111 384.402 236C384.833 236.016 385.264 236.031 385.695 236.047C386.13 237.555 386.565 239.065 387 240.574C386.709 240.81 386.418 241.048 386.006 240.991Z" fill="#F2BAB0"/>
<path d="M384.754 222.69C384.283 223.23 384.094 223.029 383.871 222.364C383.457 221.127 383.116 219.837 382.417 218.753C381.4 214.7 379.625 211.024 378.217 207.166C375.897 200.81 373.46 194.512 371 188C372.594 188.28 373.165 189.572 373.657 190.891C377.26 200.559 380.843 210.236 384.433 219.911C384.574 220.832 385.405 221.643 384.754 222.69Z" fill="#E1DEE2"/>
<path d="M263.075 278C262.239 277.016 260.744 277.809 260 276.578C265.089 275.462 270.18 274.352 275.267 273.225C288.444 270.307 301.621 267.387 314.795 264.456C327.29 261.677 339.783 258.883 352.275 256.092C353.859 255.739 355.437 255.353 357.021 255.002C358.728 254.624 360.213 253.896 360.994 252C361.062 255.391 360.55 256.253 357.378 256.999C350.866 258.53 344.325 259.911 337.8 261.371C321.969 264.914 306.143 268.48 290.31 272.01C281.236 274.033 272.153 276.005 263.075 278Z" fill="#A9A7B1"/>
<path d="M275.712 111.978C269.922 113.173 264.125 114.333 258.343 115.569C239.215 119.655 220.092 123.77 200.966 127.862C200.426 127.977 199.857 128.178 199 127.673C202.736 126.847 206.198 126.059 209.668 125.318C221.229 122.848 232.792 120.396 244.354 117.935C254.889 115.693 265.423 113.451 275.955 111.199C276.35 111.115 276.726 110.933 277.111 110.796C282.201 110.071 287.174 108.695 292.202 107.627C297.691 106.462 303.166 105.221 308.65 104.034C309.068 103.944 309.517 104.022 310 104.404C307.865 104.904 305.736 105.435 303.595 105.898C295.026 107.751 286.45 109.564 277.889 111.456C277.167 111.616 276.342 111.365 275.712 111.978Z" fill="#7C9BE3"/>
<path d="M273.032 119.379C267.894 120.452 262.748 121.482 257.619 122.606C241.063 126.234 224.514 129.9 207.961 133.546C205.325 134.127 202.713 134.879 200 135C202.015 133.978 204.206 133.719 206.333 133.247C227.777 128.489 249.229 123.778 270.683 119.074C271.722 118.846 272.782 118.751 273.748 118.217C277.911 117.797 281.937 116.555 286.019 115.655C294.305 113.827 302.579 111.926 310.857 110.055C311.192 109.98 311.529 109.887 312 110.485C309.356 111.122 306.889 111.755 304.408 112.307C294.113 114.598 283.814 116.864 273.517 119.145C273.349 119.183 273.194 119.299 273.032 119.379Z" fill="#759CE4"/>
<path d="M264.077 141.866C258.222 143.165 252.362 144.431 246.515 145.77C233.382 148.78 220.256 151.831 207.123 154.839C206.579 154.964 205.994 155.186 205 154.703C208.288 153.895 211.2 153.138 214.127 152.469C229.202 149.022 244.283 145.612 259.354 142.151C261.296 141.705 263.29 141.503 265.156 140.663C270.316 139.519 275.481 138.408 280.634 137.225C292.378 134.528 304.116 131.797 315.856 129.075C316.184 128.999 316.505 128.841 317 129.467C314.221 130.13 311.636 130.761 309.046 131.364C296.448 134.293 283.851 137.225 271.249 140.131C268.853 140.684 266.425 141.054 264.077 141.866Z" fill="#7595DE"/>
<path d="M253.891 167.352C247.479 168.764 241.063 170.157 234.654 171.594C226.872 173.339 219.097 175.122 211.318 176.884C210.947 176.968 210.554 177.209 210 176.585C212.351 176.039 214.546 175.522 216.744 175.02C228.919 172.242 241.095 169.47 253.269 166.685C253.72 166.582 254.151 166.369 254.591 166.206C258.779 165.733 262.844 164.504 266.953 163.56C284.957 159.422 302.951 155.238 320.951 151.078C321.267 151.004 321.622 150.853 322 151.382C319.929 152.253 317.796 152.516 315.723 152.999C299.787 156.711 283.841 160.37 267.9 164.056C263.227 165.137 258.561 166.252 253.891 167.352Z" fill="#7293DB"/>
<path d="M268.928 131.447C264.831 131.943 260.842 133.126 256.811 134.029C243.318 137.052 229.84 140.171 216.357 143.256C212.497 144.14 208.64 145.043 204.778 145.918C204.217 146.045 203.639 146.067 203 145.666C205.14 145.182 207.282 144.705 209.421 144.214C228.484 139.833 247.546 135.448 266.611 131.077C267.642 130.841 268.713 130.818 269.679 130.262C275.626 129.314 281.45 127.645 287.327 126.29C296.201 124.243 305.062 122.122 313.93 120.042C314.265 119.964 314.619 119.991 315 120.158C313.552 121.09 311.924 121.3 310.348 121.669C296.705 124.857 283.058 128.025 269.414 131.205C269.244 131.244 269.089 131.365 268.928 131.447Z" fill="#769CE0"/>
<path d="M224.92 236C224.644 235.964 224.369 235.927 224 235.878C224.466 235.228 225.092 235.264 225.614 235.044C235.626 232.796 245.642 230.567 255.65 228.297C270.436 224.942 285.221 221.579 299.999 218.18C311.426 215.552 322.842 212.867 334.261 210.197C334.768 210.078 335.254 209.811 336 210.215C334.549 211.126 333.043 211.15 331.651 211.474C311.829 216.1 292.001 220.701 272.162 225.239C256.815 228.75 241.45 232.163 226.093 235.626C225.696 235.716 225.311 235.874 224.92 236Z" fill="#6A92DB"/>
<path d="M266.497 136.109C260.8 137.381 255.1 138.632 249.407 139.927C234.855 143.237 220.308 146.568 205.756 149.876C205.271 149.986 204.745 150.183 204 149.611C207.184 148.87 210.146 148.168 213.112 147.492C230.934 143.427 248.757 139.368 266.578 135.301C267.037 135.196 267.481 135.014 267.933 134.868C273.664 133.884 279.304 132.367 284.98 131.055C295.136 128.706 305.292 126.352 315.45 124.009C315.605 123.974 315.78 124.049 316 124.08C315.976 124.773 315.538 124.735 315.17 124.82C299.562 128.424 283.953 132.027 268.349 135.651C267.731 135.794 267.033 135.535 266.497 136.109Z" fill="#7599DE"/>
<path d="M241.351 193.114C236.217 194.246 231.082 195.373 225.95 196.512C222.411 197.297 218.875 198.101 215.336 198.89C214.963 198.973 214.574 199.187 214 198.627C216.872 197.951 219.571 197.293 222.279 196.682C228.837 195.203 235.399 193.748 241.957 192.271C242.236 192.208 242.494 192.03 242.762 191.905C250.231 190.518 257.616 188.65 265.03 186.951C280.208 183.474 295.388 180.011 310.565 176.529C315.358 175.429 320.142 174.284 324.931 173.166C325.262 173.089 325.601 173.061 326 173C326 173.63 325.651 173.696 325.345 173.766C310.4 177.209 295.455 180.654 280.507 184.081C268.181 186.907 255.849 189.697 243.528 192.554C242.806 192.722 241.983 192.488 241.351 193.114Z" fill="#688FDC"/>
<path d="M228.405 228.738C226.302 229.158 224.198 229.579 222.095 230C222.063 229.846 222.032 229.693 222 229.539C224.131 228.998 226.261 228.456 228.392 227.914C263.565 219.943 298.737 211.971 333.91 204C333.94 204.144 333.97 204.288 334 204.432C331.348 205.099 328.704 205.814 326.042 206.427C314.87 209.002 303.696 211.568 292.515 214.097C271.352 218.884 250.183 223.643 229.018 228.422C228.804 228.47 228.609 228.63 228.405 228.738Z" fill="#6F90D8"/>
<path d="M278.738 105.377C274.159 106.345 269.576 107.282 265.004 108.286C246.822 112.279 228.643 116.291 210.464 120.301C206.691 121.133 202.921 121.985 199.151 122.831C198.764 122.917 198.38 123.173 198 122.814C198.108 122.318 198.476 122.314 198.82 122.238C224.702 116.517 250.584 110.791 276.469 105.083C277.491 104.858 278.544 104.805 279.51 104.309C286.073 103.246 292.509 101.446 299.026 100.114C301.998 99.5062 304.943 98.7386 307.9 98.0419C308.188 97.974 308.471 97.9117 309 98.5136C298.769 100.834 288.753 103.105 278.738 105.377Z" fill="#7599DF"/>
<path d="M282.037 99.2919C276.47 100.494 270.898 101.665 265.338 102.904C248.176 106.73 231.017 110.574 213.86 114.429C208.753 115.576 203.658 116.785 198.554 117.945C198.066 118.056 197.552 118.019 197 117.646C199.777 116.977 202.547 116.271 205.331 115.644C224.196 111.399 243.06 107.154 261.931 102.946C268.47 101.487 275.027 100.135 281.575 98.7225C281.856 98.6617 282.119 98.4878 282.39 98.3665C289.887 96.7092 297.382 95.0405 304.882 93.4088C305.888 93.1901 306.876 92.6981 308 93.2593C305.803 93.7894 303.61 94.3379 301.41 94.846C294.954 96.3366 288.495 97.8111 282.037 99.2919Z" fill="#799DDE"/>
<path d="M233.384 216.028C228.951 217.019 224.519 218.009 220.087 219C220.058 218.839 220.029 218.678 220 218.517C224.834 217.299 229.669 216.081 234.503 214.862C240.488 213.491 246.477 212.151 252.455 210.744C268.006 207.082 283.554 203.409 299.098 199.705C309.517 197.222 319.926 194.679 330.338 192.155C330.789 192.046 331.225 191.796 332 192.325C329.804 192.915 327.872 193.484 325.921 193.951C303.152 199.403 280.381 204.842 257.61 210.277C249.536 212.204 241.459 214.112 233.384 216.028Z" fill="#698FD7"/>
<path d="M227 251.385C264.296 242.923 301.593 234.462 338.889 226C338.926 226.203 338.963 226.407 339 226.61C301.718 235.073 264.436 243.537 227.154 252C227.103 251.795 227.051 251.59 227 251.385Z" fill="#6C8BD5"/>
<path d="M239.565 198.845C234.927 199.501 230.425 200.917 225.833 201.839C222.81 202.446 219.813 203.218 216.802 203.899C216.349 204.001 215.876 204.138 215 203.672C218.197 202.933 221.034 202.259 223.877 201.624C229.489 200.372 235.127 199.26 240.677 197.686C245.386 197.086 249.962 195.718 254.595 194.688C274.77 190.201 294.931 185.64 315.095 181.097C319.383 180.131 323.664 179.128 327.95 178.149C328.283 178.073 328.626 178.052 329 178C329.006 178.809 328.512 178.712 328.158 178.792C314.606 181.866 301.056 184.953 287.5 188.002C271.628 191.572 255.75 195.107 239.875 198.663C239.765 198.687 239.668 198.783 239.565 198.845Z" fill="#6B92DB"/>
<path d="M258.393 155.204C253.152 156.316 247.907 157.407 242.671 158.544C231.281 161.017 219.896 163.514 208.507 165.992C208.355 166.025 208.183 165.942 208 165.91C208.261 165.134 208.864 165.358 209.335 165.255C225.899 161.628 242.463 158.003 259.026 154.371C259.188 154.336 259.331 154.199 259.483 154.11C265.742 152.751 272.007 151.423 278.26 150.026C291.619 147.042 304.971 144.021 318.328 141.023C318.537 140.976 318.762 141.017 318.995 141.017C319.056 141.853 318.504 141.634 318.181 141.707C307.274 144.168 296.368 146.635 285.456 149.066C276.59 151.041 267.715 152.97 258.845 154.928C258.684 154.964 258.544 155.11 258.393 155.204Z" fill="#6F93D9"/>
<path d="M342 233.609C304.038 242.073 266.075 250.536 228.113 259C228.075 258.797 228.038 258.593 228 258.39C265.95 249.927 303.9 241.463 341.851 233C341.9 233.203 341.95 233.406 342 233.609Z" fill="#6D8CD7"/>
<path d="M248.798 174.619C243.584 175.762 238.366 176.879 233.158 178.057C225.999 179.676 218.849 181.343 211.693 182.981C211.48 183.03 211.25 182.987 211 182.815C213.021 181.861 215.173 181.536 217.287 181.051C228.104 178.573 238.924 176.108 249.741 173.631C249.908 173.592 250.059 173.464 250.217 173.377C254.85 172.716 259.385 171.463 263.952 170.407C279.839 166.732 295.724 163.04 311.61 159.357C314.81 158.616 318.012 157.887 321.213 157.148C321.707 157.034 322.199 156.79 323 157.38C320.478 157.964 318.22 158.484 315.962 159.01C304.82 161.604 293.684 164.231 282.536 166.786C271.446 169.327 260.401 172.126 249.254 174.339C249.093 174.371 248.95 174.523 248.798 174.619Z" fill="#6B95DC"/>
<path d="M235.23 209.853C230.68 210.845 226.131 211.844 221.579 212.825C220.75 213.004 219.908 213.111 219 212.815C221.556 212.231 224.115 211.658 226.668 211.061C230.01 210.281 233.347 209.482 236.687 208.69C243.801 207.122 250.917 205.564 258.03 203.984C273.337 200.582 288.644 197.176 303.948 193.756C312.198 191.913 320.443 190.039 328.688 188.172C329.313 188.03 329.928 187.828 331 188.267C327.814 189.001 325.018 189.657 322.217 190.288C306.977 193.721 291.74 197.166 276.495 200.572C262.842 203.622 249.18 206.625 235.524 209.655C235.418 209.679 235.328 209.785 235.23 209.853Z" fill="#6A92DB"/>
<path d="M226 247C263.3 238.137 300.659 229.619 338 221C300.766 230.225 263.409 238.77 226 247Z" fill="#688DD6"/>
<path d="M225 240.483C262.301 232.322 299.602 224.161 336.904 216C336.936 216.171 336.968 216.341 337 216.512C299.724 224.844 262.411 232.98 225.076 241C225.05 240.828 225.025 240.655 225 240.483Z" fill="#658ED6"/>
<path d="M245.253 185.995C240.496 186.629 235.867 188.035 231.17 189.036C225.324 190.283 219.499 191.661 213.663 192.976C213.457 193.023 213.24 193.009 213 192.861C214.808 191.848 216.8 191.638 218.726 191.193C227.412 189.185 236.109 187.232 244.8 185.249C245.195 185.159 245.572 184.969 245.957 184.826C250.548 184.269 255.024 182.989 259.537 181.966C274.98 178.469 290.404 174.864 305.835 171.299C311.894 169.899 317.951 168.497 324.008 167.089C324.291 167.023 324.563 166.866 325 167.245C323.179 168.217 321.278 168.437 319.456 168.861C305.86 172.026 292.252 175.13 278.646 178.239C267.785 180.722 256.921 183.184 246.06 185.663C245.783 185.726 245.522 185.882 245.253 185.995Z" fill="#6D94DA"/>
<path d="M209.113 160.56C215.247 158.886 221.465 157.666 227.651 156.275C238.893 153.748 250.135 151.217 261.378 148.687C280.252 144.458 299.126 140.229 318 136C316.703 137.365 315.043 137.29 313.523 137.64C298.494 141.104 283.453 144.505 268.409 147.891C266.06 148.419 263.671 148.73 261.387 149.595C256.707 150.075 252.179 151.484 247.584 152.477C234.76 155.248 221.958 158.15 209.147 161C209.024 160.913 208.978 160.819 209.009 160.718C209.041 160.612 209.076 160.56 209.113 160.56Z" fill="#7097DD"/>
<path d="M271.369 124.256C266.387 125.372 261.402 126.48 256.421 127.607C238.317 131.704 220.214 135.807 202.11 139.904C201.767 139.982 201.415 140.114 201 139.804C201.694 138.846 202.736 139.104 203.56 138.914C220.197 135.086 236.846 131.324 253.495 127.561C259.237 126.262 264.985 124.998 270.729 123.706C271.072 123.629 271.396 123.443 271.729 123.308C278.095 122.192 284.363 120.503 290.677 119.083C297.863 117.466 305.033 115.76 312.211 114.099C312.666 113.994 313.131 113.866 314 114.337C311.475 114.957 309.317 115.518 307.147 116.012C295.562 118.649 283.974 121.268 272.388 123.9C272.042 123.979 271.709 124.136 271.369 124.256Z" fill="#6E94DC"/>
<path d="M256.43 161.361C251.867 162.277 247.297 163.158 242.742 164.115C231.969 166.378 221.204 168.679 210.434 170.953C209.989 171.047 209.523 171.026 209 170.658C211.366 170.15 213.731 169.636 216.098 169.135C229.317 166.335 242.536 163.539 255.755 160.737C255.982 160.689 256.2 160.592 256.422 160.518C277.634 156.301 298.721 151.413 319.897 147C319.931 147.174 319.966 147.348 320 147.522C317.125 148.162 314.253 148.817 311.375 149.44C296.182 152.729 280.986 155.999 265.796 159.306C262.674 159.985 259.481 160.31 256.43 161.361Z" fill="#7297DD"/>
<path d="M238.155 203.749C232.912 204.902 227.668 206.053 222.425 207.21C220.962 207.533 219.502 207.874 218 208C219.996 206.967 222.163 206.705 224.267 206.187C229.373 204.929 234.491 203.736 239.605 202.517C245.139 201.276 250.678 200.057 256.208 198.789C273.725 194.773 291.24 190.743 308.755 186.71C315.258 185.212 321.758 183.696 328.257 182.174C328.767 182.054 329.258 181.869 330 182.14C328.494 183.123 326.96 183.143 325.536 183.474C301.874 188.969 278.2 194.401 254.532 199.864C249.067 201.126 243.614 202.452 238.155 203.749Z" fill="#6B93DA"/>
<path d="M231.313 222.128C228.343 222.333 225.527 223.481 222.597 223.933C222.091 224.011 221.585 224.091 221 223.739C224.432 222.91 227.865 222.081 231.297 221.252C241.912 218.853 252.532 216.481 263.141 214.048C282.478 209.613 301.81 205.148 321.142 200.683C324.621 199.879 328.089 199.014 331.561 198.176C331.991 198.072 332.419 197.784 333 198.289C331.155 199.244 329.232 199.412 327.396 199.841C312.236 203.387 297.065 206.872 281.894 210.356C265.241 214.181 248.584 217.984 231.931 221.806C231.714 221.855 231.518 222.018 231.313 222.128Z" fill="#6B8ED7"/>
<path d="M246.354 181.484C241.03 182.352 235.789 183.715 230.52 184.914C224.562 186.27 218.599 187.598 212.639 188.942C212.41 188.993 212.188 189.081 212 188.835C212.017 188.235 212.446 188.353 212.759 188.283C224.163 185.733 235.567 183.188 246.97 180.63C247.249 180.567 247.505 180.374 247.772 180.242C254.592 178.722 261.422 177.253 268.231 175.674C286.086 171.532 303.932 167.341 321.784 163.181C322.503 163.013 323.245 162.966 324 163.023C322.431 164.105 320.622 164.18 318.917 164.588C307.488 167.322 296.051 170.008 284.603 172.636C272.009 175.527 259.402 178.337 246.802 181.192C246.642 181.228 246.503 181.384 246.354 181.484Z" fill="#6A92D9"/>
<path d="M294.915 250.467C273.646 255.645 252.377 260.822 231.108 266C231.072 265.789 231.036 265.579 231 265.368C233.823 264.673 236.644 263.969 239.469 263.285C255.094 259.504 270.719 255.722 286.347 251.954C289.191 251.268 292.046 250.65 294.897 250C294.984 250.099 295.016 250.201 294.992 250.307C294.968 250.414 294.943 250.467 294.915 250.467Z" fill="#7290D3"/>
<path d="M295.019 251C295.013 250.842 295.006 250.685 295 250.527C300.188 248.928 305.474 247.872 310.722 246.602C321.12 244.087 331.527 241.618 341.931 239.129C342.249 239.053 342.587 238.738 343 239.5C326.942 243.348 310.981 247.174 295.019 251Z" fill="#7192D6"/>
<path d="M211.894 97.0661C212.583 96.8052 212.714 97.3542 212.83 98.0551C213.128 99.8367 213.372 101.649 213.824 103.367C214.271 105.065 213.87 105.648 212.57 105.951C207.217 107.201 201.873 108.519 196.543 109.918C195.59 110.168 195.282 109.869 195.118 108.741C194.889 107.156 194.69 105.534 194.255 104.036C193.681 102.056 194.041 101.301 195.697 100.936C200.787 99.8158 205.849 98.4809 210.922 97.2346C211.243 97.1559 211.57 97.1228 211.894 97.0661Z" fill="#6A90DC"/>
<path d="M208.978 161C208.985 161.161 208.993 161.321 209 161.482C208.395 161.786 207.798 162.226 207 161.863C207.713 161.233 208.337 161.051 208.978 161Z" fill="#6F96DC"/>
<path d="M184 207C170.471 201.721 157.236 196.557 144 191.393C144.028 191.239 144.056 191.085 144.084 190.931C146.643 190.624 149.203 190.315 151.763 190.012C152.707 189.901 153.466 190.564 154.297 190.885C163.637 194.486 172.958 198.154 182.303 201.739C183.175 202.074 183.572 202.477 183.597 203.543C183.621 204.554 183.823 205.56 184 207Z" fill="#FB2743"/>
<path d="M232.48 78.8568C229.917 79.9593 227.164 80.3776 224.457 80.8553C216.323 82.2903 208.156 83.5338 200.018 84.9434C198.755 85.1622 198.264 84.748 198 83.6825C198.31 83.573 198.26 83.2739 198.342 83.0441C198.675 83.9666 199.161 84.3734 200.296 84.1475C203.286 83.5522 206.309 83.1223 209.32 82.6319C215.751 81.5845 222.184 80.5528 228.611 79.4822C229.614 79.3153 230.587 78.9778 231.661 78.6965C231.014 77.76 230.202 78.2818 229.572 78.0557C230.896 76.6494 231.294 76.6487 232.994 78.0502C233.049 78.4607 232.695 78.6149 232.48 78.8568Z" fill="#6B6665"/>
<path d="M385 235.867C384.733 236.089 384.67 236.398 384.683 236.738C383.684 237.159 382.685 237.579 381.686 238C380.135 232.667 377.514 227.815 375.727 222.588C375.494 221.905 375.243 221.229 375 220.55C376.027 219.837 377.121 219.289 378.319 219C380.001 221.834 380.491 225.208 381.925 228.173C383.119 230.642 383.987 233.295 385 235.867Z" fill="#326C96"/>
<path d="M241.663 75.1249C243.129 74.6272 244.583 74.0442 246.109 74C246.695 74.5252 247.843 73.3362 247.976 74.7626C248.119 76.2815 247.619 77.7903 246.453 78.4572C244.899 79.3466 243.259 78.9074 241.66 78.7693C241.057 78.7172 240.863 77.9399 241.095 77.112C241.282 76.4481 241.474 75.7872 241.663 75.1249Z" fill="#F5F4FA"/>
<path d="M232.624 77.7598C231.512 77.3946 230.399 76.8147 229.3 77.8068C222.182 79.2782 215.064 80.751 207.945 82.2204C205.342 82.7577 202.738 83.2877 200.135 83.8184C199.709 83.9051 199.144 84.34 199.014 83.4434C198.892 82.593 199.581 82.6723 199.975 82.5709C201.847 82.0906 203.729 81.6731 205.608 81.2333C206.829 80.2316 208.294 80.2516 209.664 79.9633C215.924 78.6449 222.213 77.5181 228.457 76.0842C229.224 75.9079 230.067 75.4499 230.831 76.1974C231.275 76.0501 231.719 75.9029 232.163 75.7556C234.033 75.3666 235.377 73.8947 236.803 72.5925C236.951 72.2378 237.21 72.0715 237.524 72C237.867 72.4245 238.308 71.9809 238.677 72.1829C239.199 72.5601 238.987 72.9926 238.747 73.4291C237.288 74.9752 235.433 75.8096 233.895 77.2162C233.498 77.481 233.202 78.0878 232.624 77.7598Z" fill="#D0CCD4"/>
<path d="M232 76.9234C224.101 78.2246 216.202 79.5303 208.301 80.8193C207.593 80.9347 206.865 80.9423 206.147 81C206.12 80.261 205.484 80.3824 205 80.2895C209.347 79.2146 213.82 78.764 218.225 77.9753C222.226 77.259 226.269 76.7515 230.277 76.0673C231.228 75.905 231.795 75.9808 232 76.9234Z" fill="#55505A"/>
<path d="M204 80.316C203.95 80.3625 203.908 80.4365 203.848 80.4513C199.96 81.421 199.956 81.4214 199.093 77.8002C198.834 76.7155 198.766 75.5655 198.327 74.5495C197.467 72.5569 198.358 71.9486 200.365 72.0033C200.719 72.013 201.074 72.0182 201.428 72.0255C201.982 74.1496 202.513 76.2789 203.102 78.3946C203.29 79.0671 203.392 79.7993 204 80.316Z" fill="#D4D8E3"/>
<path d="M256 71.2444C255.95 72.3606 255.35 71.9406 254.841 71.8337C252.396 71.3203 249.972 70.5922 247.453 70.8121C247.386 70.8274 247.32 70.8428 247.253 70.8595C246.853 70.9388 246.449 71.149 246.06 70.8157C245.951 70.5633 245.994 70.3423 246.16 70.1467C248.638 69.6519 251.014 70.5328 253.417 70.9566C254.28 71.1088 255.13 71.256 256 71.2444Z" fill="#4B4C51"/>
<path d="M247 70C247 70.1786 246.999 70.3572 246.999 70.5359C244.526 71.8 241.805 71.8597 239.076 71.8864C238.714 71.814 238.189 72.3214 238 71.6374C240.913 70.7006 243.991 70.5037 247 70Z" fill="#4C4F4C"/>
<path d="M237 73C236.203 74.5583 234.115 76.1207 233 75.9926C234.333 74.9952 235.667 73.9976 237 73Z" fill="#49494E"/>
<path d="M234 77.7813C235.442 76.1297 237.33 75.32 238.95 74.0043C239.64 73.1787 240.567 72.9553 241.451 72.7984C243.542 72.4274 245.577 71.6831 247.692 71.4944C247.692 71.4944 247.667 71.4543 247.667 71.454C247.804 71.9564 248.052 72.2766 248.529 72.3018C250.921 72.4286 253.273 72.9728 255.56 73.7284C256.789 74.134 257.219 72.8027 258.203 72.6439C262.348 71.9745 266.47 71.0795 270.59 70.2038C277.057 68.8294 283.516 67.4039 289.979 66C289.694 66.563 289.93 67.1166 290 67.6732C287.813 68.9277 285.386 68.7813 283.079 69.3257C275.7 71.0673 268.265 72.4377 260.84 73.8692C259.472 74.1329 258.066 74.1101 256.721 74.5966C254.901 75.2823 253.219 74.1993 251.486 73.9179C249.939 73.6667 248.409 73.5957 246.864 73.5788C243.107 74.3472 239.245 74.6422 235.899 77.2437C235.372 77.6541 234.777 78.3595 234 77.7813Z" fill="#3D3B3B"/>
<path d="M256 73.6747C257.699 72.389 259.762 73.0893 261.636 72.6928C266.111 71.7463 270.628 70.9274 275.167 70.3704C280.068 69.7689 284.833 68.411 289.758 68C290.251 68.5339 289.92 68.6523 289.405 68.7381C281.694 70.025 273.987 71.3461 266.27 72.5999C262.966 73.1367 259.64 73.5375 256.324 74C256.189 73.9186 256.082 73.8089 256 73.6747Z" fill="#6A6665"/>
<path d="M234.333 77.0777C235.956 76.6377 237.1 74.8538 238.664 74.2602C241.376 73.2315 244.14 72.5406 246.926 72C247.709 72.3444 248.515 72.0805 249.308 72.1664C249.637 72.2019 250.03 72.1103 249.998 72.8278C244.633 72.7651 239.523 74.0407 234.894 77.9571C234.325 78.4386 233.634 78.6587 233 79C233.14 78.6289 233.28 78.2578 233.42 77.8863C233.724 77.6167 234.029 77.3471 234.333 77.0777Z" fill="#878A8A"/>
<path d="M250.274 72.8552C249.299 71.9535 247.994 72.9105 247 72.1176C249.712 71.7127 252.33 72.4373 254.952 73.0169C255.856 73.2169 256.742 73.4029 257.663 73.3088C257.775 73.4371 257.888 73.5654 258 73.6936C255.32 74.6356 252.85 73.1304 250.274 72.8552Z" fill="#B7B4B5"/>
<path d="M248 71.2552C245.012 71.8368 242.025 72.4184 239.037 73C239.188 72.7742 239.495 72.5426 239 72.3409C241.52 71.9554 244.041 71.57 246.561 71.1842C247.047 71.1257 247.555 70.7615 248 71.2552Z" fill="#8D8C8D"/>
<path d="M236.688 42.326C238.099 40.0974 239.785 38.4242 242.286 39.1872C244.338 39.8134 246.209 40.701 245.981 46.0809C245.688 48.89 244.019 50.1391 242.037 50.7951C240.027 51.46 238.254 50.4503 237.068 48.5856C235.896 46.7405 235.573 44.5212 236.688 42.326Z" fill="#B3B0B1"/>
</svg>
