<svg width="445" height="335" viewBox="0 0 445 335" fill="none" xmlns="http://www.w3.org/2000/svg">
<path d="M222.5 0.0383286C296.199 0.0383286 369.898 0.0425328 443.596 8.57057e-07C444.742 -0.000629764 445 0.346492 445 1.88535C444.969 112.295 444.969 222.705 445 333.115C445 334.654 444.742 335 443.596 335C296.199 334.96 148.801 334.96 1.40373 335C0.258055 335 -0.000364643 334.654 5.26683e-05 333.115C0.0312988 222.705 0.0312988 112.295 5.04381e-07 1.88535C-0.000416807 0.346492 0.257951 -0.000629764 1.40368 8.57057e-07C75.1025 0.0425328 148.801 0.0383286 222.5 0.0383286Z" fill="#B5E6FF"/>
<path fill-rule="evenodd" clip-rule="evenodd" d="M106.113 60.8718C126.337 60.8718 142.757 77.2917 142.757 97.516C142.757 117.74 126.337 134.16 106.113 134.16C85.8885 134.16 69.4688 117.74 69.4688 97.516C69.4688 77.2917 85.8885 60.8718 106.113 60.8718Z" fill="#69B6FF"/>
<path fill-rule="evenodd" clip-rule="evenodd" d="M219.236 285.431C199.466 278.257 177.708 278.87 158.373 287.144C149.587 290.913 139.912 293 129.753 293C89.5995 293 57 260.401 57 220.247C57 191.098 78.281 165.93 105.307 154.324C124.102 146.267 139.254 131.542 147.846 112.985C167.878 69.7987 211.575 40 262.404 40C332.222 40 388.905 96.6831 388.905 166.5C388.905 236.317 332.222 293 262.404 293C247.248 293 232.71 290.329 219.236 285.431Z" fill="#69B6FF"/>
<path fill-rule="evenodd" clip-rule="evenodd" d="M133.109 292.924L133.544 100.928C133.544 84.6234 145.856 71.4058 161.043 71.4058H284.374C299.561 71.4058 311.873 84.6234 311.873 100.928V282.948C310.812 283.399 309.744 283.837 308.668 284.26C294.337 289.901 278.731 293 262.406 293C247.25 293 232.712 290.329 219.238 285.431C199.468 278.257 177.71 278.87 158.375 287.144C151.619 290.042 144.337 291.946 136.714 292.671C135.52 292.784 134.319 292.869 133.109 292.924Z" fill="#DDF3FF"/>
<path fill-rule="evenodd" clip-rule="evenodd" d="M130.336 292.996V100.926C130.336 82.7216 144.083 67.9634 161.04 67.9634H284.371C301.328 67.9634 315.075 82.7216 315.075 100.926V123.813V202.983V222.751V261.751V281.528C314.015 282.015 312.947 282.488 311.87 282.946C310.809 283.398 309.741 283.835 308.665 284.259V100.926C308.665 86.5219 297.788 74.8457 284.371 74.8457H161.04C147.623 74.8457 136.746 86.5219 136.746 100.926V285.221C136.736 285.213 136.724 285.206 136.713 285.2C136.092 284.885 134.551 287.92 133.112 290.584C132.636 291.465 132.171 292.306 131.754 292.971C131.283 292.984 130.809 292.992 130.336 292.996Z" fill="#3D5A6A"/>
<path fill-rule="evenodd" clip-rule="evenodd" d="M130.336 292.996V100.926C130.336 82.7216 144.083 67.9634 161.04 67.9634H284.371C301.328 67.9634 315.075 82.7216 315.075 100.926V123.813V202.983V222.751V261.751V281.528C314.015 282.015 312.947 282.488 311.87 282.946C310.809 283.398 309.741 283.835 308.665 284.259V100.926C308.665 86.5219 297.788 74.8457 284.371 74.8457H161.04C147.623 74.8457 136.746 86.5219 136.746 100.926L136.712 292.669C135.518 292.783 134.316 292.867 133.107 292.922C132.657 292.943 132.206 292.959 131.754 292.971C131.283 292.984 130.809 292.992 130.336 292.996Z" fill="#3378A6"/>
<path fill-rule="evenodd" clip-rule="evenodd" d="M226.731 83.4338C229.51 83.4338 231.764 85.6878 231.764 88.4669C231.764 91.2467 229.51 93.5 226.731 93.5C220.25 93.5 209.053 93.5 202.572 93.5C199.792 93.5 197.539 91.2467 197.539 88.4669C197.539 85.6878 199.792 83.4338 202.572 83.4338C209.053 83.4338 220.25 83.4338 226.731 83.4338Z" fill="#2072C1"/>
<path fill-rule="evenodd" clip-rule="evenodd" d="M242.832 83.4338C245.611 83.4338 247.865 85.6878 247.865 88.4669C247.865 91.2467 245.611 93.5 242.832 93.5C242.781 93.5 242.731 93.5 242.681 93.5C239.902 93.5 237.648 91.2467 237.648 88.4669C237.648 85.6878 239.902 83.4338 242.681 83.4338C242.731 83.4338 242.781 83.4338 242.832 83.4338Z" fill="#2072C1"/>
<path fill-rule="evenodd" clip-rule="evenodd" d="M315.07 123.816C316.268 123.816 317.416 124.291 318.262 125.138C319.108 125.984 319.584 127.132 319.584 128.329C319.584 134.641 319.584 146.038 319.584 152.35C319.584 153.547 319.108 154.695 318.262 155.541C317.416 156.388 316.268 156.863 315.07 156.863V123.816Z" fill="#192E39"/>
<path fill-rule="evenodd" clip-rule="evenodd" d="M315.07 169.937C316.268 169.937 317.416 170.412 318.262 171.259C319.108 172.105 319.584 173.253 319.584 174.45C319.584 180.762 319.584 192.159 319.584 198.471C319.584 199.668 319.108 200.816 318.262 201.662C317.416 202.509 316.268 202.984 315.07 202.984V169.937Z" fill="#192E39"/>
<path fill-rule="evenodd" clip-rule="evenodd" d="M315.07 222.749C316.268 222.749 317.416 223.225 318.262 224.071C319.108 224.918 319.584 226.065 319.584 227.263C319.584 234.769 319.584 249.731 319.584 257.236C319.584 258.434 319.108 259.582 318.262 260.428C317.416 261.274 316.268 261.75 315.07 261.75V222.749Z" fill="#192E39"/>
<path fill-rule="evenodd" clip-rule="evenodd" d="M265.157 134.159C275.682 134.159 284.214 142.691 284.214 153.217C284.214 175.527 284.214 212.258 284.214 234.568C284.214 245.092 275.682 253.625 265.157 253.625C243.12 253.625 207.056 253.625 185.018 253.625C174.493 253.625 165.961 245.092 165.961 234.568C165.961 212.258 165.961 175.527 165.961 153.217C165.961 142.691 174.493 134.159 185.018 134.159C207.056 134.159 243.12 134.159 265.157 134.159Z" fill="white"/>
<path fill-rule="evenodd" clip-rule="evenodd" d="M231.971 173.808C240.478 178.047 246.39 187.395 246.39 198.246H197.039C197.039 187.395 202.95 178.047 211.458 173.808C213.672 177.405 217.441 179.776 221.714 179.776C225.988 179.776 229.756 177.405 231.971 173.808Z" fill="#B6DBFA"/>
<path fill-rule="evenodd" clip-rule="evenodd" d="M221.712 151.412C228.522 151.412 234.05 157.43 234.05 164.843C234.05 172.255 228.522 178.273 221.712 178.273C214.903 178.273 209.375 172.255 209.375 164.843C209.375 157.43 214.903 151.412 221.712 151.412Z" fill="#B6DBFA"/>
<path fill-rule="evenodd" clip-rule="evenodd" d="M254.174 207.962C256.754 207.962 258.845 210.053 258.845 212.633C258.845 215.213 256.754 217.305 254.174 217.305C241.181 217.305 204.719 217.305 191.726 217.305C189.146 217.305 187.055 215.213 187.055 212.633C187.055 210.053 189.146 207.962 191.726 207.962C204.719 207.962 241.181 207.962 254.174 207.962Z" fill="#E1F1FF"/>
<path fill-rule="evenodd" clip-rule="evenodd" d="M259.809 227.024C262.389 227.024 264.481 229.116 264.481 231.695C264.481 234.275 262.389 236.367 259.809 236.367C245.229 236.367 200.673 236.367 186.093 236.367C183.513 236.367 181.422 234.275 181.422 231.695C181.422 229.116 183.513 227.024 186.093 227.024C200.673 227.024 245.229 227.024 259.809 227.024Z" fill="#E1F1FF"/>
<path fill-rule="evenodd" clip-rule="evenodd" d="M276.077 258.592C278.234 258.592 280.304 259.449 281.83 260.976C283.357 262.502 284.214 264.572 284.214 266.73C284.214 268.888 283.357 270.958 281.83 272.484C280.304 274.01 278.234 274.867 276.077 274.867C254.45 274.867 195.725 274.867 174.099 274.867C171.94 274.867 169.87 274.01 168.344 272.484C166.818 270.958 165.961 268.888 165.961 266.73C165.961 264.572 166.818 262.502 168.344 260.976C169.87 259.449 171.94 258.592 174.099 258.592C195.725 258.592 254.45 258.592 276.077 258.592Z" fill="white"/>
<path fill-rule="evenodd" clip-rule="evenodd" d="M308.406 42.0005C334.019 42.0005 354.812 62.7938 354.812 88.4065C354.812 114.018 334.019 134.812 308.406 134.812C282.794 134.812 262 114.018 262 88.4065C262 62.7938 282.794 42.0005 308.406 42.0005Z" fill="#002CAB"/>
<path fill-rule="evenodd" clip-rule="evenodd" d="M304.518 104.577C303.437 105.657 301.686 105.657 300.606 104.575C297.54 101.506 291.54 95.5019 287.589 91.5466C286.57 90.5268 285.999 89.1447 286 87.7039C286.001 86.263 286.573 84.8809 287.593 83.8625C289.716 81.7423 293.155 81.7437 295.276 83.8668C297.782 86.3748 300.806 89.4023 302.023 90.6203C302.168 90.7646 302.364 90.846 302.569 90.846C302.774 90.8467 302.97 90.7653 303.115 90.6203C305.552 88.1858 315.559 78.1876 321.16 72.5912C322.18 71.5728 323.562 71.001 325.003 71.0017C326.444 71.0024 327.826 71.5749 328.844 72.5947C329.863 73.6138 330.434 74.9959 330.434 76.4375C330.433 77.8783 329.86 79.2597 328.841 80.2781C322.346 86.7669 309.429 99.6709 304.518 104.577Z" fill="white"/>
</svg>
