<svg width="435" height="335" viewBox="0 0 435 335" fill="none" xmlns="http://www.w3.org/2000/svg">
<g clip-path="url(#clip0_1037_2)">
<rect width="435" height="335" fill="#B5E6FF"/>
<path d="M435 0H0V335H435V0Z" fill="#B5E6FF"/>
<path d="M361.194 204.17C345.964 216.252 324.855 197.573 329.903 182.29C332.513 174.388 338.703 168.106 339.946 159.752C341.229 151.126 345.309 147.48 351.975 142.269C354.589 140.225 355.635 136.467 356.851 133.401C359.147 127.613 362.578 122.742 368.096 119.637C374.899 115.81 388.286 120.972 389.954 129.548C391.978 139.955 378.474 144.881 374.054 151.565C370.26 157.301 373.839 164.857 368.279 171.073C359.924 180.411 373.17 195.269 361.194 204.17Z" fill="#88C8FC"/>
<path d="M345.246 221.804C344.93 221.804 344.661 221.562 344.632 221.241C341.935 191.537 350.985 161.429 369.462 138.639C369.677 138.373 370.066 138.333 370.332 138.549C370.596 138.764 370.637 139.153 370.422 139.418C352.145 161.961 343.193 191.744 345.862 221.131C345.893 221.47 345.643 221.77 345.302 221.801C345.284 221.803 345.265 221.804 345.246 221.804Z" fill="#29275F"/>
<path d="M353.863 184.641C349.753 190.454 346.517 196.969 339.547 198.248C329.023 200.181 316.42 210.218 317.063 223.33C316.879 250.026 357.601 249.482 360.746 229.654C362.23 220.281 364.609 216.193 374.188 214.818C379.925 213.998 381.661 209.165 383.275 204.213C384.772 201.939 386.917 200.185 389.487 199.25C393.133 197.922 397.248 198.498 401.149 198.381C404.59 198.279 408.03 197.569 410.583 195.298C413.013 193.129 414.603 190.058 415.027 186.63C415.441 183.216 414.587 179.638 412.598 176.6C410.722 173.741 407.875 171.411 404.801 170.202C401.314 168.822 397.753 168.842 394.522 170.18C390.781 171.72 387.877 174.514 384.977 177.237C384.958 177.259 384.935 177.274 384.916 177.296C381.185 180.815 375.861 182.072 370.585 180.754C364.293 179.183 358.298 178.376 353.863 184.641Z" fill="#508DD2"/>
<path d="M316.57 247.544C316.463 247.544 316.355 247.516 316.256 247.458C315.963 247.284 315.865 246.904 316.04 246.612C333.344 217.478 360.509 195.766 392.531 185.475C392.853 185.371 393.203 185.549 393.307 185.874C393.412 186.199 393.233 186.546 392.909 186.65C361.174 196.849 334.252 218.368 317.101 247.242C316.987 247.436 316.781 247.544 316.57 247.544Z" fill="#29275F"/>
<path d="M70.3487 215.21C85.5785 227.292 106.688 208.613 101.639 193.329C99.0294 185.428 92.838 179.146 91.5961 170.792C90.313 162.166 86.2332 158.52 79.5674 153.308C76.9535 151.264 75.9076 147.506 74.6912 144.44C72.3952 138.653 68.9643 133.781 63.4458 130.677C56.6433 126.85 43.2558 132.011 41.5881 140.587C39.5639 150.994 53.0683 155.92 57.4883 162.604C61.2823 168.341 57.7032 175.896 63.2629 182.112C71.6178 191.452 58.3719 206.309 70.3487 215.21Z" fill="#508DD2"/>
<path d="M86.3213 232.851C86.3024 232.851 86.2835 232.85 86.2645 232.848C85.9244 232.817 85.6749 232.517 85.7053 232.177C88.3744 202.79 79.4225 173.007 61.1456 150.464C60.9307 150.199 60.9719 149.81 61.2362 149.595C61.5006 149.38 61.8901 149.421 62.1051 149.686C80.5829 172.477 89.6336 202.585 86.9357 232.288C86.9069 232.609 86.6368 232.851 86.3213 232.851Z" fill="#29275F"/>
<path d="M80.2662 192.152C84.3757 197.965 87.6114 204.48 94.5819 205.759C105.106 207.691 117.709 217.73 117.066 230.841C117.25 257.538 76.5273 256.994 73.3831 237.165C71.899 227.793 69.5198 223.704 59.9404 222.33C54.2036 221.51 52.4684 216.677 50.8534 211.724C49.357 209.451 47.2117 207.697 44.6414 206.762C40.9948 205.433 36.8804 206.01 32.9801 205.893C29.5385 205.791 26.0994 205.081 23.5456 202.809C21.1161 200.641 19.5258 197.57 19.1017 194.142C18.6883 190.728 19.5423 187.15 21.5312 184.112C23.4072 181.252 26.2542 178.923 29.3276 177.714C32.8145 176.334 36.3763 176.354 39.6071 177.691C43.3476 179.231 46.2514 182.026 49.152 184.749C49.1709 184.77 49.194 184.786 49.2129 184.808C52.9436 188.327 58.2678 189.584 63.5434 188.266C69.8361 186.694 75.8306 185.887 80.2662 192.152Z" fill="#88C8FC"/>
<path d="M117.563 255.056C117.352 255.056 117.147 254.948 117.032 254.753C99.8823 225.88 72.9598 204.362 41.2254 194.162C40.9001 194.057 40.7222 193.71 40.8268 193.385C40.9306 193.06 41.279 192.883 41.6034 192.987C73.6252 203.278 100.791 224.99 118.094 254.123C118.268 254.416 118.171 254.795 117.878 254.969C117.779 255.028 117.67 255.056 117.563 255.056Z" fill="#29275F"/>
<path d="M371.17 281.928H60.548C57.0825 281.928 54.2734 279.119 54.2734 275.653V273.012H377.445V275.653C377.445 279.118 374.636 281.928 371.17 281.928Z" fill="#29275F"/>
<path d="M343.73 223.801H87.9884L54.2734 273.004H377.445L343.73 223.801Z" fill="white"/>
<path d="M339.319 61.5898H92.3827C90.0225 61.5898 88.1094 63.5029 88.1094 65.8632V223.807H343.593V65.8632C343.593 63.5029 341.68 61.5898 339.319 61.5898Z" fill="#02248C"/>
<path d="M335.791 75.0273H95.9453V211.216H335.791V75.0273Z" fill="#67A4E9"/>
<path d="M371.164 282.542H60.5415C56.7408 282.542 53.6484 279.449 53.6484 275.649V273.008C53.6484 272.667 53.9251 272.391 54.2661 272.391H377.438C377.779 272.391 378.056 272.667 378.056 273.008V275.649C378.057 279.449 374.965 282.542 371.164 282.542ZM54.8846 273.626V275.649C54.8846 278.768 57.4227 281.306 60.5423 281.306H371.164C374.284 281.306 376.821 278.768 376.821 275.649V273.626H54.8846Z" fill="#02248C"/>
<path d="M377.439 273.625H54.2664C54.0375 273.625 53.8267 273.498 53.7196 273.295C53.6125 273.093 53.6274 272.847 53.7567 272.659L87.4717 223.456C87.587 223.288 87.7772 223.188 87.9814 223.188H343.723C343.926 223.188 344.117 223.288 344.232 223.456L377.947 272.659C378.077 272.848 378.091 273.093 377.984 273.295C377.878 273.497 377.667 273.625 377.439 273.625ZM55.4383 272.389H376.267L343.397 224.422H88.3067L55.4383 272.389Z" fill="#29275F"/>
<path d="M343.601 224.421H88.1177C87.7767 224.421 87.5 224.145 87.5 223.804V65.8598C87.5 63.1627 89.6939 60.9688 92.391 60.9688H339.328C342.025 60.9688 344.22 63.1627 344.22 65.8598V223.804C344.219 224.145 343.942 224.421 343.601 224.421ZM88.7353 223.186H342.983V65.8598C342.983 63.8438 341.344 62.2041 339.327 62.2041H92.391C90.375 62.2041 88.7353 63.8438 88.7353 65.8598V223.186Z" fill="#29275F"/>
<path d="M335.784 211.837H95.938C95.597 211.837 95.3203 211.56 95.3203 211.219V75.0317C95.3203 74.6908 95.597 74.4141 95.938 74.4141H335.784C336.125 74.4141 336.402 74.6908 336.402 75.0317V211.219C336.402 211.56 336.125 211.837 335.784 211.837ZM96.5556 210.601H335.166V75.6494H96.5556V210.601Z" fill="#29275F"/>
<path d="M281.565 216.859H150.148V222.829H281.565V216.859Z" fill="white"/>
<path d="M204.723 68.1622C204.723 70.3858 202.92 72.1877 200.697 72.1877C198.474 72.1877 196.672 70.3858 196.672 68.1622C196.672 65.9386 198.474 64.1367 200.697 64.1367C202.92 64.1367 204.723 65.9386 204.723 68.1622Z" fill="#67A4E9"/>
<path d="M262.198 269.646H169.516C169.287 269.646 169.077 269.519 168.97 269.317C168.863 269.114 168.877 268.868 169.007 268.68L178.676 254.569C178.791 254.401 178.981 254.301 179.186 254.301H252.53C252.733 254.301 252.924 254.401 253.039 254.569L262.708 268.68C262.837 268.868 262.851 269.114 262.744 269.317C262.638 269.518 262.428 269.646 262.198 269.646ZM170.689 268.411H261.027L252.204 255.535H179.512L170.689 268.411Z" fill="#29275F"/>
<path d="M121.514 236.991H104.422C104.203 236.991 103.999 236.874 103.889 236.685C103.779 236.497 103.776 236.262 103.884 236.071L108.269 228.265C108.379 228.07 108.585 227.949 108.808 227.949H125.229C125.44 227.949 125.637 228.058 125.751 228.237C125.864 228.417 125.877 228.641 125.786 228.833L122.071 236.639C121.969 236.854 121.752 236.991 121.514 236.991ZM105.478 235.756H121.124L124.251 229.185H109.17L105.478 235.756Z" fill="#29275F"/>
<path d="M151.022 236.991H133.931C133.724 236.991 133.532 236.888 133.417 236.717C133.302 236.545 133.281 236.328 133.359 236.138L136.587 228.331C136.683 228.1 136.908 227.949 137.158 227.949H153.579C153.777 227.949 153.963 228.044 154.079 228.205C154.195 228.365 154.228 228.571 154.166 228.76L151.608 236.566C151.526 236.82 151.29 236.991 151.022 236.991ZM134.855 235.756H150.575L152.728 229.185H137.572L134.855 235.756Z" fill="#29275F"/>
<path d="M180.538 236.988H163.446C163.254 236.988 163.073 236.899 162.957 236.747C162.84 236.594 162.799 236.397 162.849 236.212L164.92 228.405C164.992 228.134 165.237 227.945 165.517 227.945H181.939C182.121 227.945 182.295 228.027 182.412 228.167C182.53 228.308 182.578 228.493 182.546 228.673L181.145 236.479C181.093 236.775 180.837 236.988 180.538 236.988ZM164.25 235.753H180.021L181.201 229.181H165.993L164.25 235.753Z" fill="#29275F"/>
<path d="M210.046 236.988H192.954C192.778 236.988 192.61 236.912 192.492 236.78C192.376 236.649 192.32 236.473 192.34 236.298L193.254 228.491C193.29 228.18 193.555 227.945 193.868 227.945H210.289C210.456 227.945 210.617 228.013 210.733 228.133C210.849 228.253 210.912 228.415 210.907 228.582L210.663 236.388C210.654 236.723 210.381 236.988 210.046 236.988ZM193.649 235.753H209.448L209.653 229.181H194.419L193.649 235.753Z" fill="#29275F"/>
<path d="M239.547 236.988H222.455C222.122 236.988 221.849 236.723 221.838 236.389L221.594 228.583C221.589 228.416 221.652 228.253 221.769 228.133C221.885 228.013 222.045 227.945 222.212 227.945H238.633C238.947 227.945 239.21 228.18 239.247 228.491L240.16 236.299C240.18 236.474 240.125 236.649 240.008 236.781C239.891 236.912 239.723 236.988 239.547 236.988ZM223.054 235.753H238.854L238.085 229.181H222.849L223.054 235.753Z" fill="#29275F"/>
<path d="M269.055 236.988H251.964C251.665 236.988 251.408 236.773 251.356 236.479L249.955 228.673C249.923 228.492 249.971 228.308 250.089 228.167C250.207 228.027 250.381 227.945 250.563 227.945H266.984C267.264 227.945 267.51 228.134 267.581 228.405L269.652 236.212C269.701 236.398 269.662 236.596 269.545 236.747C269.428 236.899 269.247 236.988 269.055 236.988ZM252.481 235.753H268.252L266.509 229.181H251.301L252.481 235.753Z" fill="#29275F"/>
<path d="M298.572 236.988H281.48C281.213 236.988 280.976 236.816 280.893 236.562L278.335 228.756C278.274 228.568 278.306 228.362 278.422 228.201C278.539 228.041 278.724 227.945 278.922 227.945H295.343C295.593 227.945 295.818 228.096 295.913 228.327L299.142 236.134C299.221 236.324 299.199 236.541 299.084 236.713C298.97 236.885 298.778 236.988 298.572 236.988ZM281.927 235.753H297.647L294.93 229.181H279.775L281.927 235.753Z" fill="#29275F"/>
<path d="M328.089 236.989H310.997C310.758 236.989 310.541 236.851 310.439 236.635L306.724 228.829C306.633 228.638 306.646 228.412 306.76 228.234C306.873 228.054 307.07 227.945 307.282 227.945H323.703C323.927 227.945 324.133 228.066 324.241 228.261L328.627 236.067C328.734 236.258 328.732 236.493 328.621 236.681C328.511 236.873 328.309 236.989 328.089 236.989ZM311.387 235.753H327.034L323.343 229.182H308.261L311.387 235.753Z" fill="#29275F"/>
<path d="M103.021 247.948H85.9297C85.7106 247.948 85.5072 247.831 85.3968 247.642C85.2865 247.453 85.284 247.219 85.3919 247.028L89.7773 239.222C89.8868 239.027 90.0927 238.906 90.3159 238.906H106.737C106.949 238.906 107.146 239.015 107.259 239.194C107.372 239.374 107.385 239.598 107.295 239.79L103.58 247.597C103.477 247.81 103.259 247.948 103.021 247.948ZM86.9854 246.713H102.631L105.758 240.142H90.6766L86.9854 246.713Z" fill="#29275F"/>
<path d="M132.521 247.949H115.431C115.224 247.949 115.032 247.846 114.917 247.675C114.802 247.503 114.781 247.286 114.859 247.096L118.086 239.288C118.182 239.057 118.408 238.906 118.657 238.906H135.079C135.276 238.906 135.462 239.001 135.578 239.161C135.695 239.321 135.727 239.527 135.665 239.716L133.107 247.522C133.026 247.777 132.788 247.949 132.521 247.949ZM116.354 246.713H132.073L134.226 240.142H119.071L116.354 246.713Z" fill="#29275F"/>
<path d="M162.03 247.948H144.938C144.746 247.948 144.565 247.859 144.449 247.707C144.332 247.554 144.292 247.357 144.341 247.172L146.412 239.366C146.483 239.095 146.729 238.906 147.009 238.906H163.43C163.612 238.906 163.786 238.988 163.903 239.127C164.021 239.268 164.069 239.452 164.037 239.633L162.636 247.439C162.585 247.734 162.328 247.948 162.03 247.948ZM145.741 246.713H161.513L162.692 240.142H147.485L145.741 246.713Z" fill="#29275F"/>
<path d="M191.554 247.948H174.462C174.286 247.948 174.118 247.872 174 247.74C173.883 247.61 173.827 247.433 173.848 247.259L174.761 239.452C174.797 239.141 175.062 238.906 175.375 238.906H191.795C191.963 238.906 192.122 238.974 192.239 239.093C192.355 239.214 192.418 239.376 192.413 239.543L192.17 247.35C192.161 247.684 191.888 247.948 191.554 247.948ZM175.157 246.713H190.955L191.16 240.142H175.926L175.157 246.713Z" fill="#29275F"/>
<path d="M221.053 247.949H203.962C203.629 247.949 203.355 247.684 203.345 247.35L203.102 239.543C203.097 239.376 203.159 239.214 203.276 239.093C203.392 238.974 203.551 238.906 203.719 238.906H220.14C220.454 238.906 220.717 239.141 220.754 239.452L221.667 247.259C221.687 247.434 221.632 247.609 221.515 247.741C221.398 247.873 221.23 247.949 221.053 247.949ZM204.561 246.713H220.36L219.591 240.142H204.356L204.561 246.713Z" fill="#29275F"/>
<path d="M250.562 247.948H233.471C233.172 247.948 232.916 247.733 232.864 247.439L231.463 239.633C231.431 239.452 231.48 239.268 231.597 239.127C231.715 238.987 231.888 238.906 232.071 238.906H248.492C248.772 238.906 249.017 239.095 249.089 239.366L251.159 247.173C251.209 247.358 251.169 247.556 251.052 247.707C250.935 247.859 250.753 247.948 250.562 247.948ZM233.987 246.713H249.759L248.016 240.142H232.808L233.987 246.713Z" fill="#29275F"/>
<path d="M280.063 247.948H262.973C262.706 247.948 262.469 247.776 262.386 247.522L259.827 239.716C259.766 239.527 259.798 239.321 259.914 239.161C260.031 239.001 260.216 238.906 260.414 238.906H276.835C277.085 238.906 277.31 239.057 277.406 239.288L280.633 247.096C280.712 247.286 280.69 247.503 280.575 247.675C280.463 247.845 280.269 247.948 280.063 247.948ZM263.42 246.713H279.14L276.423 240.142H261.267L263.42 246.713Z" fill="#29275F"/>
<path d="M309.589 247.95H292.498C292.26 247.95 292.042 247.812 291.939 247.597L288.224 239.79C288.133 239.599 288.146 239.374 288.26 239.194C288.373 239.015 288.57 238.906 288.782 238.906H305.203C305.427 238.906 305.633 239.026 305.742 239.222L310.127 247.028C310.234 247.219 310.231 247.454 310.121 247.642C310.011 247.833 309.809 247.95 309.589 247.95ZM292.888 246.714H308.534L304.843 240.143H289.76L292.888 246.714Z" fill="#29275F"/>
<path d="M338.487 247.95H321.396C321.158 247.95 320.941 247.812 320.838 247.597L317.122 239.79C317.031 239.599 317.045 239.374 317.158 239.194C317.271 239.015 317.469 238.906 317.68 238.906H334.101C334.324 238.906 334.53 239.026 334.64 239.222L339.025 247.028C339.132 247.219 339.13 247.454 339.019 247.642C338.91 247.833 338.707 247.95 338.487 247.95ZM321.787 246.714H337.432L333.741 240.143H318.659L321.787 246.714Z" fill="#29275F"/>
<path d="M286.229 51.0535V183.689C286.229 191.581 279.829 197.981 271.937 197.981H159.776C151.884 197.981 145.484 191.581 145.484 183.689V51.0535C145.484 43.1615 151.884 36.7617 159.776 36.7617H271.936C279.828 36.7617 286.229 43.1615 286.229 51.0535Z" fill="white"/>
<path d="M242.632 44.7964C242.632 46.7482 241.049 48.331 239.097 48.331C237.145 48.331 235.562 46.7482 235.562 44.7964C235.562 42.8446 237.145 41.2617 239.097 41.2617C241.049 41.2625 242.632 42.8446 242.632 44.7964Z" fill="#88C8FC"/>
<path d="M258.147 44.7964C258.147 46.7482 256.565 48.331 254.613 48.331C252.661 48.331 251.078 46.7482 251.078 44.7964C251.078 42.8446 252.661 41.2617 254.613 41.2617C256.565 41.2625 258.147 42.8446 258.147 44.7964Z" fill="#508DD2"/>
<path d="M273.686 44.7964C273.686 46.7482 272.104 48.331 270.152 48.331C268.2 48.331 266.617 46.7482 266.617 44.7964C266.617 42.8446 268.199 41.2617 270.152 41.2617C272.104 41.2617 273.686 42.8446 273.686 44.7964Z" fill="#02248C"/>
<path d="M271.936 198.6H159.777C151.555 198.6 144.867 191.911 144.867 183.689V51.054C144.867 42.8334 151.556 36.1445 159.777 36.1445H271.937C280.157 36.1445 286.846 42.8334 286.846 51.054V183.689C286.846 191.91 280.157 198.6 271.936 198.6ZM159.777 37.3799C152.236 37.3799 146.103 43.5145 146.103 51.054V183.689C146.103 191.229 152.237 197.364 159.777 197.364H271.937C279.476 197.364 285.611 191.23 285.611 183.689V51.054C285.611 43.5145 279.476 37.3799 271.937 37.3799H159.777Z" fill="#29275F"/>
<path d="M286.229 51.6728H145.485C145.144 51.6728 144.867 51.3961 144.867 51.0552C144.867 50.7142 145.144 50.4375 145.485 50.4375H286.229C286.57 50.4375 286.847 50.7142 286.847 51.0552C286.847 51.3961 286.57 51.6728 286.229 51.6728Z" fill="#29275F"/>
<path d="M194.018 69.0701L178.731 62.597L163.445 69.0701V33.0234H194.018V69.0701Z" fill="#508DD2"/>
<path d="M191.426 77.543H155.969V115.837H191.426V77.543Z" fill="#88C8FC"/>
<path d="M275.75 77.543H196.32V80.7968H275.75V77.543Z" fill="#C7C7C7"/>
<path d="M275.75 86.2578H196.32V89.5116H275.75V86.2578Z" fill="#C7C7C7"/>
<path d="M275.75 94.9727H196.32V98.2265H275.75V94.9727Z" fill="#C7C7C7"/>
<path d="M275.75 103.676H196.32V106.93H275.75V103.676Z" fill="#C7C7C7"/>
<path d="M242.225 112.391H196.32V115.644H242.225V112.391Z" fill="#C7C7C7"/>
<path d="M275.751 129.309H155.969V132.562H275.751V129.309Z" fill="#C7C7C7"/>
<path d="M275.751 138.023H155.969V141.277H275.751V138.023Z" fill="#C7C7C7"/>
<path d="M275.751 146.734H155.969V149.988H275.751V146.734Z" fill="#C7C7C7"/>
<path d="M275.751 155.445H155.969V158.699H275.751V155.445Z" fill="#C7C7C7"/>
<path d="M242.226 164.152H155.969V167.406H242.226V164.152Z" fill="#C7C7C7"/>
<path d="M275.259 61.5898H220.109V70.6834H275.259V61.5898Z" fill="#88C8FC"/>
<path d="M219.275 189.685C219.185 189.685 219.093 189.665 219.009 189.625L206.391 183.606C206.083 183.459 205.952 183.091 206.1 182.783C206.246 182.475 206.616 182.345 206.922 182.491L219.275 188.382L231.629 182.491C231.938 182.342 232.305 182.475 232.452 182.783C232.6 183.091 232.469 183.459 232.161 183.606L219.542 189.625C219.458 189.665 219.367 189.685 219.275 189.685Z" fill="#29275F"/>
<path d="M399.466 351.973H326.249L306.437 277.291C306.437 277.291 286.294 256.015 276.714 240.789C267.124 225.553 263.413 220.496 262.59 215.524C261.863 211.076 256.635 178.798 255.522 171.923C255.394 171.185 255.629 170.426 256.142 169.891C256.228 169.784 256.324 169.699 256.441 169.614C258.751 167.871 264.375 165.551 270.769 176.585C278.135 189.298 279.204 205.346 279.365 209.077L281.974 213.483L289.105 225.51L298.022 240.543C298.022 240.543 307.506 238.79 313.995 231.07L305.089 216.037L297.958 204.009L295.157 199.273L295.125 199.23L275.965 172.276C275.965 172.276 266.535 168.192 257.243 163.809C247.952 159.425 244.98 144.189 251.748 145.226C254.314 145.622 259.981 147.696 266.022 150.123C275.858 154.058 286.667 158.901 286.667 158.901C290.901 155.041 298.108 157.266 298.108 157.266C298.108 157.266 303.165 154.592 308.222 155.33C313.268 156.079 336.383 177.847 340.019 185.054C343.664 192.26 352.207 260.057 352.207 260.057L399.466 351.973Z" fill="white"/>
<path d="M261.435 150.778C261.279 151.949 260.947 153.316 260.224 154.439C259.434 155.668 257.863 156.127 256.515 155.571L249.965 152.877C248.696 152.35 247.935 151.052 248.09 149.695C248.217 148.611 248.52 147.352 249.203 146.318C249.964 145.156 251.428 144.697 252.737 145.156L259.414 147.489C260.781 147.967 261.62 149.343 261.435 150.778Z" fill="#AFD4EF"/>
<path d="M264.16 181.605C262.418 183.027 259.702 183.111 258.264 183.043C257.697 183.018 257.232 182.595 257.139 182.037L255.608 172.578C255.54 172.139 255.717 171.699 256.065 171.428C257.892 170.015 260.109 170.015 261.192 170.125C261.615 170.167 261.987 170.412 262.173 170.802C263.349 173.332 264.296 178.67 264.593 180.48C264.659 180.912 264.491 181.335 264.16 181.605Z" fill="#AFD4EF"/>
<path d="M297.95 204.011C291.449 211.73 281.965 213.485 281.965 213.485L279.357 209.079C279.196 205.348 278.127 189.299 270.76 176.587C264.366 165.553 258.743 167.873 256.433 169.616C256.315 169.702 256.219 169.787 256.134 169.893L236.953 137.508C237.273 137.979 238.118 139.176 239.22 140.246L239.402 140.428C239.711 140.716 240.032 140.994 240.374 141.23C240.47 141.316 240.578 141.38 240.684 141.455C240.876 141.583 241.068 141.701 241.272 141.796C241.411 141.871 241.55 141.936 241.688 141.989C241.828 142.043 241.966 142.096 242.116 142.139C242.244 142.171 242.384 142.203 242.522 142.225C242.522 142.225 242.533 142.225 242.543 142.225C242.683 142.246 242.821 142.257 242.96 142.257C243.409 142.257 243.868 142.139 244.307 141.883C246.029 140.868 246.382 138.889 246.318 137.211C246.318 137.157 246.318 137.104 246.307 137.05C246.296 136.74 246.275 136.452 246.232 136.184C246.232 136.13 246.221 136.088 246.221 136.045C246.2 135.916 246.178 135.799 246.168 135.692C246.157 135.682 246.157 135.671 246.157 135.671C246.039 134.954 245.879 134.452 245.857 134.356C245.879 134.377 245.922 134.42 245.975 134.484C246.007 134.516 246.039 134.548 246.071 134.591C246.114 134.634 246.157 134.688 246.2 134.73C246.36 134.891 246.563 135.083 246.799 135.297C246.895 135.404 247.002 135.49 247.109 135.575C247.238 135.682 247.365 135.8 247.504 135.896C247.536 135.928 247.579 135.96 247.611 135.981C247.772 136.11 247.932 136.228 248.103 136.334C248.146 136.366 248.189 136.398 248.232 136.43C248.51 136.602 248.809 136.772 249.109 136.911C249.269 136.986 249.418 137.061 249.579 137.115C249.739 137.179 249.899 137.222 250.06 137.264C250.21 137.318 250.369 137.35 250.53 137.361C250.968 137.425 251.396 137.414 251.824 137.297C251.952 137.264 252.08 137.222 252.208 137.168C252.337 137.115 252.476 137.04 252.604 136.965C252.956 136.751 253.224 136.473 253.427 136.13C253.481 136.056 253.524 135.981 253.566 135.895C253.566 135.884 253.566 135.884 253.566 135.884C253.641 135.724 253.706 135.564 253.759 135.393C253.781 135.35 253.791 135.318 253.791 135.275C253.845 135.136 253.877 134.987 253.898 134.837C253.93 134.665 253.952 134.495 253.963 134.324C253.973 134.302 253.973 134.27 253.973 134.238C254.005 133.875 254.005 133.5 253.984 133.105C253.973 132.955 253.963 132.805 253.952 132.667C253.909 132.186 253.845 131.705 253.748 131.244C253.727 131.084 253.695 130.935 253.652 130.785C253.609 130.571 253.566 130.357 253.513 130.154C253.459 129.94 253.406 129.737 253.352 129.545C253.106 128.657 252.871 128.015 252.807 127.855L266.012 150.127C259.971 147.7 254.304 145.625 251.738 145.23C244.97 144.193 247.942 159.429 257.234 163.812C266.525 168.196 275.955 172.28 275.955 172.28L295.115 199.234L295.147 199.277L297.95 204.011Z" fill="#E6AC4B"/>
<path d="M305.084 216.036C298.584 223.766 289.1 225.509 289.1 225.509L281.969 213.481C281.969 213.481 291.453 211.728 297.953 204.008L305.084 216.036Z" fill="#C7C7C7"/>
<path d="M313.984 231.072C307.494 238.791 298.011 240.545 298.011 240.545L289.094 225.512C289.094 225.512 298.578 223.77 305.078 216.039L313.984 231.072Z" fill="white"/>
<path d="M253.989 133.103C254.011 133.498 254.011 133.873 253.979 134.236C253.979 134.268 253.979 134.301 253.968 134.322C253.957 134.493 253.936 134.664 253.904 134.835C253.893 134.878 253.882 134.931 253.872 134.974C253.861 135.028 253.861 135.071 253.84 135.113C253.829 135.167 253.818 135.221 253.797 135.274C253.786 135.317 253.775 135.349 253.765 135.392C253.711 135.563 253.647 135.723 253.572 135.883C253.572 135.883 253.572 135.883 253.572 135.894C253.529 135.98 253.486 136.055 253.433 136.13C253.229 136.471 252.962 136.75 252.609 136.964C252.481 137.039 252.341 137.114 252.214 137.167C252.086 137.221 251.958 137.264 251.829 137.296C251.402 137.414 250.974 137.424 250.535 137.36C250.386 137.339 250.226 137.307 250.065 137.264C249.905 137.221 249.745 137.178 249.584 137.114C249.424 137.06 249.275 136.985 249.114 136.91C248.815 136.771 248.515 136.601 248.237 136.429C248.194 136.397 248.151 136.365 248.109 136.333C247.937 136.226 247.777 136.108 247.617 135.981C247.585 135.959 247.542 135.927 247.51 135.895C247.371 135.799 247.243 135.681 247.114 135.575C247.007 135.489 246.9 135.393 246.804 135.296C246.568 135.082 246.366 134.89 246.205 134.73C246.162 134.676 246.12 134.623 246.077 134.591C246.045 134.548 246.013 134.516 245.98 134.483C245.927 134.419 245.884 134.376 245.863 134.355C245.884 134.451 246.045 134.954 246.162 135.67C246.162 135.67 246.162 135.681 246.173 135.692C246.184 135.799 246.205 135.916 246.227 136.044C246.227 136.087 246.237 136.13 246.237 136.183C246.28 136.451 246.302 136.739 246.312 137.05C246.323 137.103 246.323 137.157 246.323 137.21C246.387 138.889 246.035 140.867 244.313 141.882C243.875 142.139 243.414 142.256 242.965 142.256C242.826 142.256 242.687 142.245 242.549 142.224C242.538 142.224 242.527 142.224 242.527 142.224C242.388 142.203 242.249 142.17 242.121 142.138C241.971 142.095 241.833 142.042 241.694 141.988C241.555 141.935 241.416 141.871 241.277 141.796C241.074 141.699 240.882 141.582 240.689 141.454C240.582 141.379 240.475 141.315 240.38 141.229C240.038 140.994 239.717 140.716 239.407 140.427L239.225 140.245C238.124 139.176 237.279 137.979 236.959 137.508C236.873 137.368 236.819 137.293 236.819 137.293L233.719 121.373C235.472 120.422 238.06 118.668 239.278 116.156L252.804 127.821C252.804 127.821 252.804 127.832 252.814 127.853C252.878 128.014 253.114 128.655 253.359 129.542C253.413 129.735 253.466 129.937 253.52 130.152C253.574 130.355 253.616 130.568 253.659 130.782C253.702 130.932 253.734 131.081 253.756 131.242C253.852 131.702 253.916 132.183 253.959 132.664C253.968 132.814 253.979 132.964 253.989 133.103Z" fill="white"/>
<path d="M239.278 116.161C238.059 118.673 235.472 120.427 233.718 121.378L232.617 115.711L235.183 112.621L239.278 116.161Z" fill="#29275F"/>
<path d="M326.237 352.59C325.965 352.59 325.714 352.407 325.641 352.13L305.869 277.6C304.258 275.887 285.32 255.643 276.18 241.117C274.514 238.47 273.025 236.13 271.698 234.045C265.313 224.01 262.67 219.857 261.97 215.624C261.242 211.176 256.014 178.896 254.902 172.021C254.742 171.1 255.035 170.142 255.686 169.464C255.767 169.36 255.899 169.236 256.069 169.113C257.327 168.163 259.386 167.132 261.99 167.659C265.23 168.314 268.359 171.213 271.292 176.275C278.499 188.712 279.751 204.191 279.964 208.894L298.314 239.843C300.159 239.407 307.742 237.292 313.227 231.003L294.613 199.587L275.55 172.774C274.272 172.219 265.509 168.396 256.968 164.367C249.748 160.961 246.385 151.62 247.727 147.226C248.328 145.26 249.826 144.307 251.828 144.616C254.121 144.969 258.969 146.629 266.239 149.55C274.974 153.044 284.586 157.303 286.547 158.177C290.602 154.831 296.719 156.248 298.032 156.605C299.098 156.084 303.651 154.04 308.298 154.719C313.921 155.553 337.037 177.797 340.558 184.775C344.171 191.917 352.285 255.837 352.794 259.871L400.001 351.692C400.157 351.995 400.037 352.367 399.734 352.523C399.432 352.68 399.059 352.56 398.902 352.256L351.645 260.34C351.612 260.275 351.591 260.206 351.582 260.135C351.497 259.458 343.011 192.362 339.454 185.334C335.798 178.084 312.953 156.659 308.117 155.942C303.313 155.244 298.43 157.788 298.382 157.812C298.237 157.889 298.069 157.904 297.912 157.857C297.843 157.835 290.988 155.786 287.069 159.359C286.888 159.524 286.626 159.567 286.401 159.466C286.293 159.417 275.49 154.582 265.778 150.698C258.696 147.852 253.808 146.172 251.64 145.838C250.247 145.624 249.327 146.213 248.907 147.589C247.684 151.597 251.043 160.208 257.494 163.252C266.669 167.58 276.103 171.67 276.197 171.711C276.301 171.756 276.39 171.828 276.455 171.92L295.615 198.873C295.624 198.888 295.666 198.945 295.675 198.96L314.513 230.757C314.647 230.982 314.624 231.268 314.455 231.469C307.898 239.268 298.518 241.079 298.121 241.152C297.863 241.202 297.609 241.083 297.477 240.86L278.82 209.393C278.768 209.307 278.739 209.206 278.734 209.105C278.543 204.667 277.367 189.23 270.221 176.896C267.473 172.154 264.621 169.455 261.742 168.872C259.591 168.437 257.866 169.304 256.801 170.109C256.71 170.175 256.655 170.224 256.609 170.282C256.194 170.717 256.024 171.277 256.117 171.82C257.231 178.702 262.459 210.979 263.186 215.427C263.845 219.409 266.448 223.501 272.737 233.386C274.065 235.472 275.556 237.814 277.222 240.463C286.66 255.461 306.671 276.657 306.872 276.869C306.942 276.944 306.993 277.035 307.02 277.135L326.832 351.818C326.92 352.147 326.723 352.485 326.394 352.573C326.343 352.583 326.29 352.59 326.237 352.59Z" fill="#29275F"/>
<path d="M289.098 226.132C288.883 226.132 288.679 226.019 288.566 225.83L278.826 209.396C278.774 209.309 278.745 209.209 278.741 209.108C278.55 204.67 277.374 189.232 270.227 176.899C267.48 172.157 264.627 169.457 261.749 168.875C259.597 168.439 257.872 169.306 256.807 170.111C256.717 170.177 256.662 170.226 256.615 170.284C256.488 170.441 256.288 170.527 256.09 170.512C255.888 170.497 255.705 170.385 255.602 170.211L236.422 137.826C236.252 137.538 236.341 137.168 236.622 136.99C236.906 136.809 237.277 136.888 237.464 137.163C237.853 137.734 238.652 138.837 239.65 139.805L239.838 139.994C240.175 140.308 240.453 140.538 240.724 140.724C240.835 140.816 240.888 140.85 240.943 140.885L241.038 140.951C241.194 141.055 241.361 141.158 241.536 141.242C241.68 141.318 241.796 141.372 241.911 141.416C242.032 141.463 242.155 141.511 242.286 141.549C242.37 141.569 242.476 141.595 242.585 141.613C242.604 141.615 242.623 141.616 242.637 141.618C243.106 141.689 243.57 141.602 243.996 141.353C245.204 140.64 245.778 139.255 245.701 137.238C245.694 137.205 245.691 137.107 245.689 137.075C245.68 136.792 245.661 136.529 245.623 136.285C245.617 136.253 245.615 136.22 245.615 136.188C245.611 136.163 245.609 136.14 245.607 136.118C245.587 136 245.573 135.912 245.562 135.836C245.556 135.815 245.551 135.795 245.548 135.774L245.547 135.775C245.46 135.242 245.347 134.834 245.292 134.638C245.273 134.568 245.26 134.517 245.254 134.492C245.195 134.223 245.321 133.948 245.563 133.817C245.805 133.687 246.105 133.731 246.298 133.928C246.331 133.962 246.383 134.014 246.449 134.092C246.461 134.102 246.487 134.129 246.517 134.165C246.585 134.228 246.637 134.294 246.683 134.35C246.791 134.453 246.987 134.639 247.214 134.845C247.331 134.97 247.413 135.033 247.495 135.098L247.612 135.197C247.691 135.264 247.771 135.334 247.855 135.392C247.887 135.413 247.915 135.437 247.941 135.464C248.139 135.617 248.28 135.721 248.43 135.814L248.604 135.942C248.867 136.1 249.133 136.247 249.368 136.356L249.447 136.392C249.557 136.444 249.662 136.496 249.773 136.532C249.941 136.599 250.075 136.632 250.207 136.669C250.36 136.72 250.465 136.741 250.571 136.748C250.998 136.809 251.339 136.794 251.659 136.705C251.773 136.677 251.872 136.643 251.97 136.603C252.075 136.559 252.188 136.497 252.292 136.436C252.54 136.286 252.74 136.083 252.896 135.82C252.94 135.756 252.966 135.713 252.988 135.674C252.993 135.658 253 135.643 253.006 135.629C253.068 135.494 253.124 135.359 253.168 135.215C253.172 135.201 253.209 135.069 253.215 135.056C253.221 135.024 253.233 134.976 253.247 134.932C253.251 134.908 253.258 134.867 253.259 134.862C253.26 134.857 253.277 134.783 253.278 134.778C253.278 134.774 253.296 134.699 253.297 134.694C253.317 134.581 253.335 134.434 253.345 134.288C253.347 134.256 253.352 134.223 253.359 134.193C253.385 133.84 253.385 133.514 253.366 133.144L253.334 132.718C253.292 132.232 253.227 131.777 253.143 131.376C253.119 131.203 253.091 131.081 253.058 130.96C253.006 130.71 252.967 130.509 252.916 130.317C252.862 130.1 252.809 129.902 252.758 129.714C252.524 128.87 252.296 128.244 252.234 128.09C252.114 127.791 252.245 127.45 252.534 127.306C252.825 127.162 253.174 127.269 253.339 127.546L266.543 149.816C266.677 150.044 266.653 150.333 266.481 150.534C266.308 150.734 266.026 150.803 265.781 150.705C258.7 147.861 253.812 146.18 251.644 145.846C250.251 145.632 249.33 146.221 248.911 147.597C247.687 151.605 251.047 160.216 257.498 163.26C266.673 167.589 276.107 171.678 276.201 171.719C276.305 171.764 276.394 171.836 276.459 171.928L295.618 198.882C295.628 198.896 295.67 198.953 295.678 198.968L305.61 215.731C305.744 215.958 305.721 216.243 305.552 216.444C298.984 224.254 289.602 226.055 289.206 226.127C289.173 226.129 289.135 226.132 289.098 226.132ZM279.969 208.899L289.402 224.815C291.247 224.381 298.831 222.273 304.326 215.975L294.619 199.591L275.555 172.778C274.277 172.223 265.515 168.401 256.974 164.371C249.754 160.965 246.39 151.624 247.733 147.23C248.334 145.264 249.832 144.311 251.834 144.62C253.945 144.945 258.221 146.378 264.558 148.882L254.491 131.899C254.521 132.124 254.548 132.365 254.571 132.613L254.603 133.059C254.629 133.523 254.625 133.922 254.592 134.293C254.594 134.301 254.594 134.355 254.577 134.43C254.563 134.604 254.541 134.778 254.509 134.951C254.507 134.958 254.49 135.037 254.488 135.044C254.472 135.13 254.459 135.209 254.432 135.29C254.419 135.348 254.404 135.405 254.384 135.463C254.379 135.482 254.373 135.502 254.372 135.506C254.299 135.747 254.231 135.922 254.155 136.09C254.146 136.118 254.135 136.145 254.123 136.17C254.066 136.286 254.006 136.387 253.934 136.488C253.699 136.888 253.361 137.23 252.927 137.493C252.767 137.587 252.601 137.674 252.448 137.737C252.292 137.803 252.133 137.856 251.976 137.895C251.503 138.025 250.996 138.05 250.444 137.971C250.269 137.961 250.055 137.916 249.854 137.845C249.71 137.808 249.53 137.758 249.352 137.686C249.229 137.647 249.078 137.578 248.923 137.504C248.569 137.339 248.27 137.176 247.911 136.955L247.738 136.828C247.588 136.737 247.407 136.605 247.229 136.462C247.216 136.456 247.168 136.419 247.117 136.375C247.029 136.31 246.942 136.239 246.857 136.168C246.892 136.409 246.913 136.674 246.926 136.991C246.935 137.063 246.938 137.136 246.938 137.21C247.032 139.657 246.232 141.465 244.624 142.414C243.96 142.802 243.225 142.945 242.488 142.84C242.468 142.839 242.446 142.837 242.432 142.834C242.273 142.811 242.114 142.774 241.969 142.737C241.782 142.685 241.626 142.625 241.47 142.565C241.307 142.503 241.144 142.428 240.981 142.34C240.805 142.257 240.6 142.139 240.345 141.968L240.294 141.933L256.297 168.952C257.567 168.053 259.54 167.165 261.995 167.662C265.235 168.317 268.364 171.215 271.297 176.277C278.504 188.716 279.755 204.195 279.969 208.899Z" fill="#29275F"/>
<path d="M298.019 241.159C297.803 241.159 297.6 241.047 297.488 240.857L288.571 225.824C288.468 225.65 288.456 225.437 288.54 225.253C288.624 225.07 288.792 224.938 288.991 224.902C289.083 224.884 298.34 223.099 304.614 215.638C304.743 215.485 304.936 215.403 305.138 215.42C305.337 215.437 305.517 215.548 305.619 215.721L314.525 230.754C314.659 230.979 314.636 231.264 314.467 231.465C307.91 239.265 298.53 241.075 298.134 241.149C298.093 241.157 298.056 241.159 298.019 241.159ZM290.066 225.925L298.321 239.843C300.167 239.407 307.749 237.292 313.234 231.003L304.989 217.088C299.555 223.131 292.497 225.322 290.066 225.925Z" fill="#29275F"/>
<path d="M242.966 142.872C242.808 142.872 242.649 142.861 242.492 142.839C242.471 142.837 242.45 142.835 242.435 142.833C242.276 142.809 242.117 142.773 241.972 142.736C241.785 142.683 241.63 142.624 241.473 142.564C241.311 142.501 241.148 142.426 240.985 142.339C240.808 142.256 240.603 142.137 240.348 141.966L240.259 141.906C240.158 141.837 240.06 141.77 239.968 141.688C239.707 141.514 239.385 141.25 238.986 140.878L238.789 140.681C237.72 139.643 236.864 138.464 236.449 137.854C236.365 137.72 236.32 137.656 236.315 137.649C236.265 137.578 236.23 137.496 236.214 137.411L232.011 115.825C231.976 115.643 232.025 115.455 232.142 115.312L234.708 112.222C234.815 112.095 234.967 112.015 235.133 112.001C235.299 111.993 235.462 112.041 235.588 112.149L253.208 127.353C253.303 127.435 253.37 127.544 253.401 127.664C253.518 127.962 253.734 128.577 253.955 129.377C254.01 129.575 254.066 129.783 254.119 130.002C254.174 130.209 254.22 130.434 254.265 130.662C254.305 130.791 254.343 130.969 254.368 131.159C254.454 131.566 254.525 132.069 254.574 132.61L254.607 133.056C254.607 133.061 254.608 133.065 254.608 133.069C254.632 133.52 254.628 133.92 254.595 134.29C254.597 134.298 254.598 134.353 254.581 134.428C254.567 134.601 254.544 134.775 254.512 134.948C254.511 134.956 254.493 135.035 254.492 135.041C254.475 135.128 254.463 135.207 254.436 135.287C254.422 135.345 254.408 135.403 254.387 135.46C254.382 135.479 254.376 135.499 254.375 135.503C254.302 135.745 254.235 135.919 254.159 136.087C254.15 136.115 254.138 136.142 254.127 136.167C254.069 136.283 254.009 136.384 253.937 136.485C253.703 136.884 253.364 137.227 252.93 137.49C252.77 137.584 252.604 137.671 252.452 137.734C252.295 137.8 252.136 137.853 251.979 137.892C251.506 138.022 251 138.047 250.447 137.967C250.278 137.943 250.092 137.906 249.908 137.857C249.714 137.804 249.534 137.755 249.355 137.683C249.232 137.644 249.082 137.574 248.926 137.5C248.572 137.336 248.274 137.173 247.915 136.952L247.742 136.825C247.591 136.734 247.411 136.602 247.232 136.459C247.22 136.453 247.171 136.416 247.121 136.371C247.032 136.307 246.945 136.236 246.861 136.165C246.895 136.406 246.917 136.671 246.929 136.987C246.939 137.06 246.941 137.133 246.941 137.206C247.035 139.654 246.236 141.462 244.627 142.41C244.106 142.717 243.547 142.872 242.966 142.872ZM242.59 141.607C242.609 141.608 242.628 141.61 242.642 141.611C243.111 141.682 243.575 141.596 244.001 141.346C245.209 140.634 245.783 139.249 245.706 137.231C245.699 137.199 245.696 137.1 245.695 137.068C245.685 136.786 245.667 136.522 245.628 136.278C245.622 136.246 245.62 136.213 245.62 136.181C245.616 136.156 245.614 136.133 245.612 136.112C245.592 135.993 245.578 135.906 245.567 135.829C245.561 135.809 245.556 135.788 245.553 135.768L245.552 135.768C245.465 135.236 245.352 134.827 245.297 134.631C245.278 134.561 245.265 134.511 245.259 134.485C245.2 134.216 245.326 133.941 245.568 133.81C245.81 133.681 246.11 133.724 246.303 133.921C246.336 133.955 246.388 134.008 246.454 134.086C246.466 134.096 246.492 134.122 246.522 134.158C246.591 134.222 246.642 134.288 246.688 134.344C246.796 134.447 246.992 134.633 247.219 134.839C247.32 134.94 247.41 135.02 247.5 135.091L247.617 135.19C247.697 135.258 247.776 135.327 247.86 135.385C247.892 135.407 247.92 135.431 247.946 135.457C248.144 135.61 248.285 135.715 248.435 135.808L248.609 135.936C248.872 136.094 249.139 136.24 249.373 136.349L249.452 136.385C249.562 136.437 249.667 136.489 249.778 136.525C249.946 136.592 250.08 136.626 250.212 136.662C250.36 136.701 250.495 136.729 250.622 136.746C251.006 136.801 251.346 136.786 251.665 136.697C251.779 136.669 251.878 136.636 251.976 136.595C252.081 136.552 252.194 136.49 252.298 136.429C252.546 136.279 252.746 136.076 252.902 135.813C252.946 135.749 252.972 135.706 252.994 135.666C252.999 135.651 253.006 135.636 253.012 135.622C253.074 135.487 253.129 135.352 253.174 135.208C253.178 135.194 253.215 135.062 253.221 135.049C253.227 135.017 253.239 134.969 253.253 134.924C253.257 134.9 253.264 134.86 253.265 134.855C253.266 134.849 253.283 134.776 253.283 134.77C253.284 134.767 253.302 134.691 253.302 134.687C253.323 134.573 253.341 134.427 253.351 134.28C253.353 134.248 253.358 134.216 253.365 134.186C253.39 133.834 253.391 133.51 253.372 133.141L253.34 132.71C253.297 132.224 253.232 131.769 253.149 131.367C253.125 131.194 253.097 131.073 253.064 130.952C253.012 130.702 252.973 130.501 252.922 130.309C252.868 130.092 252.815 129.894 252.764 129.706C252.565 128.991 252.371 128.432 252.28 128.185L235.255 113.496L233.279 115.877L237.401 137.053C237.424 137.088 237.452 137.131 237.484 137.182C237.858 137.731 238.658 138.833 239.655 139.801L239.844 139.99C240.181 140.304 240.459 140.533 240.73 140.72C240.841 140.812 240.894 140.846 240.948 140.881L241.044 140.947C241.2 141.051 241.367 141.154 241.542 141.238C241.686 141.314 241.802 141.368 241.917 141.412C242.038 141.459 242.161 141.507 242.292 141.545C242.374 141.563 242.481 141.588 242.59 141.607Z" fill="#29275F"/>
<path d="M251.746 145.844C251.519 145.844 251.301 145.719 251.192 145.502L246.252 135.569C246.1 135.264 246.225 134.893 246.531 134.741C246.84 134.587 247.207 134.714 247.359 135.019L252.299 144.952C252.451 145.257 252.326 145.628 252.02 145.779C251.932 145.824 251.838 145.844 251.746 145.844Z" fill="#29275F"/>
<path d="M291.367 210.247C291.16 210.247 290.957 210.144 290.84 209.954L278.56 190.039C278.382 189.749 278.472 189.369 278.762 189.189C279.054 189.011 279.433 189.101 279.612 189.391L291.892 209.306C292.071 209.597 291.98 209.976 291.69 210.156C291.59 210.218 291.478 210.247 291.367 210.247Z" fill="#29275F"/>
<path d="M313.993 190.329C313.822 190.329 313.653 190.259 313.53 190.121L286.202 159.309C285.976 159.054 286 158.664 286.254 158.437C286.51 158.211 286.899 158.234 287.127 158.489L314.456 189.3C314.681 189.556 314.658 189.946 314.403 190.172C314.285 190.277 314.139 190.329 313.993 190.329Z" fill="#29275F"/>
<path d="M323.758 181.214C323.609 181.214 323.461 181.161 323.342 181.053L297.687 157.72C297.434 157.491 297.416 157.099 297.645 156.847C297.874 156.594 298.266 156.576 298.518 156.806L324.174 180.14C324.427 180.369 324.445 180.76 324.215 181.013C324.094 181.145 323.926 181.214 323.758 181.214Z" fill="#29275F"/>
<path d="M306.429 277.909C306.144 277.909 305.887 277.71 305.826 277.418C305.756 277.085 305.97 276.757 306.303 276.686C306.378 276.671 313.835 275.095 318.291 273.351C318.61 273.227 318.967 273.383 319.091 273.701C319.216 274.019 319.059 274.377 318.741 274.501C314.189 276.284 306.868 277.831 306.558 277.896C306.515 277.905 306.472 277.909 306.429 277.909Z" fill="#29275F"/>
<path d="M105.351 86.4435C106.903 86.4435 108.162 85.1847 108.162 83.6319C108.162 82.0791 106.903 80.8203 105.351 80.8203C103.798 80.8203 102.539 82.0791 102.539 83.6319C102.539 85.1847 103.798 86.4435 105.351 86.4435Z" fill="#AFD4EF"/>
<path d="M118.929 86.4435C117.376 86.4435 116.117 85.1851 116.117 83.6319C116.117 82.0795 117.376 80.8203 118.929 80.8203C120.482 80.8203 121.74 82.0795 121.74 83.6319C121.74 85.1843 120.481 86.4435 118.929 86.4435Z" fill="#AFD4EF"/>
<path d="M105.351 100.029C106.903 100.029 108.162 98.7706 108.162 97.2178C108.162 95.665 106.903 94.4062 105.351 94.4062C103.798 94.4062 102.539 95.665 102.539 97.2178C102.539 98.7706 103.798 100.029 105.351 100.029Z" fill="#AFD4EF"/>
<path d="M105.351 113.608C106.903 113.608 108.162 112.349 108.162 110.796C108.162 109.243 106.903 107.984 105.351 107.984C103.798 107.984 102.539 109.243 102.539 110.796C102.539 112.349 103.798 113.608 105.351 113.608Z" fill="#AFD4EF"/>
<path d="M105.351 127.19C106.903 127.19 108.162 125.931 108.162 124.378C108.162 122.825 106.903 121.566 105.351 121.566C103.798 121.566 102.539 122.825 102.539 124.378C102.539 125.931 103.798 127.19 105.351 127.19Z" fill="#AFD4EF"/>
<path d="M102.539 137.96C102.539 136.407 103.797 135.148 105.351 135.148C106.903 135.148 108.162 136.407 108.162 137.96C108.162 139.512 106.903 140.772 105.351 140.772C103.797 140.772 102.539 139.512 102.539 137.96Z" fill="#AFD4EF"/>
<path d="M118.929 100.029C117.376 100.029 116.117 98.771 116.117 97.2178C116.117 95.6646 117.376 94.4062 118.929 94.4062C120.482 94.4062 121.74 95.6646 121.74 97.2178C121.74 98.7702 120.481 100.029 118.929 100.029Z" fill="#AFD4EF"/>
<path d="M116.117 110.796C116.117 109.244 117.376 107.984 118.929 107.984C120.482 107.984 121.74 109.244 121.74 110.796C121.74 112.348 120.481 113.608 118.929 113.608C117.376 113.608 116.117 112.348 116.117 110.796Z" fill="#AFD4EF"/>
<path d="M116.117 124.378C116.117 122.826 117.376 121.566 118.929 121.566C120.482 121.566 121.74 122.825 121.74 124.378C121.74 125.931 120.481 127.19 118.929 127.19C117.376 127.19 116.117 125.93 116.117 124.378Z" fill="#AFD4EF"/>
<path d="M116.117 137.96C116.117 136.407 117.376 135.148 118.929 135.148C120.482 135.148 121.74 136.407 121.74 137.96C121.74 139.512 120.481 140.772 118.929 140.772C117.376 140.772 116.117 139.512 116.117 137.96Z" fill="#AFD4EF"/>
<path d="M105.351 154.361C106.903 154.361 108.162 153.103 108.162 151.55C108.162 149.997 106.903 148.738 105.351 148.738C103.798 148.738 102.539 149.997 102.539 151.55C102.539 153.103 103.798 154.361 105.351 154.361Z" fill="#AFD4EF"/>
<path d="M116.117 151.55C116.117 149.997 117.376 148.738 118.929 148.738C120.482 148.738 121.74 149.997 121.74 151.55C121.74 153.102 120.481 154.361 118.929 154.361C117.376 154.361 116.117 153.103 116.117 151.55Z" fill="#AFD4EF"/>
<path d="M313.265 86.5802C311.712 86.5802 310.453 85.321 310.453 83.7686C310.453 82.2162 311.712 80.957 313.265 80.957C314.817 80.957 316.076 82.2162 316.076 83.7686C316.076 85.321 314.818 86.5802 313.265 86.5802Z" fill="#AFD4EF"/>
<path d="M326.858 86.5802C325.306 86.5802 324.047 85.321 324.047 83.7686C324.047 82.2162 325.306 80.957 326.858 80.957C328.411 80.957 329.67 82.2162 329.67 83.7686C329.67 85.321 328.412 86.5802 326.858 86.5802Z" fill="#AFD4EF"/>
<path d="M313.265 100.17C314.817 100.17 316.076 98.9113 316.076 97.3585C316.076 95.8057 314.817 94.5469 313.265 94.5469C311.712 94.5469 310.453 95.8057 310.453 97.3585C310.453 98.9113 311.712 100.17 313.265 100.17Z" fill="#AFD4EF"/>
<path d="M313.265 113.752C314.817 113.752 316.076 112.493 316.076 110.94C316.076 109.388 314.817 108.129 313.265 108.129C311.712 108.129 310.453 109.388 310.453 110.94C310.453 112.493 311.712 113.752 313.265 113.752Z" fill="#AFD4EF"/>
<path d="M313.265 127.326C314.817 127.326 316.076 126.067 316.076 124.515C316.076 122.962 314.817 121.703 313.265 121.703C311.712 121.703 310.453 122.962 310.453 124.515C310.453 126.067 311.712 127.326 313.265 127.326Z" fill="#AFD4EF"/>
<path d="M326.858 100.17C328.411 100.17 329.67 98.9113 329.67 97.3585C329.67 95.8057 328.411 94.5469 326.858 94.5469C325.306 94.5469 324.047 95.8057 324.047 97.3585C324.047 98.9113 325.306 100.17 326.858 100.17Z" fill="#AFD4EF"/>
<path d="M326.858 113.752C328.411 113.752 329.67 112.493 329.67 110.94C329.67 109.388 328.411 108.129 326.858 108.129C325.306 108.129 324.047 109.388 324.047 110.94C324.047 112.493 325.306 113.752 326.858 113.752Z" fill="#AFD4EF"/>
<path d="M326.858 127.326C328.411 127.326 329.67 126.067 329.67 124.515C329.67 122.962 328.411 121.703 326.858 121.703C325.306 121.703 324.047 122.962 324.047 124.515C324.047 126.067 325.306 127.326 326.858 127.326Z" fill="#AFD4EF"/>
<path d="M299.257 86.1193C300.81 86.1193 302.068 84.8605 302.068 83.3077C302.068 81.7549 300.81 80.4961 299.257 80.4961C297.704 80.4961 296.445 81.7549 296.445 83.3077C296.445 84.8605 297.704 86.1193 299.257 86.1193Z" fill="#AFD4EF"/>
<path d="M299.257 99.7013C300.81 99.7013 302.068 98.4425 302.068 96.8897C302.068 95.3369 300.81 94.0781 299.257 94.0781C297.704 94.0781 296.445 95.3369 296.445 96.8897C296.445 98.4425 297.704 99.7013 299.257 99.7013Z" fill="#AFD4EF"/>
<path d="M299.257 113.279C300.81 113.279 302.068 112.021 302.068 110.468C302.068 108.915 300.81 107.656 299.257 107.656C297.704 107.656 296.445 108.915 296.445 110.468C296.445 112.021 297.704 113.279 299.257 113.279Z" fill="#AFD4EF"/>
<path d="M296.445 124.054C296.445 122.501 297.705 121.242 299.257 121.242C300.809 121.242 302.068 122.501 302.068 124.054C302.068 125.607 300.809 126.865 299.257 126.865C297.705 126.865 296.445 125.607 296.445 124.054Z" fill="#AFD4EF"/>
<path d="M314.919 26.2184C314.919 27.0848 314.219 27.7856 313.353 27.7856H309.269V31.8696C309.269 32.7359 308.568 33.4368 307.703 33.4368C307.27 33.4368 306.879 33.2605 306.593 32.9789C306.312 32.6939 306.136 32.3027 306.136 31.8696V27.7856H302.052C301.185 27.7856 300.484 27.0848 300.484 26.2184C300.484 25.7852 300.661 25.3948 300.942 25.1091C301.227 24.8274 301.618 24.6512 302.052 24.6512H306.136V20.5672C306.136 19.7008 306.836 19 307.702 19C308.135 19 308.525 19.1762 308.811 19.4579C309.093 19.7428 309.269 20.134 309.269 20.5672V24.6512H313.353C314.219 24.652 314.919 25.3528 314.919 26.2184Z" fill="#AFD4EF"/>
<path d="M311.574 43.8047C308.852 43.8047 308.848 48.0344 311.574 48.0344C314.296 48.0352 314.3 43.8047 311.574 43.8047Z" fill="#AFD4EF"/>
<path d="M330.988 26.6445C328.266 26.6445 328.262 30.8743 330.988 30.8743C333.71 30.8743 333.714 26.6445 330.988 26.6445Z" fill="#AFD4EF"/>
<path d="M380.505 95.3161C380.505 96.1824 379.805 96.8824 378.939 96.8824H374.855V100.966C374.855 101.833 374.154 102.533 373.289 102.533C372.855 102.533 372.465 102.357 372.179 102.075C371.898 101.79 371.721 101.399 371.721 100.966V96.8816H367.638C366.771 96.8816 366.07 96.1808 366.07 95.3152C366.07 94.882 366.247 94.4917 366.528 94.2059C366.813 93.9243 367.204 93.748 367.638 93.748H371.721V89.664C371.721 88.7977 372.422 88.0977 373.288 88.0977C373.721 88.0977 374.111 88.2739 374.397 88.5555C374.679 88.8405 374.855 89.2317 374.855 89.6649V93.7488H378.939C379.805 93.7497 380.505 94.4505 380.505 95.3161Z" fill="#AFD4EF"/>
<path d="M357.332 108.012C354.61 108.012 354.606 112.241 357.332 112.241C360.054 112.242 360.058 108.012 357.332 108.012Z" fill="#AFD4EF"/>
<path d="M359.629 77.0508C356.907 77.0508 356.903 81.2805 359.629 81.2805C362.351 81.2805 362.355 77.0508 359.629 77.0508Z" fill="#AFD4EF"/>
<path d="M128.958 44.7918C128.958 45.6581 128.258 46.359 127.392 46.359H123.308V50.443C123.308 51.3093 122.607 52.0102 121.742 52.0102C121.309 52.0102 120.918 51.8339 120.632 51.5523C120.351 51.2673 120.175 50.8761 120.175 50.443V46.359H116.091C115.224 46.359 114.523 45.6581 114.523 44.7918C114.523 44.3586 114.7 43.9682 114.981 43.6825C115.266 43.4008 115.657 43.2246 116.091 43.2246H120.175V39.1406C120.175 38.2742 120.875 37.5742 121.742 37.5742C122.175 37.5742 122.565 37.7505 122.851 38.0321C123.133 38.3171 123.309 38.7082 123.309 39.1414V43.2254H127.393C128.258 43.2254 128.958 43.9262 128.958 44.7918Z" fill="#AFD4EF"/>
<path d="M103.441 39.5781C100.72 39.5781 100.715 43.8079 103.441 43.8079C106.163 43.8087 106.168 39.5781 103.441 39.5781Z" fill="#AFD4EF"/>
<path d="M133.082 24.7617C130.36 24.7617 130.356 28.9915 133.082 28.9915C135.804 28.9915 135.808 24.7617 133.082 24.7617Z" fill="#AFD4EF"/>
<path d="M64.6312 111.449C64.6312 112.315 63.9304 113.015 63.0648 113.015H58.9809V117.099C58.9809 117.966 58.28 118.666 57.4137 118.666C56.9805 118.666 56.5901 118.489 56.3043 118.208C56.0227 117.923 55.8465 117.532 55.8465 117.098V113.014H51.7625C50.8961 113.014 50.1953 112.314 50.1953 111.448C50.1953 111.015 50.3716 110.624 50.6532 110.339C50.9381 110.057 51.3293 109.881 51.7625 109.881H55.8465V105.797C55.8465 104.93 56.5473 104.23 57.4137 104.23C57.8468 104.23 58.2372 104.407 58.523 104.688C58.8046 104.973 58.9809 105.364 58.9809 105.798V109.882H63.0648C63.9312 109.882 64.6312 110.582 64.6312 111.449Z" fill="#AFD4EF"/>
<path d="M38.5354 106.602C35.8136 106.602 35.8086 110.831 38.5354 110.831C41.2572 110.831 41.2613 106.602 38.5354 106.602Z" fill="#AFD4EF"/>
</g>
<defs>
<clipPath id="clip0_1037_2">
<rect width="435" height="335" fill="white"/>
</clipPath>
</defs>
</svg>
