<svg width="435" height="335" viewBox="0 0 435 335" fill="none" xmlns="http://www.w3.org/2000/svg">
<rect width="435" height="335" fill="#B5E6FF"/>
<path d="M202.57 194.605C202.831 196.279 201.677 197.843 199.993 198.102L84.0821 215.881C82.3994 216.14 80.8242 214.993 80.5652 213.319L56.0363 55.1658C55.7773 53.4918 56.9313 51.9259 58.614 51.6677L174.525 33.8879C176.209 33.6296 177.783 34.7773 178.042 36.4507L202.57 194.605Z" fill="#002CAB"/>
<path d="M195.488 182.494C195.747 184.168 194.593 185.733 192.911 185.992L87.1681 202.212C85.4848 202.47 83.9103 201.323 83.6506 199.649L61.7474 58.4216C61.4878 56.7482 62.6418 55.1823 64.3244 54.9241L170.067 38.7043C171.75 38.446 173.324 39.5937 173.584 41.2671L195.488 182.494Z" fill="white"/>
<path d="M133.048 35.4163L123.836 36.8294C123.154 32.432 119.016 29.4169 114.594 30.0953C110.171 30.7737 107.14 34.8886 107.822 39.2861L98.6104 40.6986C95.2445 41.2151 92.9364 44.3475 93.4558 47.6942L93.5349 48.2029C94.0542 51.5503 97.2033 53.845 100.569 53.3291L135.006 48.0469C138.372 47.5304 140.679 44.398 140.161 41.0506L140.082 40.5419C139.564 37.1952 136.414 34.8998 133.048 35.4163ZM116.369 41.533C114.347 41.843 112.454 40.4646 112.142 38.453C111.83 36.4421 113.217 34.5596 115.24 34.2496C117.262 33.9396 119.155 35.3186 119.466 37.3296C119.777 39.3411 118.391 41.2229 116.369 41.533Z" fill="#5758FF"/>
<g opacity="0.5">
<path d="M113.867 69.641C114.101 71.1564 113.057 72.5728 111.535 72.8068L81.2859 77.4467C79.7628 77.6801 78.3385 76.6419 78.1033 75.1271C77.8686 73.6123 78.9126 72.1959 80.4351 71.9619L110.683 67.322C112.207 67.088 113.632 68.1269 113.867 69.641Z" fill="url(#paint0_linear_734_2)"/>
<path d="M101.294 89.0985C101.528 90.6126 100.484 92.0297 98.962 92.263L81.1069 95.0022C79.5838 95.2362 78.1588 94.1973 77.9235 92.6832C77.6889 91.1684 78.7336 89.7513 80.2567 89.5173L98.1111 86.7789C99.6342 86.5455 101.059 87.5837 101.294 89.0985Z" fill="url(#paint1_linear_734_2)"/>
<path d="M138.417 83.4027C138.652 84.9168 137.608 86.3339 136.085 86.5679L106.185 91.1541C104.662 91.3874 103.236 90.3498 103.002 88.8351C102.767 87.3203 103.811 85.9032 105.334 85.6699L135.235 81.0837C136.758 80.8497 138.183 81.8879 138.417 83.4027Z" fill="url(#paint2_linear_734_2)"/>
<path d="M137.104 104.704C137.339 106.219 136.295 107.635 134.772 107.868L84.3029 115.611C82.7791 115.844 81.3541 114.806 81.1189 113.292C80.8842 111.776 81.9289 110.36 83.452 110.126L133.922 102.384C135.445 102.151 136.87 103.189 137.104 104.704Z" fill="url(#paint3_linear_734_2)"/>
<path d="M118.64 119.173C118.875 120.687 117.831 122.105 116.308 122.338L86.06 126.978C84.5375 127.211 83.1113 126.174 82.8767 124.659C82.642 123.144 83.6867 121.727 85.2098 121.493L115.458 116.853C116.981 116.62 118.405 117.658 118.64 119.173Z" fill="url(#paint4_linear_734_2)"/>
<path d="M146.137 114.957C146.372 116.471 145.327 117.889 143.804 118.123L126.341 120.801C124.817 121.035 123.393 119.997 123.158 118.482C122.923 116.968 123.967 115.551 125.49 115.317L142.953 112.638C144.476 112.404 145.902 113.443 146.137 114.957Z" fill="url(#paint5_linear_734_2)"/>
<path d="M128.527 134.876C128.761 136.39 127.717 137.808 126.195 138.041L88.6774 143.796C87.1542 144.029 85.7286 142.991 85.494 141.476C85.2587 139.961 86.304 138.544 87.8265 138.311L125.345 132.556C126.866 132.323 128.291 133.362 128.527 134.876Z" fill="url(#paint6_linear_734_2)"/>
<path d="M148.741 131.769C148.977 133.284 147.932 134.702 146.41 134.935L133.974 136.843C132.452 137.077 131.026 136.038 130.791 134.524C130.556 133.009 131.601 131.592 133.124 131.358L145.559 129.451C147.081 129.216 148.507 130.255 148.741 131.769Z" fill="url(#paint7_linear_734_2)"/>
<path d="M139.025 144.903C139.259 146.418 138.215 147.834 136.694 148.068L90.4435 155.162C88.9197 155.395 87.4948 154.358 87.2595 152.843C87.0249 151.329 88.0695 149.911 89.5926 149.678L135.843 142.584C137.365 142.35 138.79 143.388 139.025 144.903Z" fill="url(#paint8_linear_734_2)"/>
<path d="M120.779 164.922C121.014 166.438 119.97 167.855 118.447 168.087L93.0444 171.984C91.5213 172.218 90.0957 171.179 89.861 169.664C89.6264 168.15 90.6711 166.733 92.1942 166.499L117.596 162.603C119.119 162.369 120.544 163.407 120.779 164.922Z" fill="url(#paint9_linear_734_2)"/>
<path d="M154.464 159.75C154.699 161.265 153.655 162.683 152.131 162.916L125.63 166.98C124.107 167.214 122.682 166.176 122.447 164.661C122.212 163.147 123.257 161.73 124.779 161.496L151.281 157.431C152.804 157.198 154.23 158.236 154.464 159.75Z" fill="url(#paint10_linear_734_2)"/>
<path d="M115.09 177.433C115.324 178.949 114.28 180.366 112.758 180.598L94.8107 183.351C93.2875 183.585 91.8619 182.547 91.6267 181.031C91.392 179.518 92.4373 178.101 93.9598 177.867L111.907 175.115C113.43 174.881 114.855 175.919 115.09 177.433Z" fill="url(#paint11_linear_734_2)"/>
</g>
<path d="M159.272 70.3068C160.281 70.1521 161.227 70.8417 161.383 71.8445L162.969 82.0715C163.125 83.0744 162.431 84.0156 161.422 84.1703L151.139 85.748C150.131 85.9027 149.185 85.2131 149.029 84.2103L147.443 73.9839C147.287 72.9811 147.981 72.0398 148.989 71.8851L159.272 70.3068ZM159.085 69.0949L148.802 70.6719C147.119 70.9301 145.964 72.4967 146.224 74.1701L147.81 84.3964C148.069 86.0698 149.645 87.2181 151.327 86.9599L161.61 85.3829C163.293 85.1246 164.447 83.5581 164.188 81.8847L162.602 71.6577C162.342 69.9843 160.767 68.8366 159.085 69.0949Z" fill="url(#paint12_linear_734_2)"/>
<path d="M163.733 99.0568C164.742 98.9021 165.688 99.5917 165.844 100.595L167.43 110.821C167.586 111.824 166.892 112.765 165.884 112.92L155.6 114.497C154.592 114.651 153.646 113.962 153.49 112.959L151.904 102.732C151.748 101.73 152.442 100.789 153.45 100.633L163.733 99.0568ZM163.545 97.8449L153.262 99.4219C151.579 99.6802 150.425 101.247 150.685 102.92L152.271 113.147C152.53 114.82 154.106 115.968 155.788 115.71L166.071 114.132C167.753 113.875 168.908 112.308 168.648 110.635L167.062 100.408C166.803 98.7343 165.228 97.5866 163.545 97.8449Z" fill="url(#paint13_linear_734_2)"/>
<path d="M168.187 127.811C169.195 127.656 170.142 128.346 170.297 129.348L171.883 139.575C172.039 140.578 171.345 141.519 170.337 141.674L160.054 143.251C159.046 143.406 158.099 142.716 157.944 141.714L156.357 131.486C156.202 130.484 156.896 129.542 157.904 129.388L168.187 127.811ZM167.998 126.599L157.716 128.176C156.033 128.434 154.879 130.001 155.138 131.673L156.724 141.9C156.983 143.573 158.559 144.72 160.241 144.462L170.524 142.885C172.207 142.627 173.361 141.061 173.101 139.387L171.515 129.16C171.256 127.489 169.681 126.341 167.998 126.599Z" fill="url(#paint14_linear_734_2)"/>
<path d="M172.662 156.564C173.671 156.41 174.617 157.099 174.773 158.102L176.359 168.33C176.515 169.332 175.821 170.274 174.813 170.428L164.53 172.005C163.522 172.159 162.575 171.47 162.42 170.467L160.834 160.241C160.678 159.238 161.372 158.296 162.381 158.142L172.662 156.564ZM172.475 155.353L162.192 156.93C160.509 157.187 159.355 158.754 159.615 160.428L161.2 170.654C161.459 172.327 163.035 173.476 164.718 173.218L175.001 171.641C176.683 171.382 177.837 169.815 177.578 168.143L175.992 157.916C175.732 156.242 174.157 155.094 172.475 155.353Z" fill="url(#paint15_linear_734_2)"/>
<path d="M156.115 81.2832C155.678 81.35 155.229 81.2517 154.86 81.0059L144.292 73.9624C143.48 73.4217 143.264 72.3284 143.808 71.5215C144.351 70.714 145.451 70.499 146.262 71.0391L155.292 77.0575L165.97 59.5536C166.477 58.7225 167.565 58.459 168.401 58.9624C169.236 59.4671 169.503 60.5486 168.996 61.379L157.357 80.4573C157.106 80.8676 156.698 81.1586 156.226 81.2629C156.189 81.2707 156.151 81.2766 156.115 81.2832Z" fill="#002CAB"/>
<path d="M160.7 110.839C160.263 110.905 159.815 110.807 159.446 110.561L148.879 103.518C148.066 102.977 147.85 101.884 148.393 101.076C148.938 100.269 150.037 100.054 150.848 100.594L159.878 106.612L170.556 89.1083C171.062 88.2779 172.151 88.0137 172.986 88.5165C173.821 89.0212 174.088 90.1033 173.581 90.9338L161.942 110.012C161.692 110.422 161.283 110.713 160.811 110.818C160.775 110.826 160.737 110.833 160.7 110.839Z" fill="#002CAB"/>
<path d="M165.279 140.393C164.842 140.46 164.393 140.362 164.024 140.115L153.456 133.072C152.644 132.532 152.428 131.439 152.972 130.632C153.516 129.824 154.615 129.609 155.426 130.148L164.456 136.167L175.134 118.663C175.641 117.832 176.729 117.568 177.565 118.072C178.4 118.576 178.667 119.658 178.16 120.488L166.521 139.566C166.271 139.976 165.862 140.268 165.39 140.372C165.353 140.381 165.316 140.388 165.279 140.393Z" fill="#6986D9"/>
<path d="M169.865 169.948C169.428 170.015 168.979 169.916 168.61 169.672L158.043 162.628C157.23 162.087 157.014 160.993 157.558 160.185C158.102 159.379 159.201 159.164 160.012 159.705L169.042 165.721L179.72 148.219C180.227 147.387 181.315 147.123 182.151 147.626C182.986 148.131 183.253 149.212 182.746 150.044L171.107 169.122C170.856 169.532 170.448 169.822 169.976 169.927C169.938 169.935 169.901 169.942 169.865 169.948Z" fill="#6986D9"/>
<path d="M210.229 223.247C210.271 225.117 208.783 226.664 206.904 226.707L115.421 228.776C113.543 228.819 111.984 227.337 111.942 225.468L109.118 101.908C109.075 100.039 110.563 98.4897 112.443 98.4471L203.925 96.3798C205.804 96.3372 207.362 97.8172 207.404 99.6859L210.229 223.247Z" fill="white"/>
<path d="M127.641 112.914C131.06 112.837 133.903 115.539 133.981 118.939C134.058 122.339 131.341 125.168 127.923 125.245C124.505 125.322 121.661 122.619 121.582 119.22C121.505 115.818 124.223 112.991 127.641 112.914ZM127.61 111.561C123.434 111.655 120.126 115.097 120.221 119.25C120.316 123.402 123.778 126.692 127.953 126.598C132.129 126.504 135.437 123.06 135.343 118.908C135.248 114.757 131.786 111.466 127.61 111.561Z" fill="white"/>
<path d="M128.305 142.361C131.724 142.284 134.568 144.988 134.646 148.388C134.723 151.788 132.005 154.617 128.587 154.694C125.168 154.771 122.324 152.067 122.246 148.669C122.169 145.269 124.886 142.44 128.305 142.361ZM128.273 141.01C124.098 141.103 120.79 144.547 120.885 148.699C120.98 152.853 124.442 156.142 128.617 156.047C132.793 155.953 136.101 152.511 136.006 148.357C135.912 144.205 132.45 140.915 128.273 141.01Z" fill="white"/>
<path d="M128.938 169.022C132.357 168.945 135.201 171.648 135.279 175.047C135.357 178.448 132.639 181.277 129.22 181.353C125.802 181.431 122.958 178.727 122.879 175.329C122.801 171.93 125.519 169.1 128.938 169.022ZM128.907 167.67C124.731 167.764 121.423 171.206 121.518 175.358C121.612 179.512 125.075 182.801 129.25 182.709C133.425 182.613 136.734 179.171 136.639 175.016C136.544 170.865 133.082 167.575 128.907 167.67Z" fill="white"/>
<path d="M129.539 195.684C132.958 195.607 135.802 198.311 135.88 201.71C135.958 205.11 133.24 207.94 129.821 208.015C126.403 208.092 123.559 205.39 123.48 201.992C123.403 198.59 126.12 195.762 129.539 195.684ZM129.509 194.33C125.332 194.425 122.024 197.868 122.119 202.02C122.215 206.174 125.677 209.463 129.852 209.369C134.027 209.275 137.335 205.832 137.242 201.679C137.146 197.527 133.684 194.236 129.509 194.33Z" fill="white"/>
<path d="M144.075 114.319L196.369 113.137C196.557 113.134 196.705 112.978 196.7 112.791C196.697 112.604 196.541 112.456 196.353 112.461L144.06 113.642C143.872 113.647 143.722 113.801 143.727 113.988C143.732 114.176 143.887 114.324 144.075 114.319Z" fill="url(#paint16_linear_734_2)"/>
<path d="M144.184 119.05L193.012 117.947C193.2 117.943 193.348 117.787 193.345 117.601C193.341 117.412 193.185 117.266 192.996 117.27L144.168 118.373C143.98 118.378 143.831 118.533 143.836 118.72C143.839 118.908 143.996 119.055 144.184 119.05Z" fill="url(#paint17_linear_734_2)"/>
<path d="M144.294 123.782L167.606 123.254C167.793 123.25 167.942 123.095 167.937 122.909C167.934 122.721 167.778 122.573 167.59 122.578L144.279 123.104C144.09 123.109 143.941 123.265 143.945 123.451C143.951 123.637 144.106 123.785 144.294 123.782Z" fill="url(#paint18_linear_734_2)"/>
<path d="M170.419 122.516C170.23 122.521 170.083 122.675 170.086 122.861C170.091 123.049 170.246 123.196 170.435 123.192L184.611 122.872C184.799 122.868 184.947 122.713 184.943 122.524C184.939 122.338 184.783 122.19 184.596 122.195L170.419 122.516Z" fill="url(#paint19_linear_734_2)"/>
<path d="M144.747 143.765L185.07 142.854C185.256 142.849 185.406 142.694 185.401 142.506C185.398 142.32 185.242 142.173 185.053 142.176L144.731 143.089C144.544 143.092 144.394 143.247 144.399 143.433C144.402 143.621 144.558 143.77 144.747 143.765Z" fill="url(#paint20_linear_734_2)"/>
<path d="M144.864 148.503L178.098 147.751C178.286 147.747 178.436 147.592 178.431 147.405C178.427 147.22 178.271 147.071 178.084 147.074L144.849 147.826C144.661 147.831 144.512 147.985 144.516 148.171C144.52 148.358 144.676 148.507 144.864 148.503Z" fill="url(#paint21_linear_734_2)"/>
<path d="M144.965 153.231L168.278 152.705C168.466 152.699 168.613 152.544 168.61 152.358C168.606 152.172 168.45 152.024 168.262 152.027L144.95 152.555C144.762 152.56 144.613 152.714 144.617 152.9C144.621 153.087 144.777 153.235 144.965 153.231Z" fill="url(#paint22_linear_734_2)"/>
<path d="M194.639 151.769C194.636 151.582 194.48 151.433 194.292 151.438L171.099 151.962C170.91 151.967 170.762 152.12 170.766 152.309C170.77 152.494 170.926 152.643 171.114 152.638L194.307 152.114C194.496 152.111 194.643 151.954 194.639 151.769Z" fill="url(#paint23_linear_734_2)"/>
<path d="M180.461 147.356C180.464 147.542 180.62 147.691 180.808 147.687L199.782 147.257C199.97 147.254 200.119 147.099 200.114 146.912C200.11 146.725 199.954 146.578 199.766 146.582L180.793 147.01C180.605 147.015 180.456 147.168 180.461 147.356Z" fill="url(#paint24_linear_734_2)"/>
<path d="M145.349 170.434L180.207 169.645C180.395 169.64 180.544 169.487 180.539 169.299C180.534 169.111 180.379 168.964 180.191 168.969L145.332 169.757C145.145 169.761 144.996 169.915 145 170.103C145.005 170.289 145.16 170.438 145.349 170.434Z" fill="url(#paint25_linear_734_2)"/>
<path d="M145.467 175.161L194.294 174.057C194.483 174.051 194.631 173.896 194.627 173.709C194.623 173.523 194.466 173.375 194.279 173.379L145.45 174.483C145.262 174.487 145.113 174.643 145.117 174.83C145.122 175.018 145.278 175.164 145.467 175.161Z" fill="url(#paint26_linear_734_2)"/>
<path d="M145.575 179.891L168.888 179.365C169.075 179.361 169.224 179.204 169.22 179.019C169.215 178.831 169.06 178.684 168.872 178.688L145.559 179.215C145.372 179.219 145.222 179.374 145.227 179.561C145.231 179.747 145.387 179.896 145.575 179.891Z" fill="url(#paint27_linear_734_2)"/>
<path d="M183.442 169.566L197.65 169.248C197.837 169.243 197.986 169.087 197.982 168.901C197.978 168.714 197.823 168.565 197.634 168.57L183.427 168.891C183.239 168.896 183.09 169.05 183.094 169.236C183.098 169.424 183.256 169.572 183.442 169.566Z" fill="url(#paint28_linear_734_2)"/>
<path d="M145.972 197.089L168.402 196.583C168.59 196.578 168.739 196.424 168.734 196.237C168.73 196.049 168.574 195.901 168.387 195.906L145.957 196.413C145.769 196.417 145.62 196.572 145.625 196.759C145.628 196.945 145.785 197.093 145.972 197.089Z" fill="url(#paint29_linear_734_2)"/>
<path d="M146.074 201.819L180.364 201.043C180.55 201.039 180.699 200.884 180.695 200.697C180.69 200.511 180.535 200.363 180.348 200.367L146.059 201.142C145.871 201.147 145.723 201.302 145.727 201.487C145.731 201.676 145.887 201.823 146.074 201.819Z" fill="url(#paint30_linear_734_2)"/>
<path d="M166.322 205.418L146.161 205.874C145.974 205.878 145.824 206.034 145.828 206.22C145.833 206.406 145.988 206.555 146.176 206.551L166.337 206.094C166.527 206.089 166.675 205.936 166.671 205.75C166.666 205.562 166.509 205.414 166.322 205.418Z" fill="url(#paint31_linear_734_2)"/>
<path d="M195.512 204.758L172.317 205.281C172.129 205.286 171.98 205.441 171.984 205.628C171.99 205.814 172.145 205.963 172.333 205.959L195.527 205.434C195.713 205.428 195.862 205.274 195.859 205.088C195.854 204.9 195.699 204.753 195.512 204.758Z" fill="url(#paint32_linear_734_2)"/>
<path d="M200.88 195.168L172.099 195.818C171.911 195.824 171.762 195.976 171.766 196.164C171.771 196.349 171.927 196.499 172.115 196.495L200.896 195.843C201.082 195.84 201.232 195.686 201.228 195.498C201.224 195.31 201.068 195.163 200.88 195.168Z" fill="url(#paint33_linear_734_2)"/>
<path d="M200.992 199.902L182.099 200.329C181.911 200.333 181.761 200.489 181.766 200.675C181.771 200.863 181.925 201.011 182.114 201.007L201.008 200.58C201.196 200.575 201.344 200.42 201.34 200.233C201.336 200.045 201.18 199.897 200.992 199.902Z" fill="url(#paint34_linear_734_2)"/>
<path d="M128.529 152.558C128.153 152.567 127.785 152.434 127.501 152.187L119.371 145.084C118.746 144.54 118.686 143.593 119.233 142.973C119.781 142.351 120.733 142.291 121.358 142.836L128.304 148.904L139.256 135.315C139.775 134.669 140.723 134.567 141.372 135.082C142.021 135.6 142.125 136.542 141.605 137.187L129.669 151.998C129.411 152.317 129.033 152.519 128.625 152.554C128.594 152.556 128.56 152.558 128.529 152.558Z" fill="#002CAB"/>
<path d="M127.825 121.488C127.449 121.498 127.081 121.365 126.798 121.117L118.667 114.016C118.043 113.47 117.983 112.523 118.53 111.903C119.079 111.282 120.031 111.221 120.655 111.765L127.602 117.834L138.554 104.245C139.074 103.599 140.021 103.496 140.669 104.013C141.317 104.53 141.422 105.472 140.903 106.117L128.965 120.929C128.708 121.247 128.331 121.448 127.922 121.483C127.891 121.486 127.857 121.488 127.825 121.488Z" fill="#002CAB"/>
<path d="M129.13 178.878C128.754 178.887 128.388 178.755 128.103 178.507L119.973 171.405C119.348 170.86 119.287 169.914 119.834 169.293C120.383 168.672 121.334 168.611 121.959 169.155L128.905 175.224L139.858 161.634C140.378 160.99 141.324 160.887 141.974 161.402C142.621 161.92 142.727 162.862 142.206 163.507L130.27 178.319C130.012 178.637 129.635 178.839 129.226 178.874C129.195 178.876 129.162 178.878 129.13 178.878Z" fill="#002CAB"/>
<path d="M129.725 204.601C129.347 204.611 128.982 204.477 128.697 204.23L120.566 197.128C119.942 196.583 119.881 195.637 120.429 195.016C120.977 194.394 121.929 194.335 122.554 194.877L129.501 200.947L140.452 187.359C140.972 186.713 141.919 186.608 142.568 187.126C143.217 187.642 143.322 188.584 142.802 189.229L130.864 204.041C130.607 204.36 130.23 204.561 129.82 204.596C129.789 204.6 129.757 204.602 129.725 204.601Z" fill="url(#paint35_linear_734_2)"/>
<path d="M257.273 278.238C256.119 279.623 254.055 279.813 252.663 278.666L175.801 215.231C174.409 214.081 174.217 212.028 175.372 210.645L265.509 102.627C266.663 101.242 268.728 101.051 270.119 102.199L346.981 165.635C348.373 166.784 348.564 168.837 347.41 170.22L257.273 278.238Z" fill="white"/>
<path d="M270.755 261.389C269.859 262.951 267.859 263.495 266.288 262.603L179.535 213.375C177.964 212.483 177.418 210.493 178.314 208.931L248.265 87.0146C249.162 85.452 251.162 84.9086 252.732 85.7994L339.484 135.028C341.055 135.92 341.603 137.909 340.705 139.471L270.755 261.389Z" fill="#69B6FF"/>
<path d="M248.329 102.707L323.887 145.583C324.045 145.674 324.245 145.618 324.336 145.461C324.425 145.306 324.37 145.107 324.213 145.017L248.654 102.14C248.497 102.051 248.296 102.106 248.207 102.263C248.118 102.419 248.172 102.617 248.329 102.707Z" fill="url(#paint36_linear_734_2)"/>
<path d="M244.955 108.598L292.786 135.74C292.943 135.83 293.144 135.775 293.233 135.619C293.323 135.462 293.268 135.264 293.111 135.175L245.278 108.031C245.122 107.942 244.922 107.997 244.831 108.153C244.743 108.31 244.798 108.508 244.955 108.598Z" fill="url(#paint37_linear_734_2)"/>
<path d="M295.522 136.551C295.365 136.462 295.165 136.516 295.074 136.671C294.985 136.828 295.039 137.027 295.196 137.116L318.71 150.458C318.867 150.548 319.067 150.494 319.157 150.337C319.247 150.181 319.191 149.982 319.034 149.893L295.522 136.551Z" fill="url(#paint38_linear_734_2)"/>
<path d="M241.571 114.497L308.318 152.372C308.476 152.462 308.675 152.408 308.765 152.251C308.855 152.095 308.801 151.895 308.643 151.807L241.896 113.93C241.739 113.84 241.538 113.895 241.449 114.051C241.36 114.208 241.414 114.407 241.571 114.497Z" fill="url(#paint39_linear_734_2)"/>
<path d="M238.189 120.394L293.484 151.771C293.642 151.862 293.841 151.807 293.931 151.65C294.021 151.494 293.966 151.296 293.809 151.206L238.514 119.828C238.357 119.739 238.157 119.793 238.067 119.95C237.977 120.106 238.032 120.305 238.189 120.394Z" fill="url(#paint40_linear_734_2)"/>
<path d="M234.806 126.29L303.259 165.135C303.416 165.224 303.617 165.17 303.706 165.013C303.796 164.857 303.742 164.657 303.584 164.569L235.13 125.723C234.974 125.633 234.773 125.688 234.684 125.845C234.594 126.002 234.649 126.2 234.806 126.29Z" fill="url(#paint41_linear_734_2)"/>
<path d="M231.423 132.183L288.689 164.679C288.846 164.768 289.047 164.713 289.136 164.557C289.226 164.4 289.171 164.202 289.014 164.112L231.748 131.618C231.591 131.528 231.391 131.582 231.301 131.738C231.211 131.895 231.266 132.093 231.423 132.183Z" fill="url(#paint42_linear_734_2)"/>
<path d="M228.04 138.081L291.375 174.022C291.532 174.11 291.732 174.056 291.821 173.9C291.911 173.744 291.857 173.546 291.699 173.455L228.364 137.516C228.207 137.427 228.008 137.48 227.918 137.637C227.828 137.793 227.883 137.993 228.04 138.081Z" fill="url(#paint43_linear_734_2)"/>
<path d="M224.658 143.975L276.142 173.192C276.299 173.28 276.499 173.226 276.589 173.07C276.68 172.914 276.624 172.714 276.467 172.626L224.982 143.41C224.825 143.32 224.626 143.376 224.535 143.533C224.446 143.687 224.5 143.887 224.658 143.975Z" fill="url(#paint44_linear_734_2)"/>
<path d="M280.076 174.669C279.918 174.578 279.719 174.633 279.629 174.79C279.539 174.946 279.594 175.145 279.752 175.234L291.888 182.12C292.045 182.21 292.244 182.156 292.335 181.999C292.424 181.843 292.37 181.643 292.212 181.555L280.076 174.669Z" fill="url(#paint45_linear_734_2)"/>
<path d="M221.267 149.87L293.479 190.849C293.636 190.938 293.836 190.884 293.926 190.727C294.017 190.571 293.961 190.371 293.803 190.282L221.592 149.305C221.434 149.215 221.235 149.271 221.144 149.426C221.055 149.583 221.109 149.781 221.267 149.87Z" fill="url(#paint46_linear_734_2)"/>
<path d="M293.775 198.076L218.216 155.199C218.059 155.11 217.859 155.164 217.77 155.321C217.68 155.478 217.734 155.675 217.892 155.766L293.451 198.642C293.608 198.731 293.808 198.677 293.898 198.521C293.986 198.365 293.932 198.165 293.775 198.076Z" fill="url(#paint47_linear_734_2)"/>
<path d="M214.509 161.664L262.34 188.806C262.498 188.896 262.698 188.841 262.788 188.684C262.878 188.528 262.823 188.33 262.666 188.24L214.833 161.098C214.676 161.008 214.477 161.063 214.386 161.219C214.297 161.376 214.352 161.576 214.509 161.664Z" fill="url(#paint48_linear_734_2)"/>
<path d="M288.59 202.953L265.076 189.609C264.919 189.52 264.719 189.574 264.629 189.732C264.539 189.888 264.594 190.086 264.751 190.176L288.265 203.519C288.422 203.607 288.622 203.553 288.712 203.396C288.801 203.24 288.746 203.042 288.59 202.953Z" fill="url(#paint49_linear_734_2)"/>
<path d="M211.118 167.554L277.865 205.43C278.022 205.52 278.222 205.466 278.311 205.309C278.402 205.153 278.347 204.953 278.189 204.865L211.443 166.988C211.286 166.899 211.085 166.953 210.996 167.11C210.907 167.266 210.962 167.465 211.118 167.554Z" fill="url(#paint50_linear_734_2)"/>
<path d="M207.752 173.45L263.046 204.828C263.203 204.917 263.403 204.863 263.493 204.706C263.582 204.55 263.528 204.351 263.37 204.261L208.076 172.883C207.919 172.793 207.719 172.847 207.63 173.005C207.539 173.161 207.593 173.36 207.752 173.45Z" fill="url(#paint51_linear_734_2)"/>
<path d="M204.36 179.348L272.814 218.193C272.971 218.282 273.17 218.228 273.261 218.071C273.351 217.915 273.296 217.715 273.138 217.626L204.685 178.781C204.528 178.692 204.328 178.746 204.238 178.903C204.149 179.059 204.203 179.257 204.36 179.348Z" fill="url(#paint52_linear_734_2)"/>
<path d="M200.978 185.246L258.244 217.742C258.401 217.83 258.602 217.776 258.69 217.619C258.781 217.464 258.727 217.265 258.568 217.175L201.302 184.68C201.146 184.59 200.945 184.645 200.856 184.801C200.766 184.957 200.821 185.157 200.978 185.246Z" fill="url(#paint53_linear_734_2)"/>
<path d="M197.595 191.14L260.93 227.079C261.087 227.169 261.287 227.115 261.377 226.959C261.467 226.803 261.412 226.604 261.255 226.515L197.92 190.574C197.762 190.485 197.563 190.539 197.473 190.696C197.383 190.852 197.437 191.052 197.595 191.14Z" fill="url(#paint54_linear_734_2)"/>
<path d="M194.204 197.035L245.689 226.25C245.846 226.34 246.045 226.286 246.136 226.129C246.225 225.973 246.171 225.774 246.014 225.685L194.529 196.47C194.372 196.379 194.171 196.433 194.082 196.59C193.993 196.748 194.047 196.946 194.204 197.035Z" fill="url(#paint55_linear_734_2)"/>
<path d="M249.623 227.726C249.465 227.638 249.266 227.692 249.175 227.848C249.087 228.005 249.141 228.203 249.298 228.293L261.434 235.18C261.591 235.269 261.791 235.215 261.881 235.058C261.971 234.902 261.915 234.704 261.758 234.614L249.623 227.726Z" fill="url(#paint56_linear_734_2)"/>
<path d="M263.366 243.344L191.154 202.367C190.998 202.278 190.798 202.333 190.708 202.489C190.617 202.645 190.672 202.844 190.83 202.934L263.041 243.911C263.198 244.001 263.399 243.946 263.488 243.79C263.578 243.632 263.523 243.434 263.366 243.344Z" fill="url(#paint57_linear_734_2)"/>
<path d="M272.175 158.523C271.443 160.442 269.284 161.405 267.355 160.674L224.925 144.624C222.996 143.896 222.027 141.748 222.761 139.83L240.163 94.3335C240.896 92.4144 243.055 91.4522 244.983 92.181L287.414 108.232C289.343 108.963 290.312 111.109 289.577 113.027L272.175 158.523Z" fill="white"/>
<path d="M271.486 90.8563C269.011 89.4524 265.559 89.4438 263.423 91.8762L265.536 93.0744C266.878 91.9241 268.822 92.0355 270.322 92.8863C272.151 93.9245 272.789 96.2474 271.745 98.067L264.466 110.753C263.524 112.395 261.694 113.553 259.728 112.438C257.9 111.4 257.261 109.075 258.304 107.257L261.55 101.599C261.872 101.038 261.676 100.325 261.112 100.004C260.548 99.6846 259.832 99.88 259.51 100.441L256.263 106.099C254.577 109.036 255.609 112.792 258.563 114.468C261.395 116.074 264.735 114.999 266.508 111.912L273.787 99.2252C275.473 96.2881 274.441 92.5336 271.486 90.8563Z" fill="#002CAB"/>
<path d="M240.928 200.353H143.22V188.656C143.22 186.686 141.614 185.09 139.633 185.09H88.7039C86.7227 185.09 85.1172 186.687 85.1172 188.656V286.387C85.1172 288.357 86.7227 289.954 88.7039 289.954H104.901H139.632H240.928C242.909 289.954 244.514 288.357 244.514 286.387V203.92C244.514 201.949 242.909 200.353 240.928 200.353Z" fill="#FFDB75"/>
<path d="M380.252 212.125L323.001 248.048C323.001 248.048 314.229 233.001 293.462 241.682C293.462 241.682 278.991 240.749 264.603 228.606C255.603 221.013 247.432 228.088 253.808 238.341C259.281 247.141 275.955 258.346 275.955 258.346L255.076 278.712C255.076 278.712 270.372 298.225 275.841 301.107C281.311 303.989 313.869 299.601 324.132 280.998L380.252 268.809V212.125Z" fill="#FED4D1"/>
<path d="M309.216 257.292C306.191 257.552 303.221 257.921 300.569 259.501C297.36 261.412 295.168 265.201 293.765 268.533C293.556 269.029 292.83 268.606 293.037 268.115C294.548 264.528 296.858 260.98 300.152 258.775C302.776 257.017 306.151 256.718 309.212 256.455C309.753 256.408 309.753 257.245 309.216 257.292Z" fill="#DF938B"/>
<path d="M251.042 257.327L258.408 250.941L235.812 225.445L228.445 231.831L251.042 257.327Z" fill="#BDD0FB"/>
<path opacity="0.5" d="M232.129 228.633L228.445 231.827L251.042 257.323L254.725 254.129L232.129 228.633Z" fill="#BDD0FB"/>
<path d="M284.372 301.495C287.619 305.2 293.272 305.586 296.999 302.356C300.724 299.126 301.113 293.504 297.865 289.799L259.721 246.272C256.471 242.566 250.819 242.18 247.093 245.409C243.367 248.639 242.979 254.262 246.227 257.967L284.372 301.495Z" fill="#02248C"/>
<path d="M166.665 229.164C184.771 249.824 216.29 251.975 237.064 233.969C257.838 215.962 260.003 184.618 241.896 163.957C223.79 143.297 192.271 141.146 171.497 159.152C150.722 177.158 148.559 208.503 166.665 229.164ZM177.055 165.492C194.308 150.538 220.484 152.326 235.52 169.483C250.557 186.642 248.76 212.674 231.507 227.627C214.253 242.581 188.077 240.795 173.042 223.636C158.003 206.478 159.802 180.446 177.055 165.492Z" fill="#020010"/>
<path d="M168.132 227.905C185.535 247.761 215.828 249.83 235.795 232.523C255.763 215.218 257.842 185.091 240.439 165.234C223.038 145.376 192.744 143.308 172.778 160.615C152.81 177.921 150.73 208.047 168.132 227.905ZM177.06 165.501C194.313 150.547 220.49 152.334 235.526 169.492C250.563 186.651 248.765 212.683 231.512 227.635C214.259 242.59 188.083 240.804 173.047 223.645C158.008 206.487 159.807 180.455 177.06 165.501Z" fill="#02248C"/>
<path opacity="0.7" d="M173.037 223.639C188.072 240.798 214.248 242.584 231.502 227.63C248.755 212.677 250.552 186.645 235.516 169.486C220.479 152.329 194.303 150.541 177.05 165.495C159.797 180.449 157.998 206.481 173.037 223.639Z" fill="url(#paint58_linear_734_2)"/>
<path d="M227.984 223.448C228.828 224.551 228.611 226.124 227.503 226.963C219.582 232.952 209.76 235.623 199.844 234.486C197.894 234.261 195.95 233.886 194.064 233.369C192.72 233.001 191.932 231.62 192.302 230.283C192.382 229.993 192.512 229.726 192.678 229.495C193.276 228.662 194.355 228.244 195.404 228.532C197.04 228.981 198.729 229.308 200.421 229.501C209.036 230.489 217.571 228.17 224.449 222.969C225.558 222.13 227.141 222.345 227.984 223.448Z" fill="white"/>
<path d="M184.933 223.563C186.068 224.366 186.331 225.933 185.523 227.061C184.715 228.189 183.14 228.452 182.005 227.648C177.693 224.592 174.132 220.774 171.417 216.301C170.882 215.418 170.958 214.337 171.523 213.548C171.718 213.277 171.97 213.04 172.275 212.857C173.467 212.141 175.018 212.523 175.738 213.71C178.093 217.591 181.186 220.906 184.933 223.563Z" fill="white"/>
<path d="M253.036 283.109C248.066 281.49 241.335 275.685 244.764 269.326C248.194 262.966 263.52 247.488 275.139 249.985C283.018 251.678 281.224 260.317 273.452 267.375C265.681 274.433 253.036 283.109 253.036 283.109Z" fill="#FFDBD8"/>
<path d="M278.718 261.515C280.226 258.905 280.805 256.401 280.311 254.288C279.773 251.991 277.983 250.344 275.136 249.523C271.358 248.435 267.193 249.876 264.366 251.277C264.158 251.381 264.073 251.631 264.177 251.838C264.28 252.045 264.533 252.129 264.74 252.026C267.434 250.691 271.385 249.312 274.902 250.326C277.44 251.057 279.026 252.493 279.492 254.478C280.288 257.874 277.818 262.674 273.048 267.005C272.878 267.164 272.866 267.426 273.021 267.595C273.178 267.767 273.444 267.778 273.616 267.622C275.827 265.614 277.551 263.533 278.718 261.515Z" fill="#D2928B"/>
<path d="M264.022 292.467C258.093 293.131 248.793 287.5 253.42 279.505C257.041 273.251 275.385 254.014 287.004 256.511C294.884 258.204 292.27 266.13 284.499 273.187C276.728 280.245 264.022 292.467 264.022 292.467Z" fill="#FFDBD8"/>
<path d="M290.484 266.708C291.948 264.175 292.513 261.831 292.014 259.99C291.641 258.618 290.486 256.828 287.094 256.101C280.596 254.703 272.551 259.843 266.947 264.4C260.715 269.469 254.991 275.953 253.056 279.295C252.94 279.495 253.01 279.75 253.21 279.866C253.411 279.981 253.668 279.911 253.784 279.712C257.497 273.298 275.669 254.501 286.916 256.918C289.307 257.433 290.749 258.538 291.201 260.208C292.052 263.338 289.374 268.194 284.216 272.878C284.044 273.036 284.034 273.299 284.189 273.469C284.346 273.64 284.612 273.651 284.783 273.496C287.283 271.225 289.218 268.896 290.484 266.708Z" fill="#D2928B"/>
<path d="M262.507 291.432C263.752 289.279 265.94 286.443 268.666 283.58C272.688 279.356 277.885 275.073 282.987 272.829C285.896 271.551 288.773 270.932 291.381 271.37C297.406 272.383 296.703 276.905 292.216 283.36C291.431 284.487 290.534 285.673 289.535 286.911C286.126 291.128 281.643 294.945 279.885 296.382L280.698 297.309L284.362 301.491C284.759 301.943 285.191 302.344 285.652 302.696C281.235 303.653 275.84 304.336 271.028 303.562C265.138 302.617 258.788 297.865 262.507 291.432Z" fill="#FFDBD8"/>
<path d="M280.753 296.113C282.336 294.841 286.426 291.401 289.839 287.179C294.926 280.883 296.901 276.516 295.872 273.829C295.298 272.326 293.802 271.362 291.427 270.964C285.55 269.978 278.895 274.115 274.346 277.757C268.636 282.332 264.09 287.82 262.119 291.231C262.003 291.43 262.072 291.686 262.273 291.801C262.475 291.917 262.732 291.846 262.848 291.646C266.729 284.932 281.087 270.077 291.287 271.789C293.346 272.134 294.626 272.921 295.086 274.126C295.985 276.479 294 280.695 289.182 286.654C284.938 291.905 279.626 295.934 279.574 295.974C279.444 296.073 279.384 296.233 279.415 296.391C279.448 296.548 279.566 296.672 279.722 296.712L280.753 296.113Z" fill="#D2928B"/>
<path d="M264.671 196.592C263.294 194.595 274.528 181.056 277.855 178.786L352.895 127.582C356.221 125.311 364.487 137.292 361.161 139.564L286.122 190.767C282.794 193.036 266.049 198.588 264.671 196.592Z" fill="white"/>
<path d="M277.609 178.958C277.888 181.017 279.015 183.36 280.629 185.698C282.241 188.037 284.035 189.926 285.866 190.926C285.955 190.871 286.04 190.816 286.115 190.766L353.413 144.844C353.519 142.522 352.777 139.913 351.16 137.57C349.544 135.229 347.362 133.599 345.146 132.863L277.849 178.785C277.774 178.836 277.692 178.895 277.609 178.958Z" fill="#C8A583"/>
<path d="M354.888 135.028C356.461 137.309 357.283 139.82 357.375 142.141L361.154 139.564C364.48 137.292 356.214 125.311 352.888 127.582L349.109 130.16C351.253 131.081 353.313 132.747 354.888 135.028Z" fill="#FD8181"/>
<path d="M266.119 192.555C264.921 194.49 264.275 196.017 264.671 196.59C265.068 197.161 266.731 197.113 268.979 196.697C269.002 195.825 268.762 194.937 268.228 194.163C267.694 193.388 266.947 192.846 266.119 192.555Z" fill="#02248C"/>
<path d="M351.16 137.57C349.544 135.229 347.362 133.599 345.146 132.863L277.849 178.785C277.774 178.835 277.692 178.895 277.609 178.958C277.888 181.017 279.015 183.36 280.629 185.698" fill="#E8C19B"/>
<defs>
<linearGradient id="paint0_linear_734_2" x1="52.8431" y1="78.9999" x2="160.105" y2="62.3682" gradientUnits="userSpaceOnUse">
<stop stop-color="#6986D9"/>
<stop offset="1" stop-color="#8FB3FF"/>
</linearGradient>
<linearGradient id="paint1_linear_734_2" x1="55.5038" y1="96.1208" x2="162.778" y2="79.4871" gradientUnits="userSpaceOnUse">
<stop stop-color="#6986D9"/>
<stop offset="1" stop-color="#8FB3FF"/>
</linearGradient>
<linearGradient id="paint2_linear_734_2" x1="55.5007" y1="96.1189" x2="162.774" y2="79.4854" gradientUnits="userSpaceOnUse">
<stop stop-color="#6986D9"/>
<stop offset="1" stop-color="#8FB3FF"/>
</linearGradient>
<linearGradient id="paint3_linear_734_2" x1="58.6997" y1="116.729" x2="165.973" y2="100.095" gradientUnits="userSpaceOnUse">
<stop stop-color="#6986D9"/>
<stop offset="1" stop-color="#8FB3FF"/>
</linearGradient>
<linearGradient id="paint4_linear_734_2" x1="60.4568" y1="128.096" x2="167.72" y2="111.464" gradientUnits="userSpaceOnUse">
<stop stop-color="#6986D9"/>
<stop offset="1" stop-color="#8FB3FF"/>
</linearGradient>
<linearGradient id="paint5_linear_734_2" x1="60.4626" y1="128.096" x2="167.736" y2="111.463" gradientUnits="userSpaceOnUse">
<stop stop-color="#6986D9"/>
<stop offset="1" stop-color="#8FB3FF"/>
</linearGradient>
<linearGradient id="paint6_linear_734_2" x1="63.0736" y1="144.914" x2="170.347" y2="128.281" gradientUnits="userSpaceOnUse">
<stop stop-color="#6986D9"/>
<stop offset="1" stop-color="#8FB3FF"/>
</linearGradient>
<linearGradient id="paint7_linear_734_2" x1="63.0659" y1="144.909" x2="170.34" y2="128.275" gradientUnits="userSpaceOnUse">
<stop stop-color="#6986D9"/>
<stop offset="1" stop-color="#8FB3FF"/>
</linearGradient>
<linearGradient id="paint8_linear_734_2" x1="64.8398" y1="156.28" x2="172.113" y2="139.647" gradientUnits="userSpaceOnUse">
<stop stop-color="#6986D9"/>
<stop offset="1" stop-color="#8FB3FF"/>
</linearGradient>
<linearGradient id="paint9_linear_734_2" x1="67.4406" y1="173.103" x2="174.715" y2="156.469" gradientUnits="userSpaceOnUse">
<stop stop-color="#6986D9"/>
<stop offset="1" stop-color="#8FB3FF"/>
</linearGradient>
<linearGradient id="paint10_linear_734_2" x1="67.4373" y1="173.097" x2="174.713" y2="156.463" gradientUnits="userSpaceOnUse">
<stop stop-color="#6986D9"/>
<stop offset="1" stop-color="#8FB3FF"/>
</linearGradient>
<linearGradient id="paint11_linear_734_2" x1="69.2071" y1="184.471" x2="176.482" y2="167.837" gradientUnits="userSpaceOnUse">
<stop stop-color="#6986D9"/>
<stop offset="1" stop-color="#8FB3FF"/>
</linearGradient>
<linearGradient id="paint12_linear_734_2" x1="167.034" y1="154.311" x2="153.887" y2="68.5795" gradientUnits="userSpaceOnUse">
<stop stop-color="#6986D9"/>
<stop offset="1" stop-color="#8FB3FF"/>
</linearGradient>
<linearGradient id="paint13_linear_734_2" x1="167.037" y1="154.309" x2="153.889" y2="68.5761" gradientUnits="userSpaceOnUse">
<stop stop-color="#6986D9"/>
<stop offset="1" stop-color="#8FB3FF"/>
</linearGradient>
<linearGradient id="paint14_linear_734_2" x1="167.032" y1="154.308" x2="153.885" y2="68.5805" gradientUnits="userSpaceOnUse">
<stop stop-color="#6986D9"/>
<stop offset="1" stop-color="#8FB3FF"/>
</linearGradient>
<linearGradient id="paint15_linear_734_2" x1="167.05" y1="154.311" x2="153.902" y2="68.5779" gradientUnits="userSpaceOnUse">
<stop stop-color="#6986D9"/>
<stop offset="1" stop-color="#8FB3FF"/>
</linearGradient>
<linearGradient id="paint16_linear_734_2" x1="214.748" y1="106.513" x2="90.5563" y2="125.904" gradientUnits="userSpaceOnUse">
<stop stop-color="#6986D9"/>
<stop offset="1" stop-color="#8FB3FF"/>
</linearGradient>
<linearGradient id="paint17_linear_734_2" x1="215.438" y1="110.926" x2="91.2437" y2="130.317" gradientUnits="userSpaceOnUse">
<stop stop-color="#6986D9"/>
<stop offset="1" stop-color="#8FB3FF"/>
</linearGradient>
<linearGradient id="paint18_linear_734_2" x1="215.907" y1="113.919" x2="91.7143" y2="133.31" gradientUnits="userSpaceOnUse">
<stop stop-color="#6986D9"/>
<stop offset="1" stop-color="#8FB3FF"/>
</linearGradient>
<linearGradient id="paint19_linear_734_2" x1="216.335" y1="116.699" x2="92.1412" y2="136.091" gradientUnits="userSpaceOnUse">
<stop stop-color="#6986D9"/>
<stop offset="1" stop-color="#8FB3FF"/>
</linearGradient>
<linearGradient id="paint20_linear_734_2" x1="219.132" y1="134.596" x2="94.9406" y2="153.987" gradientUnits="userSpaceOnUse">
<stop stop-color="#6986D9"/>
<stop offset="1" stop-color="#8FB3FF"/>
</linearGradient>
<linearGradient id="paint21_linear_734_2" x1="219.795" y1="138.782" x2="95.602" y2="158.173" gradientUnits="userSpaceOnUse">
<stop stop-color="#6986D9"/>
<stop offset="1" stop-color="#8FB3FF"/>
</linearGradient>
<linearGradient id="paint22_linear_734_2" x1="220.415" y1="142.778" x2="96.2164" y2="162.17" gradientUnits="userSpaceOnUse">
<stop stop-color="#6986D9"/>
<stop offset="1" stop-color="#8FB3FF"/>
</linearGradient>
<linearGradient id="paint23_linear_734_2" x1="220.937" y1="146.134" x2="96.7468" y2="165.525" gradientUnits="userSpaceOnUse">
<stop stop-color="#6986D9"/>
<stop offset="1" stop-color="#8FB3FF"/>
</linearGradient>
<linearGradient id="paint24_linear_734_2" x1="220.363" y1="142.489" x2="96.1778" y2="161.88" gradientUnits="userSpaceOnUse">
<stop stop-color="#6986D9"/>
<stop offset="1" stop-color="#8FB3FF"/>
</linearGradient>
<linearGradient id="paint25_linear_734_2" x1="223.15" y1="160.376" x2="98.9567" y2="179.767" gradientUnits="userSpaceOnUse">
<stop stop-color="#6986D9"/>
<stop offset="1" stop-color="#8FB3FF"/>
</linearGradient>
<linearGradient id="paint26_linear_734_2" x1="224.025" y1="165.908" x2="99.8298" y2="185.299" gradientUnits="userSpaceOnUse">
<stop stop-color="#6986D9"/>
<stop offset="1" stop-color="#8FB3FF"/>
</linearGradient>
<linearGradient id="paint27_linear_734_2" x1="224.493" y1="168.902" x2="100.298" y2="188.293" gradientUnits="userSpaceOnUse">
<stop stop-color="#6986D9"/>
<stop offset="1" stop-color="#8FB3FF"/>
</linearGradient>
<linearGradient id="paint28_linear_734_2" x1="223.716" y1="163.946" x2="99.5205" y2="183.337" gradientUnits="userSpaceOnUse">
<stop stop-color="#6986D9"/>
<stop offset="1" stop-color="#8FB3FF"/>
</linearGradient>
<linearGradient id="paint29_linear_734_2" x1="227.12" y1="185.697" x2="102.927" y2="205.088" gradientUnits="userSpaceOnUse">
<stop stop-color="#6986D9"/>
<stop offset="1" stop-color="#8FB3FF"/>
</linearGradient>
<linearGradient id="paint30_linear_734_2" x1="227.956" y1="191.095" x2="103.763" y2="210.486" gradientUnits="userSpaceOnUse">
<stop stop-color="#6986D9"/>
<stop offset="1" stop-color="#8FB3FF"/>
</linearGradient>
<linearGradient id="paint31_linear_734_2" x1="228.535" y1="194.821" x2="104.337" y2="214.213" gradientUnits="userSpaceOnUse">
<stop stop-color="#6986D9"/>
<stop offset="1" stop-color="#8FB3FF"/>
</linearGradient>
<linearGradient id="paint32_linear_734_2" x1="229.099" y1="198.381" x2="104.903" y2="217.772" gradientUnits="userSpaceOnUse">
<stop stop-color="#6986D9"/>
<stop offset="1" stop-color="#8FB3FF"/>
</linearGradient>
<linearGradient id="paint33_linear_734_2" x1="227.705" y1="189.467" x2="103.51" y2="208.859" gradientUnits="userSpaceOnUse">
<stop stop-color="#6986D9"/>
<stop offset="1" stop-color="#8FB3FF"/>
</linearGradient>
<linearGradient id="paint34_linear_734_2" x1="228.532" y1="194.744" x2="104.341" y2="214.135" gradientUnits="userSpaceOnUse">
<stop stop-color="#6986D9"/>
<stop offset="1" stop-color="#8FB3FF"/>
</linearGradient>
<linearGradient id="paint35_linear_734_2" x1="120.055" y1="196.052" x2="143.298" y2="195.521" gradientUnits="userSpaceOnUse">
<stop stop-color="#6986D9"/>
<stop offset="1" stop-color="#8FB3FF"/>
</linearGradient>
<linearGradient id="paint36_linear_734_2" x1="288.028" y1="102.924" x2="276.146" y2="246.112" gradientUnits="userSpaceOnUse">
<stop stop-color="#8FB3FF"/>
<stop offset="1" stop-color="#6986D9"/>
</linearGradient>
<linearGradient id="paint37_linear_734_2" x1="270.744" y1="101.485" x2="258.863" y2="244.669" gradientUnits="userSpaceOnUse">
<stop stop-color="#8FB3FF"/>
<stop offset="1" stop-color="#6986D9"/>
</linearGradient>
<linearGradient id="paint38_linear_734_2" x1="310.365" y1="104.778" x2="298.484" y2="247.958" gradientUnits="userSpaceOnUse">
<stop stop-color="#8FB3FF"/>
<stop offset="1" stop-color="#6986D9"/>
</linearGradient>
<linearGradient id="paint39_linear_734_2" x1="277.716" y1="102.066" x2="265.834" y2="245.252" gradientUnits="userSpaceOnUse">
<stop stop-color="#8FB3FF"/>
<stop offset="1" stop-color="#6986D9"/>
</linearGradient>
<linearGradient id="paint40_linear_734_2" x1="268.89" y1="101.336" x2="257.009" y2="244.521" gradientUnits="userSpaceOnUse">
<stop stop-color="#8FB3FF"/>
<stop offset="1" stop-color="#6986D9"/>
</linearGradient>
<linearGradient id="paint41_linear_734_2" x1="272.867" y1="101.665" x2="260.985" y2="244.853" gradientUnits="userSpaceOnUse">
<stop stop-color="#8FB3FF"/>
<stop offset="1" stop-color="#6986D9"/>
</linearGradient>
<linearGradient id="paint42_linear_734_2" x1="264.179" y1="100.943" x2="252.298" y2="244.126" gradientUnits="userSpaceOnUse">
<stop stop-color="#8FB3FF"/>
<stop offset="1" stop-color="#6986D9"/>
</linearGradient>
<linearGradient id="paint43_linear_734_2" x1="264.467" y1="100.969" x2="252.586" y2="244.155" gradientUnits="userSpaceOnUse">
<stop stop-color="#8FB3FF"/>
<stop offset="1" stop-color="#6986D9"/>
</linearGradient>
<linearGradient id="paint44_linear_734_2" x1="255.436" y1="100.218" x2="243.554" y2="243.404" gradientUnits="userSpaceOnUse">
<stop stop-color="#8FB3FF"/>
<stop offset="1" stop-color="#6986D9"/>
</linearGradient>
<linearGradient id="paint45_linear_734_2" x1="292.283" y1="103.281" x2="280.403" y2="246.451" gradientUnits="userSpaceOnUse">
<stop stop-color="#8FB3FF"/>
<stop offset="1" stop-color="#6986D9"/>
</linearGradient>
<linearGradient id="paint46_linear_734_2" x1="263.342" y1="100.873" x2="251.46" y2="244.061" gradientUnits="userSpaceOnUse">
<stop stop-color="#8FB3FF"/>
<stop offset="1" stop-color="#6986D9"/>
</linearGradient>
<linearGradient id="paint47_linear_734_2" x1="262.222" y1="100.778" x2="250.34" y2="243.965" gradientUnits="userSpaceOnUse">
<stop stop-color="#8FB3FF"/>
<stop offset="1" stop-color="#6986D9"/>
</linearGradient>
<linearGradient id="paint48_linear_734_2" x1="244.931" y1="99.3468" x2="233.049" y2="242.533" gradientUnits="userSpaceOnUse">
<stop stop-color="#8FB3FF"/>
<stop offset="1" stop-color="#6986D9"/>
</linearGradient>
<linearGradient id="paint49_linear_734_2" x1="284.552" y1="102.627" x2="272.67" y2="245.82" gradientUnits="userSpaceOnUse">
<stop stop-color="#8FB3FF"/>
<stop offset="1" stop-color="#6986D9"/>
</linearGradient>
<linearGradient id="paint50_linear_734_2" x1="251.893" y1="99.9214" x2="240.013" y2="243.104" gradientUnits="userSpaceOnUse">
<stop stop-color="#8FB3FF"/>
<stop offset="1" stop-color="#6986D9"/>
</linearGradient>
<linearGradient id="paint51_linear_734_2" x1="243.084" y1="99.1849" x2="231.203" y2="242.373" gradientUnits="userSpaceOnUse">
<stop stop-color="#8FB3FF"/>
<stop offset="1" stop-color="#6986D9"/>
</linearGradient>
<linearGradient id="paint52_linear_734_2" x1="247.053" y1="99.5184" x2="235.172" y2="242.705" gradientUnits="userSpaceOnUse">
<stop stop-color="#8FB3FF"/>
<stop offset="1" stop-color="#6986D9"/>
</linearGradient>
<linearGradient id="paint53_linear_734_2" x1="238.365" y1="98.8024" x2="226.484" y2="241.986" gradientUnits="userSpaceOnUse">
<stop stop-color="#8FB3FF"/>
<stop offset="1" stop-color="#6986D9"/>
</linearGradient>
<linearGradient id="paint54_linear_734_2" x1="238.654" y1="98.822" x2="226.773" y2="242.009" gradientUnits="userSpaceOnUse">
<stop stop-color="#8FB3FF"/>
<stop offset="1" stop-color="#6986D9"/>
</linearGradient>
<linearGradient id="paint55_linear_734_2" x1="229.613" y1="98.0744" x2="217.732" y2="241.259" gradientUnits="userSpaceOnUse">
<stop stop-color="#8FB3FF"/>
<stop offset="1" stop-color="#6986D9"/>
</linearGradient>
<linearGradient id="paint56_linear_734_2" x1="266.463" y1="101.119" x2="254.581" y2="244.314" gradientUnits="userSpaceOnUse">
<stop stop-color="#8FB3FF"/>
<stop offset="1" stop-color="#6986D9"/>
</linearGradient>
<linearGradient id="paint57_linear_734_2" x1="237.535" y1="98.7277" x2="225.654" y2="241.918" gradientUnits="userSpaceOnUse">
<stop stop-color="#8FB3FF"/>
<stop offset="1" stop-color="#6986D9"/>
</linearGradient>
<linearGradient id="paint58_linear_734_2" x1="145.063" y1="178.596" x2="255.87" y2="212.591" gradientUnits="userSpaceOnUse">
<stop offset="0.0148" stop-color="white"/>
<stop offset="0.9994" stop-color="#E1E7FF"/>
</linearGradient>
</defs>
</svg>
