<svg width="445" height="335" viewBox="0 0 445 335" fill="none" xmlns="http://www.w3.org/2000/svg">
<path d="M222.5 0.0383286C296.199 0.0383286 369.898 0.0425328 443.596 8.57057e-07C444.742 -0.000629764 445 0.346492 445 1.88535C444.969 112.295 444.969 222.705 445 333.115C445 334.654 444.742 335 443.596 335C296.199 334.96 148.801 334.96 1.40373 335C0.258055 335 -0.000364643 334.654 5.26683e-05 333.115C0.0312988 222.705 0.0312988 112.295 5.04381e-07 1.88535C-0.000416807 0.346492 0.257951 -0.000629764 1.40368 8.57057e-07C75.1025 0.0425328 148.801 0.0383286 222.5 0.0383286Z" fill="#B5E6FF"/>
<path opacity="0.15" d="M135.085 309.782L275.919 284.428C275.919 284.428 273.95 298.836 264.745 308.017C262.951 309.807 264.239 312.882 266.773 312.917C289.277 313.223 301.638 313.165 308.268 313.045C313.957 312.942 319.045 309.52 321.33 304.309C322.828 300.891 324.398 296.153 325.757 289.619C337.245 290.411 342.197 290.411 342.197 290.411L344.177 266.25L360.275 263.133C365.689 262.085 369.087 256.678 367.683 251.347L347.247 173.75L348.705 83.4893L253.793 83.9242L89.5135 92.4667L78 80.7344L108.599 165.884L135.085 309.782Z" fill="#03141E"/>
<path d="M325.187 102.718L359.889 251.718C360.587 254.714 358.724 257.708 355.727 258.406L135.092 309.779C132.096 310.477 129.101 308.614 128.403 305.618L93.7011 156.618C93.0033 153.622 94.8668 150.627 97.8632 149.93L318.498 98.5566C321.495 97.8587 324.489 99.722 325.187 102.718Z" fill="#FFB829"/>
<path d="M112.155 174.714L131.36 170.018L114.262 146.113L102.312 148.896L112.155 174.714Z" fill="#E8A123"/>
<path d="M215.627 21.0019L78 80.7383L158.48 266.11L296.108 206.373L215.627 21.0019Z" fill="#E4ECF4"/>
<path d="M111.592 111.803L118.795 128.394C119.225 129.384 120.377 129.838 121.367 129.408L137.96 122.205C138.95 121.776 139.404 120.624 138.974 119.634L131.771 103.044C131.341 102.054 130.189 101.599 129.199 102.029L112.607 109.232C111.616 109.662 111.162 110.813 111.592 111.803ZM134.882 119.506L121.496 125.317L115.684 111.932L129.07 106.121L134.882 119.506Z" fill="#04A4D8"/>
<path d="M196.115 95.9535L150.22 115.876C150.033 115.958 149.816 115.872 149.735 115.685L148.554 112.966C148.473 112.779 148.559 112.562 148.746 112.481L194.64 92.558C194.827 92.4768 195.045 92.5626 195.126 92.7495L196.306 95.4681C196.388 95.655 196.302 95.8723 196.115 95.9535Z" fill="#69B6FF"/>
<path d="M219.77 77.7269L147.306 109.183C147.119 109.265 146.902 109.179 146.821 108.992L145.64 106.273C145.559 106.086 145.645 105.869 145.832 105.788L218.296 74.3314C218.482 74.2502 218.7 74.3361 218.781 74.5229L219.962 77.2416C220.043 77.4284 219.957 77.6457 219.77 77.7269Z" fill="#7595DE"/>
<path d="M159.13 96.1037L144.404 102.496C144.217 102.577 143.999 102.492 143.918 102.305L141.999 97.8852C141.918 97.6983 142.004 97.4809 142.191 97.3998L156.917 91.0072C157.104 90.926 157.322 91.0118 157.403 91.1987L159.322 95.6183C159.403 95.8051 159.317 96.0224 159.13 96.1037Z" fill="#69B6FF"/>
<path d="M126.279 145.612L133.483 162.202C133.913 163.192 135.064 163.647 136.055 163.217L152.647 156.014C153.637 155.584 154.092 154.433 153.662 153.443L146.458 136.853C146.028 135.862 144.877 135.408 143.886 135.838L127.294 143.041C126.304 143.471 125.849 144.622 126.279 145.612ZM149.57 153.314L136.183 159.125L130.371 145.74L143.758 139.929L149.57 153.314Z" fill="#04A4D8"/>
<path d="M210.794 129.762L164.9 149.685C164.713 149.766 164.495 149.68 164.414 149.493L163.234 146.775C163.153 146.588 163.238 146.37 163.425 146.289L209.32 126.367C209.507 126.285 209.725 126.371 209.806 126.558L210.986 129.277C211.067 129.464 210.982 129.681 210.794 129.762Z" fill="#7595DE"/>
<path d="M234.45 111.536L161.986 142.992C161.799 143.073 161.581 142.987 161.5 142.8L160.32 140.082C160.238 139.895 160.324 139.678 160.511 139.596L232.975 108.14C233.162 108.059 233.38 108.145 233.461 108.332L234.641 111.05C234.722 111.237 234.637 111.454 234.45 111.536Z" fill="#7595DE"/>
<path d="M173.81 129.912L159.084 136.305C158.897 136.386 158.679 136.3 158.598 136.113L156.679 131.694C156.598 131.507 156.684 131.289 156.871 131.208L171.597 124.816C171.784 124.735 172.001 124.82 172.082 125.007L174.001 129.427C174.083 129.614 173.997 129.831 173.81 129.912Z" fill="#7595DE"/>
<path d="M182.104 66.1745L138.008 85.3161C137.325 85.613 136.53 85.2993 136.233 84.6156L133.612 78.5799C133.315 77.8962 133.629 77.1012 134.313 76.8044L178.408 57.6628C179.092 57.3659 179.887 57.6796 180.184 58.3633L182.805 64.399C183.101 65.0826 182.788 65.8775 182.104 66.1745Z" fill="#69B6FF"/>
<path d="M129.662 119.815L125.629 121.566L109.57 110.887L112.471 106.527L125.16 114.966L128.899 92.4727L134.065 93.3307L129.662 119.815Z" fill="#002CAB"/>
<path d="M144.341 153.612L140.308 155.363L124.25 144.684L127.15 140.324L139.839 148.763L143.579 126.27L148.744 127.128L144.341 153.612Z" fill="#002CAB"/>
<path d="M208.268 142.674L101.933 167.433C98.9371 168.131 97.0736 171.125 97.7714 174.121L128.397 305.617C129.095 308.613 132.09 310.477 135.086 309.779L355.721 258.406C358.718 257.708 360.581 254.714 359.883 251.718L325.181 102.718C324.483 99.7221 321.488 97.8588 318.492 98.5566L226.192 120.048C224.753 120.383 223.506 121.276 222.725 122.53L211.734 140.192C210.954 141.446 209.707 142.339 208.268 142.674Z" fill="#FFDC48"/>
<path opacity="0.6" d="M223.944 120.573L210.515 142.153L96.5078 168.698L117.95 260.765L247.029 230.71C279.177 223.225 299.17 191.099 291.683 158.955L279.719 107.586L223.944 120.573Z" fill="#FFED6C"/>
<path opacity="0.2" d="M157.386 183.121L108.609 220.698L111.922 234.919H142.159C147.355 234.919 151.968 231.584 153.581 226.646C159.704 207.9 157.386 183.121 157.386 183.121Z" fill="#121D26"/>
<path opacity="0.64" d="M349.317 206.368L337.389 155.154L327.848 140.645L187.617 276.877L241.062 285.1L346.283 260.6L349.317 206.368Z" fill="#E8A123"/>
<path d="M281.091 113.476L282.425 119.204C282.494 119.5 282.31 119.795 282.014 119.864L238.306 130.041C238.01 130.11 237.714 129.926 237.645 129.63L236.311 123.903C236.242 123.607 236.426 123.311 236.722 123.242L280.43 113.065C280.726 112.996 281.022 113.18 281.091 113.476Z" fill="white"/>
<path d="M348.694 83.4764L198.898 75.1055L187.621 276.866L337.416 285.237L348.694 83.4764Z" fill="#E4ECF4"/>
<path opacity="0.47" d="M287.018 80.0298L198.898 75.1055L187.621 276.866L275.74 281.79L287.018 80.0298Z" fill="white"/>
<path opacity="0.21" d="M312.044 267.339L303.656 283.372L322.582 284.43C324.269 272.048 320.557 260.094 320.557 260.094L312.044 267.339Z" fill="#03141E"/>
<path opacity="0.3" d="M135.883 277.088L138.692 278.814C139.295 279.184 140.083 278.985 140.438 278.374L143.809 273.337C144.01 273.037 144.411 272.947 144.72 273.133C145.029 273.318 145.429 273.23 145.63 272.931L207.411 181.375L212.255 162.66H211.538L135.883 277.088Z" fill="#121D26"/>
<path d="M214.982 117.963L213.972 136.021C213.912 137.099 214.737 138.021 215.815 138.082L233.875 139.091C234.953 139.152 235.876 138.327 235.936 137.249L236.946 119.191C237.006 118.113 236.181 117.19 235.103 117.13L217.043 116.12C215.965 116.06 215.042 116.885 214.982 117.963ZM232.337 135.298L217.766 134.483L218.58 119.914L233.152 120.729L232.337 135.298Z" fill="#04A4D8"/>
<path d="M297.624 141.732L247.669 138.939C247.465 138.927 247.309 138.753 247.321 138.55L247.486 135.591C247.498 135.387 247.672 135.231 247.875 135.243L297.831 138.036C298.034 138.047 298.19 138.221 298.179 138.425L298.013 141.384C298.002 141.588 297.828 141.743 297.624 141.732Z" fill="#69B6FF"/>
<path d="M326.951 136.063L248.075 131.654C247.871 131.642 247.716 131.468 247.727 131.264L247.893 128.305C247.904 128.102 248.078 127.946 248.282 127.958L327.157 132.367C327.361 132.379 327.516 132.553 327.505 132.756L327.34 135.716C327.328 135.919 327.154 136.075 326.951 136.063Z" fill="#69B6FF"/>
<path d="M264.511 125.268L248.481 124.372C248.278 124.361 248.122 124.187 248.133 123.983L248.402 119.173C248.414 118.969 248.588 118.813 248.792 118.825L264.821 119.721C265.024 119.732 265.18 119.906 265.169 120.11L264.9 124.921C264.888 125.124 264.714 125.28 264.511 125.268Z" fill="#69B6FF"/>
<path d="M212.911 154.768L211.902 172.826C211.841 173.903 212.666 174.826 213.744 174.886L231.805 175.896C232.883 175.956 233.805 175.131 233.866 174.053L234.875 155.995C234.936 154.918 234.111 153.995 233.033 153.935L214.972 152.925C213.894 152.865 212.972 153.69 212.911 154.768ZM230.267 172.102L215.695 171.288L216.51 156.719L231.081 157.533L230.267 172.102Z" fill="#04A4D8"/>
<path d="M295.546 178.536L245.591 175.743C245.387 175.732 245.231 175.558 245.243 175.354L245.408 172.395C245.42 172.192 245.594 172.036 245.797 172.047L295.753 174.84C295.956 174.852 296.112 175.026 296.101 175.229L295.935 178.188C295.924 178.392 295.75 178.548 295.546 178.536Z" fill="#69B6FF"/>
<path d="M324.463 172.843L246.393 168.478C245.967 168.455 245.641 168.09 245.665 167.664L245.786 165.51C245.81 165.085 246.174 164.759 246.6 164.782L324.67 169.147C325.096 169.171 325.422 169.536 325.398 169.962L325.278 172.115C325.254 172.541 324.889 172.867 324.463 172.843Z" fill="#69B6FF"/>
<path d="M262.432 162.073L246.403 161.177C246.2 161.165 246.044 160.991 246.055 160.788L246.324 155.977C246.336 155.774 246.51 155.618 246.713 155.629L262.743 156.526C262.946 156.537 263.102 156.711 263.091 156.915L262.821 161.725C262.81 161.929 262.636 162.084 262.432 162.073Z" fill="#69B6FF"/>
<path d="M210.864 191.564L209.855 209.622C209.794 210.7 210.619 211.623 211.697 211.683L229.758 212.693C230.836 212.753 231.759 211.928 231.819 210.85L232.829 192.792C232.889 191.714 232.064 190.792 230.986 190.732L212.925 189.722C211.848 189.662 210.925 190.487 210.864 191.564ZM228.22 208.899L213.649 208.085L214.463 193.515L229.035 194.33L228.22 208.899Z" fill="#04A4D8"/>
<path d="M293.098 215.308L243.948 212.56C243.522 212.537 243.196 212.172 243.22 211.746L243.34 209.593C243.364 209.167 243.729 208.841 244.155 208.865L293.305 211.612C293.731 211.636 294.057 212.001 294.033 212.427L293.912 214.58C293.888 215.006 293.524 215.332 293.098 215.308Z" fill="#69B6FF"/>
<path d="M322.826 209.661L243.95 205.251C243.746 205.24 243.591 205.066 243.602 204.862L243.768 201.903C243.779 201.7 243.953 201.544 244.157 201.555L323.032 205.965C323.236 205.977 323.391 206.151 323.38 206.354L323.215 209.313C323.203 209.517 323.029 209.672 322.826 209.661Z" fill="#69B6FF"/>
<path d="M260.393 198.866L244.364 197.97C244.16 197.959 244.005 197.785 244.016 197.581L244.285 192.77C244.297 192.567 244.471 192.411 244.674 192.422L260.704 193.319C260.907 193.33 261.063 193.504 261.051 193.708L260.782 198.518C260.771 198.722 260.597 198.878 260.393 198.866Z" fill="#69B6FF"/>
<path d="M208.81 228.369L207.8 246.427C207.74 247.505 208.565 248.428 209.643 248.488L227.703 249.498C228.781 249.558 229.704 248.733 229.764 247.655L230.774 229.597C230.834 228.519 230.009 227.596 228.931 227.536L210.871 226.527C209.793 226.466 208.87 227.291 208.81 228.369ZM226.165 245.704L211.594 244.889L212.409 230.32L226.98 231.135L226.165 245.704Z" fill="#04A4D8"/>
<path d="M291.035 252.113L241.886 249.365C241.46 249.341 241.134 248.977 241.157 248.551L241.278 246.397C241.302 245.971 241.666 245.645 242.092 245.669L291.242 248.417C291.668 248.441 291.994 248.806 291.97 249.232L291.85 251.385C291.826 251.811 291.461 252.137 291.035 252.113Z" fill="#69B6FF"/>
<path d="M320.362 246.441L242.292 242.076C241.866 242.052 241.54 241.688 241.564 241.262L241.684 239.108C241.708 238.682 242.073 238.356 242.499 238.38L320.569 242.745C320.995 242.769 321.321 243.133 321.297 243.559L321.176 245.713C321.152 246.139 320.788 246.465 320.362 246.441Z" fill="#69B6FF"/>
<path d="M258.331 235.671L242.302 234.775C242.098 234.763 241.942 234.589 241.954 234.386L242.223 229.575C242.234 229.371 242.408 229.216 242.612 229.227L258.641 230.123C258.845 230.135 259 230.309 258.989 230.512L258.72 235.323C258.708 235.526 258.534 235.682 258.331 235.671Z" fill="#69B6FF"/>
<path d="M298.467 108.822L250.47 106.138C249.726 106.097 249.156 105.459 249.197 104.715L249.565 98.1454C249.606 97.4012 250.244 96.8317 250.988 96.8732L298.985 99.5567C299.729 99.5984 300.299 100.235 300.257 100.98L299.89 107.549C299.848 108.294 299.211 108.863 298.467 108.822Z" fill="#69B6FF"/>
<path d="M227.524 133.221L223.134 132.976L213.578 116.226L218.127 113.632L225.678 126.867L239.116 108.445L243.347 111.53L227.524 133.221Z" fill="#002CAB"/>
<path d="M225.477 170.022L221.088 169.777L211.531 153.027L216.08 150.433L223.631 163.668L237.069 145.246L241.3 148.331L225.477 170.022Z" fill="#002CAB"/>
<path d="M223.407 206.815L219.017 206.57L209.461 189.82L214.01 187.226L221.561 200.461L234.999 182.039L239.23 185.124L223.407 206.815Z" fill="#002CAB"/>
<path d="M221.352 243.62L216.963 243.374L207.406 226.625L211.955 224.031L219.506 237.266L232.944 218.844L237.175 221.929L221.352 243.62Z" fill="#002CAB"/>
<path d="M192.397 191.618L191.664 204.717L207.415 181.375L212.26 162.66H211.542L192.397 191.618Z" fill="#D6D6D6"/>
<path d="M212.217 162.485C212.098 162.663 211.858 162.711 211.68 162.592C211.502 162.473 211.454 162.233 211.573 162.055C211.692 161.877 211.933 161.829 212.11 161.948C212.288 162.067 212.336 162.308 212.217 162.485Z" fill="#1E1E1E"/>
<path d="M212.236 162.495L211.56 162.043C211.373 162.061 211.195 162.156 211.082 162.325L210.266 163.545L211.342 164.265L212.158 163.044C212.271 162.876 212.291 162.675 212.236 162.495Z" fill="#FFE05C"/>
<path d="M136.989 277.825L133.684 275.615C133.413 275.433 133.34 275.067 133.522 274.796L142.352 261.594C142.533 261.323 142.9 261.25 143.171 261.432L146.476 263.642C146.747 263.823 146.82 264.19 146.639 264.461L137.808 277.663C137.627 277.934 137.26 278.006 136.989 277.825Z" fill="#BABABA"/>
<path d="M204.808 179.931L198.258 175.551L137.38 266.565L143.93 270.946L204.808 179.931Z" fill="#3EBAFF"/>
<path d="M202.683 183.117L196.703 177.883L198.258 175.559L204.809 179.939L202.683 183.117Z" fill="#3EBAFF"/>
<path d="M204.812 179.928L202.203 178.184L141.325 269.198L143.934 270.943L204.812 179.928Z" fill="#00A2FB"/>
<path d="M211.407 163.841L210.631 163.322C210.509 163.24 210.346 163.255 210.241 163.357L197.906 175.317L205.179 180.181L211.524 164.216C211.578 164.079 211.529 163.923 211.407 163.841Z" fill="#BABABA"/>
<path d="M204.485 180.651L197.742 176.141C197.387 175.904 197.292 175.424 197.529 175.07C197.766 174.715 198.246 174.62 198.6 174.857L205.344 179.367C205.699 179.604 205.794 180.083 205.557 180.438C205.32 180.792 204.84 180.888 204.485 180.651Z" fill="#D6D6D6"/>
<path d="M143.595 271.666L136.851 267.156C136.496 266.919 136.401 266.44 136.638 266.085C136.875 265.731 137.355 265.635 137.71 265.873L144.453 270.382C144.808 270.619 144.903 271.099 144.666 271.454C144.429 271.808 143.949 271.903 143.595 271.666Z" fill="#D6D6D6"/>
<path d="M142.406 270.224L138.648 267.711L155.931 241.874C156.1 241.621 156.443 241.553 156.696 241.722L159.536 243.622C159.79 243.791 159.858 244.133 159.688 244.386L142.406 270.224Z" fill="#D6D6D6"/>
<path d="M141.186 269.411L139.211 268.091L156.157 242.756C156.242 242.629 156.414 242.595 156.541 242.68L158.056 243.692C158.183 243.777 158.217 243.949 158.132 244.077L141.186 269.411Z" fill="#E8E8E8"/>
<path d="M142.79 271.13L137.624 267.675C137.463 267.567 137.42 267.35 137.528 267.189L137.998 266.487C138.105 266.327 138.322 266.284 138.483 266.391L143.649 269.846C143.81 269.953 143.853 270.17 143.745 270.331L143.276 271.033C143.168 271.194 142.951 271.237 142.79 271.13Z" fill="#E8E8E8"/>
<path d="M203.673 180.11L198.507 176.655C198.346 176.548 198.303 176.331 198.411 176.17L198.88 175.468C198.988 175.307 199.205 175.264 199.366 175.372L204.532 178.826C204.692 178.934 204.735 179.151 204.628 179.312L204.158 180.014C204.051 180.174 203.834 180.217 203.673 180.11Z" fill="#E8E8E8"/>
<path d="M136.543 275.454L134.148 273.852L137.595 268.699L139.99 270.301C140.219 270.454 140.281 270.764 140.127 270.993L137.236 275.316C137.082 275.546 136.772 275.607 136.543 275.454Z" fill="#D6D6D6"/>
<path d="M187.62 196.021C187.466 196.021 187.31 195.977 187.172 195.884C186.8 195.636 186.701 195.134 186.949 194.763L194.637 183.269C194.886 182.898 195.388 182.798 195.759 183.047C196.13 183.295 196.229 183.797 195.981 184.168L188.293 195.662C188.137 195.895 187.881 196.021 187.62 196.021Z" fill="white"/>
<path d="M182.605 203.538C182.45 203.538 182.294 203.494 182.156 203.402C181.785 203.153 181.685 202.652 181.933 202.28L183.394 200.097C183.642 199.726 184.144 199.627 184.515 199.875C184.886 200.123 184.986 200.625 184.738 200.996L183.277 203.179C183.121 203.412 182.865 203.538 182.605 203.538Z" fill="white"/>
<path d="M157.411 182.004C157.356 189.209 156.468 209.99 148.525 225.372C147.672 227.024 145.961 228.056 144.102 228.056H100.803C99.7368 228.056 99.0391 226.92 99.5411 225.979C107.793 210.516 108.693 189.236 108.746 181.969C108.756 180.556 109.904 179.418 111.317 179.418H154.839C156.266 179.418 157.422 180.578 157.411 182.004Z" fill="#5CC9FF"/>
<path d="M111.317 179.418H154.84C156.267 179.418 157.422 180.578 157.411 182.005C157.401 183.322 157.363 185.094 157.259 187.204C157.203 188.35 156.254 189.25 155.106 189.25H110.757C109.527 189.25 108.546 188.221 108.604 186.993C108.701 184.957 108.737 183.246 108.746 181.968C108.756 180.555 109.904 179.418 111.317 179.418Z" fill="#83DCFF"/>
<path d="M148.886 196.77C148.795 197.527 148.695 198.299 148.586 199.082C148.498 199.71 147.957 200.177 147.322 200.177H115.338C114.567 200.177 113.97 199.496 114.075 198.732C114.179 197.966 114.275 197.211 114.363 196.47C114.439 195.826 114.982 195.34 115.63 195.34H147.619C148.386 195.34 148.978 196.009 148.886 196.77ZM124.954 214.675C124.724 215.427 124.483 216.176 124.229 216.921C123.948 217.748 124.562 218.605 125.435 218.605H143.012C143.551 218.605 144.036 218.268 144.216 217.759C144.488 216.988 144.748 216.211 144.995 215.432C145.257 214.608 144.642 213.767 143.778 213.767H126.174C125.611 213.767 125.119 214.137 124.954 214.675ZM113.705 209.391H145.65C146.243 209.391 146.762 208.982 146.894 208.403C147.07 207.628 147.236 206.855 147.393 206.086C147.554 205.294 146.95 204.554 146.142 204.554H114.185C113.574 204.554 113.053 204.987 112.934 205.586C112.785 206.334 112.628 207.087 112.46 207.842C112.284 208.637 112.891 209.391 113.705 209.391Z" fill="#00A1E0"/>
<path d="M320.551 260.09C320.496 267.295 319.609 288.076 311.665 303.458C310.812 305.11 309.102 306.142 307.243 306.142H263.944C262.877 306.142 262.18 305.006 262.682 304.065C270.933 288.602 271.833 267.322 271.887 260.055C271.897 258.642 273.044 257.504 274.458 257.504H317.98C319.407 257.504 320.562 258.663 320.551 260.09Z" fill="#5CC9FF"/>
<path d="M274.458 257.504H317.98C319.407 257.504 320.563 258.664 320.552 260.091C320.541 261.408 320.503 263.18 320.4 265.29C320.343 266.436 319.394 267.336 318.247 267.336H273.898C272.668 267.336 271.686 266.307 271.745 265.079C271.842 263.042 271.877 261.332 271.887 260.054C271.897 258.641 273.045 257.504 274.458 257.504Z" fill="#83DCFF"/>
<path d="M312.027 274.856C311.936 275.613 311.836 276.384 311.727 277.167C311.639 277.796 311.098 278.263 310.463 278.263H278.479C277.707 278.263 277.111 277.582 277.215 276.817C277.32 276.051 277.416 275.297 277.504 274.556C277.58 273.912 278.123 273.426 278.771 273.426H310.76C311.526 273.426 312.119 274.095 312.027 274.856ZM288.095 292.761C287.865 293.513 287.623 294.262 287.37 295.007C287.089 295.834 287.703 296.69 288.576 296.69H306.153C306.692 296.69 307.177 296.353 307.356 295.845C307.629 295.074 307.889 294.297 308.136 293.517C308.397 292.694 307.783 291.853 306.919 291.853H289.314C288.752 291.853 288.259 292.223 288.095 292.761ZM276.846 287.477H308.79C309.384 287.477 309.903 287.068 310.034 286.489C310.211 285.714 310.377 284.941 310.533 284.172C310.694 283.38 310.09 282.64 309.282 282.64H277.326C276.715 282.64 276.193 283.073 276.075 283.672C275.926 284.42 275.768 285.173 275.601 285.928C275.425 286.723 276.031 287.477 276.846 287.477Z" fill="#00A1E0"/>
</svg>
