<svg width="98" height="437" viewBox="0 0 98 437" fill="none" xmlns="http://www.w3.org/2000/svg">
<mask id="mask0_585_4041" style="mask-type:luminance" maskUnits="userSpaceOnUse" x="0" y="62" width="98" height="56">
<path d="M0 62.9983H97.3878V117.088H0V62.9983Z" fill="white"/>
</mask>
<g mask="url(#mask0_585_4041)">
<mask id="mask1_585_4041" style="mask-type:luminance" maskUnits="userSpaceOnUse" x="0" y="62" width="98" height="56">
<path d="M48.6493 62.9983L97.2987 90.0462L48.6493 117.088L0 90.0462L48.6493 62.9983Z" fill="white"/>
</mask>
<g mask="url(#mask1_585_4041)">
<path d="M0 62.9983H97.1967V117.088H0V62.9983Z" fill="#D6BA90"/>
</g>
</g>
<mask id="mask2_585_4041" style="mask-type:luminance" maskUnits="userSpaceOnUse" x="0" y="144" width="98" height="55">
<path d="M0 144.518H97.3878V198.607H0V144.518Z" fill="white"/>
</mask>
<g mask="url(#mask2_585_4041)">
<mask id="mask3_585_4041" style="mask-type:luminance" maskUnits="userSpaceOnUse" x="0" y="144" width="98" height="55">
<path d="M48.6493 144.518L97.2987 171.566L48.6493 198.607L0 171.566L48.6493 144.518Z" fill="white"/>
</mask>
<g mask="url(#mask3_585_4041)">
<path d="M0 144.518H97.1967V198.607H0V144.518Z" fill="#A9CFC6"/>
</g>
</g>
<mask id="mask4_585_4041" style="mask-type:luminance" maskUnits="userSpaceOnUse" x="0" y="225" width="98" height="55">
<path d="M0 225.795H97.3878V279.885H0V225.795Z" fill="white"/>
</mask>
<g mask="url(#mask4_585_4041)">
<mask id="mask5_585_4041" style="mask-type:luminance" maskUnits="userSpaceOnUse" x="0" y="225" width="98" height="55">
<path d="M48.6493 225.795L97.2987 252.837L48.6493 279.885L0 252.837L48.6493 225.795Z" fill="white"/>
</mask>
<g mask="url(#mask5_585_4041)">
<path d="M0 225.795H97.1967V279.885H0V225.795Z" fill="#9A9ABD"/>
</g>
</g>
<mask id="mask6_585_4041" style="mask-type:luminance" maskUnits="userSpaceOnUse" x="0" y="307" width="98" height="55">
<path d="M0 307.067H97.3878V361.163H0V307.067Z" fill="white"/>
</mask>
<g mask="url(#mask6_585_4041)">
<mask id="mask7_585_4041" style="mask-type:luminance" maskUnits="userSpaceOnUse" x="0" y="307" width="98" height="55">
<path d="M48.6493 307.067L97.2987 334.115L48.6493 361.163L0 334.115L48.6493 307.067Z" fill="white"/>
</mask>
<g mask="url(#mask7_585_4041)">
<path d="M0 307.067H97.1967V361.163H0V307.067Z" fill="#C2A89D"/>
</g>
</g>
<mask id="mask8_585_4041" style="mask-type:luminance" maskUnits="userSpaceOnUse" x="14" y="-1" width="69" height="438">
<path d="M14.9062 -0.0476074H82.3923V437H14.9062V-0.0476074Z" fill="white"/>
</mask>
<g mask="url(#mask8_585_4041)">
<path d="M14.9062 -3.57678H82.3923V454.83H14.9062V-3.57678Z" fill="#F8F1E1"/>
</g>
<mask id="mask9_585_4041" style="mask-type:luminance" maskUnits="userSpaceOnUse" x="48" y="90" width="50" height="91">
<path d="M48.6445 90.0464H97.2939V180.121H48.6445V90.0464Z" fill="white"/>
</mask>
<g mask="url(#mask9_585_4041)">
<mask id="mask10_585_4041" style="mask-type:luminance" maskUnits="userSpaceOnUse" x="48" y="90" width="50" height="91">
<path d="M97.286 160.061V90.0459L48.6367 110.169V180.184L97.286 160.061Z" fill="white"/>
</mask>
<g mask="url(#mask10_585_4041)">
<path d="M97.286 90.0459H48.6367V180.121H97.286V90.0459Z" fill="url(#paint0_linear_585_4041)"/>
</g>
</g>
<mask id="mask11_585_4041" style="mask-type:luminance" maskUnits="userSpaceOnUse" x="0" y="90" width="49" height="91">
<path d="M0 90.0972H48.6493V180.172H0V90.0972Z" fill="white"/>
</mask>
<g mask="url(#mask11_585_4041)">
<mask id="mask12_585_4041" style="mask-type:luminance" maskUnits="userSpaceOnUse" x="0" y="90" width="49" height="91">
<path d="M0 160.048V90.0398L48.6493 110.157V180.172L0 160.048Z" fill="white"/>
</mask>
<g mask="url(#mask12_585_4041)">
<path d="M0 180.172H48.6493V90.0972H0V180.172Z" fill="url(#paint1_linear_585_4041)"/>
</g>
</g>
<mask id="mask13_585_4041" style="mask-type:luminance" maskUnits="userSpaceOnUse" x="27" y="120" width="43" height="44">
<path d="M27.3594 120.648H69.9379V163.221H27.3594V120.648Z" fill="white"/>
</mask>
<g mask="url(#mask13_585_4041)">
<mask id="mask14_585_4041" style="mask-type:luminance" maskUnits="userSpaceOnUse" x="27" y="120" width="43" height="44">
<path d="M48.6447 120.648C36.8853 120.648 27.3555 130.178 27.3555 141.931C27.3555 153.69 36.8853 163.22 48.6447 163.22C60.3978 163.22 69.934 153.69 69.934 141.931C69.934 130.178 60.3978 120.648 48.6447 120.648Z" fill="white"/>
</mask>
<g mask="url(#mask14_585_4041)">
<path d="M27.3555 120.648H69.934V163.22H27.3555V120.648Z" fill="#404040"/>
</g>
</g>
<mask id="mask15_585_4041" style="mask-type:luminance" maskUnits="userSpaceOnUse" x="37" y="130" width="24" height="23">
<path d="M37.0391 130.726H60.2394V152.697H37.0391V130.726Z" fill="white"/>
</mask>
<g mask="url(#mask15_585_4041)">
<path d="M59.8189 137.562H57.3728L59.4813 133.536L60.1502 132.262C60.2458 132.077 60.1757 131.854 59.9909 131.759L58.2009 130.822C58.0162 130.727 57.7932 130.797 57.6977 130.981L54.2514 137.562H42.7086V131.147C42.7086 130.943 42.5429 130.778 42.3391 130.778H39.8738C39.103 130.778 38.4087 131.09 37.8927 131.593L37.8736 131.612C37.3576 132.122 37.0391 132.835 37.0391 133.612V150.302C37.0391 151.079 37.3576 151.793 37.8736 152.303C38.3895 152.819 39.0966 153.137 39.8738 153.137H59.8189C60.0292 153.137 60.1948 152.971 60.1948 152.768V137.938C60.1948 137.734 60.0292 137.562 59.8189 137.562ZM54.1303 141.728L53.2958 142.378L53.3532 141.32L54.1049 141.715L54.1303 141.728ZM54.6527 141.167L53.659 140.645L53.5124 140.569L54.7865 138.135C54.7992 138.116 54.812 138.097 54.8183 138.078L57.5193 132.924L58.6532 133.517L56.4427 137.74C56.4364 137.759 56.4236 137.772 56.4173 137.798L54.6527 141.167ZM58.1818 131.65L59.3221 132.243L58.9972 132.861L57.8633 132.268L58.1818 131.65ZM37.7844 133.612C37.7844 133.039 38.0201 132.517 38.3959 132.134L38.415 132.115C38.7909 131.752 39.3069 131.523 39.8738 131.523H41.9632V145.607H39.8738C39.0966 145.607 38.3895 145.926 37.8736 146.442L37.7844 146.531V133.612ZM59.4495 152.392H39.8738C39.3005 152.392 38.7781 152.156 38.3959 151.78C38.0201 151.398 37.7844 150.876 37.7844 150.302V148.442C37.7844 147.869 38.0201 147.347 38.3959 146.964C38.7781 146.588 39.3005 146.353 39.8738 146.353H42.3391C42.5429 146.353 42.7086 146.187 42.7086 145.977V138.307H53.8628L52.6843 140.556C52.6843 140.556 52.6843 140.562 52.6779 140.569C52.6779 140.575 52.6716 140.581 52.6716 140.588C52.6652 140.594 52.6652 140.6 52.6652 140.613C52.6588 140.613 52.6588 140.62 52.6588 140.626C52.6525 140.632 52.6525 140.645 52.6525 140.651C52.6525 140.658 52.6525 140.658 52.6525 140.658C52.6461 140.677 52.6461 140.69 52.6461 140.702L52.5059 143.149C52.4996 143.359 52.6525 143.531 52.8563 143.543C52.9582 143.55 53.0474 143.512 53.1175 143.454L55.0349 141.957C55.0413 141.957 55.0413 141.951 55.0413 141.951C55.0477 141.951 55.0477 141.945 55.054 141.945C55.0604 141.938 55.0668 141.932 55.0731 141.925C55.0731 141.925 55.0731 141.919 55.0795 141.919C55.0859 141.913 55.0922 141.906 55.0986 141.9V141.894C55.105 141.887 55.1114 141.881 55.1177 141.868C55.1241 141.855 55.1305 141.849 55.1368 141.836L56.9842 138.307H59.4495V152.392ZM53.1748 144.582C52.9646 144.582 52.799 144.747 52.799 144.958V146.493C52.283 146.576 51.8243 146.818 51.474 147.168C51.0408 147.608 50.7669 148.206 50.7669 148.869C50.7669 149.519 51.0281 150.111 51.4549 150.544L51.474 150.57C51.9071 151.003 52.5123 151.271 53.1748 151.271C53.8246 151.271 54.417 151.009 54.8502 150.589L54.8757 150.57C55.226 150.213 55.4681 149.754 55.5509 149.238H57.0861C57.29 149.238 57.4556 149.073 57.4556 148.869V144.958C57.4556 144.747 57.29 144.582 57.0861 144.582H53.1748ZM53.5443 147.251C53.8501 147.321 54.1303 147.48 54.3469 147.697C54.5635 147.907 54.7164 148.187 54.7865 148.493H53.5443V147.251ZM54.3469 150.041L54.3278 150.06C54.0284 150.347 53.6207 150.525 53.1748 150.525C52.7162 150.525 52.2957 150.341 51.9963 150.041L51.9836 150.022C51.6906 149.729 51.5122 149.315 51.5122 148.869C51.5122 148.41 51.6969 147.996 51.9963 147.697C52.2129 147.48 52.4932 147.321 52.799 147.251V148.869C52.799 149.073 52.9646 149.238 53.1684 149.238H54.7865C54.7164 149.551 54.5635 149.825 54.3469 150.041ZM56.7103 148.493H55.5445C55.4681 147.984 55.226 147.519 54.8693 147.168C54.5189 146.818 54.0539 146.576 53.5443 146.493V145.327H56.7103V148.493ZM43.5813 140.792C43.5813 140.588 43.7469 140.416 43.9507 140.416H48.6583C48.8622 140.416 49.0278 140.588 49.0278 140.792C49.0278 140.995 48.8622 141.161 48.6583 141.161H43.9507C43.7469 141.161 43.5813 140.995 43.5813 140.792ZM43.5813 144.251C43.5813 144.047 43.7469 143.875 43.9507 143.875H50.493C50.6968 143.875 50.8624 144.047 50.8624 144.251C50.8624 144.454 50.6968 144.62 50.493 144.62H43.9507C43.7469 144.62 43.5813 144.454 43.5813 144.251ZM43.5813 142.518C43.5813 142.314 43.7469 142.148 43.9507 142.148H48.6583C48.8622 142.148 49.0278 142.314 49.0278 142.518C49.0278 142.728 48.8622 142.894 48.6583 142.894H43.9507C43.7469 142.894 43.5813 142.728 43.5813 142.518ZM50.8624 145.977C50.8624 146.187 50.6968 146.353 50.493 146.353H43.9507C43.7469 146.353 43.5813 146.187 43.5813 145.977C43.5813 145.773 43.7469 145.607 43.9507 145.607H50.493C50.6968 145.607 50.8624 145.773 50.8624 145.977ZM41.6065 148.168H39.74C39.5298 148.168 39.3642 148.334 39.3642 148.538V150.455C39.3642 150.659 39.5298 150.825 39.74 150.825H41.6065C41.8104 150.825 41.976 150.659 41.976 150.455V148.538C41.976 148.334 41.8104 148.168 41.6065 148.168ZM41.2307 150.079H40.1095V148.914H41.2307V150.079ZM45.3331 148.168H43.4666C43.2628 148.168 43.0971 148.334 43.0971 148.538V150.455C43.0971 150.659 43.2628 150.825 43.4666 150.825H45.3331C45.5433 150.825 45.7089 150.659 45.7089 150.455V148.538C45.7089 148.334 45.5433 148.168 45.3331 148.168ZM44.9636 150.079H43.8425V148.914H44.9636V150.079ZM49.066 148.168H47.1996C46.9957 148.168 46.8301 148.334 46.8301 148.538V150.455C46.8301 150.659 46.9957 150.825 47.1996 150.825H49.066C49.2699 150.825 49.4419 150.659 49.4419 150.455V148.538C49.4419 148.334 49.2699 148.168 49.066 148.168ZM48.6966 150.079H47.5754V148.914H48.6966V150.079Z" fill="white"/>
</g>
<mask id="mask16_585_4041" style="mask-type:luminance" maskUnits="userSpaceOnUse" x="25" y="196" width="48" height="48">
<path d="M25.0977 196.632H72.199V243.734H25.0977V196.632Z" fill="white"/>
</mask>
<g mask="url(#mask16_585_4041)">
<mask id="mask17_585_4041" style="mask-type:luminance" maskUnits="userSpaceOnUse" x="25" y="196" width="48" height="48">
<path d="M48.6366 196.632C35.6286 196.632 25.0859 207.175 25.0859 220.183C25.0859 233.184 35.6286 243.733 48.6366 243.733C61.6446 243.733 72.1873 233.184 72.1873 220.183C72.1873 207.175 61.6446 196.632 48.6366 196.632Z" fill="white"/>
</mask>
<g mask="url(#mask17_585_4041)">
<path d="M25.0859 196.632H72.1873V243.733H25.0859V196.632Z" fill="white"/>
</g>
</g>
<mask id="mask18_585_4041" style="mask-type:luminance" maskUnits="userSpaceOnUse" x="48" y="171" width="50" height="91">
<path d="M48.6445 171.566H97.2939V261.641H48.6445V171.566Z" fill="white"/>
</mask>
<g mask="url(#mask18_585_4041)">
<mask id="mask19_585_4041" style="mask-type:luminance" maskUnits="userSpaceOnUse" x="48" y="171" width="50" height="91">
<path d="M97.286 241.581V171.566L48.6367 191.69V261.705L97.286 241.581Z" fill="white"/>
</mask>
<g mask="url(#mask19_585_4041)">
<path d="M97.286 171.566H48.6367V261.641H97.286V171.566Z" fill="url(#paint2_linear_585_4041)"/>
</g>
</g>
<mask id="mask20_585_4041" style="mask-type:luminance" maskUnits="userSpaceOnUse" x="0" y="171" width="49" height="91">
<path d="M0 171.617H48.6493V261.692H0V171.617Z" fill="white"/>
</mask>
<g mask="url(#mask20_585_4041)">
<mask id="mask21_585_4041" style="mask-type:luminance" maskUnits="userSpaceOnUse" x="0" y="171" width="49" height="91">
<path d="M0 241.568V171.553L48.6493 191.677V261.692L0 241.568Z" fill="white"/>
</mask>
<g mask="url(#mask21_585_4041)">
<path d="M0 261.692H48.6493V171.617H0V261.692Z" fill="url(#paint3_linear_585_4041)"/>
</g>
</g>
<mask id="mask22_585_4041" style="mask-type:luminance" maskUnits="userSpaceOnUse" x="27" y="202" width="43" height="43">
<path d="M27.3594 202.168H69.9379V244.741H27.3594V202.168Z" fill="white"/>
</mask>
<g mask="url(#mask22_585_4041)">
<mask id="mask23_585_4041" style="mask-type:luminance" maskUnits="userSpaceOnUse" x="27" y="202" width="43" height="43">
<path d="M48.6447 202.168C36.8853 202.168 27.3555 211.698 27.3555 223.451C27.3555 235.211 36.8853 244.741 48.6447 244.741C60.3978 244.741 69.934 235.211 69.934 223.451C69.934 211.698 60.3978 202.168 48.6447 202.168Z" fill="white"/>
</mask>
<g mask="url(#mask23_585_4041)">
<path d="M27.3555 202.168H69.934V244.741H27.3555V202.168Z" fill="#404040"/>
</g>
</g>
<mask id="mask24_585_4041" style="mask-type:luminance" maskUnits="userSpaceOnUse" x="25" y="277" width="48" height="49">
<path d="M25.0977 277.904H72.199V325.005H25.0977V277.904Z" fill="white"/>
</mask>
<g mask="url(#mask24_585_4041)">
<mask id="mask25_585_4041" style="mask-type:luminance" maskUnits="userSpaceOnUse" x="25" y="277" width="48" height="49">
<path d="M48.6366 277.904C35.6286 277.904 25.0859 288.453 25.0859 301.454C25.0859 314.462 35.6286 325.005 48.6366 325.005C61.6446 325.005 72.1873 314.462 72.1873 301.454C72.1873 288.453 61.6446 277.904 48.6366 277.904Z" fill="white"/>
</mask>
<g mask="url(#mask25_585_4041)">
<path d="M25.0859 277.904H72.1873V325.005H25.0859V277.904Z" fill="white"/>
</g>
</g>
<mask id="mask26_585_4041" style="mask-type:luminance" maskUnits="userSpaceOnUse" x="48" y="252" width="50" height="91">
<path d="M48.6445 252.837H97.2939V342.912H48.6445V252.837Z" fill="white"/>
</mask>
<g mask="url(#mask26_585_4041)">
<mask id="mask27_585_4041" style="mask-type:luminance" maskUnits="userSpaceOnUse" x="48" y="252" width="50" height="91">
<path d="M97.286 322.852V252.837L48.6367 272.961V342.976L97.286 322.852Z" fill="white"/>
</mask>
<g mask="url(#mask27_585_4041)">
<path d="M97.286 252.837H48.6367V342.912H97.286V252.837Z" fill="url(#paint4_linear_585_4041)"/>
</g>
</g>
<mask id="mask28_585_4041" style="mask-type:luminance" maskUnits="userSpaceOnUse" x="0" y="252" width="49" height="91">
<path d="M0 252.894H48.6493V342.969H0V252.894Z" fill="white"/>
</mask>
<g mask="url(#mask28_585_4041)">
<mask id="mask29_585_4041" style="mask-type:luminance" maskUnits="userSpaceOnUse" x="0" y="252" width="49" height="91">
<path d="M0 322.846V252.831L48.6493 272.954V342.969L0 322.846Z" fill="white"/>
</mask>
<g mask="url(#mask29_585_4041)">
<path d="M0 342.969H48.6493V252.894H0V342.969Z" fill="url(#paint5_linear_585_4041)"/>
</g>
</g>
<mask id="mask30_585_4041" style="mask-type:luminance" maskUnits="userSpaceOnUse" x="27" y="283" width="43" height="44">
<path d="M27.3594 283.439H69.9379V326.018H27.3594V283.439Z" fill="white"/>
</mask>
<g mask="url(#mask30_585_4041)">
<mask id="mask31_585_4041" style="mask-type:luminance" maskUnits="userSpaceOnUse" x="27" y="283" width="43" height="44">
<path d="M48.6447 283.439C36.8853 283.439 27.3555 292.975 27.3555 304.728C27.3555 316.488 36.8853 326.018 48.6447 326.018C60.3978 326.018 69.934 316.488 69.934 304.728C69.934 292.975 60.3978 283.439 48.6447 283.439Z" fill="white"/>
</mask>
<g mask="url(#mask31_585_4041)">
<path d="M27.3555 283.439H69.934V326.018H27.3555V283.439Z" fill="#404040"/>
</g>
</g>
<mask id="mask32_585_4041" style="mask-type:luminance" maskUnits="userSpaceOnUse" x="25" y="363" width="48" height="48">
<path d="M25.0977 363.169H72.199V410.271H25.0977V363.169Z" fill="white"/>
</mask>
<g mask="url(#mask32_585_4041)">
<mask id="mask33_585_4041" style="mask-type:luminance" maskUnits="userSpaceOnUse" x="25" y="363" width="48" height="48">
<path d="M48.6366 363.169C35.6286 363.169 25.0859 373.712 25.0859 386.72C25.0859 399.721 35.6286 410.271 48.6366 410.271C61.6446 410.271 72.1873 399.721 72.1873 386.72C72.1873 373.712 61.6446 363.169 48.6366 363.169Z" fill="white"/>
</mask>
<g mask="url(#mask33_585_4041)">
<path d="M25.0859 363.169H72.1873V410.271H25.0859V363.169Z" fill="white"/>
</g>
</g>
<mask id="mask34_585_4041" style="mask-type:luminance" maskUnits="userSpaceOnUse" x="48" y="334" width="50" height="91">
<path d="M48.6445 334.114H97.2939V424.189H48.6445V334.114Z" fill="white"/>
</mask>
<g mask="url(#mask34_585_4041)">
<mask id="mask35_585_4041" style="mask-type:luminance" maskUnits="userSpaceOnUse" x="48" y="334" width="50" height="91">
<path d="M97.286 404.129V334.114L48.6367 354.237V424.252L97.286 404.129Z" fill="white"/>
</mask>
<g mask="url(#mask35_585_4041)">
<path d="M97.286 334.114H48.6367V424.189H97.286V334.114Z" fill="url(#paint6_linear_585_4041)"/>
</g>
</g>
<mask id="mask36_585_4041" style="mask-type:luminance" maskUnits="userSpaceOnUse" x="0" y="334" width="49" height="91">
<path d="M0 334.172H48.6493V424.247H0V334.172Z" fill="white"/>
</mask>
<g mask="url(#mask36_585_4041)">
<mask id="mask37_585_4041" style="mask-type:luminance" maskUnits="userSpaceOnUse" x="0" y="334" width="49" height="91">
<path d="M0 404.123V334.108L48.6493 354.232V424.247L0 404.123Z" fill="white"/>
</mask>
<g mask="url(#mask37_585_4041)">
<path d="M0 424.247H48.6493V334.172H0V424.247Z" fill="url(#paint7_linear_585_4041)"/>
</g>
</g>
<mask id="mask38_585_4041" style="mask-type:luminance" maskUnits="userSpaceOnUse" x="27" y="364" width="43" height="44">
<path d="M27.3594 364.717H69.9379V407.295H27.3594V364.717Z" fill="white"/>
</mask>
<g mask="url(#mask38_585_4041)">
<mask id="mask39_585_4041" style="mask-type:luminance" maskUnits="userSpaceOnUse" x="27" y="364" width="43" height="44">
<path d="M48.6447 364.717C36.8853 364.717 27.3555 374.247 27.3555 386.006C27.3555 397.759 36.8853 407.295 48.6447 407.295C60.3978 407.295 69.934 397.759 69.934 386.006C69.934 374.247 60.3978 364.717 48.6447 364.717Z" fill="white"/>
</mask>
<g mask="url(#mask39_585_4041)">
<path d="M27.3555 364.717H69.934V407.295H27.3555V364.717Z" fill="#404040"/>
</g>
</g>
<mask id="mask40_585_4041" style="mask-type:luminance" maskUnits="userSpaceOnUse" x="35" y="208" width="29" height="28">
<path d="M35.418 208.698H63.1411V235.561H35.418V208.698Z" fill="white"/>
</mask>
<g mask="url(#mask40_585_4041)">
<path d="M55.6494 221.668C55.5347 221.432 55.4328 221.19 55.3245 220.955C56.3182 220.196 56.5985 219.394 56.1972 218.496C55.8022 217.604 55.006 217.285 53.7001 217.527C53.3879 216.865 53.0694 216.202 52.7573 215.533C52.1457 214.228 51.5406 212.915 50.9099 211.616C50.7634 211.31 50.5404 211.087 50.2347 210.947C49.9289 210.8 49.6168 210.775 49.2919 210.858C48.967 210.941 48.7058 211.119 48.5084 211.393C48.3109 211.667 48.2281 211.973 48.2472 212.304C48.4574 213.654 48.0242 214.833 47.349 215.948C46.3106 217.636 44.9219 218.961 43.1829 219.916C41.6349 220.795 40.0105 221.534 38.4052 222.305C36.3731 223.286 35.4494 225.388 36.1501 227.433C36.3285 227.917 36.5833 228.357 36.9209 228.752C37.2649 229.14 37.6662 229.452 38.1249 229.694C38.5836 229.93 39.0741 230.077 39.5901 230.128C40.106 230.179 40.6093 230.134 41.1125 229.994C41.3737 229.917 41.5011 230.007 41.6349 230.223C42.0235 230.854 42.4312 231.465 42.8325 232.09C43.4631 233.064 44.0874 234.045 44.7244 235.014C44.8964 235.3 45.1321 235.51 45.4379 235.644C45.7437 235.778 46.0558 235.804 46.3807 235.733C46.6992 235.702 46.9668 235.574 47.2025 235.358C47.4318 235.141 47.5719 234.873 47.6229 234.561C47.6802 234.115 47.6165 233.676 47.4382 233.262C46.9158 232.045 46.3234 230.86 45.7628 229.669C47.2279 228.847 47.3681 228.605 47.0623 227.478C47.1133 227.439 47.1706 227.408 47.2279 227.382C48.9352 226.828 50.6806 226.656 52.4643 226.86C53.7192 226.981 54.8021 227.471 55.7131 228.338C56.3246 228.956 57.0572 229.064 57.6623 228.631C58.2548 228.21 58.3949 227.509 58.0318 226.732C57.2355 225.044 56.4393 223.356 55.6494 221.668ZM55.2799 218.865C55.4965 219.286 55.3818 219.642 54.8722 220.012L54.1524 218.496C54.7257 218.336 55.076 218.464 55.2799 218.865ZM40.6348 229.07C40.2844 229.159 39.934 229.185 39.5709 229.14C39.2142 229.102 38.8702 228.994 38.5517 228.828C38.2268 228.662 37.9465 228.446 37.7045 228.172C37.4624 227.904 37.2777 227.599 37.1503 227.261C37.0037 226.93 36.9209 226.586 36.9018 226.223C36.8827 225.86 36.9273 225.509 37.0356 225.165C37.1439 224.821 37.3031 224.503 37.5261 224.216C37.7427 223.929 38.0102 223.694 38.316 223.496C39.1887 222.98 40.1443 222.585 41.1125 222.114C42.0044 224.012 42.8707 225.86 43.7753 227.771C42.756 228.268 41.705 228.701 40.6348 229.07ZM46.5591 233.689C46.7884 234.179 46.7311 234.542 46.3743 234.701C45.9666 234.88 45.68 234.695 45.4506 234.338C44.4378 232.739 43.3994 231.147 42.3484 229.51L44.1575 228.656C44.2339 228.784 44.304 228.892 44.355 229.006C45.0939 230.567 45.8265 232.128 46.5591 233.689ZM45.3232 228.694C45.2532 228.554 45.1767 228.414 45.0812 228.21L46.0176 227.796C46.2979 228.338 46.2342 228.414 45.3232 228.694ZM57.2292 227.65C57.1973 227.726 57.1464 227.783 57.0699 227.822C56.8661 227.777 56.5922 227.79 56.4584 227.669C55.4519 226.707 54.2607 226.134 52.8847 225.942C50.5659 225.554 48.33 225.942 46.1386 226.707C45.6545 226.879 45.1767 227.083 44.6416 227.293C43.7562 225.407 42.8962 223.573 42.0744 221.84C43.3294 220.967 44.597 220.19 45.7373 219.266C47.3808 217.922 48.6676 216.279 49.139 214.145C49.2346 213.616 49.2791 213.087 49.26 212.546C49.26 212.253 49.1581 211.941 49.5212 211.826C49.9289 211.692 50.0181 212.049 50.1455 212.317C51.4641 215.119 52.7828 217.916 54.095 220.712C55.076 222.796 56.0571 224.879 57.0381 226.962C57.0763 227.038 57.1018 227.083 57.14 227.185C57.2738 227.522 57.2419 227.618 57.2292 227.65ZM53.7192 211.036C53.6173 210.832 53.6364 210.635 53.7701 210.444C54.095 209.953 54.4326 209.463 54.7703 208.985C54.8977 208.794 55.076 208.698 55.299 208.698C55.5347 208.711 55.7131 208.819 55.8341 209.023L55.8723 209.08L55.8596 209.151C55.8532 209.189 55.8468 209.227 55.8405 209.265C55.8341 209.386 55.8022 209.501 55.7449 209.603C55.4137 210.119 55.0569 210.635 54.7193 211.113C54.662 211.202 54.5792 211.265 54.4836 211.316C54.2798 211.412 54.0887 211.393 53.9039 211.265C53.8211 211.202 53.7574 211.132 53.7128 211.036H53.7192ZM62.8668 225.981L62.8286 226.038L62.7585 226.044C62.7203 226.057 62.6821 226.063 62.6439 226.07C62.5292 226.108 62.4082 226.114 62.2935 226.095C61.6947 225.949 61.0959 225.783 60.5289 225.63C60.427 225.598 60.3378 225.547 60.255 225.471C60.1021 225.312 60.0512 225.127 60.1149 224.91C60.1595 224.758 60.2487 224.643 60.3888 224.56C60.5289 224.484 60.6818 224.465 60.8347 224.509C61.408 224.656 61.9814 224.809 62.5483 224.961C62.7713 225.019 62.9178 225.153 62.9942 225.369C63.0643 225.598 63.0197 225.802 62.8668 225.981ZM60.7137 216.514C60.1977 216.846 59.6626 217.164 59.1593 217.464C59.0702 217.521 58.9682 217.553 58.8599 217.553C58.637 217.559 58.465 217.464 58.3567 217.266C58.2739 217.126 58.2548 216.98 58.293 216.82C58.3376 216.667 58.4268 216.546 58.5669 216.47C59.0702 216.151 59.5734 215.846 60.083 215.546C60.2741 215.425 60.478 215.412 60.6818 215.508C60.892 215.616 61.0131 215.782 61.0386 216.018L61.0513 216.088L61.0067 216.145C60.9876 216.177 60.9621 216.209 60.943 216.247C60.8857 216.355 60.8092 216.444 60.7137 216.514Z" fill="white"/>
</g>
<mask id="mask41_585_4041" style="mask-type:luminance" maskUnits="userSpaceOnUse" x="35" y="289" width="27" height="29">
<path d="M35.9023 289.472H61.517V317.552H35.9023V289.472Z" fill="white"/>
</mask>
<g mask="url(#mask41_585_4041)">
<path d="M60.322 305.391L60.1946 305.697C59.7041 306.907 59.1944 308.156 58.723 309.398C57.9968 311.322 57.7675 312.927 58.0159 314.45C58.0988 314.908 58.2071 315.361 58.3472 315.807C58.3918 315.953 58.4364 316.1 58.4746 316.246C58.5383 316.38 58.5447 316.514 58.4873 316.648C58.43 316.781 58.3345 316.871 58.2007 316.921C58.1497 316.941 58.0988 316.953 58.0478 316.953C57.965 317.004 57.8758 317.03 57.7803 317.023H46.7662C46.4094 317.119 46.0782 317.049 45.7851 316.826C45.5431 316.52 45.3774 316.189 45.2755 315.813C45.25 315.743 45.2246 315.679 45.2118 315.641C44.0206 316.081 42.7975 316.214 41.5426 316.03C40.861 315.979 40.2176 315.794 39.6188 315.475C39.0646 315.087 38.7397 314.564 38.6378 313.896C38.5104 313.22 38.6059 312.539 38.5486 311.857C38.4721 311.125 38.211 310.468 37.765 309.882C37.7268 309.831 37.7013 309.774 37.6822 309.717L37.6185 309.634C37.5676 309.551 37.5421 309.456 37.5421 309.36V308.94C37.5421 308.914 37.5485 308.889 37.5548 308.857C37.4529 308.691 37.4083 308.513 37.4083 308.315C37.4465 307.806 37.2427 307.436 36.7904 307.201C36.4146 307.003 36.1597 306.704 36.0387 306.302C35.9113 305.895 35.9495 305.506 36.147 305.13C36.3509 304.703 36.5993 304.302 36.9051 303.939C37.523 303.206 37.9052 302.372 38.0644 301.429C38.1536 300.849 38.1918 300.251 38.2301 299.671C38.2555 299.27 38.281 298.862 38.3192 298.461C38.7078 294.849 40.5361 292.313 43.753 290.912C45.7214 290.103 47.7599 289.651 49.8876 289.555C52.5185 289.53 54.8754 290.326 56.9521 291.957C58.9715 293.549 60.2646 295.607 60.8252 298.123C61.4495 300.601 61.2775 303.022 60.322 305.391ZM59.9206 298.671C59.0543 294.377 55.7736 291.243 51.5629 290.676C48.6008 290.313 45.817 290.855 43.2116 292.313C42.2943 292.785 41.5171 293.441 40.8864 294.263C40.2558 295.084 39.8354 296.002 39.6188 297.021C39.3958 297.989 39.2748 298.97 39.2557 299.964C39.2429 301.754 38.6824 303.347 37.5612 304.742C37.3956 304.945 37.2491 305.156 37.1216 305.385C36.8732 305.856 36.9433 306.124 37.4019 306.404C38.0772 306.774 38.4084 307.347 38.3957 308.118C38.3893 308.201 38.4084 308.277 38.4594 308.341C38.5295 308.398 38.6123 308.417 38.6951 308.398C39.2111 308.392 39.7398 308.392 40.2749 308.398C40.4405 308.392 40.5807 308.449 40.7017 308.557C40.7973 308.666 40.8355 308.787 40.8227 308.927C40.81 309.233 40.6125 309.398 40.2685 309.398C40.1029 309.398 39.9373 309.398 39.7717 309.405C39.434 309.405 39.09 309.405 38.7461 309.398C39.4086 310.392 39.7143 311.481 39.6506 312.673C39.6443 313.208 39.6124 313.832 39.9373 314.291C40.2622 314.762 40.9884 314.845 41.5107 314.934C43.7276 315.31 46.2247 314.596 47.2121 312.424C47.4987 311.787 48.4351 312.335 48.1485 312.972C47.7153 313.927 47.0401 314.666 46.1355 315.195C46.2565 315.456 46.3648 315.711 46.454 315.94H57.3025C56.7164 313.953 56.7674 311.985 57.4681 310.035C58.0032 308.468 58.6211 306.901 59.2199 305.385L59.4492 304.799C60.2264 302.805 60.3857 300.76 59.9206 298.671ZM56.8693 299.321C56.7292 299.2 56.7101 299.066 56.7992 298.907C56.9139 298.658 56.9712 298.397 56.9776 298.123C56.9776 297.855 56.933 297.588 56.8247 297.339C56.7228 297.085 56.5699 296.868 56.3788 296.677C56.1813 296.486 55.9584 296.346 55.7036 296.244C55.5061 296.199 55.4169 296.072 55.436 295.874C55.4233 295.6 55.3596 295.346 55.2513 295.097C55.143 294.849 54.9901 294.626 54.799 294.435C54.6079 294.244 54.3849 294.097 54.1365 293.989C53.8881 293.88 53.6269 293.817 53.3593 293.81C53.2255 293.804 53.1173 293.759 53.0217 293.67C52.5057 292.836 51.9388 292.441 51.2508 292.473C51.0597 292.447 50.8749 292.453 50.6902 292.498C50.6329 292.524 50.5628 292.549 50.5628 292.549C50.5055 292.575 50.4481 292.613 50.3526 292.657C50.2889 292.696 50.2252 292.74 50.1678 292.778C50.136 292.804 50.1041 292.823 50.0659 292.848L50.0404 292.874C49.9321 292.963 49.8239 293.065 49.7283 293.18C49.7219 293.18 49.6901 293.224 49.6837 293.231C49.6773 293.243 49.6646 293.256 49.6582 293.263C49.4926 293.524 49.3843 293.804 49.3397 294.11V294.326C49.3142 294.345 49.2824 294.365 49.2505 294.384C48.7855 294.581 48.3077 294.753 47.8172 294.906C47.6898 294.944 47.5624 294.931 47.4478 294.861C47.1611 294.658 46.8872 294.422 46.626 294.193L46.454 294.046C46.3457 293.919 46.2056 293.861 46.0336 293.868C45.868 293.874 45.7342 293.944 45.6323 294.078C45.2118 294.511 44.7786 294.944 44.3582 295.358L44.3136 295.403C44.1862 295.505 44.1225 295.632 44.1161 295.791C44.1098 295.951 44.1607 296.085 44.2818 296.193L44.5175 296.479C44.7341 296.728 44.9506 296.983 45.1481 297.25C45.2182 297.384 45.2309 297.524 45.1863 297.664C45.129 297.855 45.0589 298.04 44.9761 298.219C44.9124 298.378 44.8423 298.543 44.7914 298.709C44.7149 298.926 44.6321 298.996 44.4283 299.002C44.1289 299.008 43.8295 299.034 43.5365 299.066C43.3899 299.079 43.2498 299.091 43.1033 299.104C42.9313 299.091 42.7911 299.149 42.6765 299.276C42.5618 299.397 42.5172 299.544 42.5363 299.709C42.5427 300.263 42.5427 300.824 42.5363 301.359V301.576C42.5172 301.741 42.5682 301.888 42.6828 302.009C42.7975 302.13 42.944 302.187 43.1097 302.174C43.409 302.187 43.7085 302.219 43.9951 302.245L44.3455 302.276C44.5875 302.257 44.7341 302.366 44.785 302.608C44.8678 302.913 44.9952 303.213 45.1545 303.487C45.2373 303.595 45.2692 303.71 45.25 303.837C45.2309 303.971 45.1672 304.073 45.0653 304.149C44.8742 304.334 44.7022 304.531 44.5429 304.735C44.4474 304.844 44.3646 304.952 44.269 305.06C44.1544 305.168 44.097 305.302 44.1034 305.461C44.1034 305.621 44.1735 305.754 44.2945 305.856C44.7404 306.315 45.1991 306.774 45.6768 307.232C45.7724 307.347 45.8998 307.411 46.0527 307.411C46.2056 307.417 46.333 307.36 46.4349 307.251L47.5879 306.283C47.7153 306.341 47.8427 306.392 47.9701 306.442C48.3396 306.602 48.9639 306.748 49.3142 306.914C49.3206 306.92 49.327 306.92 49.3397 306.933V308.392C49.3461 308.411 49.3525 308.424 49.3588 308.443C49.6009 308.857 50.187 308.952 50.5373 308.978C50.7157 308.971 50.8622 308.895 50.9769 308.755C51.5948 308.882 52.1745 308.793 52.7223 308.468C53.0153 308.303 53.3211 308.162 53.646 308.061C55.0857 307.589 55.7927 306.786 55.8692 305.532C55.8756 305.474 55.9201 305.372 56.0985 305.213C56.6655 304.703 57.277 304.009 57.0095 303.073C56.8693 302.518 56.9394 301.996 57.226 301.499C57.3917 301.136 57.4426 300.754 57.3789 300.359C57.3152 299.958 57.1432 299.614 56.8693 299.321ZM49.3333 303.276C48.5116 302.716 47.6261 301.729 47.6516 300.607C47.6771 299.518 48.4861 298.55 49.3333 297.989V303.276ZM48.072 305.34C47.5369 305.054 47.435 305.041 46.9827 305.455C46.7725 305.653 46.5496 305.837 46.3521 306.003C46.282 306.06 46.2183 306.118 46.1546 306.175L45.2946 305.423L45.5686 305.111C45.7979 304.837 46.0081 304.589 46.2374 304.34C46.4731 304.092 46.4986 303.824 46.3075 303.538C46.0718 303.009 45.8488 302.448 45.6323 301.824C45.5558 301.506 45.3583 301.34 45.0335 301.327C44.5684 301.302 44.1798 301.276 43.7913 301.225C43.6957 301.213 43.5556 301.111 43.5556 301.066C43.5365 300.818 43.5301 300.569 43.5365 300.321C43.5365 300.238 43.5365 300.161 43.5365 300.079L43.9824 300.034C44.3518 300.002 44.6958 299.964 45.0398 299.945C45.3647 299.932 45.5622 299.766 45.6323 299.448C45.8552 298.817 46.0718 298.263 46.3011 297.766C46.4795 297.48 46.454 297.212 46.2247 296.964C45.9954 296.702 45.7788 296.435 45.5622 296.174C45.4794 296.072 45.4029 295.97 45.3201 295.881L46.1228 295.078C46.2183 295.154 46.3075 295.231 46.4031 295.314C46.6515 295.518 46.9063 295.728 47.1547 295.944C47.4159 296.199 47.6962 296.218 47.9892 296.002C48.3396 295.817 48.9384 295.651 49.3333 295.498V296.836C47.8873 297.524 46.6005 299.079 46.6579 300.754C46.7152 302.512 48.0657 303.875 49.3333 304.461V305.818C48.9065 305.684 48.4797 305.525 48.072 305.34ZM55.9839 301.678C55.6207 302.079 54.5314 302.2 54.162 301.881C54.1046 301.837 54.06 301.773 54.0346 301.709C53.6332 300.582 52.6586 300.289 51.8496 300.168C51.6776 300.123 51.512 300.149 51.3591 300.244C51.2508 300.333 51.1935 300.448 51.1871 300.588C51.1425 301.021 51.4737 301.123 51.7349 301.162C52.3401 301.251 52.7159 301.423 52.9198 301.709C53.1427 302.111 53.1937 302.531 53.0599 302.977L53.0536 302.983C53.0536 302.996 53.0472 303.009 53.0472 303.015C53.0153 303.155 53.0281 303.289 53.1045 303.41C53.1746 303.531 53.2829 303.608 53.423 303.646C53.5568 303.697 53.6906 303.684 53.818 303.614C53.9454 303.538 54.0218 303.429 54.0537 303.289C54.0728 303.213 54.0983 303.143 54.1237 303.079L54.1429 303.009C54.232 303.022 54.3149 303.028 54.3977 303.034C54.6079 303.06 54.8245 303.073 55.0347 303.073C55.2513 303.06 55.4742 303.028 55.6908 302.983C55.7673 302.971 55.8501 302.958 55.9329 302.945C56.0412 303.168 56.0667 303.404 56.003 303.64C55.9456 303.882 55.8119 304.073 55.608 304.219C55.6016 304.194 55.5889 304.168 55.5762 304.136C55.5379 304.047 55.4997 303.952 55.4615 303.863C55.4042 303.691 55.2895 303.576 55.1302 303.506C54.9901 303.461 54.8627 303.474 54.7353 303.55C54.5951 303.608 54.4996 303.716 54.4614 303.863C54.4168 304.009 54.4359 304.149 54.5251 304.277L54.5314 304.289C54.6206 304.468 54.6971 304.652 54.7671 304.844C55.0347 305.64 54.7608 306.462 54.1365 306.723C54.0855 306.665 54.0473 306.602 54.0027 306.532C53.9199 306.372 53.7989 306.251 53.6396 306.162C53.5887 306.137 53.5313 306.124 53.474 306.124C53.423 306.124 53.3784 306.137 53.3338 306.156C53.1618 306.27 53.0536 306.423 53.0026 306.627C52.9962 306.653 52.9835 306.678 52.9707 306.697C52.9644 306.71 52.958 306.723 52.9516 306.736C52.7478 307.22 52.3974 307.551 51.9069 307.742C51.41 307.882 50.9323 307.818 50.4864 307.564C50.3844 307.5 50.3271 307.417 50.3016 307.302C50.2889 306.939 50.2889 306.576 50.2889 306.194C50.2889 306.079 50.2953 305.958 50.2953 305.844C50.359 305.85 50.4163 305.863 50.4736 305.876C50.6265 305.907 50.773 305.933 50.9195 305.952C51.7795 306.035 52.3783 305.78 52.7669 305.168C52.8688 305.054 52.907 304.92 52.8816 304.767C52.8561 304.614 52.7733 304.5 52.6395 304.423C52.5312 304.34 52.4165 304.308 52.2828 304.328C52.1299 304.366 52.0216 304.455 51.9451 304.589C51.7222 304.939 51.41 305.054 51.0087 304.945C50.8367 304.914 50.6711 304.869 50.5055 304.805L50.3207 304.742V303.519C50.4481 303.493 50.5755 303.474 50.7029 303.448C51.0151 303.391 51.3145 303.34 51.6139 303.264C51.7668 303.232 51.8878 303.149 51.9706 303.009C52.028 302.888 52.0279 302.767 51.977 302.639C51.9388 302.487 51.8432 302.372 51.6967 302.302C51.5502 302.238 51.4037 302.245 51.2572 302.315C51.0597 302.372 50.8558 302.41 50.652 302.423H50.5819C50.5055 302.442 50.429 302.429 50.359 302.378C50.2953 302.295 50.2698 302.2 50.2889 302.098C50.3016 301.193 50.3016 300.314 50.2889 299.48C50.2761 299.372 50.308 299.27 50.3844 299.187C50.4418 299.142 50.5118 299.123 50.5947 299.136C50.9832 299.193 51.3591 299.289 51.7285 299.422C52.0025 299.524 52.2891 299.569 52.4675 299.257C52.5439 299.136 52.563 299.015 52.5312 298.881C52.4675 298.709 52.3528 298.588 52.1872 298.518C51.6139 298.174 50.996 298.047 50.3271 298.148V297.187C50.4099 297.193 50.4864 297.199 50.5628 297.206C50.7539 297.231 50.945 297.244 51.1361 297.244C51.6075 297.269 51.926 297.066 52.1044 296.632C52.1617 296.422 52.1235 296.237 51.9897 296.072C51.8687 295.989 51.7349 295.957 51.5884 295.963C51.5247 295.963 51.4674 295.983 51.4164 296.021C51.117 296.352 50.8303 296.257 50.4927 296.148C50.429 296.129 50.3653 296.104 50.2953 296.085C50.2953 295.913 50.2953 295.741 50.2953 295.569C50.2889 295.142 50.2889 294.74 50.3016 294.326C50.3144 294.116 50.3908 293.931 50.5373 293.772C50.6838 293.619 50.8622 293.524 51.0724 293.492C51.2763 293.454 51.4674 293.479 51.6457 293.575C51.8305 293.67 51.9642 293.81 52.0471 293.995C52.1171 294.212 52.1362 294.435 52.1108 294.658C52.098 294.906 52.1299 295.167 52.442 295.269C52.563 295.314 52.6905 295.314 52.8115 295.256C52.9389 295.205 53.0281 295.116 53.079 294.989C53.1555 294.887 53.251 294.836 53.3784 294.83C53.6715 294.849 53.9199 294.963 54.1237 295.174C54.3276 295.384 54.4295 295.639 54.4423 295.932C54.455 296.256 54.3594 296.537 54.1365 296.772C53.9199 297.015 53.646 297.142 53.3211 297.148C52.9325 297.199 52.7605 297.378 52.786 297.683C52.786 297.824 52.837 297.938 52.9453 298.034C53.0854 298.136 53.251 298.18 53.423 298.148C54.06 298.123 54.5697 297.849 54.9519 297.339C55.1366 297.085 55.2768 297.11 55.5061 297.257C55.7099 297.384 55.8501 297.562 55.9265 297.792C55.9966 298.027 55.9902 298.25 55.901 298.473C55.7227 298.97 55.3787 299.251 54.8563 299.321C54.6588 299.321 54.4932 299.397 54.3658 299.537C54.2894 299.652 54.2639 299.773 54.2894 299.907C54.3021 300.053 54.3722 300.174 54.4932 300.257C54.6588 300.353 54.8372 300.365 55.0156 300.308C55.264 300.238 55.5125 300.155 55.7482 300.053C55.8501 300.015 55.952 299.977 56.0539 299.938C56.2514 300.091 56.3597 300.295 56.3788 300.55C56.4107 300.977 56.2769 301.359 55.9839 301.678Z" fill="white"/>
</g>
<mask id="mask42_585_4041" style="mask-type:luminance" maskUnits="userSpaceOnUse" x="36" y="373" width="25" height="23">
<path d="M36.4688 373.4H60.8858V395.797H36.4688V373.4Z" fill="white"/>
</mask>
<g mask="url(#mask42_585_4041)">
<path d="M37.3207 393.504C37.3589 393.504 37.3971 393.504 37.4354 393.504L43.5954 391.587L43.71 391.631C44.3279 392.357 45.0478 392.969 45.8632 393.472C46.6785 393.975 47.5513 394.345 48.4813 394.574C49.4114 394.804 50.3542 394.893 51.3097 394.829C52.2589 394.765 53.1825 394.555 54.0744 394.205L60.2344 396.122C60.2726 396.129 60.3108 396.129 60.349 396.122C60.4955 396.11 60.6038 396.046 60.6739 395.918C60.7504 395.797 60.7567 395.67 60.6994 395.536L58.1832 390.95C59.3234 389.357 59.8904 387.58 59.8776 385.618C59.8776 384.681 59.7375 383.77 59.4572 382.879C59.1769 381.98 58.7756 381.152 58.2469 380.381C57.7118 379.611 57.0811 378.942 56.3422 378.362C55.6096 377.782 54.8069 377.33 53.9342 376.999C53.552 376.547 53.1316 376.133 52.6729 375.757C52.2143 375.387 51.7238 375.062 51.2014 374.788C50.679 374.508 50.1376 374.285 49.5706 374.113C49.0037 373.941 48.4304 373.82 47.8443 373.763C47.2519 373.699 46.6658 373.693 46.0797 373.744C45.4873 373.801 44.9076 373.909 44.3407 374.069C43.7737 374.234 43.2259 374.451 42.7035 374.718C42.1748 374.986 41.6779 375.304 41.2129 375.667C40.7479 376.031 40.3211 376.438 39.9325 376.884C39.5439 377.33 39.2063 377.808 38.9133 378.318C38.6139 378.833 38.3718 379.369 38.1807 379.929C37.9896 380.483 37.8494 381.057 37.773 381.643C37.6902 382.229 37.6647 382.815 37.6965 383.407C37.7284 383.993 37.8176 384.579 37.9577 385.153C38.1042 385.726 38.3017 386.28 38.5502 386.815C38.7986 387.35 39.098 387.854 39.4484 388.331L36.9576 392.912C36.8748 393.071 36.8939 393.217 37.0022 393.358C37.085 393.453 37.1933 393.504 37.3207 393.504ZM59.075 385.618C59.0877 387.503 58.5271 389.198 57.3996 390.701C57.3041 390.835 57.2977 390.969 57.3614 391.115L59.5082 395.052L54.1508 393.383C54.0616 393.351 53.9724 393.351 53.8769 393.383C53.1698 393.676 52.4309 393.867 51.6664 393.956C50.902 394.052 50.1439 394.033 49.3795 393.918C48.6215 393.797 47.8889 393.581 47.1945 393.262C46.4938 392.944 45.8504 392.536 45.258 392.039C45.8249 392.141 46.3919 392.198 46.9652 392.198C48.6087 392.192 50.1503 391.778 51.5709 390.95C52.9978 390.122 54.119 388.994 54.9407 387.561C55.7561 386.134 56.1638 384.592 56.1511 382.942C56.1447 381.292 55.7243 379.757 54.8898 378.337C56.1829 379.095 57.2021 380.12 57.9475 381.42C58.6991 382.719 59.0686 384.121 59.075 385.618ZM40.251 388.491C40.3211 388.344 40.3083 388.21 40.2192 388.077C39.0916 386.573 38.5374 384.879 38.5502 383C38.5565 382.401 38.6202 381.815 38.7476 381.229C38.875 380.643 39.0598 380.082 39.3082 379.534C39.5566 378.993 39.8624 378.477 40.2192 377.999C40.5759 377.521 40.9836 377.082 41.4295 376.693C41.8818 376.298 42.3723 375.954 42.8946 375.667C43.417 375.374 43.9648 375.145 44.5382 374.973C45.1115 374.801 45.6912 374.693 46.29 374.642C46.8888 374.597 47.4812 374.61 48.0736 374.686C48.6661 374.769 49.2457 374.909 49.8063 375.113C50.3733 375.311 50.9084 375.572 51.4116 375.89C51.9212 376.209 52.3863 376.572 52.8194 376.986C53.2462 377.407 53.6285 377.865 53.9597 378.362C54.291 378.859 54.5649 379.388 54.7878 379.942C55.0044 380.496 55.1637 381.069 55.2592 381.662C55.3611 382.254 55.393 382.847 55.3611 383.446C55.3357 384.038 55.2401 384.63 55.0872 385.204C54.928 385.783 54.7178 386.338 54.4438 386.873C54.1699 387.401 53.845 387.898 53.4628 388.363C53.087 388.822 52.6602 389.242 52.1952 389.612C51.7238 389.988 51.2205 390.3 50.6854 390.567C50.1503 390.835 49.5897 391.039 49.01 391.185C48.4304 391.332 47.8443 391.415 47.2455 391.434C46.6467 391.453 46.0543 391.408 45.4618 391.3C44.8758 391.198 44.3088 391.026 43.7546 390.803C43.6654 390.771 43.5763 390.771 43.4871 390.803L38.1425 392.434L40.251 388.491Z" fill="white"/>
</g>
<path d="M43.6701 380.878C43.6765 380.471 43.7529 380.076 43.9058 379.693C44.0651 379.318 44.288 378.98 44.5747 378.693C44.8677 378.4 45.199 378.177 45.5812 378.018C45.957 377.859 46.352 377.776 46.7597 377.776C47.1228 377.776 47.4731 377.84 47.8108 377.961C48.1547 378.088 48.4605 378.267 48.7408 378.496C49.0211 378.732 49.2504 379.005 49.4288 379.318C49.6135 379.63 49.7346 379.961 49.8046 380.318C49.8683 380.674 49.8683 381.031 49.811 381.388C49.7537 381.745 49.6326 382.082 49.4543 382.401C49.2759 382.713 49.0529 382.993 48.779 383.229C48.5051 383.465 48.1993 383.649 47.8617 383.777C47.4094 383.949 47.0463 384.235 46.7724 384.637C46.4985 385.032 46.3647 385.471 46.3647 385.955C46.4157 386.159 46.5495 386.261 46.7597 386.261C46.9699 386.261 47.0973 386.159 47.1546 385.955C47.1546 385.637 47.2438 385.35 47.4285 385.083C47.6069 384.821 47.8426 384.637 48.142 384.522C48.5688 384.356 48.951 384.127 49.3014 383.834C49.6454 383.535 49.932 383.184 50.155 382.789C50.378 382.394 50.5245 381.974 50.6009 381.522C50.6774 381.069 50.671 380.624 50.5882 380.178C50.5054 379.725 50.3525 379.305 50.1231 378.916C49.8938 378.521 49.6008 378.177 49.2504 377.884C48.9001 377.598 48.5115 377.375 48.0847 377.215C47.6579 377.063 47.2183 376.986 46.7597 376.986C46.2437 376.98 45.7468 377.082 45.269 377.279C44.7913 377.477 44.3645 377.757 44.0014 378.12C43.6383 378.489 43.358 378.91 43.1605 379.388C42.963 379.865 42.8611 380.362 42.8675 380.878C42.9184 381.082 43.0522 381.184 43.2624 381.184C43.4726 381.184 43.6 381.082 43.6574 380.878H43.6701Z" fill="white"/>
<path d="M46.7618 387.631C46.4816 387.637 46.2459 387.739 46.0484 387.937C45.8573 388.134 45.7617 388.376 45.7617 388.65C45.7617 388.93 45.8636 389.166 46.0611 389.364C46.2586 389.561 46.4943 389.657 46.7746 389.657C47.0549 389.657 47.2906 389.561 47.488 389.364C47.6855 389.166 47.7874 388.93 47.7874 388.65C47.7874 388.37 47.6855 388.128 47.488 387.924C47.2842 387.726 47.0421 387.631 46.7618 387.631ZM46.7618 388.86C46.6153 388.86 46.5453 388.79 46.5453 388.644C46.5453 388.497 46.6153 388.427 46.7618 388.427C46.9084 388.427 46.9784 388.497 46.9784 388.644C46.9784 388.79 46.902 388.86 46.7618 388.86Z" fill="white"/>
<defs>
<linearGradient id="paint0_linear_585_4041" x1="72.959" y1="90.0444" x2="72.959" y2="180.119" gradientUnits="userSpaceOnUse">
<stop stop-color="#EFD6B1"/>
<stop offset="0.015625" stop-color="#EFD6B1"/>
<stop offset="0.03125" stop-color="#EED6B2"/>
<stop offset="0.046875" stop-color="#EDD7B3"/>
<stop offset="0.0625" stop-color="#ECD7B3"/>
<stop offset="0.078125" stop-color="#EBD7B4"/>
<stop offset="0.09375" stop-color="#EBD7B5"/>
<stop offset="0.109375" stop-color="#EAD8B5"/>
<stop offset="0.125" stop-color="#E9D8B6"/>
<stop offset="0.140625" stop-color="#E8D8B7"/>
<stop offset="0.15625" stop-color="#E8D8B7"/>
<stop offset="0.171875" stop-color="#E7D9B8"/>
<stop offset="0.1875" stop-color="#E6D9B9"/>
<stop offset="0.203125" stop-color="#E5D9B9"/>
<stop offset="0.21875" stop-color="#E5D9BA"/>
<stop offset="0.234375" stop-color="#E4DABB"/>
<stop offset="0.25" stop-color="#E3DABB"/>
<stop offset="0.265625" stop-color="#E2DABC"/>
<stop offset="0.28125" stop-color="#E2DABD"/>
<stop offset="0.296875" stop-color="#E1DBBD"/>
<stop offset="0.3125" stop-color="#E0DBBE"/>
<stop offset="0.328125" stop-color="#DFDBBF"/>
<stop offset="0.34375" stop-color="#DEDBBF"/>
<stop offset="0.359375" stop-color="#DEDCC0"/>
<stop offset="0.375" stop-color="#DDDCC1"/>
<stop offset="0.390625" stop-color="#DCDCC1"/>
<stop offset="0.40625" stop-color="#DBDCC2"/>
<stop offset="0.421875" stop-color="#DBDDC3"/>
<stop offset="0.4375" stop-color="#DADDC3"/>
<stop offset="0.453125" stop-color="#D9DDC4"/>
<stop offset="0.46875" stop-color="#D8DDC5"/>
<stop offset="0.484375" stop-color="#D8DEC5"/>
<stop offset="0.5" stop-color="#D7DEC6"/>
<stop offset="0.515625" stop-color="#D6DEC7"/>
<stop offset="0.53125" stop-color="#D5DEC8"/>
<stop offset="0.546875" stop-color="#D5DFC8"/>
<stop offset="0.5625" stop-color="#D4DFC9"/>
<stop offset="0.578125" stop-color="#D3DFCA"/>
<stop offset="0.59375" stop-color="#D2DFCA"/>
<stop offset="0.609375" stop-color="#D1E0CB"/>
<stop offset="0.625" stop-color="#D1E0CC"/>
<stop offset="0.640625" stop-color="#D0E0CC"/>
<stop offset="0.65625" stop-color="#CFE0CD"/>
<stop offset="0.671875" stop-color="#CEE1CE"/>
<stop offset="0.6875" stop-color="#CEE1CE"/>
<stop offset="0.703125" stop-color="#CDE1CF"/>
<stop offset="0.71875" stop-color="#CCE1D0"/>
<stop offset="0.734375" stop-color="#CBE2D0"/>
<stop offset="0.75" stop-color="#CBE2D1"/>
<stop offset="0.765625" stop-color="#CAE2D2"/>
<stop offset="0.78125" stop-color="#C9E2D2"/>
<stop offset="0.796875" stop-color="#C8E3D3"/>
<stop offset="0.8125" stop-color="#C8E3D4"/>
<stop offset="0.828125" stop-color="#C7E3D4"/>
<stop offset="0.84375" stop-color="#C6E3D5"/>
<stop offset="0.859375" stop-color="#C5E4D6"/>
<stop offset="0.875" stop-color="#C5E4D6"/>
<stop offset="0.890625" stop-color="#C4E4D7"/>
<stop offset="0.90625" stop-color="#C3E4D8"/>
<stop offset="0.921875" stop-color="#C2E5D8"/>
<stop offset="0.9375" stop-color="#C1E5D9"/>
<stop offset="0.953125" stop-color="#C1E5DA"/>
<stop offset="0.96875" stop-color="#C0E5DA"/>
<stop offset="0.984375" stop-color="#BFE6DB"/>
<stop offset="1" stop-color="#BEE6DC"/>
</linearGradient>
<linearGradient id="paint1_linear_585_4041" x1="24.3236" y1="180.175" x2="24.3236" y2="90.1" gradientUnits="userSpaceOnUse">
<stop stop-color="#BEE6DC"/>
<stop offset="0.015625" stop-color="#BEE6DC"/>
<stop offset="0.03125" stop-color="#BFE6DB"/>
<stop offset="0.046875" stop-color="#C0E5DA"/>
<stop offset="0.0625" stop-color="#C1E5DA"/>
<stop offset="0.078125" stop-color="#C1E5D9"/>
<stop offset="0.09375" stop-color="#C2E5D8"/>
<stop offset="0.109375" stop-color="#C3E4D8"/>
<stop offset="0.125" stop-color="#C4E4D7"/>
<stop offset="0.140625" stop-color="#C4E4D6"/>
<stop offset="0.15625" stop-color="#C5E4D6"/>
<stop offset="0.171875" stop-color="#C6E3D5"/>
<stop offset="0.1875" stop-color="#C7E3D4"/>
<stop offset="0.203125" stop-color="#C8E3D4"/>
<stop offset="0.21875" stop-color="#C8E3D3"/>
<stop offset="0.234375" stop-color="#C9E2D2"/>
<stop offset="0.25" stop-color="#CAE2D2"/>
<stop offset="0.265625" stop-color="#CBE2D1"/>
<stop offset="0.28125" stop-color="#CBE2D0"/>
<stop offset="0.296875" stop-color="#CCE1D0"/>
<stop offset="0.3125" stop-color="#CDE1CF"/>
<stop offset="0.328125" stop-color="#CEE1CE"/>
<stop offset="0.34375" stop-color="#CEE1CE"/>
<stop offset="0.359375" stop-color="#CFE0CD"/>
<stop offset="0.375" stop-color="#D0E0CC"/>
<stop offset="0.390625" stop-color="#D1E0CC"/>
<stop offset="0.40625" stop-color="#D1E0CB"/>
<stop offset="0.421875" stop-color="#D2DFCA"/>
<stop offset="0.4375" stop-color="#D3DFCA"/>
<stop offset="0.453125" stop-color="#D4DFC9"/>
<stop offset="0.46875" stop-color="#D5DFC8"/>
<stop offset="0.484375" stop-color="#D5DEC8"/>
<stop offset="0.5" stop-color="#D6DEC7"/>
<stop offset="0.515625" stop-color="#D7DEC6"/>
<stop offset="0.53125" stop-color="#D8DEC6"/>
<stop offset="0.546875" stop-color="#D8DDC5"/>
<stop offset="0.5625" stop-color="#D9DDC4"/>
<stop offset="0.578125" stop-color="#DADDC3"/>
<stop offset="0.59375" stop-color="#DBDDC3"/>
<stop offset="0.609375" stop-color="#DBDCC2"/>
<stop offset="0.625" stop-color="#DCDCC1"/>
<stop offset="0.640625" stop-color="#DDDCC1"/>
<stop offset="0.65625" stop-color="#DEDCC0"/>
<stop offset="0.671875" stop-color="#DEDBBF"/>
<stop offset="0.6875" stop-color="#DFDBBF"/>
<stop offset="0.703125" stop-color="#E0DBBE"/>
<stop offset="0.71875" stop-color="#E1DBBD"/>
<stop offset="0.734375" stop-color="#E2DABD"/>
<stop offset="0.75" stop-color="#E2DABC"/>
<stop offset="0.765625" stop-color="#E3DABB"/>
<stop offset="0.78125" stop-color="#E4DABB"/>
<stop offset="0.796875" stop-color="#E5D9BA"/>
<stop offset="0.8125" stop-color="#E5D9B9"/>
<stop offset="0.828125" stop-color="#E6D9B9"/>
<stop offset="0.84375" stop-color="#E7D9B8"/>
<stop offset="0.859375" stop-color="#E8D8B7"/>
<stop offset="0.875" stop-color="#E8D8B7"/>
<stop offset="0.890625" stop-color="#E9D8B6"/>
<stop offset="0.90625" stop-color="#EAD8B5"/>
<stop offset="0.921875" stop-color="#EBD7B5"/>
<stop offset="0.9375" stop-color="#EBD7B4"/>
<stop offset="0.953125" stop-color="#ECD7B3"/>
<stop offset="0.96875" stop-color="#EDD7B3"/>
<stop offset="0.984375" stop-color="#EED6B2"/>
<stop offset="1" stop-color="#EFD6B1"/>
</linearGradient>
<linearGradient id="paint2_linear_585_4041" x1="72.959" y1="171.565" x2="72.959" y2="261.639" gradientUnits="userSpaceOnUse">
<stop stop-color="#BEE6DC"/>
<stop offset="0.015625" stop-color="#BEE6DC"/>
<stop offset="0.03125" stop-color="#BEE5DC"/>
<stop offset="0.046875" stop-color="#BEE4DC"/>
<stop offset="0.0625" stop-color="#BDE3DB"/>
<stop offset="0.078125" stop-color="#BDE2DB"/>
<stop offset="0.09375" stop-color="#BDE2DB"/>
<stop offset="0.109375" stop-color="#BDE1DB"/>
<stop offset="0.125" stop-color="#BDE0DB"/>
<stop offset="0.140625" stop-color="#BCDFDA"/>
<stop offset="0.15625" stop-color="#BCDEDA"/>
<stop offset="0.171875" stop-color="#BCDDDA"/>
<stop offset="0.1875" stop-color="#BCDDDA"/>
<stop offset="0.203125" stop-color="#BCDCDA"/>
<stop offset="0.21875" stop-color="#BBDBD9"/>
<stop offset="0.234375" stop-color="#BBDAD9"/>
<stop offset="0.25" stop-color="#BBD9D9"/>
<stop offset="0.265625" stop-color="#BBD9D9"/>
<stop offset="0.28125" stop-color="#BBD8D9"/>
<stop offset="0.296875" stop-color="#BBD7D8"/>
<stop offset="0.3125" stop-color="#BAD6D8"/>
<stop offset="0.328125" stop-color="#BAD5D8"/>
<stop offset="0.34375" stop-color="#BAD5D8"/>
<stop offset="0.359375" stop-color="#BAD4D7"/>
<stop offset="0.375" stop-color="#BAD3D7"/>
<stop offset="0.390625" stop-color="#B9D2D7"/>
<stop offset="0.40625" stop-color="#B9D1D7"/>
<stop offset="0.421875" stop-color="#B9D0D7"/>
<stop offset="0.4375" stop-color="#B9D0D6"/>
<stop offset="0.453125" stop-color="#B9CFD6"/>
<stop offset="0.46875" stop-color="#B8CED6"/>
<stop offset="0.484375" stop-color="#B8CDD6"/>
<stop offset="0.5" stop-color="#B8CCD6"/>
<stop offset="0.515625" stop-color="#B8CCD5"/>
<stop offset="0.53125" stop-color="#B8CBD5"/>
<stop offset="0.546875" stop-color="#B8CAD5"/>
<stop offset="0.5625" stop-color="#B7C9D5"/>
<stop offset="0.578125" stop-color="#B7C8D5"/>
<stop offset="0.59375" stop-color="#B7C8D4"/>
<stop offset="0.609375" stop-color="#B7C7D4"/>
<stop offset="0.625" stop-color="#B7C6D4"/>
<stop offset="0.640625" stop-color="#B6C5D4"/>
<stop offset="0.65625" stop-color="#B6C4D4"/>
<stop offset="0.671875" stop-color="#B6C3D3"/>
<stop offset="0.6875" stop-color="#B6C3D3"/>
<stop offset="0.703125" stop-color="#B6C2D3"/>
<stop offset="0.71875" stop-color="#B5C1D3"/>
<stop offset="0.734375" stop-color="#B5C0D3"/>
<stop offset="0.75" stop-color="#B5BFD2"/>
<stop offset="0.765625" stop-color="#B5BFD2"/>
<stop offset="0.78125" stop-color="#B5BED2"/>
<stop offset="0.796875" stop-color="#B5BDD2"/>
<stop offset="0.8125" stop-color="#B4BCD2"/>
<stop offset="0.828125" stop-color="#B4BBD1"/>
<stop offset="0.84375" stop-color="#B4BBD1"/>
<stop offset="0.859375" stop-color="#B4BAD1"/>
<stop offset="0.875" stop-color="#B4B9D1"/>
<stop offset="0.890625" stop-color="#B3B8D1"/>
<stop offset="0.90625" stop-color="#B3B7D0"/>
<stop offset="0.921875" stop-color="#B3B6D0"/>
<stop offset="0.9375" stop-color="#B3B6D0"/>
<stop offset="0.953125" stop-color="#B3B5D0"/>
<stop offset="0.96875" stop-color="#B2B4D0"/>
<stop offset="0.984375" stop-color="#B2B3CF"/>
<stop offset="1" stop-color="#B2B2CF"/>
</linearGradient>
<linearGradient id="paint3_linear_585_4041" x1="24.3236" y1="261.694" x2="24.3236" y2="171.62" gradientUnits="userSpaceOnUse">
<stop stop-color="#B2B2CF"/>
<stop offset="0.015625" stop-color="#B2B2CF"/>
<stop offset="0.03125" stop-color="#B2B3CF"/>
<stop offset="0.046875" stop-color="#B2B4D0"/>
<stop offset="0.0625" stop-color="#B3B5D0"/>
<stop offset="0.078125" stop-color="#B3B6D0"/>
<stop offset="0.09375" stop-color="#B3B6D0"/>
<stop offset="0.109375" stop-color="#B3B7D0"/>
<stop offset="0.125" stop-color="#B3B8D1"/>
<stop offset="0.140625" stop-color="#B4B9D1"/>
<stop offset="0.15625" stop-color="#B4BAD1"/>
<stop offset="0.171875" stop-color="#B4BBD1"/>
<stop offset="0.1875" stop-color="#B4BBD1"/>
<stop offset="0.203125" stop-color="#B4BCD2"/>
<stop offset="0.21875" stop-color="#B5BDD2"/>
<stop offset="0.234375" stop-color="#B5BED2"/>
<stop offset="0.25" stop-color="#B5BFD2"/>
<stop offset="0.265625" stop-color="#B5BFD2"/>
<stop offset="0.28125" stop-color="#B5C0D3"/>
<stop offset="0.296875" stop-color="#B5C1D3"/>
<stop offset="0.3125" stop-color="#B6C2D3"/>
<stop offset="0.328125" stop-color="#B6C3D3"/>
<stop offset="0.34375" stop-color="#B6C3D3"/>
<stop offset="0.359375" stop-color="#B6C4D4"/>
<stop offset="0.375" stop-color="#B6C5D4"/>
<stop offset="0.390625" stop-color="#B7C6D4"/>
<stop offset="0.40625" stop-color="#B7C7D4"/>
<stop offset="0.421875" stop-color="#B7C8D4"/>
<stop offset="0.4375" stop-color="#B7C8D5"/>
<stop offset="0.453125" stop-color="#B7C9D5"/>
<stop offset="0.46875" stop-color="#B8CAD5"/>
<stop offset="0.484375" stop-color="#B8CBD5"/>
<stop offset="0.5" stop-color="#B8CCD5"/>
<stop offset="0.515625" stop-color="#B8CCD6"/>
<stop offset="0.53125" stop-color="#B8CDD6"/>
<stop offset="0.546875" stop-color="#B8CED6"/>
<stop offset="0.5625" stop-color="#B9CFD6"/>
<stop offset="0.578125" stop-color="#B9D0D6"/>
<stop offset="0.59375" stop-color="#B9D0D7"/>
<stop offset="0.609375" stop-color="#B9D1D7"/>
<stop offset="0.625" stop-color="#B9D2D7"/>
<stop offset="0.640625" stop-color="#BAD3D7"/>
<stop offset="0.65625" stop-color="#BAD4D7"/>
<stop offset="0.671875" stop-color="#BAD5D8"/>
<stop offset="0.6875" stop-color="#BAD5D8"/>
<stop offset="0.703125" stop-color="#BAD6D8"/>
<stop offset="0.71875" stop-color="#BBD7D8"/>
<stop offset="0.734375" stop-color="#BBD8D8"/>
<stop offset="0.75" stop-color="#BBD9D9"/>
<stop offset="0.765625" stop-color="#BBD9D9"/>
<stop offset="0.78125" stop-color="#BBDAD9"/>
<stop offset="0.796875" stop-color="#BBDBD9"/>
<stop offset="0.8125" stop-color="#BCDCDA"/>
<stop offset="0.828125" stop-color="#BCDDDA"/>
<stop offset="0.84375" stop-color="#BCDDDA"/>
<stop offset="0.859375" stop-color="#BCDEDA"/>
<stop offset="0.875" stop-color="#BCDFDA"/>
<stop offset="0.890625" stop-color="#BDE0DB"/>
<stop offset="0.90625" stop-color="#BDE1DB"/>
<stop offset="0.921875" stop-color="#BDE2DB"/>
<stop offset="0.9375" stop-color="#BDE2DB"/>
<stop offset="0.953125" stop-color="#BDE3DB"/>
<stop offset="0.96875" stop-color="#BDE4DC"/>
<stop offset="0.984375" stop-color="#BEE5DC"/>
<stop offset="1" stop-color="#BEE6DC"/>
</linearGradient>
<linearGradient id="paint4_linear_585_4041" x1="72.959" y1="252.84" x2="72.959" y2="342.915" gradientUnits="userSpaceOnUse">
<stop stop-color="#B2B2CF"/>
<stop offset="0.015625" stop-color="#B2B2CF"/>
<stop offset="0.03125" stop-color="#B3B3CF"/>
<stop offset="0.046875" stop-color="#B4B3CF"/>
<stop offset="0.0625" stop-color="#B5B3CE"/>
<stop offset="0.078125" stop-color="#B6B4CE"/>
<stop offset="0.09375" stop-color="#B7B4CE"/>
<stop offset="0.109375" stop-color="#B7B5CE"/>
<stop offset="0.125" stop-color="#B8B5CE"/>
<stop offset="0.140625" stop-color="#B9B6CD"/>
<stop offset="0.15625" stop-color="#BAB6CD"/>
<stop offset="0.171875" stop-color="#BBB6CD"/>
<stop offset="0.1875" stop-color="#BCB7CD"/>
<stop offset="0.203125" stop-color="#BCB7CD"/>
<stop offset="0.21875" stop-color="#BDB8CD"/>
<stop offset="0.234375" stop-color="#BEB8CC"/>
<stop offset="0.25" stop-color="#BFB9CC"/>
<stop offset="0.265625" stop-color="#C0B9CC"/>
<stop offset="0.28125" stop-color="#C0B9CC"/>
<stop offset="0.296875" stop-color="#C1BACC"/>
<stop offset="0.3125" stop-color="#C2BACB"/>
<stop offset="0.328125" stop-color="#C3BBCB"/>
<stop offset="0.34375" stop-color="#C4BBCB"/>
<stop offset="0.359375" stop-color="#C5BBCB"/>
<stop offset="0.375" stop-color="#C5BCCB"/>
<stop offset="0.390625" stop-color="#C6BCCA"/>
<stop offset="0.40625" stop-color="#C7BDCA"/>
<stop offset="0.421875" stop-color="#C8BDCA"/>
<stop offset="0.4375" stop-color="#C9BECA"/>
<stop offset="0.453125" stop-color="#CABECA"/>
<stop offset="0.46875" stop-color="#CABECA"/>
<stop offset="0.484375" stop-color="#CBBFC9"/>
<stop offset="0.5" stop-color="#CCBFC9"/>
<stop offset="0.515625" stop-color="#CDC0C9"/>
<stop offset="0.53125" stop-color="#CEC0C9"/>
<stop offset="0.546875" stop-color="#CFC1C9"/>
<stop offset="0.5625" stop-color="#CFC1C8"/>
<stop offset="0.578125" stop-color="#D0C1C8"/>
<stop offset="0.59375" stop-color="#D1C2C8"/>
<stop offset="0.609375" stop-color="#D2C2C8"/>
<stop offset="0.625" stop-color="#D3C3C8"/>
<stop offset="0.640625" stop-color="#D4C3C7"/>
<stop offset="0.65625" stop-color="#D4C4C7"/>
<stop offset="0.671875" stop-color="#D5C4C7"/>
<stop offset="0.6875" stop-color="#D6C4C7"/>
<stop offset="0.703125" stop-color="#D7C5C7"/>
<stop offset="0.71875" stop-color="#D8C5C7"/>
<stop offset="0.734375" stop-color="#D8C6C6"/>
<stop offset="0.75" stop-color="#D9C6C6"/>
<stop offset="0.765625" stop-color="#DAC6C6"/>
<stop offset="0.78125" stop-color="#DBC7C6"/>
<stop offset="0.796875" stop-color="#DCC7C6"/>
<stop offset="0.8125" stop-color="#DDC8C5"/>
<stop offset="0.828125" stop-color="#DDC8C5"/>
<stop offset="0.84375" stop-color="#DEC9C5"/>
<stop offset="0.859375" stop-color="#DFC9C5"/>
<stop offset="0.875" stop-color="#E0C9C5"/>
<stop offset="0.890625" stop-color="#E1CAC4"/>
<stop offset="0.90625" stop-color="#E2CAC4"/>
<stop offset="0.921875" stop-color="#E2CBC4"/>
<stop offset="0.9375" stop-color="#E3CBC4"/>
<stop offset="0.953125" stop-color="#E4CCC4"/>
<stop offset="0.96875" stop-color="#E5CCC4"/>
<stop offset="0.984375" stop-color="#E6CCC3"/>
<stop offset="1" stop-color="#E7CDC3"/>
</linearGradient>
<linearGradient id="paint5_linear_585_4041" x1="24.3236" y1="342.97" x2="24.3236" y2="252.895" gradientUnits="userSpaceOnUse">
<stop stop-color="#E7CDC3"/>
<stop offset="0.015625" stop-color="#E7CDC3"/>
<stop offset="0.03125" stop-color="#E6CCC3"/>
<stop offset="0.046875" stop-color="#E5CCC4"/>
<stop offset="0.0625" stop-color="#E4CCC4"/>
<stop offset="0.078125" stop-color="#E3CBC4"/>
<stop offset="0.09375" stop-color="#E2CBC4"/>
<stop offset="0.109375" stop-color="#E2CAC4"/>
<stop offset="0.125" stop-color="#E1CAC4"/>
<stop offset="0.140625" stop-color="#E0C9C5"/>
<stop offset="0.15625" stop-color="#DFC9C5"/>
<stop offset="0.171875" stop-color="#DEC9C5"/>
<stop offset="0.1875" stop-color="#DEC8C5"/>
<stop offset="0.203125" stop-color="#DDC8C5"/>
<stop offset="0.21875" stop-color="#DCC7C6"/>
<stop offset="0.234375" stop-color="#DBC7C6"/>
<stop offset="0.25" stop-color="#DAC6C6"/>
<stop offset="0.265625" stop-color="#D9C6C6"/>
<stop offset="0.28125" stop-color="#D9C6C6"/>
<stop offset="0.296875" stop-color="#D8C5C7"/>
<stop offset="0.3125" stop-color="#D7C5C7"/>
<stop offset="0.328125" stop-color="#D6C4C7"/>
<stop offset="0.34375" stop-color="#D5C4C7"/>
<stop offset="0.359375" stop-color="#D4C4C7"/>
<stop offset="0.375" stop-color="#D4C3C7"/>
<stop offset="0.390625" stop-color="#D3C3C8"/>
<stop offset="0.40625" stop-color="#D2C2C8"/>
<stop offset="0.421875" stop-color="#D1C2C8"/>
<stop offset="0.4375" stop-color="#D0C1C8"/>
<stop offset="0.453125" stop-color="#CFC1C8"/>
<stop offset="0.46875" stop-color="#CFC1C9"/>
<stop offset="0.484375" stop-color="#CEC0C9"/>
<stop offset="0.5" stop-color="#CDC0C9"/>
<stop offset="0.515625" stop-color="#CCBFC9"/>
<stop offset="0.53125" stop-color="#CBBFC9"/>
<stop offset="0.546875" stop-color="#CABECA"/>
<stop offset="0.5625" stop-color="#CABECA"/>
<stop offset="0.578125" stop-color="#C9BECA"/>
<stop offset="0.59375" stop-color="#C8BDCA"/>
<stop offset="0.609375" stop-color="#C7BDCA"/>
<stop offset="0.625" stop-color="#C6BCCA"/>
<stop offset="0.640625" stop-color="#C5BCCB"/>
<stop offset="0.65625" stop-color="#C5BCCB"/>
<stop offset="0.671875" stop-color="#C4BBCB"/>
<stop offset="0.6875" stop-color="#C3BBCB"/>
<stop offset="0.703125" stop-color="#C2BACB"/>
<stop offset="0.71875" stop-color="#C1BACC"/>
<stop offset="0.734375" stop-color="#C1B9CC"/>
<stop offset="0.75" stop-color="#C0B9CC"/>
<stop offset="0.765625" stop-color="#BFB9CC"/>
<stop offset="0.78125" stop-color="#BEB8CC"/>
<stop offset="0.796875" stop-color="#BDB8CD"/>
<stop offset="0.8125" stop-color="#BCB7CD"/>
<stop offset="0.828125" stop-color="#BCB7CD"/>
<stop offset="0.84375" stop-color="#BBB6CD"/>
<stop offset="0.859375" stop-color="#BAB6CD"/>
<stop offset="0.875" stop-color="#B9B6CD"/>
<stop offset="0.890625" stop-color="#B8B5CE"/>
<stop offset="0.90625" stop-color="#B7B5CE"/>
<stop offset="0.921875" stop-color="#B7B4CE"/>
<stop offset="0.9375" stop-color="#B6B4CE"/>
<stop offset="0.953125" stop-color="#B5B3CE"/>
<stop offset="0.96875" stop-color="#B4B3CF"/>
<stop offset="0.984375" stop-color="#B3B3CF"/>
<stop offset="1" stop-color="#B2B2CF"/>
</linearGradient>
<linearGradient id="paint6_linear_585_4041" x1="72.9589" y1="334.115" x2="72.9589" y2="424.19" gradientUnits="userSpaceOnUse">
<stop stop-color="#E7CDC3"/>
<stop offset="0.015625" stop-color="#E7CDC3"/>
<stop offset="0.03125" stop-color="#E6CCC2"/>
<stop offset="0.046875" stop-color="#E6CBC1"/>
<stop offset="0.0625" stop-color="#E5CBC0"/>
<stop offset="0.078125" stop-color="#E5CABF"/>
<stop offset="0.09375" stop-color="#E5C9BE"/>
<stop offset="0.109375" stop-color="#E4C9BD"/>
<stop offset="0.125" stop-color="#E4C8BC"/>
<stop offset="0.140625" stop-color="#E3C7BB"/>
<stop offset="0.15625" stop-color="#E3C6BA"/>
<stop offset="0.171875" stop-color="#E2C6B9"/>
<stop offset="0.1875" stop-color="#E2C5B8"/>
<stop offset="0.203125" stop-color="#E1C4B7"/>
<stop offset="0.21875" stop-color="#E1C4B6"/>
<stop offset="0.234375" stop-color="#E0C3B5"/>
<stop offset="0.25" stop-color="#E0C2B5"/>
<stop offset="0.265625" stop-color="#E0C2B4"/>
<stop offset="0.28125" stop-color="#DFC1B3"/>
<stop offset="0.296875" stop-color="#DFC0B2"/>
<stop offset="0.3125" stop-color="#DEC0B1"/>
<stop offset="0.328125" stop-color="#DEBFB0"/>
<stop offset="0.34375" stop-color="#DDBEAF"/>
<stop offset="0.359375" stop-color="#DDBEAE"/>
<stop offset="0.375" stop-color="#DCBDAD"/>
<stop offset="0.390625" stop-color="#DCBCAC"/>
<stop offset="0.40625" stop-color="#DBBBAB"/>
<stop offset="0.421875" stop-color="#DBBBAA"/>
<stop offset="0.4375" stop-color="#DBBAA9"/>
<stop offset="0.453125" stop-color="#DAB9A8"/>
<stop offset="0.46875" stop-color="#DAB9A7"/>
<stop offset="0.484375" stop-color="#D9B8A6"/>
<stop offset="0.5" stop-color="#D9B7A5"/>
<stop offset="0.515625" stop-color="#D8B7A5"/>
<stop offset="0.53125" stop-color="#D8B6A4"/>
<stop offset="0.546875" stop-color="#D7B5A3"/>
<stop offset="0.5625" stop-color="#D7B5A2"/>
<stop offset="0.578125" stop-color="#D6B4A1"/>
<stop offset="0.59375" stop-color="#D6B3A0"/>
<stop offset="0.609375" stop-color="#D6B29F"/>
<stop offset="0.625" stop-color="#D5B29E"/>
<stop offset="0.640625" stop-color="#D5B19D"/>
<stop offset="0.65625" stop-color="#D4B09C"/>
<stop offset="0.671875" stop-color="#D4B09B"/>
<stop offset="0.6875" stop-color="#D3AF9A"/>
<stop offset="0.703125" stop-color="#D3AE99"/>
<stop offset="0.71875" stop-color="#D2AE98"/>
<stop offset="0.734375" stop-color="#D2AD97"/>
<stop offset="0.75" stop-color="#D1AC96"/>
<stop offset="0.765625" stop-color="#D1AC95"/>
<stop offset="0.78125" stop-color="#D1AB95"/>
<stop offset="0.796875" stop-color="#D0AA94"/>
<stop offset="0.8125" stop-color="#D0AA93"/>
<stop offset="0.828125" stop-color="#CFA992"/>
<stop offset="0.84375" stop-color="#CFA891"/>
<stop offset="0.859375" stop-color="#CEA790"/>
<stop offset="0.875" stop-color="#CEA78F"/>
<stop offset="0.890625" stop-color="#CDA68E"/>
<stop offset="0.90625" stop-color="#CDA58D"/>
<stop offset="0.921875" stop-color="#CCA58C"/>
<stop offset="0.9375" stop-color="#CCA48B"/>
<stop offset="0.953125" stop-color="#CCA38A"/>
<stop offset="0.96875" stop-color="#CBA389"/>
<stop offset="0.984375" stop-color="#CBA288"/>
<stop offset="1" stop-color="#CAA187"/>
</linearGradient>
<linearGradient id="paint7_linear_585_4041" x1="24.3236" y1="424.246" x2="24.3236" y2="334.172" gradientUnits="userSpaceOnUse">
<stop stop-color="#CAA187"/>
<stop offset="0.015625" stop-color="#CAA187"/>
<stop offset="0.03125" stop-color="#CBA288"/>
<stop offset="0.046875" stop-color="#CBA389"/>
<stop offset="0.0625" stop-color="#CCA38A"/>
<stop offset="0.078125" stop-color="#CCA48B"/>
<stop offset="0.09375" stop-color="#CCA58C"/>
<stop offset="0.109375" stop-color="#CDA58D"/>
<stop offset="0.125" stop-color="#CDA68E"/>
<stop offset="0.140625" stop-color="#CEA78F"/>
<stop offset="0.15625" stop-color="#CEA790"/>
<stop offset="0.171875" stop-color="#CFA891"/>
<stop offset="0.1875" stop-color="#CFA992"/>
<stop offset="0.203125" stop-color="#D0AA93"/>
<stop offset="0.21875" stop-color="#D0AA94"/>
<stop offset="0.234375" stop-color="#D1AB95"/>
<stop offset="0.25" stop-color="#D1AC95"/>
<stop offset="0.265625" stop-color="#D1AC96"/>
<stop offset="0.28125" stop-color="#D2AD97"/>
<stop offset="0.296875" stop-color="#D2AE98"/>
<stop offset="0.3125" stop-color="#D3AE99"/>
<stop offset="0.328125" stop-color="#D3AF9A"/>
<stop offset="0.34375" stop-color="#D4B09B"/>
<stop offset="0.359375" stop-color="#D4B09C"/>
<stop offset="0.375" stop-color="#D5B19D"/>
<stop offset="0.390625" stop-color="#D5B29E"/>
<stop offset="0.40625" stop-color="#D6B29F"/>
<stop offset="0.421875" stop-color="#D6B3A0"/>
<stop offset="0.4375" stop-color="#D6B4A1"/>
<stop offset="0.453125" stop-color="#D7B5A2"/>
<stop offset="0.46875" stop-color="#D7B5A3"/>
<stop offset="0.484375" stop-color="#D8B6A4"/>
<stop offset="0.5" stop-color="#D8B7A4"/>
<stop offset="0.515625" stop-color="#D9B7A5"/>
<stop offset="0.53125" stop-color="#D9B8A6"/>
<stop offset="0.546875" stop-color="#DAB9A7"/>
<stop offset="0.5625" stop-color="#DAB9A8"/>
<stop offset="0.578125" stop-color="#DBBAA9"/>
<stop offset="0.59375" stop-color="#DBBBAA"/>
<stop offset="0.609375" stop-color="#DBBBAB"/>
<stop offset="0.625" stop-color="#DCBCAC"/>
<stop offset="0.640625" stop-color="#DCBDAD"/>
<stop offset="0.65625" stop-color="#DDBDAE"/>
<stop offset="0.671875" stop-color="#DDBEAF"/>
<stop offset="0.6875" stop-color="#DEBFB0"/>
<stop offset="0.703125" stop-color="#DEC0B1"/>
<stop offset="0.71875" stop-color="#DFC0B2"/>
<stop offset="0.734375" stop-color="#DFC1B3"/>
<stop offset="0.75" stop-color="#E0C2B4"/>
<stop offset="0.765625" stop-color="#E0C2B4"/>
<stop offset="0.78125" stop-color="#E0C3B5"/>
<stop offset="0.796875" stop-color="#E1C4B6"/>
<stop offset="0.8125" stop-color="#E1C4B7"/>
<stop offset="0.828125" stop-color="#E2C5B8"/>
<stop offset="0.84375" stop-color="#E2C6B9"/>
<stop offset="0.859375" stop-color="#E3C6BA"/>
<stop offset="0.875" stop-color="#E3C7BB"/>
<stop offset="0.890625" stop-color="#E4C8BC"/>
<stop offset="0.90625" stop-color="#E4C9BD"/>
<stop offset="0.921875" stop-color="#E5C9BE"/>
<stop offset="0.9375" stop-color="#E5CABF"/>
<stop offset="0.953125" stop-color="#E5CBC0"/>
<stop offset="0.96875" stop-color="#E6CBC1"/>
<stop offset="0.984375" stop-color="#E6CCC2"/>
<stop offset="1" stop-color="#E7CDC3"/>
</linearGradient>
</defs>
</svg>
