<svg viewBox="0 1.52913776 97.2 440.64799999999997" xmlns:xlink="http://www.w3.org/1999/xlink" xmlns="http://www.w3.org/2000/svg" data-name="Layer 1" id="Layer_1" style="max-height: 500px" width="97.2" height="440.64799999999997">
  <defs>
    <style>
      .cls-1 {
        fill: url(#linear-gradient-2);
      }

      .cls-2 {
        fill: #d6ba90;
      }

      .cls-3, .cls-4 {
        fill: #fff;
      }

      .cls-5 {
        mask: url(#mask-23);
      }

      .cls-6 {
        mask: url(#mask-27);
      }

      .cls-7 {
        mask: url(#mask-10);
      }

      .cls-8 {
        mask: url(#mask-26);
      }

      .cls-9 {
        fill: none;
        stroke: #fff;
        stroke-linecap: round;
        stroke-linejoin: round;
        stroke-width: 1.5px;
      }

      .cls-10 {
        mask: url(#mask-17);
      }

      .cls-4 {
        fill-rule: evenodd;
      }

      .cls-11 {
        mask: url(#mask-2);
      }

      .cls-12 {
        fill: url(#linear-gradient-6);
      }

      .cls-13 {
        mask: url(#mask-34);
      }

      .cls-14 {
        mask: url(#mask-33);
      }

      .cls-15 {
        fill: #9a9abd;
      }

      .cls-16 {
        mask: url(#mask-13);
      }

      .cls-17 {
        mask: url(#mask-3);
      }

      .cls-18 {
        fill: #f8f1e1;
      }

      .cls-19 {
        mask: url(#mask-31);
      }

      .cls-20 {
        mask: url(#mask-30);
      }

      .cls-21 {
        mask: url(#mask-32);
      }

      .cls-22 {
        mask: url(#mask-9);
      }

      .cls-23 {
        mask: url(#mask-12);
      }

      .cls-24 {
        mask: url(#mask-5);
      }

      .cls-25 {
        mask: url(#mask-36);
      }

      .cls-26 {
        mask: url(#mask-35);
      }

      .cls-27 {
        mask: url(#mask-20);
      }

      .cls-28 {
        mask: url(#mask-38);
      }

      .cls-29 {
        mask: url(#mask-25);
      }

      .cls-30 {
        mask: url(#mask-8);
      }

      .cls-31 {
        mask: url(#mask-4);
      }

      .cls-32 {
        fill: url(#linear-gradient-5);
      }

      .cls-33 {
        mask: url(#mask-24);
      }

      .cls-34 {
        mask: url(#mask-19);
      }

      .cls-35 {
        mask: url(#mask-15);
      }

      .cls-36 {
        mask: url(#mask-6);
      }

      .cls-37 {
        fill: url(#linear-gradient-7);
      }

      .cls-38 {
        mask: url(#mask-16);
      }

      .cls-39 {
        mask: url(#mask-18);
      }

      .cls-40 {
        mask: url(#mask-37);
      }

      .cls-41 {
        mask: url(#mask-1);
      }

      .cls-42 {
        mask: url(#mask);
      }

      .cls-43 {
        mask: url(#mask-22);
      }

      .cls-44 {
        fill: url(#linear-gradient-3);
      }

      .cls-45 {
        fill: #a9cfc6;
      }

      .cls-46 {
        mask: url(#mask-29);
      }

      .cls-47 {
        fill: #c2a89d;
      }

      .cls-48 {
        fill: url(#linear-gradient);
      }

      .cls-49 {
        mask: url(#mask-7);
      }

      .cls-50 {
        fill: #404040;
      }

      .cls-51 {
        mask: url(#mask-14);
      }

      .cls-52 {
        fill: url(#linear-gradient-4);
      }

      .cls-53 {
        mask: url(#mask-21);
      }

      .cls-54 {
        mask: url(#mask-11);
      }

      .cls-55 {
        mask: url(#mask-28);
      }

      .cls-56 {
        fill: url(#linear-gradient-8);
      }
    </style>
    <mask maskUnits="userSpaceOnUse" height="54.1" width="97.4" y="67.7" x="0" id="mask">
      <g data-name="mask0 1129 4" id="mask0_1129_4">
        <path d="m0,67.7h97.4v54.1H0v-54.1Z" class="cls-3"/>
      </g>
    </mask>
    <mask maskUnits="userSpaceOnUse" height="54.1" width="97.3" y="67.7" x="0" id="mask-1">
      <g data-name="mask1 1129 4" id="mask1_1129_4">
        <path d="m48.6,67.7l48.6,27-48.6,27L0,94.7l48.6-27Z" class="cls-3"/>
      </g>
    </mask>
    <mask maskUnits="userSpaceOnUse" height="54.1" width="97.4" y="149.2" x="0" id="mask-2">
      <g data-name="mask2 1129 4" id="mask2_1129_4">
        <path d="m0,149.2h97.4v54.1H0v-54.1Z" class="cls-3"/>
      </g>
    </mask>
    <mask maskUnits="userSpaceOnUse" height="54.1" width="97.3" y="149.2" x="0" id="mask-3">
      <g data-name="mask3 1129 4" id="mask3_1129_4">
        <path d="m48.6,149.2l48.6,27-48.6,27L0,176.2l48.6-27Z" class="cls-3"/>
      </g>
    </mask>
    <mask maskUnits="userSpaceOnUse" height="54.1" width="97.4" y="230.5" x="0" id="mask-4">
      <g data-name="mask4 1129 4" id="mask4_1129_4">
        <path d="m0,230.5h97.4v54.1H0v-54.1Z" class="cls-3"/>
      </g>
    </mask>
    <mask maskUnits="userSpaceOnUse" height="54.1" width="97.3" y="230.5" x="0" id="mask-5">
      <g data-name="mask5 1129 4" id="mask5_1129_4">
        <path d="m48.6,230.5l48.6,27-48.6,27L0,257.5l48.6-27Z" class="cls-3"/>
      </g>
    </mask>
    <mask maskUnits="userSpaceOnUse" height="54.1" width="97.4" y="311.7" x="0" id="mask-6">
      <g data-name="mask6 1129 4" id="mask6_1129_4">
        <path d="m0,311.7h97.4v54.1H0v-54.1Z" class="cls-3"/>
      </g>
    </mask>
    <mask maskUnits="userSpaceOnUse" height="54.1" width="97.3" y="311.7" x="0" id="mask-7">
      <g data-name="mask7 1129 4" id="mask7_1129_4">
        <path d="m48.6,311.7l48.6,27-48.6,27L0,338.8l48.6-27Z" class="cls-3"/>
      </g>
    </mask>
    <mask maskUnits="userSpaceOnUse" height="446" width="67.8" y="0" x="14.2" id="mask-8">
      <g data-name="mask8 1129 4" id="mask8_1129_4">
        <path d="m14.2,0h67.8v446H14.2V0Z" class="cls-3"/>
      </g>
    </mask>
    <mask maskUnits="userSpaceOnUse" height="90.1" width="48.7" y="94.7" x="47.9" id="mask-9">
      <g data-name="mask9 1129 4" id="mask9_1129_4">
        <path d="m48,94.7h48.6v90.1h-48.6v-90.1Z" class="cls-3"/>
      </g>
    </mask>
    <mask maskUnits="userSpaceOnUse" height="90.1" width="48.6" y="94.7" x="47.9" id="mask-10">
      <g data-name="mask10 1129 4" id="mask10_1129_4">
        <path d="m96.6,164.7v-70l-48.6,20.1v70l48.6-20.1Z" class="cls-3"/>
      </g>
    </mask>
    <linearGradient gradientUnits="userSpaceOnUse" gradientTransform="translate(0 446.3) scale(1 -1)" y2="261.5" x2="72.3" y1="351.6" x1="72.3" id="linear-gradient">
      <stop stop-color="#efd6b1" offset="0"/>
      <stop stop-color="#efd6b1" offset="0"/>
      <stop stop-color="#eed6b2" offset="0"/>
      <stop stop-color="#edd7b3" offset="0"/>
      <stop stop-color="#ecd7b3" offset="0"/>
      <stop stop-color="#ebd7b4" offset="0"/>
      <stop stop-color="#ebd7b5" offset="0"/>
      <stop stop-color="#ead8b5" offset=".1"/>
      <stop stop-color="#e9d8b6" offset=".1"/>
      <stop stop-color="#e8d8b7" offset=".1"/>
      <stop stop-color="#e8d8b7" offset=".2"/>
      <stop stop-color="#e7d9b8" offset=".2"/>
      <stop stop-color="#e6d9b9" offset=".2"/>
      <stop stop-color="#e5d9b9" offset=".2"/>
      <stop stop-color="#e5d9ba" offset=".2"/>
      <stop stop-color="#e4dabb" offset=".2"/>
      <stop stop-color="#e3dabb" offset=".2"/>
      <stop stop-color="#e2dabc" offset=".3"/>
      <stop stop-color="#e2dabd" offset=".3"/>
      <stop stop-color="#e1dbbd" offset=".3"/>
      <stop stop-color="#e0dbbe" offset=".3"/>
      <stop stop-color="#dfdbbf" offset=".3"/>
      <stop stop-color="#dedbbf" offset=".3"/>
      <stop stop-color="#dedcc0" offset=".4"/>
      <stop stop-color="#dddcc1" offset=".4"/>
      <stop stop-color="#dcdcc1" offset=".4"/>
      <stop stop-color="#dbdcc2" offset=".4"/>
      <stop stop-color="#dbddc3" offset=".4"/>
      <stop stop-color="#daddc3" offset=".4"/>
      <stop stop-color="#d9ddc4" offset=".5"/>
      <stop stop-color="#d8ddc5" offset=".5"/>
      <stop stop-color="#d8dec5" offset=".5"/>
      <stop stop-color="#d7dec6" offset=".5"/>
      <stop stop-color="#d6dec7" offset=".5"/>
      <stop stop-color="#d5dec8" offset=".5"/>
      <stop stop-color="#d5dfc8" offset=".5"/>
      <stop stop-color="#d4dfc9" offset=".6"/>
      <stop stop-color="#d3dfca" offset=".6"/>
      <stop stop-color="#d2dfca" offset=".6"/>
      <stop stop-color="#d1e0cb" offset=".6"/>
      <stop stop-color="#d1e0cc" offset=".6"/>
      <stop stop-color="#d0e0cc" offset=".6"/>
      <stop stop-color="#cfe0cd" offset=".7"/>
      <stop stop-color="#cee1ce" offset=".7"/>
      <stop stop-color="#cee1ce" offset=".7"/>
      <stop stop-color="#cde1cf" offset=".7"/>
      <stop stop-color="#cce1d0" offset=".7"/>
      <stop stop-color="#cbe2d0" offset=".7"/>
      <stop stop-color="#cbe2d1" offset=".8"/>
      <stop stop-color="#cae2d2" offset=".8"/>
      <stop stop-color="#c9e2d2" offset=".8"/>
      <stop stop-color="#c8e3d3" offset=".8"/>
      <stop stop-color="#c8e3d4" offset=".8"/>
      <stop stop-color="#c7e3d4" offset=".8"/>
      <stop stop-color="#c6e3d5" offset=".8"/>
      <stop stop-color="#c5e4d6" offset=".9"/>
      <stop stop-color="#c5e4d6" offset=".9"/>
      <stop stop-color="#c4e4d7" offset=".9"/>
      <stop stop-color="#c3e4d8" offset=".9"/>
      <stop stop-color="#c2e5d8" offset=".9"/>
      <stop stop-color="#c1e5d9" offset=".9"/>
      <stop stop-color="#c1e5da" offset="1"/>
      <stop stop-color="#c0e5da" offset="1"/>
      <stop stop-color="#bfe6db" offset="1"/>
      <stop stop-color="#bee6dc" offset="1"/>
    </linearGradient>
    <mask maskUnits="userSpaceOnUse" height="90.1" width="48.6" y="94.7" x=".6" id="mask-11">
      <g data-name="mask11 1129 4" id="mask11_1129_4">
        <path d="m.6,94.7h48.6v90.1H.6v-90.1Z" class="cls-3"/>
      </g>
    </mask>
    <mask maskUnits="userSpaceOnUse" height="90.1" width="48.6" y="94.6" x=".6" id="mask-12">
      <g data-name="mask12 1129 4" id="mask12_1129_4">
        <path d="m.6,164.7v-70l48.6,20.1v70L.6,164.7Z" class="cls-3"/>
      </g>
    </mask>
    <linearGradient gradientUnits="userSpaceOnUse" gradientTransform="translate(0 446.3) scale(1 -1)" y2="351.6" x2="24.9" y1="261.5" x1="24.9" id="linear-gradient-2">
      <stop stop-color="#bee6dc" offset="0"/>
      <stop stop-color="#bee6dc" offset="0"/>
      <stop stop-color="#bfe6db" offset="0"/>
      <stop stop-color="#c0e5da" offset="0"/>
      <stop stop-color="#c1e5da" offset="0"/>
      <stop stop-color="#c1e5d9" offset="0"/>
      <stop stop-color="#c2e5d8" offset="0"/>
      <stop stop-color="#c3e4d8" offset=".1"/>
      <stop stop-color="#c4e4d7" offset=".1"/>
      <stop stop-color="#c4e4d6" offset=".1"/>
      <stop stop-color="#c5e4d6" offset=".2"/>
      <stop stop-color="#c6e3d5" offset=".2"/>
      <stop stop-color="#c7e3d4" offset=".2"/>
      <stop stop-color="#c8e3d4" offset=".2"/>
      <stop stop-color="#c8e3d3" offset=".2"/>
      <stop stop-color="#c9e2d2" offset=".2"/>
      <stop stop-color="#cae2d2" offset=".2"/>
      <stop stop-color="#cbe2d1" offset=".3"/>
      <stop stop-color="#cbe2d0" offset=".3"/>
      <stop stop-color="#cce1d0" offset=".3"/>
      <stop stop-color="#cde1cf" offset=".3"/>
      <stop stop-color="#cee1ce" offset=".3"/>
      <stop stop-color="#cee1ce" offset=".3"/>
      <stop stop-color="#cfe0cd" offset=".4"/>
      <stop stop-color="#d0e0cc" offset=".4"/>
      <stop stop-color="#d1e0cc" offset=".4"/>
      <stop stop-color="#d1e0cb" offset=".4"/>
      <stop stop-color="#d2dfca" offset=".4"/>
      <stop stop-color="#d3dfca" offset=".4"/>
      <stop stop-color="#d4dfc9" offset=".5"/>
      <stop stop-color="#d5dfc8" offset=".5"/>
      <stop stop-color="#d5dec8" offset=".5"/>
      <stop stop-color="#d6dec7" offset=".5"/>
      <stop stop-color="#d7dec6" offset=".5"/>
      <stop stop-color="#d8dec6" offset=".5"/>
      <stop stop-color="#d8ddc5" offset=".5"/>
      <stop stop-color="#d9ddc4" offset=".6"/>
      <stop stop-color="#daddc3" offset=".6"/>
      <stop stop-color="#dbddc3" offset=".6"/>
      <stop stop-color="#dbdcc2" offset=".6"/>
      <stop stop-color="#dcdcc1" offset=".6"/>
      <stop stop-color="#dddcc1" offset=".6"/>
      <stop stop-color="#dedcc0" offset=".7"/>
      <stop stop-color="#dedbbf" offset=".7"/>
      <stop stop-color="#dfdbbf" offset=".7"/>
      <stop stop-color="#e0dbbe" offset=".7"/>
      <stop stop-color="#e1dbbd" offset=".7"/>
      <stop stop-color="#e2dabd" offset=".7"/>
      <stop stop-color="#e2dabc" offset=".8"/>
      <stop stop-color="#e3dabb" offset=".8"/>
      <stop stop-color="#e4dabb" offset=".8"/>
      <stop stop-color="#e5d9ba" offset=".8"/>
      <stop stop-color="#e5d9b9" offset=".8"/>
      <stop stop-color="#e6d9b9" offset=".8"/>
      <stop stop-color="#e7d9b8" offset=".8"/>
      <stop stop-color="#e8d8b7" offset=".9"/>
      <stop stop-color="#e8d8b7" offset=".9"/>
      <stop stop-color="#e9d8b6" offset=".9"/>
      <stop stop-color="#ead8b5" offset=".9"/>
      <stop stop-color="#ebd7b5" offset=".9"/>
      <stop stop-color="#ebd7b4" offset=".9"/>
      <stop stop-color="#ecd7b3" offset="1"/>
      <stop stop-color="#edd7b3" offset="1"/>
      <stop stop-color="#eed6b2" offset="1"/>
      <stop stop-color="#efd6b1" offset="1"/>
    </linearGradient>
    <mask maskUnits="userSpaceOnUse" height="42.6" width="42.6" y="125.3" x="27.4" id="mask-13">
      <g data-name="mask13 1129 4" id="mask13_1129_4">
        <path d="m27.4,125.3h42.6v42.6H27.4v-42.6Z" class="cls-3"/>
      </g>
    </mask>
    <mask maskUnits="userSpaceOnUse" height="42.6" width="42.6" y="125.3" x="27.4" id="mask-14">
      <g data-name="mask14 1129 4" id="mask14_1129_4">
        <path d="m48.6,125.3c-11.8,0-21.3,9.5-21.3,21.3s9.5,21.3,21.3,21.3,21.3-9.5,21.3-21.3-9.5-21.3-21.3-21.3Z" class="cls-3"/>
      </g>
    </mask>
    <mask maskUnits="userSpaceOnUse" height="47.1" width="47.1" y="201.3" x="25.1" id="mask-15">
      <g data-name="mask15 1129 4" id="mask15_1129_4">
        <path d="m25.1,201.3h47.1v47.1H25.1v-47.1Z" class="cls-3"/>
      </g>
    </mask>
    <mask maskUnits="userSpaceOnUse" height="47.1" width="47.1" y="201.3" x="25.1" id="mask-16">
      <g data-name="mask16 1129 4" id="mask16_1129_4">
        <path d="m48.6,201.3c-13,0-23.6,10.5-23.6,23.6s10.5,23.6,23.6,23.6,23.6-10.5,23.6-23.6-10.5-23.6-23.6-23.6Z" class="cls-3"/>
      </g>
    </mask>
    <mask maskUnits="userSpaceOnUse" height="90.1" width="48.7" y="176.3" x="47.9" id="mask-17">
      <g data-name="mask17 1129 4" id="mask17_1129_4">
        <path d="m48,176.3h48.6v90.1h-48.6v-90.1Z" class="cls-3"/>
      </g>
    </mask>
    <mask maskUnits="userSpaceOnUse" height="90.1" width="48.6" y="176.3" x="47.9" id="mask-18">
      <g data-name="mask18 1129 4" id="mask18_1129_4">
        <path d="m96.6,246.3v-70l-48.6,20.1v70l48.6-20.1Z" class="cls-3"/>
      </g>
    </mask>
    <linearGradient gradientUnits="userSpaceOnUse" gradientTransform="translate(0 446.3) scale(1 -1)" y2="180" x2="72.3" y1="270" x1="72.3" id="linear-gradient-3">
      <stop stop-color="#bee6dc" offset="0"/>
      <stop stop-color="#bee6dc" offset="0"/>
      <stop stop-color="#bee5dc" offset="0"/>
      <stop stop-color="#bee4dc" offset="0"/>
      <stop stop-color="#bde3db" offset="0"/>
      <stop stop-color="#bde2db" offset="0"/>
      <stop stop-color="#bde2db" offset="0"/>
      <stop stop-color="#bde1db" offset=".1"/>
      <stop stop-color="#bde0db" offset=".1"/>
      <stop stop-color="#bcdfda" offset=".1"/>
      <stop stop-color="#bcdeda" offset=".2"/>
      <stop stop-color="#bcddda" offset=".2"/>
      <stop stop-color="#bcddda" offset=".2"/>
      <stop stop-color="#bcdcda" offset=".2"/>
      <stop stop-color="#bbdbd9" offset=".2"/>
      <stop stop-color="#bbdad9" offset=".2"/>
      <stop stop-color="#bbd9d9" offset=".2"/>
      <stop stop-color="#bbd9d9" offset=".3"/>
      <stop stop-color="#bbd8d9" offset=".3"/>
      <stop stop-color="#bbd7d8" offset=".3"/>
      <stop stop-color="#bad6d8" offset=".3"/>
      <stop stop-color="#bad5d8" offset=".3"/>
      <stop stop-color="#bad5d8" offset=".3"/>
      <stop stop-color="#bad4d7" offset=".4"/>
      <stop stop-color="#bad3d7" offset=".4"/>
      <stop stop-color="#b9d2d7" offset=".4"/>
      <stop stop-color="#b9d1d7" offset=".4"/>
      <stop stop-color="#b9d0d7" offset=".4"/>
      <stop stop-color="#b9d0d6" offset=".4"/>
      <stop stop-color="#b9cfd6" offset=".5"/>
      <stop stop-color="#b8ced6" offset=".5"/>
      <stop stop-color="#b8cdd6" offset=".5"/>
      <stop stop-color="#b8ccd6" offset=".5"/>
      <stop stop-color="#b8ccd5" offset=".5"/>
      <stop stop-color="#b8cbd5" offset=".5"/>
      <stop stop-color="#b8cad5" offset=".5"/>
      <stop stop-color="#b7c9d5" offset=".6"/>
      <stop stop-color="#b7c8d5" offset=".6"/>
      <stop stop-color="#b7c8d4" offset=".6"/>
      <stop stop-color="#b7c7d4" offset=".6"/>
      <stop stop-color="#b7c6d4" offset=".6"/>
      <stop stop-color="#b6c5d4" offset=".6"/>
      <stop stop-color="#b6c4d4" offset=".7"/>
      <stop stop-color="#b6c3d3" offset=".7"/>
      <stop stop-color="#b6c3d3" offset=".7"/>
      <stop stop-color="#b6c2d3" offset=".7"/>
      <stop stop-color="#b5c1d3" offset=".7"/>
      <stop stop-color="#b5c0d3" offset=".7"/>
      <stop stop-color="#b5bfd2" offset=".8"/>
      <stop stop-color="#b5bfd2" offset=".8"/>
      <stop stop-color="#b5bed2" offset=".8"/>
      <stop stop-color="#b5bdd2" offset=".8"/>
      <stop stop-color="#b4bcd2" offset=".8"/>
      <stop stop-color="#b4bbd1" offset=".8"/>
      <stop stop-color="#b4bbd1" offset=".8"/>
      <stop stop-color="#b4bad1" offset=".9"/>
      <stop stop-color="#b4b9d1" offset=".9"/>
      <stop stop-color="#b3b8d1" offset=".9"/>
      <stop stop-color="#b3b7d0" offset=".9"/>
      <stop stop-color="#b3b6d0" offset=".9"/>
      <stop stop-color="#b3b6d0" offset=".9"/>
      <stop stop-color="#b3b5d0" offset="1"/>
      <stop stop-color="#b2b4d0" offset="1"/>
      <stop stop-color="#b2b3cf" offset="1"/>
      <stop stop-color="#b2b2cf" offset="1"/>
    </linearGradient>
    <mask maskUnits="userSpaceOnUse" height="90.1" width="48.6" y="176.3" x=".8" id="mask-19">
      <g data-name="mask19 1129 4" id="mask19_1129_4">
        <path d="m.8,176.3h48.6v90.1H.8v-90.1Z" class="cls-3"/>
      </g>
    </mask>
    <mask maskUnits="userSpaceOnUse" height="90.1" width="48.6" y="176.2" x=".8" id="mask-20">
      <g data-name="mask20 1129 4" id="mask20_1129_4">
        <path d="m.8,246.2v-70l48.6,20.1v70L.8,246.2Z" class="cls-3"/>
      </g>
    </mask>
    <linearGradient gradientUnits="userSpaceOnUse" gradientTransform="translate(0 446.3) scale(1 -1)" y2="270" x2="25.1" y1="180" x1="25.1" id="linear-gradient-4">
      <stop stop-color="#b2b2cf" offset="0"/>
      <stop stop-color="#b2b2cf" offset="0"/>
      <stop stop-color="#b2b3cf" offset="0"/>
      <stop stop-color="#b2b4d0" offset="0"/>
      <stop stop-color="#b3b5d0" offset="0"/>
      <stop stop-color="#b3b6d0" offset="0"/>
      <stop stop-color="#b3b6d0" offset="0"/>
      <stop stop-color="#b3b7d0" offset=".1"/>
      <stop stop-color="#b3b8d1" offset=".1"/>
      <stop stop-color="#b4b9d1" offset=".1"/>
      <stop stop-color="#b4bad1" offset=".2"/>
      <stop stop-color="#b4bbd1" offset=".2"/>
      <stop stop-color="#b4bbd1" offset=".2"/>
      <stop stop-color="#b4bcd2" offset=".2"/>
      <stop stop-color="#b5bdd2" offset=".2"/>
      <stop stop-color="#b5bed2" offset=".2"/>
      <stop stop-color="#b5bfd2" offset=".2"/>
      <stop stop-color="#b5bfd2" offset=".3"/>
      <stop stop-color="#b5c0d3" offset=".3"/>
      <stop stop-color="#b5c1d3" offset=".3"/>
      <stop stop-color="#b6c2d3" offset=".3"/>
      <stop stop-color="#b6c3d3" offset=".3"/>
      <stop stop-color="#b6c3d3" offset=".3"/>
      <stop stop-color="#b6c4d4" offset=".4"/>
      <stop stop-color="#b6c5d4" offset=".4"/>
      <stop stop-color="#b7c6d4" offset=".4"/>
      <stop stop-color="#b7c7d4" offset=".4"/>
      <stop stop-color="#b7c8d4" offset=".4"/>
      <stop stop-color="#b7c8d5" offset=".4"/>
      <stop stop-color="#b7c9d5" offset=".5"/>
      <stop stop-color="#b8cad5" offset=".5"/>
      <stop stop-color="#b8cbd5" offset=".5"/>
      <stop stop-color="#b8ccd5" offset=".5"/>
      <stop stop-color="#b8ccd6" offset=".5"/>
      <stop stop-color="#b8cdd6" offset=".5"/>
      <stop stop-color="#b8ced6" offset=".5"/>
      <stop stop-color="#b9cfd6" offset=".6"/>
      <stop stop-color="#b9d0d6" offset=".6"/>
      <stop stop-color="#b9d0d7" offset=".6"/>
      <stop stop-color="#b9d1d7" offset=".6"/>
      <stop stop-color="#b9d2d7" offset=".6"/>
      <stop stop-color="#bad3d7" offset=".6"/>
      <stop stop-color="#bad4d7" offset=".7"/>
      <stop stop-color="#bad5d8" offset=".7"/>
      <stop stop-color="#bad5d8" offset=".7"/>
      <stop stop-color="#bad6d8" offset=".7"/>
      <stop stop-color="#bbd7d8" offset=".7"/>
      <stop stop-color="#bbd8d8" offset=".7"/>
      <stop stop-color="#bbd9d9" offset=".8"/>
      <stop stop-color="#bbd9d9" offset=".8"/>
      <stop stop-color="#bbdad9" offset=".8"/>
      <stop stop-color="#bbdbd9" offset=".8"/>
      <stop stop-color="#bcdcda" offset=".8"/>
      <stop stop-color="#bcddda" offset=".8"/>
      <stop stop-color="#bcddda" offset=".8"/>
      <stop stop-color="#bcdeda" offset=".9"/>
      <stop stop-color="#bcdfda" offset=".9"/>
      <stop stop-color="#bde0db" offset=".9"/>
      <stop stop-color="#bde1db" offset=".9"/>
      <stop stop-color="#bde2db" offset=".9"/>
      <stop stop-color="#bde2db" offset=".9"/>
      <stop stop-color="#bde3db" offset="1"/>
      <stop stop-color="#bde4dc" offset="1"/>
      <stop stop-color="#bee5dc" offset="1"/>
      <stop stop-color="#bee6dc" offset="1"/>
    </linearGradient>
    <mask maskUnits="userSpaceOnUse" height="42.6" width="42.6" y="206.8" x="27.4" id="mask-21">
      <g data-name="mask21 1129 4" id="mask21_1129_4">
        <path d="m27.4,206.8h42.6v42.6H27.4v-42.6Z" class="cls-3"/>
      </g>
    </mask>
    <mask maskUnits="userSpaceOnUse" height="42.6" width="42.6" y="206.8" x="27.4" id="mask-22">
      <g data-name="mask22 1129 4" id="mask22_1129_4">
        <path d="m48.6,206.8c-11.8,0-21.3,9.5-21.3,21.3s9.5,21.3,21.3,21.3,21.3-9.5,21.3-21.3-9.5-21.3-21.3-21.3Z" class="cls-3"/>
      </g>
    </mask>
    <mask maskUnits="userSpaceOnUse" height="47.1" width="47.1" y="282.6" x="25.1" id="mask-23">
      <g data-name="mask23 1129 4" id="mask23_1129_4">
        <path d="m25.1,282.6h47.1v47.1H25.1v-47.1Z" class="cls-3"/>
      </g>
    </mask>
    <mask maskUnits="userSpaceOnUse" height="47.1" width="47.1" y="282.6" x="25.1" id="mask-24">
      <g data-name="mask24 1129 4" id="mask24_1129_4">
        <path d="m48.6,282.6c-13,0-23.6,10.5-23.6,23.6s10.5,23.6,23.6,23.6,23.6-10.5,23.6-23.6-10.5-23.6-23.6-23.6Z" class="cls-3"/>
      </g>
    </mask>
    <mask maskUnits="userSpaceOnUse" height="90.1" width="48.7" y="257.5" x="47.9" id="mask-25">
      <g data-name="mask25 1129 4" id="mask25_1129_4">
        <path d="m48,257.5h48.6v90.1h-48.6v-90.1Z" class="cls-3"/>
      </g>
    </mask>
    <mask maskUnits="userSpaceOnUse" height="90.1" width="48.6" y="257.5" x="47.9" id="mask-26">
      <g data-name="mask26 1129 4" id="mask26_1129_4">
        <path d="m96.6,327.5v-70l-48.6,20.1v70l48.6-20.1Z" class="cls-3"/>
      </g>
    </mask>
    <linearGradient gradientUnits="userSpaceOnUse" gradientTransform="translate(0 446.3) scale(1 -1)" y2="98.7" x2="72.3" y1="188.8" x1="72.3" id="linear-gradient-5">
      <stop stop-color="#b2b2cf" offset="0"/>
      <stop stop-color="#b2b2cf" offset="0"/>
      <stop stop-color="#b3b3cf" offset="0"/>
      <stop stop-color="#b4b3cf" offset="0"/>
      <stop stop-color="#b5b3ce" offset="0"/>
      <stop stop-color="#b6b4ce" offset="0"/>
      <stop stop-color="#b7b4ce" offset="0"/>
      <stop stop-color="#b7b5ce" offset=".1"/>
      <stop stop-color="#b8b5ce" offset=".1"/>
      <stop stop-color="#b9b6cd" offset=".1"/>
      <stop stop-color="#bab6cd" offset=".2"/>
      <stop stop-color="#bbb6cd" offset=".2"/>
      <stop stop-color="#bcb7cd" offset=".2"/>
      <stop stop-color="#bcb7cd" offset=".2"/>
      <stop stop-color="#bdb8cd" offset=".2"/>
      <stop stop-color="#beb8cc" offset=".2"/>
      <stop stop-color="#bfb9cc" offset=".2"/>
      <stop stop-color="#c0b9cc" offset=".3"/>
      <stop stop-color="#c0b9cc" offset=".3"/>
      <stop stop-color="#c1bacc" offset=".3"/>
      <stop stop-color="#c2bacb" offset=".3"/>
      <stop stop-color="#c3bbcb" offset=".3"/>
      <stop stop-color="#c4bbcb" offset=".3"/>
      <stop stop-color="#c5bbcb" offset=".4"/>
      <stop stop-color="#c5bccb" offset=".4"/>
      <stop stop-color="#c6bcca" offset=".4"/>
      <stop stop-color="#c7bdca" offset=".4"/>
      <stop stop-color="#c8bdca" offset=".4"/>
      <stop stop-color="#c9beca" offset=".4"/>
      <stop stop-color="#cabeca" offset=".5"/>
      <stop stop-color="#cabeca" offset=".5"/>
      <stop stop-color="#cbbfc9" offset=".5"/>
      <stop stop-color="#ccbfc9" offset=".5"/>
      <stop stop-color="#cdc0c9" offset=".5"/>
      <stop stop-color="#cec0c9" offset=".5"/>
      <stop stop-color="#cfc1c9" offset=".5"/>
      <stop stop-color="#cfc1c8" offset=".6"/>
      <stop stop-color="#d0c1c8" offset=".6"/>
      <stop stop-color="#d1c2c8" offset=".6"/>
      <stop stop-color="#d2c2c8" offset=".6"/>
      <stop stop-color="#d3c3c8" offset=".6"/>
      <stop stop-color="#d4c3c7" offset=".6"/>
      <stop stop-color="#d4c4c7" offset=".7"/>
      <stop stop-color="#d5c4c7" offset=".7"/>
      <stop stop-color="#d6c4c7" offset=".7"/>
      <stop stop-color="#d7c5c7" offset=".7"/>
      <stop stop-color="#d8c5c7" offset=".7"/>
      <stop stop-color="#d8c6c6" offset=".7"/>
      <stop stop-color="#d9c6c6" offset=".8"/>
      <stop stop-color="#dac6c6" offset=".8"/>
      <stop stop-color="#dbc7c6" offset=".8"/>
      <stop stop-color="#dcc7c6" offset=".8"/>
      <stop stop-color="#ddc8c5" offset=".8"/>
      <stop stop-color="#ddc8c5" offset=".8"/>
      <stop stop-color="#dec9c5" offset=".8"/>
      <stop stop-color="#dfc9c5" offset=".9"/>
      <stop stop-color="#e0c9c5" offset=".9"/>
      <stop stop-color="#e1cac4" offset=".9"/>
      <stop stop-color="#e2cac4" offset=".9"/>
      <stop stop-color="#e2cbc4" offset=".9"/>
      <stop stop-color="#e3cbc4" offset=".9"/>
      <stop stop-color="#e4ccc4" offset="1"/>
      <stop stop-color="#e5ccc4" offset="1"/>
      <stop stop-color="#e6ccc3" offset="1"/>
      <stop stop-color="#e7cdc3" offset="1"/>
    </linearGradient>
    <mask maskUnits="userSpaceOnUse" height="90.1" width="48.6" y="257.5" x=".8" id="mask-27">
      <g data-name="mask27 1129 4" id="mask27_1129_4">
        <path d="m.8,257.5h48.6v90.1H.8v-90.1Z" class="cls-3"/>
      </g>
    </mask>
    <mask maskUnits="userSpaceOnUse" height="90.1" width="48.6" y="257.4" x=".8" id="mask-28">
      <g data-name="mask28 1129 4" id="mask28_1129_4">
        <path d="m.8,327.4v-70l48.6,20.1v70L.8,327.4Z" class="cls-3"/>
      </g>
    </mask>
    <linearGradient gradientUnits="userSpaceOnUse" gradientTransform="translate(0 446.3) scale(1 -1)" y2="188.8" x2="25.1" y1="98.7" x1="25.1" id="linear-gradient-6">
      <stop stop-color="#e7cdc3" offset="0"/>
      <stop stop-color="#e7cdc3" offset="0"/>
      <stop stop-color="#e6ccc3" offset="0"/>
      <stop stop-color="#e5ccc4" offset="0"/>
      <stop stop-color="#e4ccc4" offset="0"/>
      <stop stop-color="#e3cbc4" offset="0"/>
      <stop stop-color="#e2cbc4" offset="0"/>
      <stop stop-color="#e2cac4" offset=".1"/>
      <stop stop-color="#e1cac4" offset=".1"/>
      <stop stop-color="#e0c9c5" offset=".1"/>
      <stop stop-color="#dfc9c5" offset=".2"/>
      <stop stop-color="#dec9c5" offset=".2"/>
      <stop stop-color="#dec8c5" offset=".2"/>
      <stop stop-color="#ddc8c5" offset=".2"/>
      <stop stop-color="#dcc7c6" offset=".2"/>
      <stop stop-color="#dbc7c6" offset=".2"/>
      <stop stop-color="#dac6c6" offset=".2"/>
      <stop stop-color="#d9c6c6" offset=".3"/>
      <stop stop-color="#d9c6c6" offset=".3"/>
      <stop stop-color="#d8c5c7" offset=".3"/>
      <stop stop-color="#d7c5c7" offset=".3"/>
      <stop stop-color="#d6c4c7" offset=".3"/>
      <stop stop-color="#d5c4c7" offset=".3"/>
      <stop stop-color="#d4c4c7" offset=".4"/>
      <stop stop-color="#d4c3c7" offset=".4"/>
      <stop stop-color="#d3c3c8" offset=".4"/>
      <stop stop-color="#d2c2c8" offset=".4"/>
      <stop stop-color="#d1c2c8" offset=".4"/>
      <stop stop-color="#d0c1c8" offset=".4"/>
      <stop stop-color="#cfc1c8" offset=".5"/>
      <stop stop-color="#cfc1c9" offset=".5"/>
      <stop stop-color="#cec0c9" offset=".5"/>
      <stop stop-color="#cdc0c9" offset=".5"/>
      <stop stop-color="#ccbfc9" offset=".5"/>
      <stop stop-color="#cbbfc9" offset=".5"/>
      <stop stop-color="#cabeca" offset=".5"/>
      <stop stop-color="#cabeca" offset=".6"/>
      <stop stop-color="#c9beca" offset=".6"/>
      <stop stop-color="#c8bdca" offset=".6"/>
      <stop stop-color="#c7bdca" offset=".6"/>
      <stop stop-color="#c6bcca" offset=".6"/>
      <stop stop-color="#c5bccb" offset=".6"/>
      <stop stop-color="#c5bccb" offset=".7"/>
      <stop stop-color="#c4bbcb" offset=".7"/>
      <stop stop-color="#c3bbcb" offset=".7"/>
      <stop stop-color="#c2bacb" offset=".7"/>
      <stop stop-color="#c1bacc" offset=".7"/>
      <stop stop-color="#c1b9cc" offset=".7"/>
      <stop stop-color="#c0b9cc" offset=".8"/>
      <stop stop-color="#bfb9cc" offset=".8"/>
      <stop stop-color="#beb8cc" offset=".8"/>
      <stop stop-color="#bdb8cd" offset=".8"/>
      <stop stop-color="#bcb7cd" offset=".8"/>
      <stop stop-color="#bcb7cd" offset=".8"/>
      <stop stop-color="#bbb6cd" offset=".8"/>
      <stop stop-color="#bab6cd" offset=".9"/>
      <stop stop-color="#b9b6cd" offset=".9"/>
      <stop stop-color="#b8b5ce" offset=".9"/>
      <stop stop-color="#b7b5ce" offset=".9"/>
      <stop stop-color="#b7b4ce" offset=".9"/>
      <stop stop-color="#b6b4ce" offset=".9"/>
      <stop stop-color="#b5b3ce" offset="1"/>
      <stop stop-color="#b4b3cf" offset="1"/>
      <stop stop-color="#b3b3cf" offset="1"/>
      <stop stop-color="#b2b2cf" offset="1"/>
    </linearGradient>
    <mask maskUnits="userSpaceOnUse" height="42.6" width="42.6" y="288.1" x="27.4" id="mask-29">
      <g data-name="mask29 1129 4" id="mask29_1129_4">
        <path d="m27.4,288.1h42.6v42.6H27.4v-42.6Z" class="cls-3"/>
      </g>
    </mask>
    <mask maskUnits="userSpaceOnUse" height="42.6" width="42.6" y="288.1" x="27.4" id="mask-30">
      <g data-name="mask30 1129 4" id="mask30_1129_4">
        <path d="m48.6,288.1c-11.8,0-21.3,9.5-21.3,21.3s9.5,21.3,21.3,21.3,21.3-9.5,21.3-21.3-9.5-21.3-21.3-21.3Z" class="cls-3"/>
      </g>
    </mask>
    <mask maskUnits="userSpaceOnUse" height="47.1" width="47.1" y="367.8" x="25.1" id="mask-31">
      <g data-name="mask31 1129 4" id="mask31_1129_4">
        <path d="m25.1,367.8h47.1v47.1H25.1v-47.1Z" class="cls-3"/>
      </g>
    </mask>
    <mask maskUnits="userSpaceOnUse" height="47.1" width="47.1" y="367.8" x="25.1" id="mask-32">
      <g data-name="mask32 1129 4" id="mask32_1129_4">
        <path d="m48.6,367.8c-13,0-23.6,10.5-23.6,23.6s10.5,23.6,23.6,23.6,23.6-10.5,23.6-23.6-10.5-23.6-23.6-23.6Z" class="cls-3"/>
      </g>
    </mask>
    <mask maskUnits="userSpaceOnUse" height="90.1" width="48.7" y="338.8" x="47.9" id="mask-33">
      <g data-name="mask33 1129 4" id="mask33_1129_4">
        <path d="m48,338.8h48.6v90.1h-48.6v-90.1Z" class="cls-3"/>
      </g>
    </mask>
    <mask maskUnits="userSpaceOnUse" height="90.1" width="48.6" y="338.8" x="47.9" id="mask-34">
      <g data-name="mask34 1129 4" id="mask34_1129_4">
        <path d="m96.6,408.8v-70l-48.6,20.1v70l48.6-20.1Z" class="cls-3"/>
      </g>
    </mask>
    <linearGradient gradientUnits="userSpaceOnUse" gradientTransform="translate(0 446.3) scale(1 -1)" y2="17.5" x2="72.3" y1="107.5" x1="72.3" id="linear-gradient-7">
      <stop stop-color="#e7cdc3" offset="0"/>
      <stop stop-color="#e7cdc3" offset="0"/>
      <stop stop-color="#e6ccc2" offset="0"/>
      <stop stop-color="#e6cbc1" offset="0"/>
      <stop stop-color="#e5cbc0" offset="0"/>
      <stop stop-color="#e5cabf" offset="0"/>
      <stop stop-color="#e5c9be" offset="0"/>
      <stop stop-color="#e4c9bd" offset=".1"/>
      <stop stop-color="#e4c8bc" offset=".1"/>
      <stop stop-color="#e3c7bb" offset=".1"/>
      <stop stop-color="#e3c6ba" offset=".2"/>
      <stop stop-color="#e2c6b9" offset=".2"/>
      <stop stop-color="#e2c5b8" offset=".2"/>
      <stop stop-color="#e1c4b7" offset=".2"/>
      <stop stop-color="#e1c4b6" offset=".2"/>
      <stop stop-color="#e0c3b5" offset=".2"/>
      <stop stop-color="#e0c2b5" offset=".2"/>
      <stop stop-color="#e0c2b4" offset=".3"/>
      <stop stop-color="#dfc1b3" offset=".3"/>
      <stop stop-color="#dfc0b2" offset=".3"/>
      <stop stop-color="#dec0b1" offset=".3"/>
      <stop stop-color="#debfb0" offset=".3"/>
      <stop stop-color="#ddbeaf" offset=".3"/>
      <stop stop-color="#ddbeae" offset=".4"/>
      <stop stop-color="#dcbdad" offset=".4"/>
      <stop stop-color="#dcbcac" offset=".4"/>
      <stop stop-color="#dbbbab" offset=".4"/>
      <stop stop-color="#dbbbaa" offset=".4"/>
      <stop stop-color="#dbbaa9" offset=".4"/>
      <stop stop-color="#dab9a8" offset=".5"/>
      <stop stop-color="#dab9a7" offset=".5"/>
      <stop stop-color="#d9b8a6" offset=".5"/>
      <stop stop-color="#d9b7a5" offset=".5"/>
      <stop stop-color="#d8b7a5" offset=".5"/>
      <stop stop-color="#d8b6a4" offset=".5"/>
      <stop stop-color="#d7b5a3" offset=".5"/>
      <stop stop-color="#d7b5a2" offset=".6"/>
      <stop stop-color="#d6b4a1" offset=".6"/>
      <stop stop-color="#d6b3a0" offset=".6"/>
      <stop stop-color="#d6b29f" offset=".6"/>
      <stop stop-color="#d5b29e" offset=".6"/>
      <stop stop-color="#d5b19d" offset=".6"/>
      <stop stop-color="#d4b09c" offset=".7"/>
      <stop stop-color="#d4b09b" offset=".7"/>
      <stop stop-color="#d3af9a" offset=".7"/>
      <stop stop-color="#d3ae99" offset=".7"/>
      <stop stop-color="#d2ae98" offset=".7"/>
      <stop stop-color="#d2ad97" offset=".7"/>
      <stop stop-color="#d1ac96" offset=".8"/>
      <stop stop-color="#d1ac95" offset=".8"/>
      <stop stop-color="#d1ab95" offset=".8"/>
      <stop stop-color="#d0aa94" offset=".8"/>
      <stop stop-color="#d0aa93" offset=".8"/>
      <stop stop-color="#cfa992" offset=".8"/>
      <stop stop-color="#cfa891" offset=".8"/>
      <stop stop-color="#cea790" offset=".9"/>
      <stop stop-color="#cea78f" offset=".9"/>
      <stop stop-color="#cda68e" offset=".9"/>
      <stop stop-color="#cda58d" offset=".9"/>
      <stop stop-color="#cca58c" offset=".9"/>
      <stop stop-color="#cca48b" offset=".9"/>
      <stop stop-color="#cca38a" offset="1"/>
      <stop stop-color="#cba389" offset="1"/>
      <stop stop-color="#cba288" offset="1"/>
      <stop stop-color="#caa187" offset="1"/>
    </linearGradient>
    <mask maskUnits="userSpaceOnUse" height="90.1" width="48.6" y="338.8" x=".8" id="mask-35">
      <g data-name="mask35 1129 4" id="mask35_1129_4">
        <path d="m.8,338.8h48.6v90.1H.8v-90.1Z" class="cls-3"/>
      </g>
    </mask>
    <mask maskUnits="userSpaceOnUse" height="90.1" width="48.6" y="338.8" x=".8" id="mask-36">
      <g data-name="mask36 1129 4" id="mask36_1129_4">
        <path d="m.8,408.8v-70l48.6,20.1v70L.8,408.8Z" class="cls-3"/>
      </g>
    </mask>
    <linearGradient gradientUnits="userSpaceOnUse" gradientTransform="translate(0 446.3) scale(1 -1)" y2="107.5" x2="25.1" y1="17.4" x1="25.1" id="linear-gradient-8">
      <stop stop-color="#caa187" offset="0"/>
      <stop stop-color="#caa187" offset="0"/>
      <stop stop-color="#cba288" offset="0"/>
      <stop stop-color="#cba389" offset="0"/>
      <stop stop-color="#cca38a" offset="0"/>
      <stop stop-color="#cca48b" offset="0"/>
      <stop stop-color="#cca58c" offset="0"/>
      <stop stop-color="#cda58d" offset=".1"/>
      <stop stop-color="#cda68e" offset=".1"/>
      <stop stop-color="#cea78f" offset=".1"/>
      <stop stop-color="#cea790" offset=".2"/>
      <stop stop-color="#cfa891" offset=".2"/>
      <stop stop-color="#cfa992" offset=".2"/>
      <stop stop-color="#d0aa93" offset=".2"/>
      <stop stop-color="#d0aa94" offset=".2"/>
      <stop stop-color="#d1ab95" offset=".2"/>
      <stop stop-color="#d1ac95" offset=".2"/>
      <stop stop-color="#d1ac96" offset=".3"/>
      <stop stop-color="#d2ad97" offset=".3"/>
      <stop stop-color="#d2ae98" offset=".3"/>
      <stop stop-color="#d3ae99" offset=".3"/>
      <stop stop-color="#d3af9a" offset=".3"/>
      <stop stop-color="#d4b09b" offset=".3"/>
      <stop stop-color="#d4b09c" offset=".4"/>
      <stop stop-color="#d5b19d" offset=".4"/>
      <stop stop-color="#d5b29e" offset=".4"/>
      <stop stop-color="#d6b29f" offset=".4"/>
      <stop stop-color="#d6b3a0" offset=".4"/>
      <stop stop-color="#d6b4a1" offset=".4"/>
      <stop stop-color="#d7b5a2" offset=".5"/>
      <stop stop-color="#d7b5a3" offset=".5"/>
      <stop stop-color="#d8b6a4" offset=".5"/>
      <stop stop-color="#d8b7a4" offset=".5"/>
      <stop stop-color="#d9b7a5" offset=".5"/>
      <stop stop-color="#d9b8a6" offset=".5"/>
      <stop stop-color="#dab9a7" offset=".5"/>
      <stop stop-color="#dab9a8" offset=".6"/>
      <stop stop-color="#dbbaa9" offset=".6"/>
      <stop stop-color="#dbbbaa" offset=".6"/>
      <stop stop-color="#dbbbab" offset=".6"/>
      <stop stop-color="#dcbcac" offset=".6"/>
      <stop stop-color="#dcbdad" offset=".6"/>
      <stop stop-color="#ddbdae" offset=".7"/>
      <stop stop-color="#ddbeaf" offset=".7"/>
      <stop stop-color="#debfb0" offset=".7"/>
      <stop stop-color="#dec0b1" offset=".7"/>
      <stop stop-color="#dfc0b2" offset=".7"/>
      <stop stop-color="#dfc1b3" offset=".7"/>
      <stop stop-color="#e0c2b4" offset=".8"/>
      <stop stop-color="#e0c2b4" offset=".8"/>
      <stop stop-color="#e0c3b5" offset=".8"/>
      <stop stop-color="#e1c4b6" offset=".8"/>
      <stop stop-color="#e1c4b7" offset=".8"/>
      <stop stop-color="#e2c5b8" offset=".8"/>
      <stop stop-color="#e2c6b9" offset=".8"/>
      <stop stop-color="#e3c6ba" offset=".9"/>
      <stop stop-color="#e3c7bb" offset=".9"/>
      <stop stop-color="#e4c8bc" offset=".9"/>
      <stop stop-color="#e4c9bd" offset=".9"/>
      <stop stop-color="#e5c9be" offset=".9"/>
      <stop stop-color="#e5cabf" offset=".9"/>
      <stop stop-color="#e5cbc0" offset="1"/>
      <stop stop-color="#e6cbc1" offset="1"/>
      <stop stop-color="#e6ccc2" offset="1"/>
      <stop stop-color="#e7cdc3" offset="1"/>
    </linearGradient>
    <mask maskUnits="userSpaceOnUse" height="42.6" width="42.6" y="369.4" x="27.4" id="mask-37">
      <g data-name="mask37 1129 4" id="mask37_1129_4">
        <path d="m27.4,369.4h42.6v42.6H27.4v-42.6Z" class="cls-3"/>
      </g>
    </mask>
    <mask maskUnits="userSpaceOnUse" height="42.6" width="42.6" y="369.4" x="27.4" id="mask-38">
      <g data-name="mask38 1129 4" id="mask38_1129_4">
        <path d="m48.6,369.4c-11.8,0-21.3,9.5-21.3,21.3s9.5,21.3,21.3,21.3,21.3-9.5,21.3-21.3-9.5-21.3-21.3-21.3Z" class="cls-3"/>
      </g>
    </mask>
  </defs>
  <g class="cls-42">
    <g class="cls-41">
      <path d="m0,67.7h97.2v54.1H0v-54.1Z" class="cls-2"/>
    </g>
  </g>
  <g class="cls-11">
    <g class="cls-17">
      <path d="m0,149.2h97.2v54.1H0v-54.1Z" class="cls-45"/>
    </g>
  </g>
  <g class="cls-31">
    <g class="cls-24">
      <path d="m0,230.5h97.2v54.1H0v-54.1Z" class="cls-15"/>
    </g>
  </g>
  <g class="cls-36">
    <g class="cls-49">
      <path d="m0,311.7h97.2v54.1H0v-54.1Z" class="cls-47"/>
    </g>
  </g>
  <g class="cls-30">
    <path d="m14.3,0h67.3v446H14.3V0Z" class="cls-18"/>
  </g>
  <g class="cls-22">
    <g class="cls-7">
      <path d="m96.6,94.7h-48.6v90.1h48.6v-90.1Z" class="cls-48"/>
    </g>
  </g>
  <g class="cls-54">
    <g class="cls-23">
      <path d="m.6,184.8h48.6v-90.1H.6v90.1Z" class="cls-1"/>
    </g>
  </g>
  <g class="cls-16">
    <g class="cls-51">
      <path d="m27.4,125.3h42.6v42.6H27.4v-42.6Z" class="cls-50"/>
    </g>
  </g>
  <g class="cls-35">
    <g class="cls-38">
      <path d="m25.1,201.3h47.1v47.1H25.1v-47.1Z" class="cls-3"/>
    </g>
  </g>
  <g class="cls-10">
    <g class="cls-39">
      <path d="m96.6,176.3h-48.6v90.1h48.6v-90.1Z" class="cls-44"/>
    </g>
  </g>
  <g class="cls-34">
    <g class="cls-27">
      <path d="m.8,266.4h48.6v-90.1H.8v90.1Z" class="cls-52"/>
    </g>
  </g>
  <g class="cls-53">
    <g class="cls-43">
      <path d="m27.4,206.8h42.6v42.6H27.4v-42.6Z" class="cls-50"/>
    </g>
  </g>
  <g class="cls-5">
    <g class="cls-33">
      <path d="m25.1,282.6h47.1v47.1H25.1v-47.1Z" class="cls-3"/>
    </g>
  </g>
  <g class="cls-29">
    <g class="cls-8">
      <path d="m96.6,257.5h-48.6v90.1h48.6v-90.1Z" class="cls-32"/>
    </g>
  </g>
  <g class="cls-6">
    <g class="cls-55">
      <path d="m.8,347.6h48.6v-90.1H.8v90.1Z" class="cls-12"/>
    </g>
  </g>
  <g class="cls-46">
    <g class="cls-20">
      <path d="m27.4,288.1h42.6v42.6H27.4v-42.6Z" class="cls-50"/>
    </g>
  </g>
  <g class="cls-19">
    <g class="cls-21">
      <path d="m25.1,367.8h47.1v47.1H25.1v-47.1Z" class="cls-3"/>
    </g>
  </g>
  <g class="cls-14">
    <g class="cls-13">
      <path d="m96.6,338.8h-48.6v90.1h48.6v-90.1Z" class="cls-37"/>
    </g>
  </g>
  <g class="cls-26">
    <g class="cls-25">
      <path d="m.8,428.9h48.6v-90.1H.8v90.1Z" class="cls-56"/>
    </g>
  </g>
  <g class="cls-40">
    <g class="cls-28">
      <g>
        <path d="m27.4,369.4h42.6v42.6H27.4v-42.6Z" class="cls-50"/>
        <path d="m47.4,388.9c-.6-.4-1.1-.9-1.4-1.6-.3-.7-.3-1.4-.1-2.2.2-.7.6-1.3,1.1-1.8.6-.5,1.2-.7,1.9-.7s1.4.2,1.9.7c.6.5,1,1.1,1.1,1.8.2.7.1,1.5-.1,2.2-.3.7-.7,1.3-1.4,1.6v5.5h-3.2v-5.5Zm-4.8,6.3h12.8c.4,0,.8.2,1.1.5.3.3.5.7.5,1.2v1.7h-16v-1.7c0-.4.2-.9.5-1.2.3-.3.7-.5,1.1-.5Z" class="cls-3"/>
      </g>
    </g>
  </g>
  <path d="m48,155.7h-1.4c-3.6,0-5.4,0-6.5-1.1-1.1-1.1-1.1-3-1.1-6.6s0-5.5,1.1-6.6c1.1-1.1,2.9-1.1,6.5-1.1h3.8c3.6,0,5.4,0,6.5,1.1.9.9,1.1,2.2,1.1,4.4" class="cls-9"/>
  <path d="m53,140.2v-.3c-.6-1.5-.8-2.3-1.4-2.8-.6-.4-1.4-.4-2.9-.4h-.3c-1.6,0-2.3,0-2.9.4-.6.4-.8,1.2-1.3,2.8v.3m10,7.8c.2-.2.3-.3.4-.3s.2,0,.4.3l.7.7c0,0,.1.1.2.1,0,0,.1,0,.2,0h1c.2,0,.4,0,.5,0,0,0,.1.2.1.4v1c.1.1.2.2.2.2,0,0,0,0,.2.2l.8.6c.2.2.3.2.3.3,0,.1,0,.2-.2.4l-.5.8c0,0,0,.1-.1.2,0,0,0,.1,0,.2l.2,1c0,.2,0,.4,0,.5,0,0-.2.1-.4.2l-.9.3c-.1,0-.2,0-.2,0,0,0,0,0-.1.2l-.5.9c-.1.2-.2.3-.3.4s-.2,0-.5-.1l-.9-.4c-.1,0-.2,0-.2,0s-.1,0-.2,0l-.9.4c-.2,0-.3.1-.5.1s-.2-.1-.3-.4l-.5-.9c0-.1,0-.2-.1-.2,0,0,0,0-.2,0l-.9-.3c-.2,0-.3-.1-.4-.2,0,0,0-.2,0-.5l.2-1c0-.1,0-.2,0-.2,0,0,0-.1-.1-.2l-.5-.8c-.1-.2-.2-.3-.2-.4,0-.1.1-.2.3-.3l.8-.6c0,0,.1-.1.2-.2,0,0,0-.1,0-.2v-1c.2-.2.2-.4.3-.4,0,0,.2,0,.5,0h1c.1,0,.2,0,.2,0,0,0,0,0,.2-.1l.7-.7Z" class="cls-9"/>
  <path d="m49,311.5c0,.2-.1.4-.2.6,0,.2,0,.4-.1.6h-5.4v-1.2h5.7Zm-5.7,3.6v-1.2h5.4c0,.2,0,.4.1.6,0,.2.1.4.2.6h-5.8Zm-1.1,2.4h11.9l1.1,1.2h-14.2v-19h9.9l4.9,5.1v5.3c-.2-.2-.4-.3-.5-.4s-.4-.2-.6-.3v-3.6h-4.5v-4.8h-7.9v16.6Zm9.1-15.8v2.7h2.6l-2.6-2.7Zm.2,7.5c-.6.3-1.2.6-1.7,1.2h-6.5v-1.2h8.1Zm-8.1-4.8h5.7v1.2h-5.7v-1.2Zm10.2,2.4v1.2h-10.2v-1.2h10.2Zm4.5,11.3c0,.2,0,.3-.2.4-.1.1-.2.2-.4.2s-.3,0-.4-.2l-2.6-2.7c-.2.2-.5.3-.7.4-.3,0-.5.1-.8.1-.4,0-.8,0-1.1-.2-.3-.2-.6-.4-.9-.6-.3-.3-.5-.6-.6-.9-.1-.4-.2-.8-.2-1.2s0-.8.2-1.1c.1-.4.3-.7.6-.9.3-.3.6-.5.9-.6.3-.2.7-.2,1.1-.2s.8,0,1.1.2c.3.2.6.4.9.6.3.3.5.6.6.9.2.4.2.7.2,1.1s0,.6-.1.9c0,.3-.2.5-.4.8l2.6,2.7c.1.1.2.3.2.4Zm-6.8-4.8c0,.2,0,.5.1.7,0,.2.2.4.4.6.2.2.3.3.5.4.2,0,.4.1.7.1s.5,0,.7-.1c.2,0,.4-.2.5-.4.2-.2.3-.3.4-.6,0-.2.1-.4.1-.7s0-.5-.1-.7c0-.2-.2-.4-.4-.6-.2-.2-.3-.3-.5-.4-.2,0-.4-.1-.7-.1s-.5,0-.7.1c-.2,0-.4.2-.5.4-.2.2-.3.3-.4.6,0,.2-.1.4-.1.7Z" class="cls-3"/>
  <path d="m51,217.7v5.5c0,.4.2.8.4,1.1.3.3.7.4,1.1.4h5.5v7c0,.5-.2,1-.6,1.4s-.9.6-1.4.6h-2v2c0,.5-.2,1-.6,1.4s-.9.6-1.4.6h-9c-.5,0-1-.2-1.4-.6s-.6-.9-.6-1.4v-12c0-.5.2-1,.6-1.4s.9-.6,1.4-.6h2v-2c0-.5.2-1,.6-1.4s.9-.6,1.4-.6h4Zm-6,6h-2v12h9v-2h-5c-.5,0-1-.2-1.4-.6s-.6-.9-.6-1.4v-8Zm8-6c.4,0,.7.3,1,.5l3.4,3.4c.3.3.5.6.5,1h-5v-5Z" class="cls-4"/>
</svg>